<svg width="221" height="247" viewBox="0 0 221 247" fill="none" xmlns="http://www.w3.org/2000/svg">
<path d="M106.9 54.9016C117.8 55.3016 128.8 54.0016 139.7 52.8016C145.1 52.1016 150.6 51.4016 155.9 50.2016L159.9 49.2016L160.9 48.9016L161.3 48.7016H161.4C161.4 48.6884 161.403 48.6754 161.408 48.6633C161.413 48.6512 161.42 48.6401 161.43 48.6309C161.439 48.6216 161.45 48.6142 161.462 48.6092C161.474 48.6042 161.487 48.6016 161.5 48.6016H161.6C161.596 48.6557 161.602 48.7103 161.619 48.7619C161.637 48.8135 161.664 48.861 161.7 48.9016C161.684 49.5698 161.717 50.2383 161.8 50.9016L162.2 59.1016L162.5 63.3016C162.5 63.9016 162.6 64.6016 162.6 65.3016C162.604 65.4963 162.561 65.6891 162.474 65.8634C162.387 66.0376 162.259 66.188 162.1 66.3016L161.1 66.7016C158.4 67.3016 155.8 68.0016 153 68.5016C152.316 68.6897 151.599 68.7238 150.9 68.6016C150.24 68.3915 149.628 68.0515 149.1 67.6016L147.7 66.1016C147.201 65.6142 146.627 65.2092 146 64.9016C145.404 64.6309 144.756 64.4908 144.1 64.4908C143.445 64.4908 142.797 64.6309 142.2 64.9016C140.932 65.4378 139.828 66.3003 139 67.4016L137.8 69.0016C137.404 69.5958 136.895 70.1057 136.3 70.5016C135.657 70.7497 134.985 70.9177 134.3 71.0016L132.2 71.2016C129.5 71.5016 126.7 71.6016 124 71.7016C118.497 72.0346 112.974 71.8672 107.5 71.2016C110.225 71.482 112.962 71.6155 115.7 71.6016C118.5 71.7016 121.2 71.6016 124 71.5016L132.2 70.9016L134.2 70.7016C134.857 70.6423 135.499 70.4733 136.1 70.2016C137.3 69.6016 137.9 68.2016 138.8 67.2016C139.638 66.0458 140.781 65.1456 142.1 64.6016C142.745 64.2999 143.451 64.152 144.162 64.1694C144.874 64.1867 145.571 64.3689 146.2 64.7016C146.827 65.0092 147.401 65.4142 147.9 65.9016C148.342 66.3929 148.809 66.8602 149.3 67.3016C149.752 67.8004 150.345 68.1493 151 68.3016C151.668 68.3657 152.342 68.332 153 68.2016L161 66.5016C161.33 66.4497 161.641 66.3117 161.9 66.1016C162.031 66.0146 162.137 65.8951 162.207 65.7548C162.277 65.6145 162.309 65.4582 162.3 65.3016C162.351 64.6359 162.351 63.9673 162.3 63.3016L162.1 59.2016L161.7 50.9016C161.6 50.3016 161.6 49.6016 161.5 48.9016V48.7016C161.5 48.8016 161.4 48.8016 161.4 48.9016L160.9 49.1016L159.9 49.4016L155.9 50.4016C150.6 51.6016 145.1 52.4016 139.7 53.1016C134.3 53.8016 128.8 54.4016 123.3 54.8016C117.844 55.2174 112.366 55.2842 106.9 55.0016V54.9016Z" fill="#386EE8"/>
<path d="M96.1995 60.5984C96.1995 59.2984 95.9995 57.9984 95.9995 56.6984C95.8986 56.0691 95.8986 55.4277 95.9995 54.7984C96.0135 54.6094 96.0761 54.4273 96.1812 54.2696C96.2864 54.1119 96.4305 53.9841 96.5995 53.8984H97.5995C100.154 54.2142 102.725 54.3812 105.3 54.3984H106.7C106.806 54.3984 106.907 54.4406 106.982 54.5156C107.057 54.5906 107.1 54.6923 107.1 54.7984C107.25 55.4567 107.25 56.1402 107.1 56.7984C107.104 56.8526 107.098 56.9072 107.08 56.9587C107.063 57.0103 107.036 57.0578 107 57.0984H101.4C100.777 57.1717 100.17 57.3403 99.5995 57.5984C99.3642 57.7743 99.1705 58 99.0322 58.2592C98.894 58.5185 98.8145 58.805 98.7995 59.0984C98.6837 59.7256 98.6168 60.3609 98.5995 60.9984C98.5003 60.369 98.5003 59.7279 98.5995 59.0984C98.6272 58.7585 98.6943 58.4229 98.7995 58.0984C98.9793 57.817 99.2181 57.5782 99.4995 57.3984C100.686 56.8386 101.988 56.5646 103.3 56.5984H106.7C106.8 56.4984 106.8 56.5984 106.8 56.3984C106.932 55.808 106.965 55.1998 106.9 54.5984C106.8 54.3984 106.8 54.2984 106.7 54.2984H101.4L97.5995 54.0984H96.6995C96.4995 54.1984 96.3995 54.4984 96.2995 54.6984C96.2164 55.3282 96.1829 55.9634 96.1995 56.5984C96.1995 57.8984 96.2995 59.1984 96.2995 60.4984L96.1995 60.5984Z" fill="#386EE8"/>
<path d="M105.3 69.3008C105.2 68.2008 105.1 67.2008 105.1 66.1008C105.133 65.0634 105.066 64.0253 104.9 63.0008C104.6 60.9008 104.3 58.9008 103.9 56.8008C104.35 57.7847 104.653 58.8291 104.8 59.9008C105.004 60.9214 105.105 61.96 105.1 63.0008C105.101 64.0413 105.202 65.0794 105.4 66.1008C105.4 67.2008 105.4 68.2008 105.3 69.3008Z" fill="#386EE8"/>
<path d="M106.3 69.3008C106.2 68.2008 106.1 67.2008 106.1 66.1008C106.133 65.0634 106.066 64.0253 105.9 63.0008L105.5 59.9008C105.358 58.8571 105.158 57.8222 104.9 56.8008C105.395 57.7317 105.701 58.7512 105.8 59.8008C106.004 60.8552 106.104 61.9269 106.1 63.0008C106.1 64.0008 106.3 65.0008 106.4 66.1008C106.5 67.1651 106.5 68.2365 106.4 69.3008H106.3Z" fill="#386EE8"/>
<path d="M99.3008 61.4009C99.9655 61.1236 100.681 60.9874 101.401 61.0009C101.766 60.9977 102.12 61.1279 102.397 61.3673C102.673 61.6067 102.852 61.9387 102.901 62.3009C102.991 62.6853 102.927 63.09 102.721 63.4269C102.515 63.7639 102.184 64.0061 101.801 64.1009C101.116 64.2827 100.4 64.3168 99.7008 64.2009L101.701 63.8009C101.991 63.6983 102.243 63.509 102.421 63.2585C102.6 63.0081 102.698 62.7087 102.701 62.4009C102.717 62.2291 102.689 62.056 102.619 61.8983C102.549 61.7405 102.439 61.6037 102.301 61.5009C102.178 61.3978 102.032 61.3258 101.875 61.291C101.719 61.2562 101.556 61.2596 101.401 61.3009L99.3008 61.4009Z" fill="#386EE8"/>
<path d="M99.3014 65.1016C99.3541 65.8959 99.6316 66.6589 100.101 67.3016L101.101 67.8016L102.201 68.2016C103.7 68.8146 105.286 69.1859 106.901 69.3016C107.011 69.3237 107.113 69.3715 107.2 69.441C107.287 69.5106 107.356 69.5999 107.401 69.7016C107.482 69.8908 107.516 70.0965 107.501 70.3016V71.3016C107.501 71.4016 107.501 71.5016 107.301 71.7016H104.801L102.401 71.3016L100.201 70.3016L102.501 71.0016L104.901 71.3016L106.101 71.5016H107.201V70.5016C107.101 70.1016 107.101 69.6016 106.701 69.6016L102.001 68.6016C101.189 68.4801 100.427 68.1337 99.8014 67.6016C99.3159 66.9013 99.1025 66.0479 99.2014 65.2016L99.3014 65.1016Z" fill="#386EE8"/>
<path d="M98.7012 69.7016C98.3777 69.6949 98.064 69.5903 97.8012 69.4016C97.5348 69.2813 97.3214 69.068 97.2012 68.8016C96.8872 68.2891 96.7146 67.7025 96.7012 67.1016L97.1012 67.9016L97.4012 68.6016C97.5753 68.8258 97.7769 69.0274 98.0012 69.2016L98.7012 69.7016Z" fill="#386EE8"/>
<path d="M108.1 56.4992L114.4 56.1992H120.6C118.5 56.3992 116.5 56.4992 114.4 56.4992C112.3 56.4992 110.2 56.5992 108.1 56.4992Z" fill="#386EE8"/>
<path d="M123.6 56.0016L126.6 55.6016H129.6C128.618 55.8649 127.613 56.0324 126.6 56.1016C125.6 56.0016 124.6 56.1016 123.6 56.0016Z" fill="#386EE8"/>
<path d="M133.201 55.0008C135.086 54.6362 136.989 54.3692 138.901 54.2008C140.759 53.968 142.629 53.8345 144.501 53.8008L138.901 54.5008L133.201 55.0008Z" fill="#386EE8"/>
<path d="M146.1 53.4984L149.2 52.7984L152.3 52.3984L149.2 53.0984L146.1 53.4984Z" fill="#386EE8"/>
<path d="M154.6 51.8C155.5 51.4 156.4 51.3 157.2 51L159.9 50.5C159.055 50.8596 158.186 51.1603 157.3 51.4L154.6 51.8Z" fill="#386EE8"/>
<path d="M155.6 47.3984L157.1 47.5984L158.5 47.9984C159.498 47.9953 160.485 48.1996 161.4 48.5984C160.402 48.6015 159.415 48.3972 158.5 47.9984L157 47.7984L155.5 47.3984H155.6Z" fill="#386EE8"/>
<path d="M155.201 48.4008H156.401C156.749 48.5602 157.121 48.6616 157.501 48.7008C158.298 48.6652 159.091 48.8375 159.801 49.2008C159.022 49.2567 158.24 49.1546 157.501 48.9008C157.124 48.7363 156.712 48.6676 156.301 48.7008L155.201 48.3008V48.4008Z" fill="#386EE8"/>
<path d="M149.2 27.3984C150.383 29.0649 151.263 30.9266 151.8 32.8984C152.213 34.9059 152.782 36.8785 153.5 38.7984C154.449 40.5972 155.155 42.514 155.6 44.4984C155.799 45.5221 155.799 46.5747 155.6 47.5984C155.5 48.5984 155 49.4984 154.9 50.5984H154.8C154.932 49.5861 155.132 48.5838 155.4 47.5984C155.517 46.5991 155.484 45.5877 155.3 44.5984C154.784 42.6164 154.115 40.6773 153.3 38.7984L151.5 32.9984C150.95 31.034 150.143 29.151 149.1 27.3984H149.2Z" fill="#386EE8"/>
<path d="M145.4 64.5C145.678 64.8562 145.882 65.2641 146 65.7C146.078 66.1624 146.248 66.6045 146.5 67C146.952 67.7454 147.289 68.5544 147.5 69.4C146.908 68.7113 146.496 67.8868 146.3 67C146.182 66.5641 145.978 66.1562 145.7 65.8C145.543 65.382 145.442 64.9448 145.4 64.5Z" fill="#386EE8"/>
<path d="M145.801 69.1984C146.315 69.1074 146.843 69.1518 147.334 69.3271C147.825 69.5025 148.262 69.8028 148.601 70.1984C148.845 70.6363 148.997 71.1191 149.049 71.6176C149.1 72.1161 149.05 72.6199 148.901 73.0984C148.891 73.3681 148.823 73.6324 148.702 73.8738C148.581 74.1152 148.411 74.3282 148.201 74.4984C147.725 74.694 147.216 74.7958 146.701 74.7984C145.691 74.8971 144.672 74.7951 143.701 74.4984H143.801C144.765 74.5988 145.737 74.5988 146.701 74.4984C147.144 74.4462 147.58 74.3456 148.001 74.1984C148.198 74.0856 148.365 73.9265 148.487 73.7349C148.609 73.5432 148.682 73.3248 148.701 73.0984C148.913 72.6643 148.983 72.1745 148.901 71.6984C148.852 71.2103 148.641 70.7527 148.301 70.3984C148.002 70.0549 147.634 69.779 147.22 69.5894C146.806 69.3997 146.356 69.3005 145.901 69.2984L145.801 69.1984Z" fill="#386EE8"/>
<path d="M142 74.1006L141.2 74.4006H140.9L140.5 74.6006C140.5 74.523 140.518 74.4464 140.553 74.377C140.588 74.3076 140.638 74.2472 140.7 74.2006L141.1 74.0006C141.404 73.983 141.708 74.0168 142 74.1006Z" fill="#386EE8"/>
<path d="M137.1 73.3008L137.6 74.4008L138.1 75.5008C137.758 75.2772 137.482 74.9665 137.3 74.6008C137.185 74.1762 137.118 73.7402 137.1 73.3008Z" fill="#386EE8"/>
<path d="M155.8 67.6016C156.236 68.4253 156.572 69.2982 156.8 70.2016C157.048 71.079 157.149 71.9912 157.1 72.9016L156.8 78.5016C156.4 82.2016 156.1 85.9016 155.5 89.5016L156.3 89.9016C156.389 89.9525 156.463 90.0252 156.515 90.1127C156.568 90.2002 156.597 90.2996 156.6 90.4016C156.6 90.5016 156.6 90.6016 156.5 90.6016L156.3 90.8016L155.2 92.2016L152.7 94.9016C152.33 95.3969 151.8 95.7499 151.2 95.9016C150.898 95.9407 150.59 95.9164 150.298 95.8303C150.005 95.7442 149.734 95.5982 149.5 95.4016C149.019 95.0196 148.582 94.5834 148.2 94.1016C148.118 93.99 148.013 93.8968 147.892 93.8279C147.772 93.759 147.638 93.716 147.5 93.7016H146.6L139.4 93.9016C138.8 93.9016 138.1 94.0016 137.9 94.5016C137.627 95.07 137.291 95.6065 136.9 96.1016C136.554 96.5813 136.151 97.0178 135.7 97.4016C135.21 97.8063 134.625 98.0814 134 98.2016C132.789 98.1331 131.585 97.9659 130.4 97.7016L126.8 97.0016L119.8 95.5016L118 95.0016C117.487 94.8186 116.933 94.7839 116.4 94.9016C116.113 94.976 115.864 95.1541 115.7 95.4016L115 95.9016L113.4 96.9016L110.2 98.6016C109.666 98.942 109.029 99.0836 108.4 99.0016C108.077 98.9949 107.763 98.8903 107.5 98.7016C107.225 98.5011 107.016 98.2224 106.9 97.9016H107L104 96.2016L101.1 94.3016L100.5 93.7016C100.308 93.4685 100.172 93.195 100.1 92.9016L99.3004 91.4016L97.9004 88.2016H98.0004L99.4004 91.3016L100.2 92.9016L100.6 93.6016L101.2 94.2016L104.1 96.0016L107.1 97.7016H107.2C107.2 97.9016 107.5 98.1016 107.7 98.3016L108.5 98.5016C109.064 98.5614 109.631 98.4197 110.1 98.1016L113.3 96.4016L114.8 95.4016L115.5 94.9016C115.711 94.6583 115.99 94.4841 116.3 94.4016C116.59 94.2902 116.901 94.2415 117.211 94.2587C117.521 94.276 117.824 94.3587 118.1 94.5016L119.9 95.0016L126.9 96.5016L130.4 97.3016L134 97.8016C134.565 97.6799 135.085 97.4028 135.5 97.0016C135.98 96.655 136.417 96.2521 136.8 95.8016C137.159 95.3032 137.46 94.7665 137.7 94.2016C137.766 94.0664 137.864 93.9499 137.987 93.8625C138.109 93.7752 138.251 93.7199 138.4 93.7016L139.4 93.5016H147.5C147.809 93.5268 148.095 93.6701 148.3 93.9016C148.655 94.4073 149.095 94.8473 149.6 95.2016C150.062 95.5373 150.635 95.6807 151.2 95.6016C151.779 95.4619 152.281 95.1035 152.6 94.6016C153.4 93.8016 154.2 92.8016 155 91.9016L156.2 90.6016V90.4016C156.2 90.3016 156.2 90.2016 156 90.1016L155.2 89.7016C155.6 86.0016 156.1 82.4016 156.4 78.7016C156.6 76.8016 156.7 75.0016 156.8 73.1016C156.9 71.2016 156.4 69.5016 155.7 67.8016L155.8 67.6016Z" fill="#386EE8"/>
<path d="M152.601 85.4995C152.287 85.6394 151.936 85.6744 151.601 85.5995C151.454 85.6054 151.308 85.5818 151.17 85.5303C151.033 85.4788 150.907 85.4003 150.801 85.2995C151.099 85.2491 151.403 85.2491 151.701 85.2995L152.601 85.4995Z" fill="#386EE8"/>
<path d="M148.401 84.5011L147.401 84.3011C147.036 84.2517 146.666 84.2517 146.301 84.3011L144.101 84.5011C143.315 84.5223 142.533 84.3863 141.801 84.1011C141.601 84.0011 141.201 84.2011 140.801 84.3011L139.801 84.6011L140.701 84.0011C141.076 83.828 141.49 83.7589 141.901 83.8011L143.001 84.1011L144.101 84.3011C144.847 84.349 145.595 84.247 146.301 84.0011H147.401C147.807 84.0619 148.188 84.2351 148.501 84.5011H148.401Z" fill="#386EE8"/>
<path d="M136.2 85.8008C135.691 86.0603 135.155 86.2616 134.6 86.4008H133.2C133.1 86.4008 132.9 86.4008 132.9 86.2008H133.7L134.5 86.0008L136.2 85.8008Z" fill="#386EE8"/>
<path d="M145.7 87.7985L144.4 87.9985C143.94 87.974 143.493 87.8366 143.1 87.5985H144.4C144.842 87.5744 145.285 87.6425 145.7 87.7985Z" fill="#386EE8"/>
<path d="M143.501 79.3008C143.602 80.0641 143.602 80.8374 143.501 81.6008V81.9008H143.401L143.801 82.2008C144.151 82.3367 144.532 82.3714 144.901 82.3008C144.724 82.413 144.522 82.4807 144.313 82.4981C144.104 82.5155 143.894 82.4821 143.701 82.4008C143.597 82.4094 143.492 82.385 143.403 82.3312C143.313 82.2774 143.243 82.1968 143.201 82.1008C143.165 82.0602 143.137 82.0127 143.12 81.9611C143.103 81.9095 143.096 81.855 143.101 81.8008C143.101 81.7876 143.104 81.7746 143.109 81.7625C143.114 81.7504 143.121 81.7394 143.13 81.7301C143.14 81.7208 143.151 81.7134 143.163 81.7084C143.175 81.7034 143.188 81.7008 143.201 81.7008V81.4008C143.256 80.6951 143.356 79.9937 143.501 79.3008Z" fill="#386EE8"/>
<path d="M155.601 45.4008C154.408 45.3967 153.224 45.5997 152.101 46.0008L148.701 47.1008L147.001 47.7008L146.201 48.1008H145.601L145.401 47.9008C144.971 46.7525 144.834 45.5154 145.001 44.3008H145.101L145.501 44.1008H145.601C145.701 44.1008 145.701 44.3008 145.701 44.3008V45.3008C145.701 45.2743 145.69 45.2489 145.671 45.2301C145.653 45.2114 145.627 45.2008 145.601 45.2008C145.574 45.2008 145.549 45.2114 145.53 45.2301C145.511 45.2489 145.501 45.2743 145.501 45.3008H145.401C145.501 45.0008 145.501 44.7008 145.601 44.4008C145.598 44.216 145.632 44.0325 145.701 43.8608C145.769 43.6892 145.871 43.5329 146.001 43.4008H146.101L147.701 43.2008H147.901V43.7008H147.601L148.201 43.1008H148.301L151.401 42.4008C152.446 42.1388 153.531 42.071 154.601 42.2008H153.001L151.501 42.5008L148.401 43.4008L147.801 44.0008L147.601 44.3008V43.5008H147.801L146.201 43.7008H146.301C146.101 43.8008 146.101 44.2008 146.001 44.5008C145.901 44.8008 145.901 45.0008 145.801 45.4008C145.801 45.5008 145.701 45.5008 145.601 45.5008H145.501V44.5008C145.401 44.4008 145.501 44.6008 145.501 44.5008C145.501 44.4008 145.501 44.6008 145.501 44.6008H145.201C145.001 45.7408 145.104 46.9134 145.501 48.0008C145.507 48.0779 145.543 48.1495 145.601 48.2008H145.801L146.201 48.0008L147.001 47.6008L148.601 46.9008L152.001 45.8008C153.171 45.4713 154.387 45.3362 155.601 45.4008Z" fill="#386EE8"/>
<path d="M131.699 50.3008C131.852 50.1009 131.923 49.8509 131.899 49.6008V48.9008C131.799 48.4008 131.799 47.9008 131.699 47.5008C131.599 47.1008 131.599 47.0008 131.599 46.8008L131.399 46.6008H130.999L129.599 46.4008H129.699V47.0008H129.499L128.799 46.4008H127.699L125.699 46.2008L125.899 46.0008V46.9008L125.599 46.7008L124.599 46.0008C124.399 45.9008 124.299 45.7008 124.099 45.8008H117.499L116.399 46.2008C114.939 46.8132 113.534 47.5492 112.199 48.4008L110.099 49.6008L108.999 50.2008L108.799 50.4008C108.742 50.4521 108.706 50.5237 108.699 50.6008C108.627 50.7573 108.593 50.9286 108.599 51.1008C108.599 51.3008 108.599 51.3008 108.799 51.2008L109.399 51.0008L110.499 50.6008L112.699 49.7008L114.999 48.8008L115.499 48.6008H117.399L122.099 49.3008L124.499 49.7008L125.699 49.9008H126.299C126.199 50.0008 126.299 49.9008 126.199 49.8008V49.2008L126.399 49.4008L127.599 50.1008L128.899 50.4008L131.699 50.3008ZM131.699 50.3008L128.999 49.9008L127.599 49.7008L126.399 49.0008L126.599 48.8008C126.597 48.9406 126.632 49.0785 126.699 49.2008C126.699 49.3008 126.699 49.3008 126.599 49.4008H124.699L122.299 49.0008L117.499 48.4008H115.799L115.299 48.6008L112.999 49.5008L110.799 50.3008L109.699 50.8008L109.099 51.0008H108.699C108.63 50.9616 108.574 50.9026 108.538 50.8313C108.503 50.7601 108.489 50.6798 108.499 50.6008C108.519 50.3881 108.588 50.1829 108.699 50.0008C108.699 49.9008 108.699 49.8008 108.899 49.7008H109.099L110.199 49.1008L112.299 47.9008L116.599 45.7008L117.699 45.3008H124.899L125.899 46.0008L125.699 46.2008V45.4008H125.899L127.899 45.6008L128.899 45.8008C129.299 45.9008 129.499 46.2008 129.799 46.4008H129.599V45.8008H129.699L131.199 46.0008H131.699V46.2008C131.799 46.4008 131.799 46.7008 131.899 46.9008C131.999 47.1008 131.999 47.9008 131.999 48.4008V49.1008C131.899 49.9008 131.999 50.1008 131.699 50.3008Z" fill="#386EE8"/>
<path d="M95.5 63.3008C95.5253 63.609 95.6686 63.8956 95.9 64.1008C96.1253 64.288 96.4072 64.3938 96.7 64.4008C96.8631 64.4395 97.0337 64.432 97.1927 64.379C97.3518 64.326 97.4928 64.2296 97.6 64.1008C97.7028 63.9981 97.7758 63.8695 97.811 63.7285C97.8463 63.5876 97.8425 63.4397 97.8 63.3008C97.8 63.1563 97.7716 63.0133 97.7163 62.8798C97.661 62.7464 97.58 62.6251 97.4778 62.5229C97.3757 62.4208 97.2544 62.3398 97.121 62.2845C96.9875 62.2292 96.8445 62.2008 96.7 62.2008C96.3983 62.1997 96.1074 62.3123 95.885 62.5162C95.6626 62.72 95.5251 63.0002 95.5 63.3008ZM95.5 63.3008C95.5047 62.946 95.6086 62.5996 95.8 62.3008C95.8979 62.1503 96.031 62.0261 96.1879 61.939C96.3448 61.8518 96.5206 61.8044 96.7 61.8008C96.884 61.8135 97.0637 61.8624 97.2288 61.9447C97.3938 62.027 97.541 62.1412 97.6618 62.2806C97.7826 62.42 97.8747 62.5818 97.9327 62.7569C97.9908 62.932 98.0136 63.1168 98 63.3008C98.0009 63.6554 97.8672 63.9971 97.6259 64.257C97.3846 64.5168 97.0537 64.6754 96.7 64.7008C96.5292 64.7086 96.359 64.6766 96.2028 64.6071C96.0465 64.5377 95.9086 64.4328 95.8 64.3008C95.6086 64.002 95.5047 63.6556 95.5 63.3008Z" fill="#386EE8"/>
<path d="M96.4002 64.4016C96.0875 64.1086 95.8772 63.723 95.8001 63.3016C95.7856 63.0965 95.8198 62.8908 95.9002 62.7016L96.2001 62.1016C96.0695 62.4874 96.0352 62.8994 96.1001 63.3016C96.0856 63.5067 96.1198 63.7123 96.2001 63.9016C96.3001 64.1016 96.3002 64.3016 96.4002 64.4016Z" fill="#386EE8"/>
<path d="M97.9996 66.1992C99.3732 68.845 101.088 71.2993 103.1 73.4992L106.4 76.5992L108.2 77.9992L109.1 78.6992L109.5 79.0992V79.4992C109.5 79.5992 109.4 79.6992 109.2 79.6992C109 79.6992 107.8 79.1992 107.1 78.7992L105.4 77.3992C104.229 76.4436 103.126 75.4078 102.1 74.2992C101.058 73.1878 100.12 71.9827 99.2996 70.6992C98.3539 69.4942 97.6108 68.1432 97.0996 66.6992H97.1996C98.5136 69.3806 100.234 71.843 102.3 73.9992C103.4 75.0992 104.4 76.1992 105.6 77.1992L107.3 78.5992C107.9 78.9992 108.5 79.5992 109.2 79.4992C109.228 79.4891 109.255 79.4726 109.276 79.4508C109.297 79.4291 109.313 79.4027 109.323 79.3737C109.333 79.3448 109.336 79.314 109.332 79.2838C109.328 79.2535 109.317 79.2246 109.3 79.1992L109 78.7992L108.1 78.0992L106.3 76.6992C105.2 75.7992 104 74.7992 102.9 73.6992C100.795 71.5413 99.1301 68.9938 97.9996 66.1992Z" fill="#386EE8"/>
<path d="M94.1 60.8001L91.9 57.8001L89.6 54.9002C88.7884 53.9682 87.8452 53.1597 86.8 52.5002C86.2999 52.1668 85.6963 52.0248 85.1 52.1001C84.811 52.2181 84.5577 52.4092 84.3648 52.6546C84.172 52.9001 84.0462 53.1915 84 53.5002H83.9C83.5016 53.7115 83.0435 53.7819 82.6 53.7001H82.5C82.5251 53.2924 82.6361 52.8945 82.8256 52.5326C83.0152 52.1707 83.2791 51.8529 83.6 51.6001C83.9071 51.3566 84.2604 51.178 84.6385 51.0748C85.0167 50.9717 85.4118 50.9463 85.8 51.0002C87.3415 51.3173 88.7222 52.1669 89.7 53.4002C90.773 54.4744 91.7439 55.6461 92.6 56.9002C93.5 58.1002 94.4 59.4001 95.2 60.7001L92.4 57.1001C91.5 55.9001 90.5 54.7001 89.5 53.6001C88.5 52.5001 87.2 51.5001 85.8 51.3001C85.4346 51.2282 85.058 51.2356 84.6957 51.3219C84.3334 51.4082 83.9938 51.5713 83.7 51.8001C83.3973 52.0175 83.1493 52.3023 82.9757 52.6321C82.8021 52.9619 82.7077 53.3275 82.7 53.7001H82.6C82.8103 53.7824 83.0364 53.8161 83.2614 53.7988C83.4865 53.7815 83.7048 53.7136 83.9 53.6001H83.8C83.8803 53.2909 84.0302 53.004 84.2381 52.7614C84.4461 52.5188 84.7066 52.3268 85 52.2001C85.6483 52.1441 86.3005 52.2471 86.9 52.5002C87.9764 53.1575 88.953 53.9657 89.8 54.9002L92.1 57.9002C92.8243 58.8951 93.492 59.9301 94.1 61.0002V60.8001Z" fill="#386EE8"/>
<path d="M92.2996 61.2016L90.7996 58.6016C90.3458 57.7309 89.7357 56.9513 88.9996 56.3016C88.2787 55.6148 87.5102 54.9799 86.6996 54.4016C85.8974 53.8498 85.0224 53.4123 84.0996 53.1016C85.106 53.1765 86.0734 53.522 86.8996 54.1016C87.7744 54.6326 88.5522 55.309 89.1996 56.1016L90.9996 58.5016C91.6212 59.3124 92.0951 60.2263 92.3996 61.2016H92.2996Z" fill="#386EE8"/>
<path d="M91.3008 61.7017C90.5959 60.3773 89.7937 59.1072 88.9008 57.9017C88.4896 57.2915 88.0207 56.7222 87.5008 56.2017C86.9829 55.6904 86.3719 55.2831 85.7008 55.0017C84.3934 54.2727 82.8719 54.025 81.4008 54.3017C80.6956 54.4407 80.0352 54.7504 79.4774 55.2036C78.9195 55.6569 78.4812 56.2399 78.2008 56.9017C77.6108 58.263 77.272 59.7197 77.2008 61.2017C77.1008 62.7 77.1008 64.2033 77.2008 65.7017C77.4486 68.6602 78.1571 71.5619 79.3008 74.3017C80.5183 77.014 82.2117 79.4863 84.3008 81.6017C85.3629 82.639 86.6205 83.4548 88.0008 84.0017C89.3849 84.5329 90.9167 84.5329 92.3008 84.0017L94.4008 83.2017L95.2008 82.6017L95.5008 81.6017C95.7008 80.1017 95.8008 78.6017 95.9008 77.1017C95.92 74.1389 95.5843 71.1845 94.9008 68.3017C95.6984 71.201 96.102 74.1946 96.1008 77.2017C96.1005 78.7066 96.0003 80.21 95.8008 81.7017C95.7364 82.1097 95.636 82.5113 95.5008 82.9017L94.5008 83.6017L92.4008 84.4017C90.9486 84.9375 89.3529 84.9375 87.9008 84.4017C86.4851 83.8204 85.1949 82.9716 84.1008 81.9017C81.9751 79.7989 80.3068 77.2796 79.2008 74.5017C78.025 71.7319 77.283 68.7974 77.0008 65.8017C76.9008 64.3033 76.9008 62.8 77.0008 61.3017C77.0492 59.7946 77.3535 58.3067 77.9008 56.9017C78.2049 56.1804 78.6843 55.5466 79.2955 55.0576C79.9067 54.5686 80.6304 54.24 81.4008 54.1017C82.9158 53.8565 84.469 54.1389 85.8008 54.9017C86.5133 55.206 87.1589 55.6478 87.7008 56.2017C88.2008 56.7017 88.6008 57.3017 89.1008 57.9017C89.9511 59.1321 90.6875 60.4375 91.3008 61.8017V61.7017Z" fill="#386EE8"/>
<path d="M93.5004 69.3008C93.8944 70.5093 94.1953 71.7463 94.4004 73.0008C94.4004 74.3008 94.5004 75.6008 94.5004 76.9008C94.5335 78.204 94.4666 79.5078 94.3004 80.8008C94.1605 81.4515 93.9596 82.0877 93.7004 82.7008C93.4604 83.3155 92.9957 83.816 92.4004 84.1008C92.8956 83.7091 93.2757 83.1908 93.5004 82.6008C93.6813 82.0123 93.815 81.4104 93.9004 80.8008C94.1324 79.5128 94.2662 78.2091 94.3004 76.9008C94.3861 75.6307 94.3189 74.3549 94.1004 73.1008C93.9004 71.8008 93.7004 70.5008 93.4004 69.3008H93.5004Z" fill="#386EE8"/>
<path d="M82.6012 53.1992L81.4012 53.8992C81.0334 54.1581 80.6289 54.3603 80.2012 54.4992C80.5211 54.1463 80.8919 53.843 81.3012 53.5992L81.9012 53.3992L82.6012 53.1992Z" fill="#386EE8"/>
<path d="M100 62.9984C99.9887 62.6654 99.9017 62.3394 99.7458 62.0449C99.5899 61.7504 99.3691 61.4951 99.1002 61.2984C98.6284 60.8804 98.0295 60.6338 97.4002 60.5984C96.0874 60.5323 94.7722 60.6672 93.5002 60.9984C91.3002 61.9984 88.4002 62.8984 85.9002 61.7984C85.3664 61.4216 84.7483 61.1812 84.1002 61.0984C83.4697 61.1243 82.8537 61.2955 82.3002 61.5984C81.7536 61.9162 81.3306 62.4097 81.1002 62.9984C80.8249 63.5578 80.6877 64.1751 80.7002 64.7984C80.5506 66.0941 80.5506 67.4027 80.7002 68.6984C80.8218 70.024 81.0901 71.332 81.5002 72.5984C81.8966 73.8068 82.3986 74.978 83.0002 76.0984C83.6524 77.1828 84.5412 78.1058 85.6002 78.7984C86.1523 79.0895 86.7835 79.1947 87.4002 79.0984C87.7067 79.0471 87.9988 78.9315 88.2573 78.7591C88.5158 78.5868 88.735 78.3616 88.9002 78.0984C89.5286 76.9678 89.9997 75.7566 90.3002 74.4984C90.6878 73.2388 91.225 72.0302 91.9002 70.8984C92.03 70.6104 92.1982 70.3413 92.4002 70.0984L93.1002 69.2984L94.7002 68.0984L98.0002 66.0984C98.5564 65.7729 99.0344 65.3291 99.4002 64.7984C99.7453 64.257 99.9514 63.6387 100 62.9984ZM100 62.9984C99.9902 63.6313 99.818 64.2511 99.5002 64.7984C99.1115 65.3371 98.6388 65.8098 98.1002 66.1984L94.8002 68.2984C93.6835 68.9954 92.7561 69.9572 92.1002 71.0984C91.4986 72.2189 90.9966 73.39 90.6002 74.5984C90.2921 75.9011 89.7863 77.149 89.1002 78.2984C88.9304 78.5978 88.7007 78.8589 88.4254 79.0654C88.1501 79.2719 87.8351 79.4193 87.5002 79.4984C86.8083 79.5729 86.1102 79.4333 85.5002 79.0984C84.3565 78.3913 83.4239 77.3897 82.8002 76.1984C82.1392 75.072 81.6346 73.8609 81.3002 72.5984C80.5851 70.0641 80.3144 67.4251 80.5002 64.7984C80.5856 64.1559 80.7193 63.5208 80.9002 62.8984C81.1636 62.2733 81.6188 61.748 82.2002 61.3984C82.7889 61.0939 83.4377 60.9231 84.1002 60.8984C84.7657 60.9765 85.4105 61.1801 86.0002 61.4984C86.5836 61.8166 87.2357 61.9882 87.9002 61.9984H89.8002C90.4223 61.9252 91.0294 61.7565 91.6002 61.4984C92.2133 61.2392 92.8494 61.0383 93.5002 60.8984C94.7691 60.5502 96.093 60.4484 97.4002 60.5984C98.0676 60.6756 98.6956 60.9547 99.2002 61.3984C99.4546 61.5789 99.6607 61.8193 99.8002 62.0984C99.9398 62.3774 100.008 62.6866 100 62.9984Z" fill="#386EE8"/>
<path d="M82.9013 63.599C82.5855 64.2193 82.4145 64.9031 82.4013 65.599C82.3847 66.2673 82.4181 66.9358 82.5013 67.599C82.5692 68.9429 82.7363 70.2799 83.0013 71.599C83.2376 72.9406 83.7857 74.208 84.6013 75.2991C84.9796 75.8311 85.4992 76.2468 86.1013 76.4991C86.427 76.5893 86.7722 76.5804 87.0928 76.4735C87.4134 76.3667 87.6949 76.1667 87.9013 75.8991C88.1849 75.3024 88.3545 74.658 88.4013 73.9991V71.9991C88.2921 70.6537 88.0917 69.3173 87.8013 67.9991C87.5646 66.6881 87.0158 65.4533 86.2013 64.3991C85.7376 63.9138 85.197 63.5083 84.6013 63.1991C84.3189 63.0428 83.9884 62.9972 83.6742 63.0711C83.3599 63.145 83.0844 63.3332 82.9013 63.599ZM82.8013 63.599C83.0049 63.3011 83.3091 63.0865 83.6581 62.9947C84.0071 62.9029 84.3774 62.9399 84.7013 63.099C85.3322 63.349 85.8847 63.7634 86.3013 64.2991C87.28 65.3221 87.9402 66.6076 88.2013 67.9991C88.4013 69.2991 88.6013 70.6991 88.7013 71.9991C88.7178 72.7006 88.6844 73.4023 88.6013 74.099C88.6158 74.7811 88.4049 75.449 88.0013 75.9991C87.7991 76.2992 87.5012 76.5219 87.1561 76.6309C86.811 76.7399 86.4392 76.7286 86.1013 76.599C85.4567 76.3742 84.8977 75.9549 84.5013 75.3991C83.6654 74.2951 83.0539 73.0381 82.7013 71.6991C82.4198 70.3509 82.2857 68.9762 82.3013 67.599C82.2511 66.9333 82.2511 66.2648 82.3013 65.599C82.3605 64.91 82.5293 64.2349 82.8013 63.599Z" fill="#386EE8"/>
<path d="M107.2 97.8016C107.168 98.1167 107.251 98.4329 107.436 98.6907C107.62 98.9485 107.892 99.1301 108.2 99.2016L110 99.7016L113.6 100.702L120.8 102.802L128.1 104.802C129.3 105.102 130.5 105.502 131.7 105.702C132.959 105.87 134.23 105.937 135.5 105.902C138 105.902 140.5 105.702 142.9 105.502C144.148 105.407 145.386 105.206 146.6 104.902C147.194 104.778 147.745 104.502 148.2 104.102L149.5 102.802C151.3 101.002 153 99.1016 154.6 97.2016C154.893 96.6612 155.128 96.0914 155.3 95.5016C155.538 94.9238 155.706 94.3194 155.8 93.7016C155.981 93.1131 156.115 92.5112 156.2 91.9016C156.366 91.3168 156.434 90.7085 156.4 90.1016H156.5C156.517 90.7033 156.483 91.3054 156.4 91.9016C156.3 92.6016 156.1 93.2016 156 93.8016C155.88 94.4136 155.713 95.0153 155.5 95.6016C155.361 96.2504 155.088 96.8633 154.7 97.4016C153.178 99.3627 151.542 101.233 149.8 103.002L148.4 104.302C147.909 104.749 147.33 105.09 146.7 105.302C145.482 105.566 144.245 105.733 143 105.802C140.475 106.053 137.937 106.154 135.4 106.102C134.161 106.101 132.924 106.001 131.7 105.802C130.4 105.602 129.3 105.202 128 104.902L120.8 103.002L113.5 101.002L109.9 99.9016L108.1 99.3016C107.4 99.2016 107.2 98.4016 107.2 97.8016Z" fill="#386EE8"/>
<path d="M155.401 89.5C155.119 90.1711 154.712 90.7821 154.201 91.3C153.683 91.7967 153.244 92.3701 152.901 93C152.547 93.6509 152.072 94.2279 151.501 94.7C151.182 94.9161 150.818 95.0556 150.436 95.1076C150.054 95.1597 149.666 95.1228 149.301 95C150.02 95.0654 150.736 94.8504 151.301 94.4C151.801 94 152.201 93.4 152.701 92.9C153.213 92.3609 153.65 91.7555 154.001 91.1L155.401 89.5Z" fill="#386EE8"/>
<path d="M148 93.8016C147.658 93.4721 147.29 93.1711 146.9 92.9016C146.8 92.7016 146.5 92.8016 146.3 92.8016H138.6C138.157 92.8371 137.737 93.0122 137.4 93.3016C136.7 93.8016 136.3 94.7016 135.6 95.4016L134.7 96.4016C134.34 96.7512 133.89 96.9935 133.4 97.1016L127.9 96.3016L122.4 95.2016L119.7 94.5016L117.1 93.7016C116.68 93.5487 116.219 93.5487 115.8 93.7016L114.7 94.4016C113.939 94.992 113.137 95.5267 112.3 96.0016C110.763 97.0504 108.959 97.64 107.1 97.7016C108.038 97.6573 108.958 97.419 109.8 97.0016C110.636 96.6788 111.44 96.277 112.2 95.8016C113.003 95.3602 113.772 94.8588 114.5 94.3016L115.7 93.4016C116.154 93.2491 116.645 93.2491 117.1 93.4016C118.019 93.6413 118.921 93.942 119.8 94.3016L122.5 95.0016L127.9 96.2016L133.4 97.1016C133.85 96.9689 134.262 96.7287 134.6 96.4016L135.5 95.4016L136.3 94.2016C136.581 93.8197 136.918 93.4826 137.3 93.2016C137.644 92.848 138.107 92.6343 138.6 92.6016H147C147.381 92.8826 147.719 93.2197 148 93.6016V93.8016Z" fill="#386EE8"/>
<path d="M88.2012 84.3008C88.7148 86.9452 89.082 89.6159 89.3012 92.3008C89.5012 95.0008 89.7012 97.7008 90.0012 100.401C90.3012 103.101 90.5012 105.701 90.7012 108.401C90.9012 111.101 91.0012 113.801 91.1012 116.501C90.8012 113.801 90.5012 111.101 90.3012 108.501C90.1012 105.901 89.9012 103.101 89.8012 100.401C89.7012 97.7008 89.4012 95.0008 89.0012 92.3008L88.2012 84.3008Z" fill="#386EE8"/>
<path d="M101.1 107.8C100.195 107.75 99.2939 107.65 98.4 107.5L97.1 107.1H97V101.3C97 101.1 97 101 97.1 100.9V100.7H97.3C98.1994 100.584 99.1117 100.618 100 100.8C100.462 100.878 100.905 101.048 101.3 101.3C101.5 101.6 101.4 101.9 101.5 102.1V105.4C101.5 105.8 101.4 106.3 101.4 106.7V107.4C101.3 107.4 101.3 107.7 101.1 107.8ZM101.1 107.8C101.2 107.7 101.2 107.4 101.2 107.2C101.282 106.977 101.316 106.738 101.3 106.5V105.2L101.1 102.6V101.9C101.1 101.7 101.1 101.4 101 101.4C100.9 101.4 100.3 101 99.9 100.9C99.052 100.68 98.1717 100.613 97.3 100.7H97.1V101.1C97.1146 101.305 97.0803 101.511 97 101.7V103C97.1 103.9 97.1 104.8 97.2 105.7V106.9L98.4 107.3L101.1 107.8Z" fill="#386EE8"/>
<path d="M101.2 101.199C101.58 101.442 101.918 101.746 102.2 102.099V103.499C102.066 104.359 102.033 105.232 102.1 106.099C102.2 106.996 102.2 107.902 102.1 108.799C102.102 108.939 102.067 109.077 102 109.199C102 109.299 101.8 109.399 101.8 109.299H100.9L99.5996 108.999H100.9C101.2 108.999 101.4 109.099 101.6 108.999H101.7V108.699C101.8 107.899 101.8 106.999 101.9 106.099C102 105.235 102 104.363 101.9 103.499V102.499C101.904 102.445 101.898 102.391 101.881 102.339C101.863 102.287 101.836 102.24 101.8 102.199L101 101.199H101.2Z" fill="#386EE8"/>
<path d="M97.2009 107L97.5009 107.5L97.8009 108.1V108.3H98.0009L98.6009 108.6H97.9009L97.6009 108.4L97.4009 108.1C97.2486 107.754 97.1801 107.377 97.2009 107Z" fill="#386EE8"/>
<path d="M99.101 119.699C98.901 117.599 98.801 115.6 98.701 113.5C98.601 111.4 98.701 111.5 98.601 110.5V108.899C98.5695 108.782 98.5622 108.66 98.5794 108.539C98.5965 108.419 98.6379 108.303 98.701 108.199C98.7923 108.079 98.916 107.987 99.0576 107.934C99.1992 107.881 99.3529 107.869 99.501 107.899L99.901 108.099C100.001 108.299 99.901 108.299 99.901 108.399V108.599C99.819 108.823 99.7849 109.062 99.801 109.299V110.799C99.901 111.899 99.901 112.899 100.001 113.899C100.101 114.899 100.101 118 100.101 120H100.001C99.801 118 99.701 115.899 99.601 113.899C99.501 111.899 99.501 111.799 99.501 110.799V109.299C99.601 108.999 99.601 108.8 99.701 108.5V108.299H99.501C99.3785 108.251 99.2437 108.245 99.1172 108.281C98.9907 108.317 98.8796 108.394 98.801 108.5C98.701 108.6 98.701 108.899 98.701 109.099V110.699L99.001 113.699C99.101 115.799 99.101 117.799 99.101 119.899V119.699Z" fill="#386EE8"/>
<path d="M101.1 107.801C101.313 107.913 101.487 108.088 101.6 108.301C101.7 108.601 101.9 108.801 101.9 109.101C101.675 108.927 101.474 108.725 101.3 108.501C101.172 108.289 101.103 108.048 101.1 107.801Z" fill="#386EE8"/>
<path d="M141.001 105.699C141.134 107.095 141.168 108.499 141.101 109.899C140.901 111.299 140.801 112.699 140.701 114.099C140.717 115.509 140.583 116.917 140.301 118.299C140.122 119.666 139.787 121.009 139.301 122.299H139.201C139.573 120.955 139.841 119.584 140.001 118.199L140.601 114.099C140.768 112.706 140.834 111.302 140.801 109.899C140.801 108.499 140.901 107.099 141.001 105.699Z" fill="#386EE8"/>
<path d="M137.6 110.801C137.397 111.274 137.294 111.785 137.3 112.301L137 113.801C136.8 114.801 136.6 115.901 136.5 116.901C136.284 119.016 135.814 121.098 135.1 123.101H135C135.4 121.101 135.8 119.001 136.3 117.001C136.58 115.992 136.715 114.948 136.7 113.901L137 112.301C137.075 111.775 137.244 111.266 137.5 110.801H137.6Z" fill="#386EE8"/>
<path d="M135.2 117C135.131 118.047 134.964 119.085 134.7 120.1C134.431 121.148 134.028 122.156 133.5 123.1L134.4 120C134.6 119 134.9 118 135.2 117Z" fill="#386EE8"/>
<path d="M121.2 108.299C121.7 109.499 122.1 110.799 122.5 111.999C122.9 113.199 123.3 114.599 123.8 115.799C124.3 116.999 125.8 120.699 126.6 123.199H126.5C125.344 120.811 124.375 118.337 123.6 115.799C123.256 114.503 122.822 113.234 122.3 111.999C121.795 110.768 121.394 109.497 121.1 108.199L121.2 108.299Z" fill="#386EE8"/>
<path d="M140.7 113.901L144 115.301L145.6 116.201C146.148 116.502 146.599 116.953 146.9 117.501C147.445 118.621 147.552 119.905 147.2 121.101C147.1 121.701 146.9 122.301 146.8 122.901C146.684 123.494 146.617 124.096 146.6 124.701C146.4 125.901 146.4 127.101 146.3 128.301C146.2 129.501 146.4 130.701 146.5 131.901V132.801C146.516 132.974 146.481 133.147 146.4 133.301C146.4 133.501 146.2 133.601 146.1 133.701C145.718 134.183 145.282 134.619 144.8 135.001L141.8 137.001C139.719 138.263 137.461 139.207 135.1 139.801C132.737 140.346 130.324 140.647 127.9 140.701C123.028 140.884 118.148 140.717 113.3 140.201C110.914 140.022 108.543 139.688 106.2 139.201C103.822 138.7 101.483 138.032 99.2 137.201L92.5 134.301C90.3118 133.224 88.206 131.988 86.2 130.601C85.2069 129.874 84.3009 129.035 83.5 128.101C83.3481 127.809 83.2145 127.509 83.1 127.201C83.0181 126.908 82.9843 126.604 83 126.301C83 125.701 83.1 125.101 83.1 124.501C83.2167 122.068 83.1833 119.63 83 117.201C82.9 116.001 82.7 114.901 82.5 113.701C82.25 113.092 82.25 112.409 82.5 111.801C82.5757 111.504 82.7127 111.226 82.9021 110.985C83.0915 110.743 83.3293 110.545 83.6 110.401C84.5883 109.685 85.7106 109.174 86.9001 108.901L90.5 108.301C89.2808 108.472 88.077 108.739 86.9001 109.101C85.7538 109.359 84.6675 109.834 83.7 110.501C83.2002 110.845 82.8166 111.334 82.6 111.901C82.4841 112.466 82.5186 113.053 82.7 113.601C82.9 114.801 83.2001 116.001 83.3001 117.201C83.4001 118.401 83.5001 122.101 83.4001 124.501C83.3001 126.901 83.0001 127.001 83.8001 127.901C84.5412 128.827 85.4177 129.636 86.4001 130.301C88.3854 131.665 90.4563 132.901 92.6 134.001L99.3001 136.901C101.549 137.732 103.855 138.4 106.2 138.901C108.6 139.434 111 139.834 113.4 140.101C118.218 140.569 123.061 140.736 127.9 140.601C130.291 140.471 132.666 140.136 135 139.601C137.352 138.981 139.606 138.038 141.7 136.801C142.729 136.192 143.7 135.489 144.6 134.701C145.103 134.383 145.543 133.976 145.9 133.501C146.3 133.201 146.2 132.501 146.2 131.901C146.067 130.706 146.034 129.501 146.1 128.301C146.1 127.001 146.2 125.801 146.3 124.601L146.6 122.801C146.7 122.201 146.9 121.701 147 121.101C147.34 119.946 147.27 118.709 146.8 117.601C146.473 117.072 146.028 116.627 145.5 116.301L144 115.401C142.939 114.819 141.836 114.317 140.7 113.901Z" fill="#386EE8"/>
<path d="M90.4999 109.699L88.1999 109.999C87.419 110.14 86.6501 110.341 85.9 110.599C85.5802 110.817 85.3269 111.119 85.1681 111.472C85.0093 111.825 84.9511 112.215 84.9999 112.599C85.0999 112.899 85.4999 113.099 85.7999 113.399L86.7999 113.999C89.5438 115.638 92.4206 117.043 95.4 118.199C98.3806 119.42 101.458 120.39 104.6 121.099C107.729 121.835 110.902 122.369 114.1 122.699C117.3 122.999 120.5 123.099 123.7 123.199C126.9 123.299 130.1 123.199 133.3 122.999L138 122.499C139.586 122.28 141.134 121.842 142.6 121.199C143.303 120.825 143.972 120.39 144.6 119.899C144.755 119.788 144.875 119.635 144.946 119.458C145.017 119.28 145.036 119.087 145 118.899C144.972 118.701 144.904 118.51 144.801 118.339C144.698 118.167 144.562 118.017 144.4 117.899C143.225 116.831 141.913 115.923 140.5 115.199C141.959 115.911 143.334 116.783 144.6 117.799C144.878 118.118 145.082 118.493 145.2 118.899C145.221 119.11 145.186 119.324 145.098 119.517C145.011 119.71 144.873 119.876 144.7 119.999C144.1 120.555 143.427 121.026 142.7 121.399C141.255 122.119 139.701 122.592 138.1 122.799C136.512 123.065 134.909 123.232 133.3 123.299C126.864 123.682 120.407 123.515 114 122.799C107.597 122.178 101.308 120.698 95.2999 118.399C92.2939 117.305 89.4113 115.897 86.6999 114.199L85.6999 113.499L85.1999 113.199C85.0983 113.154 85.009 113.085 84.9394 112.998C84.8698 112.911 84.822 112.808 84.7999 112.699C84.7323 112.482 84.7152 112.251 84.7499 112.026C84.7845 111.801 84.87 111.586 84.9999 111.399C85.1479 111.012 85.4324 110.692 85.7999 110.499C86.5351 110.194 87.3092 109.992 88.0999 109.899L90.4999 109.699Z" fill="#386EE8"/>
<path d="M147.3 120C147.247 120.358 147.111 120.698 146.903 120.993C146.694 121.289 146.419 121.531 146.1 121.7C145.502 122.125 144.866 122.493 144.2 122.8C142.885 123.382 141.51 123.818 140.1 124.1C137.276 124.734 134.393 125.07 131.5 125.1C125.8 125.2 120 125.1 114.3 124.7C108.547 124.272 102.87 123.13 97.3996 121.3C94.6996 120.3 92.0996 119.1 89.3996 117.9L85.5996 115.9C84.9418 115.594 84.3348 115.19 83.7996 114.7C83.2096 114.295 82.784 113.692 82.5996 113C82.8468 113.66 83.2601 114.246 83.7996 114.7L85.6996 115.8C86.9412 116.519 88.2467 117.122 89.5996 117.6L93.4996 119.3L97.4996 121C102.944 122.816 108.583 123.991 114.3 124.5C120.016 125.05 125.767 125.15 131.5 124.8C134.387 124.753 137.265 124.452 140.1 123.9C141.51 123.618 142.885 123.182 144.2 122.6C144.831 122.327 145.434 121.992 146 121.6C146.314 121.436 146.591 121.209 146.815 120.934C147.039 120.659 147.203 120.341 147.3 120Z" fill="#386EE8"/>
<path d="M112.6 125.7C110.449 125.67 108.306 125.436 106.2 125L99.9 123.7C97.8225 123.218 95.7835 122.583 93.8 121.8C91.7747 121.071 89.8309 120.132 88 119C89.9006 120.009 91.8726 120.878 93.9 121.6L100 123.6C102.034 124.153 104.106 124.554 106.2 124.8L112.6 125.8V125.7Z" fill="#386EE8"/>
<path d="M99.8004 124.698L97.4004 124.198L95.0004 123.498C93.4052 122.943 91.8652 122.24 90.4004 121.398L95.1004 123.098L97.5004 123.998L99.8004 124.698Z" fill="#386EE8"/>
<path d="M141.6 135.702C139.798 136.879 137.8 137.726 135.7 138.202C133.656 138.707 131.586 139.108 129.5 139.402C127.415 139.701 125.305 139.801 123.2 139.702C121.086 139.71 118.976 139.509 116.9 139.102L120 139.302H123.2C125.3 139.302 127.4 139.302 129.5 139.102C131.601 138.904 133.678 138.503 135.7 137.902C137.737 137.327 139.713 136.557 141.6 135.602V135.702Z" fill="#386EE8"/>
<path d="M136.101 136.602C135.166 136.973 134.194 137.241 133.201 137.402L130.301 137.902C128.354 138.464 126.314 138.634 124.301 138.402L130.201 137.802L133.201 137.202C134.143 136.897 135.115 136.695 136.101 136.602Z" fill="#386EE8"/>
<path d="M82.9996 126.901C82.6996 126.901 82.4996 127.201 82.3996 127.401C82.344 127.531 82.3239 127.674 82.3415 127.814C82.359 127.955 82.4136 128.088 82.4996 128.201C82.8438 128.682 83.247 129.119 83.6996 129.501C84.4755 130.43 85.3855 131.239 86.3996 131.901C88.3996 133.301 90.5996 134.401 92.6996 135.601C91.5236 135.204 90.3857 134.702 89.2996 134.101C88.262 133.492 87.2604 132.825 86.2996 132.101L83.4996 129.701C83.0209 129.308 82.6147 128.834 82.2996 128.301C82.1772 128.162 82.1065 127.986 82.0996 127.801C82.0996 127.601 82.1996 127.501 82.1996 127.301C82.1996 127.101 82.6996 126.801 82.9996 126.801V126.901Z" fill="#386EE8"/>
<path d="M78.7012 129.501C79.2316 129.109 79.8014 128.774 80.4012 128.501L81.3012 128.101C81.5846 127.957 81.8879 127.856 82.2012 127.801L81.4012 128.301L80.5012 128.801L78.7012 129.501Z" fill="#386EE8"/>
<path d="M149.8 28.4013C150.107 25.7337 149.799 23.0315 148.9 20.5013C147.9 18.0013 145.9 16.1012 143.8 14.3012L137.6 9.20124C135.486 7.53058 133.246 6.02608 130.9 4.70124C128.549 3.43722 126.068 2.43137 123.5 1.70124C122.198 1.31436 120.856 1.07948 119.5 1.00126L115.5 1.30125C112.868 1.85311 110.189 2.15445 107.5 2.20124C106.2 2.30124 104.8 2.30126 103.5 2.50126C102.165 2.72785 100.857 3.09659 99.6 3.60123C94.8 5.90123 89.3 7.20124 86 11.7012C84.9715 12.5776 84.0636 13.5864 83.3 14.7012C82.5633 15.7924 81.9591 16.9673 81.5 18.2012C81.2 18.9012 81 19.5012 80.7 20.1012C80.4 20.7012 80.2 21.3013 79.9 22.0013C79.6 22.7013 79.2 24.6012 78.7 25.8012C78.5035 26.4786 78.1996 27.1201 77.8 27.7012C77.5068 28.2762 77.2722 28.8793 77.1 29.5013C76.6413 30.7735 76.2737 32.0768 76 33.4013C75.706 34.699 75.3047 35.97 74.8 37.2012C74.437 38.5026 74.2685 39.8505 74.3 41.2012C74.2 42.5327 74.2 43.8698 74.3 45.2012C74.3617 46.5456 74.5289 47.8831 74.8 49.2012C75.4506 51.7965 76.5322 54.2642 78 56.5013C76.4279 54.2608 75.2759 51.7534 74.6 49.1012C74.3289 47.7831 74.1617 46.4456 74.1 45.1012C74 43.8012 74 42.4012 74 41.1012C74.0188 39.7206 74.1864 38.346 74.5 37.0013C75.0046 35.77 75.406 34.499 75.7 33.2012C76 31.9012 76.3 30.6012 76.7 29.3012C77.1 28.0012 77.2 28.0013 77.5 27.4013C77.8785 26.8438 78.1811 26.2385 78.4 25.6012C78.9 24.4012 79.2 23.0012 79.6 21.8012C80 20.6012 80.1 20.5013 80.4 19.9013C80.7 19.3013 80.9 18.7013 81.2 18.0013C81.6579 16.7353 82.262 15.5271 83 14.4013C83.8275 13.3074 84.7658 12.3021 85.8 11.4013C86.2414 10.9099 86.7087 10.4426 87.2 10.0013L88.6 8.60123C89.6833 7.77079 90.8575 7.06629 92.1 6.50126L99.6 3.30125C100.852 2.804 102.163 2.46798 103.5 2.30125C104.824 2.10184 106.161 2.00157 107.5 2.00126C110.185 1.89926 112.859 1.59841 115.5 1.10123C116.818 0.852519 118.16 0.751906 119.5 0.801247C120.856 0.797704 122.205 1.00001 123.5 1.40125C126.121 2.06877 128.642 3.07738 131 4.40125C133.4 5.68998 135.676 7.19631 137.8 8.90125C139.8 10.6013 142 12.3012 144 14.1012C146 15.9012 148.1 17.7012 149.1 20.3012C149.568 21.5864 149.838 22.9351 149.9 24.3012C149.967 25.6352 149.933 26.9723 149.8 28.3012V28.4013Z" fill="#386EE8"/>
<path d="M75.8008 48C76.1088 48.5808 76.3761 49.1822 76.6008 49.8C76.7871 50.4325 77.0561 51.0378 77.4008 51.6L79.7008 54.8C78.6096 54.0291 77.7738 52.9495 77.3008 51.7L76.4008 49.9C76.1125 49.3331 75.9102 48.7265 75.8008 48.1V48Z" fill="#386EE8"/>
<path d="M74.4001 38C74.4684 39.1456 74.6357 40.2832 74.9001 41.4C75.0808 42.5085 75.4175 43.5858 75.9001 44.6L77.5001 47.6L78.3001 49.1L79.1001 50.6C78.3807 49.728 77.7446 48.7906 77.2001 47.8C76.5921 46.8365 76.121 45.7932 75.8001 44.7L74.6001 41.4C74.2838 40.2952 74.2155 39.1342 74.4001 38Z" fill="#386EE8"/>
<path d="M77.7 27.5C77.7 28.7 77.6 29.9 77.6 31.1C77.5621 32.3196 77.7312 33.5368 78.1 34.7C78.4184 35.8888 78.889 37.0316 79.5 38.1C80.0245 39.1754 80.6261 40.2114 81.3 41.2C80.4256 40.3115 79.6846 39.301 79.1 38.2C78.5531 37.124 78.1496 35.9809 77.9 34.8C77.5952 33.586 77.3944 32.3481 77.3 31.1C77.2845 29.8881 77.4188 28.6789 77.7 27.5Z" fill="#386EE8"/>
<path d="M84.4008 41.8984L86.1008 44.2984C86.6125 45.1303 87.2163 45.9018 87.9008 46.5984C89.2599 48.0093 90.6954 49.3447 92.2008 50.5984C90.4927 49.5993 88.9977 48.2742 87.8008 46.6984L85.9008 44.3984C85.31 43.6033 84.7753 42.768 84.3008 41.8984H84.4008Z" fill="#386EE8"/>
<path d="M88.9004 49L90.7004 50.9C91.2841 51.5503 91.9195 52.1522 92.6004 52.7C91.7865 52.3298 91.0423 51.8224 90.4004 51.2C89.7892 50.549 89.2831 49.8068 88.9004 49Z" fill="#386EE8"/>
<path d="M78.8012 40.3008L80.1012 42.7008C80.4811 43.5698 80.9865 44.3784 81.6012 45.1008L83.5012 47.2008L85.4012 49.3008H85.3012C84.5524 48.7236 83.8502 48.0883 83.2012 47.4008C82.5563 46.7314 81.9863 45.9937 81.5012 45.2008L79.9012 42.9008C79.4013 42.0838 78.9986 41.2112 78.7012 40.3008H78.8012Z" fill="#386EE8"/>
<path d="M82.3008 47.6016L84.1008 49.3016L85.0008 50.1016L85.9008 50.9016C85.1217 50.566 84.4102 50.0916 83.8008 49.5016C83.2234 48.9334 82.7195 48.295 82.3008 47.6016Z" fill="#386EE8"/>
<path d="M83.4008 37.1C83.9028 38.1872 84.5054 39.225 85.2008 40.2C85.812 41.2535 86.5509 42.2275 87.4008 43.1L90.0008 45.6L91.3008 46.8L92.7008 48H92.6008C91.6235 47.2884 90.6886 46.5204 89.8008 45.7C88.8848 44.884 88.0167 44.0159 87.2008 43.1C86.4892 42.1227 85.7212 41.1878 84.9008 40.3C84.1705 39.3068 83.6283 38.1884 83.3008 37L83.4008 37.1Z" fill="#386EE8"/>
<path d="M89.4004 43.6016C89.8775 43.9131 90.3141 44.2826 90.7004 44.7016L91.9004 46.0016C91.3598 45.7863 90.8794 45.4432 90.5004 45.0016C90.1031 44.5598 89.7356 44.0921 89.4004 43.6016Z" fill="#386EE8"/>
<path d="M81.0996 25.4008C81.5276 26.9688 82.0622 28.5057 82.6996 30.0008C83.2786 31.5468 84.0877 32.9964 85.0996 34.3008L88.1996 38.1008C89.3329 39.3674 90.4329 40.5674 91.4996 41.7008C90.2049 40.6722 89.0005 39.5347 87.8996 38.3008C86.8996 37.0008 85.8996 35.7008 84.9996 34.3008C84.0931 32.9457 83.2586 31.5437 82.4996 30.1008C81.7779 28.5864 81.3052 26.9656 81.0996 25.3008V25.4008Z" fill="#386EE8"/>
<path d="M83.8012 16.1C84.4012 17.8 85.1012 19.4 85.8012 21.1C86.4735 22.7788 87.3109 24.3867 88.3012 25.9C89.1678 27.4333 90.1678 28.9333 91.3012 30.4C92.295 31.8459 93.4343 33.1862 94.7012 34.4C93.3184 33.2505 92.0764 31.9414 91.0012 30.5C89.9061 29.0515 88.936 27.5126 88.1012 25.9L85.6012 21.1C84.8049 19.4652 84.1686 17.7573 83.7012 16L83.8012 16.1Z" fill="#386EE8"/>
<path d="M85.8008 24.1992C87.2405 26.5832 88.8095 28.8866 90.5008 31.0992C89.4907 30.1305 88.5858 29.0579 87.8008 27.8992C86.9992 26.7437 86.3285 25.5028 85.8008 24.1992Z" fill="#386EE8"/>
<path d="M87.3008 20.1016L89.1008 22.3016C89.5859 23.0945 90.1559 23.8322 90.8008 24.5016L94.8008 28.5016C93.2471 27.4135 91.8651 26.0989 90.7008 24.6016L88.8008 22.5016C88.2099 21.7982 87.7063 21.0259 87.3008 20.2016V20.1016Z" fill="#386EE8"/>
<path d="M90.9004 26.1992L92.9004 28.2992L95.1004 30.3992L97.2004 32.3992C97.8956 33.1144 98.6668 33.7515 99.5004 34.2992C97.7628 33.2999 96.1797 32.0536 94.8004 30.5992L92.8004 28.4992C92.0852 27.804 91.4481 27.0328 90.9004 26.1992Z" fill="#386EE8"/>
<path d="M89.9004 17.1016C91.2177 17.6419 92.461 18.3476 93.6004 19.2016C94.8004 20.0016 95.9004 20.9016 97.0004 21.8016C98.1004 22.7016 99.0004 23.8016 100 24.9016C101 26.0016 101.9 27.0016 102.8 28.1016L99.8004 25.1016C98.8004 24.1016 97.8004 23.0016 96.8004 22.1016C95.7502 21.1424 94.6485 20.241 93.5004 19.4016C92.3864 18.508 91.1794 17.7368 89.9004 17.1016Z" fill="#386EE8"/>
<path d="M99.5 25.8008C100.005 26.0761 100.476 26.4119 100.9 26.8008C101.403 27.1186 101.843 27.5252 102.2 28.0008C103.001 28.8086 103.645 29.758 104.1 30.8008C103.421 29.8895 102.686 29.0212 101.9 28.2008L100.7 27.0008L99.5 25.8008Z" fill="#386EE8"/>
<path d="M105.801 26.3984C106.285 26.6157 106.7 26.9616 107.001 27.3984C107.325 27.7939 107.594 28.2312 107.801 28.6984C107.416 28.3815 107.08 28.0111 106.801 27.5984L105.801 26.3984Z" fill="#386EE8"/>
<path d="M87.4012 12.1008H86.1012C85.6947 12.2939 85.2511 12.3963 84.8012 12.4008H84.7012C84.8738 12.2353 85.0776 12.1058 85.3008 12.02C85.524 11.9341 85.7621 11.8936 86.0012 11.9008C86.1177 11.9389 86.2415 11.9497 86.3628 11.9323C86.4842 11.915 86.6 11.87 86.7012 11.8008H87.4012V12.1008Z" fill="#386EE8"/>
<path d="M109.6 10.2985C108.601 9.41188 107.531 8.60917 106.4 7.89847C105.341 7.03241 104.162 6.325 102.9 5.79846C101.64 5.325 100.332 4.9897 99 4.79846C97.6346 4.77918 96.2777 5.01664 95 5.49847C96.2027 4.77112 97.5965 4.42266 99 4.49847C100.375 4.59104 101.71 5.00182 102.9 5.69845L106.6 7.59845C107.747 8.3596 108.789 9.2673 109.7 10.2985H109.6Z" fill="#386EE8"/>
<path d="M108.4 16.6999C107.343 15.5112 106.133 14.4687 104.8 13.5999C103.467 12.6599 102.023 11.8874 100.5 11.3C98.9812 10.8167 97.3944 10.5803 95.8004 10.5999H90.9004C92.5258 10.3974 94.1624 10.2972 95.8004 10.3C97.4363 10.2645 99.0644 10.5358 100.6 11.0999C102.1 11.7999 103.5 12.6 104.9 13.4C106.325 14.227 107.553 15.3528 108.5 16.6999H108.4Z" fill="#386EE8"/>
<path d="M105 15.3C104 14.9 103.2 14.3 102.2 13.8L100.9 13.1L99.5 12.5C100.021 12.539 100.529 12.6746 101 12.9L102.4 13.5C103.305 14.0422 104.174 14.6435 105 15.3Z" fill="#386EE8"/>
<path d="M106.401 23.8992C105.369 22.7335 104.266 21.6315 103.101 20.5992L99.3008 17.6992L101.401 18.8992L103.301 20.2992C104.516 21.3293 105.563 22.5442 106.401 23.8992Z" fill="#386EE8"/>
<path d="M104.201 23.1008L101.201 20.5008C100.141 19.6776 99.0398 18.9099 97.9008 18.2008L94.5008 16.3008C93.3114 15.6985 92.0738 15.1967 90.8008 14.8008C92.1141 15.0833 93.3896 15.5197 94.6008 16.1008C95.8165 16.6001 96.9874 17.2023 98.1008 17.9008C100.354 19.3582 102.405 21.1066 104.201 23.1008Z" fill="#386EE8"/>
<path d="M118.501 24.9016L117.301 22.6016C116.953 21.799 116.48 21.0566 115.901 20.4016L114.101 18.5016L112.301 16.6016C113.085 17.0554 113.794 17.629 114.401 18.3016C115.02 18.9215 115.589 19.5903 116.101 20.3016C116.501 21.0016 117.101 21.7016 117.601 22.5016C118.052 23.247 118.39 24.056 118.601 24.9016H118.501Z" fill="#386EE8"/>
<path d="M119.901 25.2008L118.801 23.2008L117.701 21.3008C118.275 21.8091 118.75 22.4194 119.101 23.1008C119.444 23.7692 119.713 24.4734 119.901 25.2008Z" fill="#386EE8"/>
<path d="M123.6 23.4992C123 22.1992 122.3 20.9992 121.6 19.7992C121.024 18.51 120.284 17.3001 119.4 16.1992C117.614 14.0297 115.639 12.0219 113.5 10.1992C114.707 10.9208 115.816 11.7947 116.8 12.7992C117.807 13.8075 118.711 14.9129 119.5 16.0992L121.9 19.5992C122.627 20.8234 123.198 22.1335 123.6 23.4992Z" fill="#386EE8"/>
<path d="M125 23.2984C124.625 22.5845 124.292 21.85 124 21.0984C123.7 20.3984 123.3 19.6984 123 18.8984C123.491 19.561 123.926 20.2634 124.3 20.9984C124.637 21.7295 124.873 22.5034 125 23.2984Z" fill="#386EE8"/>
<path d="M129.1 23.2984C128.862 22.9537 128.661 22.585 128.5 22.1984C128.3 21.7984 128.2 21.3984 128 20.8984C128.353 21.1938 128.628 21.5716 128.8 21.9984C128.958 22.4164 129.059 22.8536 129.1 23.2984Z" fill="#386EE8"/>
<path d="M130.2 23.4984L129 20.7984C128.708 19.8677 128.269 18.9898 127.7 18.1984C126.437 16.6694 125.067 15.2325 123.6 13.8984C125.371 14.8696 126.828 16.3268 127.8 18.0984L129.3 20.6984C129.704 21.595 130.006 22.5343 130.2 23.4984Z" fill="#386EE8"/>
<path d="M131.501 16.8008C130.501 15.2008 129.501 13.7008 128.401 12.2008C127.324 10.6401 126.047 9.22793 124.601 8.00079C123.094 6.94026 121.525 5.9718 119.901 5.10077L114.701 2.80078C116.54 3.25678 118.319 3.92808 120.001 4.80078C121.719 5.58406 123.305 6.62991 124.701 7.90079C125.417 8.51656 126.085 9.1851 126.701 9.90079L128.601 12.0008C129.72 13.504 130.691 15.1114 131.501 16.8008Z" fill="#386EE8"/>
<path d="M128.901 8.5C130.124 9.50708 131.231 10.6475 132.201 11.9L134.901 15.7C135.77 17.0243 136.507 18.4311 137.101 19.9C137.73 21.371 138.167 22.9171 138.401 24.5H138.301C137.906 22.9995 137.405 21.5291 136.801 20.1C136.202 18.6194 135.5 17.1825 134.701 15.8C133.926 14.4487 133.022 13.1761 132.001 12C130.901 10.9 129.901 9.7 128.801 8.5H128.901Z" fill="#386EE8"/>
<path d="M135.5 20C135.962 20.5734 136.333 21.2142 136.6 21.9C136.829 22.5783 136.964 23.285 137 24C136.8 23.3 136.5 22.7 136.3 22C135.991 21.3512 135.723 20.6832 135.5 20Z" fill="#386EE8"/>
<path d="M135.801 13.8008C136.725 14.5441 137.534 15.4203 138.201 16.4008L140.001 19.4008C140.52 20.465 140.955 21.5684 141.301 22.7008L142.301 26.1008H142.201C141.701 25.0008 141.301 23.9008 140.901 22.8008C140.501 21.7008 140.301 20.6008 139.801 19.5008C139.359 18.4141 138.752 17.4022 138.001 16.5008L135.801 13.8008Z" fill="#386EE8"/>
<path d="M132.301 9.19922C134.034 10.2053 135.616 11.451 137.001 12.8992C138.356 14.3301 139.501 15.9462 140.401 17.6992L138.701 15.2992L136.701 13.0992C135.353 11.6713 133.88 10.3661 132.301 9.19922Z" fill="#386EE8"/>
<path d="M143.1 16.6992C143.813 17.3592 144.45 18.0972 145 18.8992L146.5 21.3992C146.979 22.2382 147.317 23.1504 147.5 24.0992C147.718 25.0494 147.785 26.0281 147.7 26.9992C147.558 26.0543 147.358 25.1192 147.1 24.1992C147.058 23.722 146.957 23.2517 146.8 22.7992C146.694 22.3447 146.526 21.9071 146.3 21.4992C145.92 20.6302 145.414 19.8216 144.8 19.0992L143.1 16.6992Z" fill="#386EE8"/>
<path d="M148.6 23.3984C148.876 23.993 149.013 24.6429 149 25.2984C149.056 25.9467 148.953 26.5989 148.7 27.1984V25.2984C148.7 24.6984 148.6 24.0984 148.6 23.3984Z" fill="#386EE8"/>
<path d="M145.801 22.6016C146.183 22.9923 146.458 23.4743 146.601 24.0016C146.664 24.5366 146.63 25.0785 146.501 25.6016L146.201 24.0016C146.114 23.5229 145.98 23.0539 145.801 22.6016Z" fill="#386EE8"/>
<path d="M108.001 77.8981C108.068 77.8019 108.158 77.724 108.263 77.6716C108.368 77.6192 108.484 77.5939 108.601 77.5981H109.201C109.632 77.6781 110.041 77.8485 110.401 78.0981C110.695 78.4052 110.902 78.7848 111.001 79.1981C111.114 79.6305 111.079 80.0881 110.901 80.4981C110.701 80.8981 110.101 80.9981 109.701 80.9981C109.258 81.0285 108.814 80.9601 108.401 80.7981C108.026 80.5884 107.688 80.3181 107.401 79.9981C107.224 79.5881 107.188 79.1305 107.301 78.6981C107.285 79.1003 107.405 79.4962 107.641 79.8224C107.876 80.1487 108.214 80.3866 108.601 80.4981L109.701 80.6981C110.101 80.6981 110.501 80.6981 110.701 80.3981C110.895 80.0489 110.951 79.6397 110.859 79.2511C110.766 78.8625 110.532 78.5226 110.201 78.2981L109.201 77.7981C108.801 77.6981 108.301 77.4981 108.101 77.7981L108.001 77.8981Z" fill="#386EE8"/>
<path d="M106.401 76.6991L107.501 75.1991L107.701 74.8991C107.801 74.7991 108.001 74.5991 108.201 74.6991C108.537 74.7274 108.854 74.8683 109.101 75.0991C109.952 75.9172 110.753 76.7854 111.501 77.6991L114.001 80.2991L115.201 81.5991L115.801 82.2991C116.047 82.5351 116.191 82.8583 116.201 83.1991C116.203 83.3687 116.143 83.5331 116.032 83.6619C115.922 83.7906 115.769 83.8749 115.601 83.8991C115.469 83.9854 115.319 84.0395 115.163 84.0569C115.006 84.0742 114.848 84.0545 114.701 83.9991C114.089 83.9965 113.481 83.8951 112.901 83.6991C111.74 83.4236 110.603 83.0557 109.501 82.5991C108.405 82.1263 107.337 81.5921 106.301 80.9991L105.601 80.3991C105.412 80.1364 105.307 79.8226 105.301 79.4991C105.334 78.8867 105.542 78.2966 105.901 77.7991C105.617 78.3196 105.479 78.9068 105.501 79.4991C105.497 79.6307 105.521 79.7615 105.573 79.8824C105.625 80.0034 105.703 80.1115 105.801 80.1991C105.901 80.3991 106.201 80.5991 106.401 80.7991C107.438 81.359 108.507 81.8598 109.601 82.2991L113.001 83.3991L114.701 83.7991C115.301 83.7991 116.001 83.7991 116.001 83.0991C115.944 82.8495 115.843 82.6122 115.701 82.3991L115.101 81.6991L113.901 80.3991L111.301 77.8991C110.501 77.0991 109.801 76.0991 108.901 75.2991C108.716 75.095 108.471 74.9549 108.201 74.8991C108.001 74.7991 107.801 75.1991 107.601 75.3991L106.501 76.6991H106.401Z" fill="#386EE8"/>
<path d="M105.2 77.2011L104.6 79.3011C104.466 79.6168 104.431 79.9653 104.5 80.3011C104.647 80.6322 104.891 80.911 105.2 81.1011C106.4 81.9011 107.8 82.5011 109.1 83.2011C110.449 83.7845 111.857 84.2204 113.3 84.5011C114.016 84.6992 114.756 84.8001 115.5 84.8011L116.6 84.6011C116.759 84.5409 116.904 84.4474 117.025 84.3267C117.146 84.206 117.239 84.0609 117.3 83.9011C117.6 83.3011 117.1 82.6011 116.7 82.0011L115.1 80.5011L112 77.2011L110.5 75.6011C110.016 75.0509 109.48 74.5485 108.9 74.1011C108.766 73.979 108.607 73.8886 108.434 73.8367C108.261 73.7847 108.078 73.7726 107.9 73.8011C107.6 73.8011 107.3 74.1011 107.1 74.3011C106.521 74.7937 106.016 75.3661 105.6 76.0011C105.951 75.3197 106.426 74.7094 107 74.2011C107.239 73.9222 107.55 73.7146 107.9 73.6011C108.3 73.4011 108.7 73.7011 109 73.9011C110.194 74.8291 111.299 75.8669 112.3 77.0011L115.3 80.2011L116.9 81.9011L117.5 82.8011C117.645 83.1878 117.645 83.6144 117.5 84.0011C117.3 84.3632 116.982 84.6457 116.6 84.8011H115.5L113.3 84.6011C111.824 84.3206 110.383 83.8848 109 83.3011C107.587 82.7627 106.245 82.0577 105 81.2011C104.664 80.9973 104.414 80.6769 104.3 80.3011C104.235 79.8989 104.269 79.487 104.4 79.1011C104.622 78.3851 104.889 77.6838 105.2 77.0011V77.2011Z" fill="#386EE8"/>
<path d="M170.001 146.701L169.701 144.501C169.601 143.801 169.601 143.001 168.901 142.701L165.201 140.201C162.8 138.432 160.618 136.385 158.701 134.101C156.767 131.817 155.028 129.375 153.501 126.801C152.748 125.553 151.878 124.381 150.901 123.301C149.879 122.236 148.655 121.387 147.301 120.801C148.724 121.273 150.023 122.059 151.101 123.101C152.142 124.188 153.048 125.397 153.801 126.701C155.401 129.101 157.001 131.701 158.801 134.001C160.642 136.327 162.835 138.351 165.301 140.001L169.001 142.501L169.501 142.801C169.612 142.983 169.681 143.188 169.701 143.401C169.815 143.757 169.882 144.127 169.901 144.501C169.984 145.231 170.017 145.966 170.001 146.701Z" fill="#386EE8"/>
<path d="M147 121.801C147.902 122.252 148.715 122.862 149.4 123.601C150.1 124.401 150.6 125.301 151.3 126.001C152.515 127.624 153.617 129.328 154.6 131.101H154.5C153.197 129.556 152.058 127.88 151.1 126.101C150.584 125.244 149.944 124.469 149.2 123.801C148.54 123.087 147.802 122.45 147 121.901V121.801Z" fill="#386EE8"/>
<path d="M155.201 132.5C155.594 133.205 155.929 133.94 156.201 134.7L156.801 137H156.401C156.357 136.22 156.223 135.449 156.001 134.7C155.824 133.937 155.556 133.198 155.201 132.5Z" fill="#386EE8"/>
<path d="M151.801 134.8C151.394 134.053 151.026 133.286 150.701 132.5C150.401 131.716 149.997 130.976 149.501 130.3C148.501 129 147.401 127.7 146.301 126.5C147.02 126.922 147.662 127.463 148.201 128.1C148.736 128.752 149.204 129.456 149.601 130.2C150.001 131 150.501 131.7 150.901 132.4C151.32 133.15 151.624 133.959 151.801 134.8Z" fill="#386EE8"/>
<path d="M149.6 132.199C150.859 134.09 151.773 136.189 152.3 138.399H152C151.56 136.21 150.749 134.113 149.6 132.199Z" fill="#386EE8"/>
<path d="M146.301 132.199C146.691 132.338 147.037 132.58 147.301 132.899C147.558 133.216 147.791 133.55 148.001 133.899C148.289 134.19 148.526 134.528 148.701 134.899L149.101 136.099C149.606 137.637 150.007 139.207 150.301 140.799L151.501 145.499C151.832 147.083 152.066 148.686 152.201 150.299L152.501 155.199C152.601 156.799 152.801 158.399 153.001 159.999C153.201 161.599 153.401 163.199 153.501 164.799C153.441 165.618 153.273 166.425 153.001 167.199L152.201 169.499C151.201 172.599 150.401 175.699 149.101 178.699C148.463 180.194 147.929 181.731 147.501 183.299C147.101 184.799 146.601 186.399 146.101 187.899C145.099 190.993 143.931 194.031 142.601 196.999C141.385 200.017 139.982 202.956 138.401 205.799H138.301C141.269 200.04 143.777 194.054 145.801 187.899C146.301 186.399 146.701 184.899 147.201 183.299C147.629 181.731 148.163 180.194 148.801 178.699C149.401 177.199 150.001 175.699 150.501 174.199L152.101 169.599L152.801 167.299C153.062 166.522 153.23 165.716 153.301 164.899C153.267 163.292 153.133 161.689 152.901 160.099C152.701 158.499 152.401 156.899 152.301 155.299L152.001 150.399L151.701 147.999C151.501 147.199 151.301 146.399 151.201 145.699C151.101 144.999 150.501 142.499 150.101 140.899C149.701 139.299 149.401 137.799 148.901 136.199C148.828 135.813 148.693 135.442 148.501 135.099C148.38 134.694 148.176 134.32 147.901 133.999L147.201 133.099C146.901 132.799 146.701 132.399 146.301 132.299V132.199Z" fill="#386EE8"/>
<path d="M145.801 197.399C147.721 192.555 149.39 187.615 150.801 182.599L152.601 174.999C152.709 174.34 152.911 173.7 153.201 173.099C153.308 172.799 153.478 172.526 153.701 172.299L154.301 171.499L156.501 168.299C156.82 167.736 157.056 167.13 157.201 166.499C157.217 165.864 157.184 165.229 157.101 164.599C156.901 163.299 156.601 161.999 156.401 160.699C156.201 159.399 155.401 155.599 154.801 153.099C154.201 150.599 153.701 147.999 153.201 145.499L152.301 141.599L152.001 139.699C151.913 139.373 151.88 139.036 151.901 138.699C151.896 138.645 151.903 138.59 151.92 138.539C151.937 138.487 151.965 138.44 152.001 138.399H152.801C153.429 138.473 154.063 138.332 154.601 137.999C155.072 137.546 155.661 137.234 156.301 137.099C156.409 137.058 156.527 137.056 156.636 137.092C156.746 137.129 156.839 137.202 156.901 137.299C157.001 137.399 157.001 137.599 157.101 137.699L157.501 138.599L158.201 140.399C159.201 142.799 160.301 145.199 161.501 147.499C162.65 149.849 164.059 152.062 165.701 154.099C167.301 156.099 169.101 157.899 170.901 159.799C172.701 161.699 174.601 163.499 176.401 165.499L177.001 166.199L177.601 166.999V168.099C177.558 168.264 177.524 168.43 177.501 168.599C177.501 168.699 177.501 168.699 177.401 168.799C177.301 168.899 177.401 168.899 177.301 168.999H177.101C176.485 168.715 175.912 168.345 175.401 167.899L174.101 166.399L164.301 154.299L174.301 166.399C174.707 166.89 175.141 167.358 175.601 167.799C176.035 168.222 176.543 168.561 177.101 168.799V168.599C177.144 168.434 177.177 168.267 177.201 168.099V167.199L176.001 165.799L170.601 160.199C168.801 158.299 167.001 156.399 165.301 154.399C163.659 152.362 162.251 150.149 161.101 147.799C159.901 145.399 158.901 143.099 157.901 140.599L157.101 138.799L156.801 137.899C156.701 137.799 156.701 137.599 156.601 137.499C156.501 137.399 156.401 137.399 156.301 137.399C155.669 137.556 155.086 137.865 154.601 138.299C154.027 138.632 153.361 138.773 152.701 138.699H152.201C152.001 138.699 152.001 138.799 152.001 138.899V139.899C152.101 140.499 152.301 141.199 152.401 141.799L153.201 145.599L154.901 153.299C155.401 155.799 156.001 158.399 156.501 160.899C157.001 163.399 157.001 163.499 157.201 164.799C157.337 165.423 157.37 166.064 157.301 166.699C157.173 167.366 156.937 168.008 156.601 168.599C155.901 169.699 155.201 170.799 154.401 171.899L153.901 172.699L153.301 173.399C153.075 174.015 152.908 174.651 152.801 175.299L150.901 182.899C149.501 187.898 147.798 192.807 145.801 197.599V197.399Z" fill="#386EE8"/>
<path d="M163.3 153.099C161.128 150.284 159.282 147.231 157.8 143.999C157.5 143.099 157.1 142.299 156.8 141.499L156.4 140.199L156.2 139.599C156.2 139.499 156.1 139.399 156.1 139.299C156.1 139.199 156.1 139.299 155.9 139.299C155.057 139.413 154.243 139.685 153.5 140.099L154 142.499C155.4 149.499 156.9 156.399 158.4 163.399L159 165.999C159.123 166.422 159.19 166.859 159.2 167.299C159.3 167.799 158.9 168.199 158.7 168.599C157.515 169.93 156.413 171.333 155.4 172.799C154.845 173.474 154.436 174.258 154.2 175.099C153.92 175.919 153.687 176.754 153.5 177.599L152.3 182.799C151.5 186.299 150.7 189.699 149.6 193.099C148.639 196.546 147.436 199.922 146 203.199C148.7 196.599 150.3 189.599 152 182.799L153.2 177.599C153.374 176.718 153.608 175.849 153.9 174.999C154.137 174.127 154.545 173.312 155.1 172.599C156.2 171.099 157.3 169.799 158.5 168.399C158.766 168.086 158.939 167.705 159 167.299C158.982 166.86 158.915 166.424 158.8 165.999L158.2 163.399C156.8 156.399 155.3 149.499 153.7 142.599L153.5 141.199L153.3 140.599V140.099H153.4C154.215 139.666 155.092 139.363 156 139.199H156.4L156.6 139.599L156.8 140.199L157.2 141.499L158.1 143.999C158.794 145.636 159.631 147.209 160.6 148.699C161.5 150.199 162.4 151.699 163.4 153.199L163.3 153.099Z" fill="#386EE8"/>
<path d="M167.5 142.699C167.919 142.887 168.269 143.202 168.5 143.599C168.761 144.054 168.832 144.592 168.7 145.099C168.735 145.978 168.869 146.85 169.1 147.699C169.412 148.585 169.679 149.486 169.9 150.399C170.2 151.299 170.4 152.199 170.7 153.099H170.6C170.164 152.275 169.829 151.403 169.6 150.499C169.305 149.623 169.104 148.718 169 147.799C168.776 146.877 168.609 145.942 168.5 144.999C168.524 144.557 168.456 144.114 168.3 143.699C168.09 143.324 167.82 142.986 167.5 142.699Z" fill="#386EE8"/>
<path d="M170.401 149C171.001 150.5 171.601 151.9 172.101 153.4C172.649 154.935 173.283 156.437 174.001 157.9C174.701 159.3 175.501 160.6 176.301 162.1C176.702 162.788 177.005 163.528 177.201 164.3C177.367 165.089 177.434 165.895 177.401 166.7C177.2 165.13 176.726 163.607 176.001 162.2C175.169 160.819 174.434 159.383 173.801 157.9C173.201 156.5 172.501 155 171.901 153.5C171.22 152.057 170.684 150.549 170.301 149H170.401Z" fill="#386EE8"/>
<path d="M169.5 143.199C171.687 144.882 174.072 146.293 176.6 147.399C179.2 148.499 181.8 149.399 184.5 150.299L188.4 151.599C188.74 151.68 189.052 151.853 189.3 152.099C189.5 152.299 189.6 152.399 189.6 152.599C189.6 152.799 189.8 152.899 189.8 153.099L190.7 154.999C191.7 157.599 192.7 160.199 193.5 162.799C194.3 165.399 194.9 168.199 195.8 170.799C196.7 173.399 197.7 175.999 198.7 178.599C200.883 183.721 202.006 189.232 202 194.799C201.914 192.041 201.579 189.297 201 186.599C200.284 183.919 199.416 181.281 198.4 178.699C197.4 176.099 196.3 173.599 195.5 170.899C194.7 168.199 194.1 165.499 193.3 162.899C192.5 160.299 191.6 157.599 190.6 154.999L189.7 153.099C189.5 152.799 189.5 152.499 189.2 152.299C188.999 152.045 188.717 151.868 188.4 151.799L184.4 150.499C181.744 149.731 179.138 148.796 176.6 147.699C174.038 146.533 171.648 145.019 169.5 143.199Z" fill="#386EE8"/>
<path d="M217.5 200.499L214.4 194.399L211.2 188.299C209.1 184.199 206.8 180.199 204.4 176.399L200.6 170.599C199.4 168.699 198.1 166.799 197 164.699C196.433 163.68 195.964 162.608 195.6 161.499C195.261 160.413 194.79 159.372 194.2 158.399C193.625 157.428 192.991 156.493 192.3 155.599L191.2 154.299C190.841 153.853 190.4 153.48 189.9 153.199C190.427 153.439 190.902 153.779 191.3 154.199C191.719 154.585 192.089 155.022 192.4 155.499C193.155 156.366 193.825 157.304 194.4 158.299C195.039 159.26 195.543 160.303 195.9 161.399C196.264 162.508 196.733 163.58 197.3 164.599C198.368 166.612 199.571 168.549 200.9 170.399L204.5 176.299C206.9 180.199 209.2 184.199 211.4 188.199C212.5 190.199 213.6 192.199 214.6 194.299C215.6 196.399 216.6 198.399 217.5 200.499Z" fill="#386EE8"/>
<path d="M83.3012 118.102C82.4102 118.267 81.5607 118.607 80.8012 119.102C80.1799 119.758 79.7932 120.602 79.7011 121.502C79.281 123.242 79.0133 125.015 78.9012 126.802C78.8011 128.6 78.8011 130.403 78.9012 132.202C79.0012 133.102 79.0011 134.002 79.1011 134.902C79.1114 135.342 79.1787 135.779 79.3012 136.202C79.292 136.31 79.3049 136.419 79.3393 136.522C79.3737 136.625 79.4288 136.72 79.5011 136.802L80.0011 137.302C81.2011 138.602 82.4011 140.002 83.7011 141.202L84.8012 142.102L85.4012 143.402L85.7011 146.102C85.7501 147.012 85.6488 147.924 85.4012 148.802C85.3811 149.014 85.3127 149.219 85.2011 149.402C85.1208 149.477 85.0675 149.576 85.0494 149.685C85.0313 149.793 85.0495 149.904 85.1011 150.002C85.119 150.474 85.186 150.943 85.3012 151.402C85.6012 153.102 86.2011 154.902 86.6011 156.602C86.7487 157.057 86.8493 157.526 86.9012 158.002C86.9507 158.434 86.9507 158.87 86.9012 159.302C86.918 160.205 86.9848 161.106 87.1011 162.002C87.2205 163.82 87.488 165.626 87.9012 167.402C88.3012 169.102 89.0011 170.802 89.5011 172.602C90.0283 174.31 90.4622 176.046 90.8012 177.802C91.5784 181.352 92.0137 184.968 92.1011 188.602C92.3011 192.232 92.3011 195.871 92.1011 199.502H92.0011C92.1011 195.902 92.1012 192.302 91.9012 188.702C91.6873 185.073 91.2195 181.464 90.5011 177.902C90.1011 176.102 89.7011 174.402 89.2011 172.702C88.5765 170.964 88.0425 169.195 87.6011 167.402C87.2296 165.652 86.9625 163.883 86.8012 162.102C86.7179 161.171 86.6845 160.236 86.7011 159.302C86.7507 158.87 86.7507 158.434 86.7011 158.002C86.6831 157.562 86.616 157.126 86.5011 156.702C85.9737 154.959 85.5398 153.19 85.2011 151.402L84.9012 150.002C84.8851 149.893 84.8948 149.782 84.9295 149.678C84.9643 149.573 85.0231 149.479 85.1011 149.402C85.2127 149.219 85.2811 149.014 85.3012 148.802C85.5659 147.927 85.6342 147.005 85.5011 146.102C85.5003 145.193 85.3997 144.288 85.2011 143.402C85.0828 142.966 84.8789 142.558 84.6011 142.202L83.6011 141.302C82.2365 140.137 80.9659 138.866 79.8012 137.502L79.3012 137.002C79.1012 136.802 79.1011 136.502 79.0011 136.302C78.9011 136.102 78.9012 135.402 78.8012 135.002C78.7012 134.602 78.7011 133.102 78.6011 132.202C78.4846 130.402 78.518 128.596 78.7011 126.802C78.8205 124.983 79.088 123.177 79.5011 121.402C79.6476 120.477 80.1064 119.63 80.8012 119.002C81.5465 118.498 82.4059 118.189 83.3012 118.102Z" fill="#386EE8"/>
<path d="M90.201 187.199C90.001 184.899 89.701 182.599 89.401 180.299C89.101 177.999 88.701 175.799 88.201 173.499C87.6394 171.284 86.8345 169.138 85.801 167.099C85.1652 166.126 84.7237 165.04 84.501 163.899C84.401 162.699 84.501 161.599 84.401 160.399V156.899C84.301 155.799 84.301 154.599 84.101 153.499C83.8245 152.404 83.4565 151.333 83.001 150.299C82.8868 150.012 82.8193 149.708 82.801 149.399C82.7337 149.096 82.7689 148.78 82.901 148.499L83.401 146.899L83.901 145.199C83.921 144.923 83.9887 144.652 84.101 144.399C84.101 144.199 83.801 143.899 83.701 143.699L81.301 141.199L78.701 138.899C78.501 138.799 78.201 138.499 78.001 138.499L77.201 138.299C76.901 138.299 76.601 138.299 76.501 138.499L75.801 139.099C72.001 141.699 68.101 144.199 64.201 146.599L62.701 147.499C62.201 147.699 61.901 148.199 61.501 148.599C60.8104 149.527 60.1759 150.496 59.601 151.499C59.001 152.499 58.501 153.499 57.801 154.499H57.401L57.201 154.199C57.201 154.099 57.101 153.999 57.101 153.799C57.101 153.599 56.901 153.299 56.801 152.999C56.7191 152.707 56.6853 152.403 56.701 152.099C56.6855 151.926 56.7202 151.753 56.801 151.599C56.801 151.546 56.8221 151.495 56.8596 151.458C56.8971 151.42 56.948 151.399 57.001 151.399C57.001 151.299 57.001 151.299 57.101 151.299C57.201 151.299 58.601 149.599 59.401 148.699L60.601 147.399L61.201 146.799L61.501 146.499L61.901 146.299L68.001 142.999C70.0284 141.92 71.9677 140.683 73.801 139.299L75.101 138.199L75.701 137.499L76.301 136.899L78.001 136.699L79.701 137.199C79.1643 136.961 78.5877 136.825 78.001 136.799L76.301 136.999L75.201 138.299L73.901 139.399C72.0695 140.815 70.1302 142.085 68.101 143.199L62.101 146.599L61.401 146.999L60.801 147.599L59.701 148.899C58.9536 149.813 58.1522 150.681 57.301 151.499C57.301 151.599 57.201 151.599 57.101 151.699C57.0215 151.817 56.986 151.958 57.001 152.099C57.001 152.399 57.101 152.599 57.101 152.899L57.401 153.699C57.401 153.799 57.501 153.999 57.501 154.099H57.601C58.201 153.299 58.701 152.199 59.301 151.199C59.876 150.196 60.5104 149.227 61.201 148.299C61.5848 147.849 62.0212 147.446 62.501 147.099L64.001 146.199C67.901 143.799 71.901 141.399 75.701 138.799C75.901 138.599 76.201 138.499 76.301 138.299C76.401 138.099 76.901 137.999 77.201 137.999L78.101 138.199C78.3713 138.307 78.6115 138.478 78.801 138.699L81.401 140.999C82.2188 141.784 82.987 142.619 83.701 143.499C83.901 143.799 84.201 143.999 84.201 144.299C84.099 144.556 84.0317 144.825 84.001 145.099L83.501 146.799L83.101 148.499C82.9929 148.756 82.9457 149.033 82.9631 149.311C82.9804 149.589 83.0619 149.858 83.201 150.099C83.6716 151.162 84.04 152.267 84.301 153.399C84.501 154.499 84.501 155.699 84.601 156.799C84.701 157.899 84.701 159.099 84.701 160.299C84.6342 161.433 84.6677 162.571 84.801 163.699C85.0599 164.829 85.4988 165.909 86.101 166.899C87.1183 168.969 87.8902 171.15 88.401 173.399C89.3508 177.913 89.9526 182.493 90.201 187.099V187.199Z" fill="#386EE8"/>
<path d="M82.8999 116.201C81.8805 116.222 80.8779 116.466 79.9624 116.915C79.047 117.364 78.2406 118.008 77.5999 118.801L73.0999 123.201C70.0662 126.005 66.7483 128.485 63.1999 130.601C61.3999 131.701 59.4999 132.501 57.6999 133.601L57.0999 134.001C57.02 134.23 56.9533 134.464 56.8999 134.701C56.9163 135.203 56.8828 135.705 56.7999 136.201V139.301C56.7999 141.401 56.5999 143.501 56.4999 145.501C56.3999 147.501 56.3999 147.601 56.4999 148.601C56.451 149.643 56.5521 150.687 56.7999 151.701C56.4326 150.71 56.2628 149.657 56.2999 148.601V145.501C56.2999 143.401 56.4999 141.401 56.4999 139.301V136.201C56.4834 135.666 56.5168 135.13 56.5999 134.601C56.6255 134.312 56.7293 134.035 56.8999 133.801L57.4999 133.301C59.2999 132.201 61.2999 131.501 63.0999 130.501C64.9285 129.52 66.6684 128.383 68.2999 127.101C69.8999 125.801 71.3999 124.401 72.8999 123.001L77.3999 118.701C78.1111 117.921 78.9583 117.277 79.8999 116.801C80.8543 116.308 81.9304 116.099 82.9999 116.201H82.8999Z" fill="#386EE8"/>
<path d="M83.1012 116.801C82.2263 116.915 81.3793 117.186 80.6012 117.601C80.226 117.811 79.8881 118.081 79.6012 118.401C79.2765 118.676 78.9755 118.977 78.7012 119.301C78.8373 118.881 79.0782 118.503 79.4012 118.201C79.709 117.874 80.0435 117.573 80.4012 117.301C81.2248 116.851 82.1709 116.676 83.1012 116.801Z" fill="#386EE8"/>
<path d="M78.0011 120.699C77.4581 122.566 77.0569 124.472 76.8011 126.399C76.6465 127.359 76.5463 128.328 76.5011 129.299C76.3812 130.261 76.3144 131.23 76.3011 132.199C76.1682 131.205 76.1347 130.2 76.2011 129.199C76.2011 128.299 76.3011 127.299 76.4011 126.299C76.6873 124.371 77.2252 122.488 78.0011 120.699Z" fill="#386EE8"/>
<path d="M76.3996 133V135.3C76.3927 135.485 76.3221 135.661 76.1996 135.8C75.8416 136.108 75.5074 136.442 75.1996 136.8L74.0996 137.8L74.9996 136.6L75.9996 135.5V135.3V134.3C76.0943 133.856 76.2282 133.421 76.3996 133Z" fill="#386EE8"/>
<path d="M39.5004 147.999L38.0004 147.299L36.4004 146.699C36.9838 146.641 37.5719 146.745 38.1004 146.999C38.6604 147.177 39.1502 147.527 39.5004 147.999Z" fill="#386EE8"/>
<path d="M41.2004 150.799C40.3036 149.752 39.1732 148.93 37.9004 148.399C37.2744 148.063 36.5995 147.827 35.9004 147.699L33.9004 147.199L36.0004 147.399C36.7276 147.541 37.4334 147.776 38.1004 148.099C39.368 148.688 40.4428 149.625 41.2004 150.799Z" fill="#386EE8"/>
<path d="M56.8012 134.998L54.1012 136.398L51.4012 137.898L45.9012 140.498C42.2012 142.198 38.6012 143.998 34.8012 145.398L31.9012 146.498C30.9013 146.683 29.9691 147.132 29.2012 147.798C27.6406 149.08 26.2909 150.598 25.2012 152.298C24.1012 153.998 23.1012 155.798 22.1012 157.598C21.1012 159.398 20.2012 161.198 19.4012 162.998C15.9584 170.346 13.0508 177.932 10.7012 185.698C9.50117 189.598 8.30117 193.498 7.20117 197.398C6.70117 199.398 6.10117 201.298 5.60117 203.298C5.10117 205.298 4.60118 207.198 4.30118 209.198H4.20117C4.90117 205.198 6.00116 201.298 7.00116 197.298C8.00116 193.298 9.20118 189.498 10.4012 185.598C12.741 177.815 15.6832 170.225 19.2012 162.898C21.0012 159.298 22.9012 155.698 25.1012 152.198C26.2114 150.485 27.558 148.936 29.1012 147.598C29.912 146.977 30.826 146.503 31.8012 146.198L34.7012 145.198C38.4012 143.698 42.1012 141.998 45.8012 140.298L51.4012 137.698L54.0012 136.298L56.8012 134.898V134.998Z" fill="#386EE8"/>
<path d="M118.7 0.899994C120.2 0.899994 122.9 1.09998 128 3.19998C133.1 5.29998 135.2 7.49999 139.2 10.4C142.169 12.6667 144.945 15.1753 147.5 17.9C149.5 19.9 149.8 23.5 149.9 25.3C150 27.1 149.8 28.4 149.8 28.4C151.3 30.3 152.3 35.6 153 37.5C153.7 39.4 154.7 41.8 155.2 43.4C155.562 44.7348 155.664 46.1267 155.5 47.5L161.2 48.5C161.7 48.6 161.6 48.8 161.6 49.3C161.6 49.8 162.1 56.5 162.2 58.9C162.3 61.3 162.6 64.2 162.6 65.2C162.6 66.2 162.1 66.3 161 66.7L155.8 67.8C156.268 68.7255 156.636 69.6975 156.9 70.7C157.1 71.6 157 72.6 156.8 75.9C156.6 79.2 155.5 89.4 155.5 89.4L156.4 89.9C156.473 89.9587 156.522 90.0407 156.54 90.132C156.559 90.2233 156.544 90.318 156.5 90.4C156.5 90.4 156.5 90.6 156.3 92.1C156.118 93.8907 155.573 95.6258 154.7 97.2C153.583 98.789 152.31 100.263 150.9 101.6C149.2 103.4 148.8 104.4 146.8 105.1C145.077 105.59 143.292 105.826 141.5 105.8H141C141 105.8 141.1 108.6 141 110.8L140.7 113.9C142.524 114.646 144.294 115.515 146 116.5C146.328 116.732 146.604 117.03 146.81 117.374C147.017 117.718 147.15 118.102 147.2 118.5C147.377 119.254 147.411 120.034 147.3 120.8C148.759 121.346 150.063 122.238 151.1 123.4C152.6 124.9 153.4 126.1 156.3 130.7C158.12 133.57 160.381 136.135 163 138.3C164.6 139.7 168.3 142 169 142.5C169.7 143 169.5 143.2 169.5 143.2C170.958 144.389 172.533 145.428 174.2 146.3C177.377 147.893 180.691 149.198 184.1 150.2C185.822 150.634 187.497 151.237 189.1 152C189.452 152.336 189.725 152.746 189.9 153.2C190.416 153.411 190.865 153.756 191.2 154.2C192.365 155.265 193.344 156.515 194.1 157.9C195.344 160.1 196.382 162.409 197.2 164.8C198.2 167.2 206.9 180.3 207.7 181.7C208.5 183.1 215.2 194.7 217.4 200.5C219.6 206.3 219.6 228.1 219.6 228.1L1.90039 245.4C1.90039 245.4 2.80038 218.8 4.20038 209.5C5.60038 200.2 7.50037 197.3 11.0004 184.3C14.5004 171.3 21.3004 158.8 24.2004 153.7C27.1004 148.6 30.0004 147 30.9004 146.6C32.7701 146.038 34.6064 145.37 36.4004 144.6C38.6004 143.6 50.6004 138.4 52.2004 137.4C53.8004 136.4 56.6004 135.1 56.6004 135.1C56.6149 134.791 56.6826 134.486 56.8004 134.2C56.9004 133.7 57.5004 133.4 59.0004 132.6C60.5004 131.8 64.1004 130 66.0004 128.8C68.2567 127.265 70.3658 125.524 72.3004 123.6L77.8004 118.3C78.6986 117.469 79.7521 116.823 80.9004 116.4C81.4535 116.247 82.0268 116.179 82.6004 116.2H82.9004C82.9004 116.2 82.9004 116 82.8004 114.9C82.7004 113.8 82.4004 113.8 82.4004 112.6C82.4004 111.4 82.8004 111.1 83.8004 110.2C85.1068 109.469 86.5264 108.962 88.0004 108.7L90.3004 108.3H90.4004C90.4004 108.3 90.4004 107.5 90.2004 104.3C90.0004 101.1 89.4004 94.5 89.0004 90.6C88.6004 86.7 88.1004 84.3 88.1004 84.3C85.9639 83.5444 84.1128 82.1474 82.8004 80.3C80.6321 77.6173 79.0329 74.521 78.1004 71.2C77.1394 67.9595 76.8001 64.5666 77.1004 61.2C77.4004 57.2 78.1004 56.6 78.1004 56.6C77.2327 55.3805 76.4953 54.0733 75.9004 52.7C74.8441 50.4426 74.2653 47.9914 74.2004 45.5C73.9634 43.0678 74.0306 40.6155 74.4004 38.2C74.6004 37.1 75.4004 35.3 75.9004 32.9C76.2446 30.9155 76.885 28.9941 77.8004 27.2C78.9004 25.3 79.6004 22.4 80.5004 20.1C81.2805 17.835 82.3565 15.6831 83.7004 13.7C85.3475 11.88 87.1184 10.1759 89.0004 8.59998C91.1004 6.69998 93.8004 6.29998 97.1004 4.59998C99.422 3.34078 101.972 2.55878 104.6 2.29999L110.4 2C111.5 1.9 116.8 0.899994 118.1 0.899994H118.7ZM118.7 0H118.1C116.491 0.117298 114.889 0.31754 113.3 0.599976L110.3 1L104.6 1.29999C101.796 1.60299 99.0782 2.45231 96.6004 3.79999L93.1004 5.29999C91.398 5.8484 89.8066 6.69489 88.4004 7.79999L87.6004 8.5C85.9145 9.90659 84.3429 11.4447 82.9004 13.1C81.5356 15.1573 80.4274 17.3738 79.6004 19.7L78.7004 22.4C78.2641 23.8815 77.6951 25.3206 77.0004 26.7C75.9925 28.6052 75.3162 30.6679 75.0004 32.8C74.7004 34.1 74.3004 35.3 74.0004 36.2C73.7004 37.1 73.6004 37.5 73.5004 38C73.0772 40.5102 72.9764 43.0642 73.2004 45.6C73.2482 48.2011 73.8625 50.7605 75.0004 53.1C75.5627 54.3361 76.1972 55.5382 76.9004 56.7C76.4843 58.1355 76.2162 59.6099 76.1004 61.1C75.8338 64.6047 76.2065 68.1286 77.2004 71.5C78.1273 74.9338 79.7623 78.1357 82.0004 80.9C83.3882 82.6966 85.2128 84.1081 87.3004 85C87.4004 85.9 87.8004 88 88.1004 90.7C88.4004 93.4 88.7004 97.8 89.0004 101.2C89.1004 102.5 89.1004 103.5 89.2004 104.4C89.3004 105.3 89.4004 106.9 89.4004 107.5L87.8004 107.8H87.6004C86.0255 108.032 84.5223 108.613 83.2004 109.5L83.0004 109.7C82.5086 110.007 82.1034 110.434 81.8234 110.942C81.5433 111.45 81.3977 112.02 81.4004 112.6C81.3818 113.141 81.4493 113.681 81.6004 114.2C81.7405 114.443 81.8098 114.72 81.8004 115V115.2L80.6004 115.5C79.3029 116.001 78.1145 116.748 77.1004 117.7L72.8004 121.8L71.6004 122.9C69.7031 124.756 67.6636 126.462 65.5004 128L60.2004 130.8L58.5004 131.7C56.9004 132.6 56.1004 133 55.8004 133.9C55.8311 134.073 55.7954 134.252 55.7004 134.4L51.7004 136.6C50.7004 137.2 45.1004 139.7 41.0004 141.5L36.0004 143.8L32.1004 145.2L30.5004 145.7C29.3004 146.3 26.3004 148 23.4004 153.2C20.5004 158.4 13.7004 171 10.1004 184.1C8.80037 188.9 7.70038 192.3 6.70038 195.2C5.12455 199.823 3.95348 204.574 3.20038 209.4C1.80038 218.6 0.900391 244.2 0.900391 245.3V246.4H1.90039L219.7 229.2H220.6V228.3C220.6 227.4 220.7 206.2 218.3 200.3C216.9 196.7 213.6 190.3 208.7 181.8L208.5 181.5C207.718 180.05 206.85 178.647 205.9 177.3C203.2 173.1 198.7 166.2 198.1 164.6C197.5 163 197.6 163.3 197.3 162.7C196.691 160.917 195.886 159.206 194.9 157.6C194.188 156.21 193.279 154.93 192.2 153.8L191.9 153.5C191.561 153.059 191.113 152.715 190.6 152.5C190.37 152.023 190.066 151.584 189.7 151.2C189.2 150.9 188.3 150.4 184.4 149.3C181.067 148.305 177.822 147.034 174.7 145.5C173.202 144.671 171.765 143.735 170.4 142.7C170.225 142.273 169.907 141.919 169.5 141.7L168.8 141.2C166.998 140.067 165.261 138.832 163.6 137.5H163.4C160.919 135.424 158.792 132.958 157.1 130.2L156.3 129C154 125.4 153.2 124.2 151.8 122.8C150.848 121.702 149.648 120.845 148.3 120.3C148.324 119.627 148.257 118.955 148.1 118.3C148.027 117.793 147.846 117.309 147.57 116.877C147.294 116.446 146.929 116.079 146.5 115.8C144.97 114.839 143.365 114.003 141.7 113.3C141.8 112.8 141.8 112 141.9 110.9C142 109.8 142 107.9 142 106.9C143.763 106.878 145.513 106.609 147.2 106.1C148.54 105.642 149.697 104.766 150.5 103.6L151.6 102.4C153.048 100.998 154.354 99.4572 155.5 97.8C156.454 96.1454 157.034 94.3024 157.2 92.4C157.341 91.8444 157.408 91.2729 157.4 90.7C157.491 90.4435 157.525 90.1707 157.5 89.9C157.44 89.7402 157.347 89.5951 157.226 89.4744C157.105 89.3537 156.96 89.2602 156.8 89.2C156.8 89.1 156.6 89.1 156.5 89C156.8 86.7 157.6 78.8 157.8 76V74.7C157.9 72.4 158 71.5 157.7 70.5C157.549 69.8522 157.349 69.217 157.1 68.6L161.2 67.7C162.3 67.3 163.3 66.9 163.4 65.4C163.457 64.3657 163.424 63.3284 163.3 62.3L163 59C163 57.6 162.8 55 162.7 52.8C162.6 50.6 162.5 49.6 162.5 49.4C162.529 49.2159 162.52 49.028 162.474 48.8474C162.429 48.6667 162.348 48.4969 162.237 48.3479C162.125 48.1989 161.984 48.0737 161.824 47.9796C161.663 47.8855 161.485 47.8244 161.3 47.8L156.4 46.9C156.555 45.6853 156.418 44.4511 156 43.3C155.723 42.3802 155.389 41.4785 155 40.6C154.6 39.5 154.1 38.3 153.8 37.3C153.549 36.5817 153.348 35.8465 153.2 35.1C152.5 32.8 151.7 29.9 150.7 28.4C150.752 27.434 150.752 26.466 150.7 25.5C150.7 23.4 150.3 19.6 148.1 17.4L147.6 16.8C145.134 14.2475 142.458 11.906 139.6 9.79999L137 7.79999C134.425 5.54866 131.482 3.75599 128.3 2.5C123.4 0.4 120.5 0.199982 118.6 0.199982L118.7 0Z" fill="url(#paint0_linear_371_1909)"/>
<defs>
<linearGradient id="paint0_linear_371_1909" x1="110.751" y1="0" x2="110.751" y2="230" gradientUnits="userSpaceOnUse">
<stop stop-color="#5794FF"/>
<stop offset="1" stop-color="#5794FF" stop-opacity="0"/>
</linearGradient>
</defs>
</svg>
