<svg width="209" height="255" viewBox="0 0 209 255" fill="none" xmlns="http://www.w3.org/2000/svg">
<path d="M88.4 0.0999756C76.3 0.0999756 67.3999 4.8 60.2 9.5C54.2282 13.4646 49.5106 19.0495 46.6 25.6C46.0846 26.9393 45.6506 28.3084 45.3 29.7C44.5472 30.1829 43.9553 30.8792 43.6 31.7C43.3667 32.7497 43.2992 33.8294 43.4 34.9V36.3C43.4 38.5 43.1 42.8 43 44.4C42.9 46 42.7999 46.3 43.2 47.2C43.4574 47.715 43.8347 48.1609 44.3 48.5V48.8L43.1 49.3C41.9065 50.1215 40.7705 51.0236 39.7 52L36.8 40.9L34.6 32.4C34.3 31.3 34.1 30.3 33.9 29.6C33.7 28.9 33.5 28.1 33 28L31.5 27.8H30.9C30.4476 28.0599 30.0767 28.441 29.8293 28.9004C29.582 29.3598 29.4679 29.8792 29.5 30.4C29.7647 33.2959 30.2326 36.1696 30.9 39C31.2 40.4 31.8 43.6 32.5 47.3C33.5 52.9 34.7 59.2 35.4 61.9C36.2735 66.2621 36.9079 70.6686 37.3 75.1C37.5 77.1 38.6 85 39.1 87.7C39.3254 89.1779 39.9077 90.5787 40.7964 91.7809C41.685 92.9832 42.8532 93.9508 44.2 94.6C45.8431 95.2887 47.621 95.5964 49.4 95.5H50.8L51.7 99.6L46.4 102.8C44.6 104 42.7999 105.3 42.7 107.3C42.6959 108.518 42.8642 109.73 43.2 110.9C43.9617 113.982 44.4304 117.13 44.6 120.3C44.6304 123.561 44.295 126.814 43.6 130C42.2 130.3 38.1 131.5 31.8 133.6C25.5 135.7 24 137 22.9 138.9L22.4 139.6C21.2 141.5 16.2 149.7 15.4 151.9C14.9857 153.279 14.6518 154.682 14.4 156.1C14.2 157.2 14 158.4 13.7 159.8C13.4 161.2 13.2 161.6 12.9 162.5C12.6 163.4 11.8 165.5 10 171.1C6.8 181.6 4.59998 197.5 4.59998 197.7L0 248V249H0.900024L207.8 254.4H209L208.7 253.3C208.6 252.9 197.6 214.3 194.9 199.4C192.5 186.4 186.8 169.5 184.3 162.3L183.4 159.7C182.507 156.967 181.438 154.295 180.2 151.7C179.858 151.019 179.557 150.317 179.3 149.6C178.973 148.994 178.705 148.357 178.5 147.7C176.8 143.7 175.9 141.7 175 141.2C174.1 140.7 169.6 138.6 168.1 137.9C168.081 137.559 168.014 137.222 167.9 136.9C167.8 136.2 167 134.3 163.5 132.2C160 130.1 150.3 124.5 146.8 123.6C145.002 123.146 143.155 122.911 141.3 122.9H140C140.098 122.359 140.028 121.8 139.8 121.3C139.8 121.2 139.7 121.1 139.7 121C139.7 120.9 139.4 120.4 139.3 119.1C139.2 117.8 139.2 117.8 139.1 117.1C139 116.4 138.9 114.5 138.8 113.4C138.7 112.3 138.4 111.8 138.2 110.7C137.718 108.993 137.35 107.256 137.1 105.5C137.012 103.52 137.18 101.537 137.6 99.6C137.676 99.3405 137.71 99.0703 137.7 98.8C137.795 98.6518 137.831 98.4733 137.8 98.3C138.085 97.2924 138.153 96.2358 138 95.2C137.5 92.6 129.8 91.4 128.9 91.3C126.2 90.9 123 90.6 121.5 90.5C121.529 89.9626 121.596 89.428 121.7 88.9C122 87.8 122.2 86.7 122.3 86.2C129.3 81.8 129.5 81.6 129.6 81.4C129.7 81.2 130 80.3 130.6 73.6V72C131.2 65.2 131.2 64.1 131.1 63.7C130.993 63.4003 130.823 63.1274 130.6 62.9C145.8 23.4 145.8 23.1 145.8 23C145.844 22.7107 145.788 22.415 145.643 22.161C145.498 21.9069 145.271 21.7092 145 21.6H144.9C144.551 21.3465 144.132 21.2068 143.7 21.2C143.477 21.1762 143.253 21.2208 143.056 21.3281C142.86 21.4353 142.7 21.5999 142.6 21.8L132.6 40.3C132.393 40.0422 132.158 39.8074 131.9 39.6C132.196 35.0468 131.688 30.4772 130.4 26.1C129 20.3 125.4 14.7 119.4 8.79999C113.4 2.89999 98.8 0.1 88.9 0L88.4 0.0999756Z" fill="url(#paint0_linear_22_5951)" fill-opacity="0.2"/>
<defs>
<linearGradient id="paint0_linear_22_5951" x1="104.5" y1="0" x2="104.5" y2="244" gradientUnits="userSpaceOnUse">
<stop stop-color="#5794FF"/>
<stop offset="1" stop-color="#5794FF" stop-opacity="0"/>
</linearGradient>
</defs>
</svg>
