<svg width="182" height="229" viewBox="0 0 182 229" fill="none" xmlns="http://www.w3.org/2000/svg">
<path d="M117.777 0.000254087C116.139 -0.00574473 114.502 0.0944837 112.877 0.300272C112.221 0.447713 111.549 0.514854 110.877 0.500254H108.377L104.277 0.300272C102.938 0.308149 101.602 0.408374 100.277 0.60026L96.7771 1.00025L95.0771 1.20027L93.6772 1.50025C90.7227 1.1482 87.7521 0.947929 84.7771 0.900248H81.8771C80.3112 0.874236 78.7871 1.40591 77.5771 2.40025C76.0475 3.44006 74.668 4.68504 73.4772 6.10026L68.9772 6.90025C67.1732 7.22231 65.423 7.7945 63.7771 8.60026L63.0771 8.90025L62.0771 9.10026C61.8604 9.08188 61.6423 9.10787 61.436 9.17665C61.2296 9.24542 61.0395 9.35552 60.8771 9.50025C60.4771 10.0003 60.2771 10.7003 59.7771 12.6003C59.2771 14.5003 59.4771 13.7002 59.2771 14.4002C59.0771 15.1002 56.7771 21.6002 55.7771 24.4002L55.1772 26.0003C54.3427 27.4169 53.2973 28.6983 52.0771 29.8003C51.21 30.5175 50.4959 31.4017 49.9772 32.4002C49.0772 35.2002 49.0771 40.1003 49.0771 42.5003V43.2002C48.9482 44.3198 48.7138 45.4248 48.3771 46.5003C48.0715 47.3117 47.8373 48.1482 47.6772 49.0003C47.5524 49.655 47.3509 50.2926 47.0771 50.9002C46.8226 51.7096 46.6879 52.5519 46.6772 53.4002C46.7244 54.8735 46.8579 56.3427 47.0771 57.8003C47.1771 58.3003 47.1772 58.7003 47.2771 59.1003C47.3954 59.9755 47.5624 60.8435 47.7771 61.7002L48.1772 64.0003C48.6055 66.5791 48.8394 69.1864 48.8771 71.8003C48.9771 73.7003 49.0771 75.9003 49.2771 78.6003C49.6313 82.9578 49.6981 87.3339 49.4772 91.7002C49.3772 92.2002 48.7772 93.5003 48.4772 94.8003C48.2123 96.0521 48.0452 97.3226 47.9772 98.6003C47.9772 99.1003 47.8771 99.3003 47.0771 102V102.2C46.6771 103.4 45.9772 105.3 45.1772 107.4C44.1463 109.919 43.2451 112.489 42.4772 115.1C41.7187 117.567 41.2818 120.122 41.1772 122.7L38.0771 125.6C37.0098 126.902 35.7642 128.047 34.3771 129C33.0771 129.9 32.2771 131.1 32.3771 132.1C32.538 133.42 32.8056 134.724 33.1772 136C32.7534 136.933 32.4186 137.904 32.1772 138.9C32.077 139.362 32.077 139.839 32.1772 140.3L28.5771 143.7C27.3574 144.682 26.0522 145.552 24.6772 146.3H24.4772C24.0546 146.553 23.6981 146.902 23.4373 147.319C23.1765 147.736 23.0187 148.21 22.9772 148.7C22.8772 148.9 22.8771 149.1 22.7771 149.2C22.6738 149.624 22.5051 150.029 22.2771 150.4C21.6771 151.6 20.6772 153.4 19.6772 155.8C18.6772 158.2 17.8772 160.1 16.4772 163.4C15.0772 166.7 12.5771 173 11.3771 175.7C10.1771 178.4 2.07717 198 0.677173 206.6C-0.110845 213.172 -0.211438 219.808 0.377124 226.4V227.7L1.07714 227.9L2.37712 228.3H2.57714L169.577 225.5H170.577V224.5C170.477 224.3 170.277 207.4 170.377 202.9C170.559 200.563 170.253 198.213 169.477 196C169.327 195.674 169.193 195.34 169.077 195C168.877 194.4 168.777 193.8 168.577 193.2C168.377 192.6 167.777 190.3 166.577 187C165.377 183.7 164.477 181.4 163.477 178.9L161.477 173.7C160.977 172.2 160.377 170.8 159.877 169.6C159.35 168.54 158.915 167.436 158.577 166.3C158.577 165.9 158.477 165.4 158.477 164.9C158.505 164.136 158.332 163.378 157.977 162.7C157.797 162.419 157.559 162.18 157.277 162C157.353 160.83 157.286 159.654 157.077 158.5C156.832 157.812 156.377 157.217 155.777 156.8L154.777 155.6L154.077 154.8C153.393 154.104 152.789 153.332 152.277 152.5C151.814 151.752 151.241 151.078 150.577 150.5L155.877 144.3C156.571 143.345 157.501 142.587 158.577 142.1C159.977 141.6 160.877 140.4 162.077 138.5C162.547 137.699 163.157 136.987 163.877 136.4L165.277 134.9C165.785 134.217 166.479 133.696 167.277 133.4C167.965 133.104 168.58 132.661 169.077 132.1C170.346 130.739 171.392 129.187 172.177 127.5C172.377 127 172.577 127 173.077 126.7L174.477 125.9C175.103 125.455 175.618 124.872 175.983 124.195C176.347 123.519 176.55 122.768 176.577 122C176.677 121.3 176.877 120.7 176.977 120C177.077 119.3 177.277 118.5 177.477 117.4C177.731 116.048 177.865 114.676 177.877 113.3C177.953 112.905 177.986 112.503 177.977 112.1C178.077 111.4 178.277 108.2 178.477 104.8C178.577 103.2 178.677 101.7 178.677 100.5C178.712 99.3906 178.846 98.2862 179.077 97.2002C179.165 96.9054 179.232 96.6047 179.277 96.3003C179.377 95.8003 179.377 94.7003 179.477 93.1003C179.577 91.5003 179.777 88.5003 180.077 86.0003C180.377 83.5003 180.377 82.8003 180.477 81.6003C180.577 80.4003 180.777 78.7002 180.977 77.9002C181.159 77.1134 181.193 76.2995 181.077 75.5003C181.077 74.6003 180.977 73.4003 181.077 71.5003C181.177 69.6003 181.277 63.1003 181.277 55.9002C181.277 48.7002 181.377 42.2003 181.477 36.6003C181.706 30.1021 181.237 23.5982 180.077 17.2003H179.977C179.979 16.969 179.914 16.742 179.79 16.5469C179.665 16.3517 179.487 16.1966 179.277 16.1003C178.773 15.4954 178.163 14.9871 177.477 14.6003C176.347 14.1925 175.172 13.9239 173.977 13.8003L171.177 13.4002C169.577 13.1002 165.477 11.9002 161.977 10.9002L155.877 9.10026C153.52 8.56 151.212 7.8241 148.977 6.90025C147.395 6.23536 145.858 5.46705 144.377 4.60026L142.777 3.60026C140.077 2.10026 138.777 1.50025 137.677 1.40025H137.377C136.636 1.48516 135.901 1.6188 135.177 1.80027L134.577 2.00025H134.077L127.677 1.70027L126.477 1.50025C124.577 1.20025 121.677 0.70026 119.977 0.60026L117.777 0.000254087Z" fill="url(#paint0_linear_22_5825)" fill-opacity="0.2"/>
<defs>
<linearGradient id="paint0_linear_22_5825" x1="90.7668" y1="0" x2="90.7668" y2="224.301" gradientUnits="userSpaceOnUse">
<stop stop-color="#5794FF"/>
<stop offset="1" stop-color="#5794FF" stop-opacity="0"/>
</linearGradient>
</defs>
</svg>
