<svg width="209" height="272" viewBox="0 0 209 272" fill="none" xmlns="http://www.w3.org/2000/svg">
<path d="M89.2 0L93.7 6.89999L93.1 6.70001C91.2452 6.17546 89.3275 5.90629 87.4 5.89999C85.8544 5.92352 84.3145 6.09091 82.8 6.39999C79.4 6.99999 76.1 8.39999 74.6 9.89999L72.4 12H72.2C68.2771 12.0615 64.3914 12.7711 60.7 14.1C56.6442 15.4832 52.8058 17.4361 49.3 19.9L48.8 20.3C47.0372 21.6574 45.4574 23.2372 44.1 25C42.4432 25.4948 40.9326 26.3874 39.7 27.6C37.7536 29.6538 36.2852 32.1125 35.4 34.8C34.8477 36.3313 34.4131 37.9025 34.1 39.5C33.8646 39.6016 33.6536 39.7523 33.4811 39.942C33.3087 40.1317 33.1787 40.356 33.1 40.6C32.3063 42.7052 31.9656 44.9542 32.1 47.2C32.0835 48.5695 32.1503 49.9386 32.3 51.3C31.4 51.7 30.5 52.7 29.9 55.3L29.7 55.9C28.9 59.5 28.7 60.5 29.2 63C29.7477 65.2411 31.0117 67.2424 32.8 68.7C32.9611 69.4358 33.2307 70.1435 33.6 70.8C34.1644 71.4102 34.8026 71.9477 35.5 72.4C36.0472 73.9713 36.8221 75.4538 37.8 76.8C38.8911 79.918 40.2634 82.9304 41.9 85.8L43.7 89.1C45.4 92.4 46.1 93.6 46.9 94.4C47.4955 94.9767 48.1304 95.5113 48.8 96C49.2602 97.6167 49.8625 99.1895 50.6 100.7C51.8694 103.353 53.5577 105.784 55.6 107.9C56.2738 108.695 57.0467 109.401 57.9 110L58.7 110.8L60.3 112.3C60.5 113.3 61.4 116.4 62 118.8C62.6 121.2 62.9 123.1 63.2 124.2L61.7 125.4L61.1 126C59.7849 127.394 58.3456 128.666 56.8 129.8L55 130.9C53.7538 131.725 52.4505 132.46 51.1 133.1C48.9951 134.147 47.1502 135.65 45.7 137.5L45 138.4C42.3401 141.933 39.397 145.244 36.2 148.3C34.2999 150.1 33 151.2 31.9 152.1C30.3763 153.26 28.9696 154.566 27.7 156C25.2 158.8 25 159.2 24.7 160.4C24.4 161.6 24.6 160.6 24.6 160.8C24.6 161 23.8 163.4 23.7 163.6C23.6 163.8 23.6 164.2 23.9 165C24.1216 165.424 24.4279 165.799 24.8 166.1L24.2 166.5L23.5 167C22.5581 167.659 21.8562 168.607 21.5 169.7C21.124 170.469 20.8226 171.273 20.6 172.1L18.4 178.3C17.1868 181.371 16.1518 184.51 15.3 187.7C14.6388 190.019 14.2034 192.397 14 194.8C13.4 199.5 8 230.1 7 234.6C6 239.1 0.499988 269.4 0.299988 270.7L0 272H1.29999L206.1 271.6H207.2V270.6C207.3 269.8 208.6 250.2 207.7 241.9C206.719 233.712 205.216 225.596 203.2 217.6L202.3 213.6C200.6 206.5 199.1 199.8 198 196.5C196.9 193.2 192 184.7 187.8 177.6L184.1 171.1L182 166.9C178.3 159.6 175.1 153.6 174.1 152.4L173.3 151.3C172.772 150.424 171.96 149.753 171 149.4C168.644 148.474 166.241 147.673 163.8 147L155.2 144.1C152.432 143.02 149.756 141.716 147.2 140.2C146.677 139.824 146.105 139.521 145.5 139.3C144.656 138.772 143.693 138.463 142.7 138.4C140.758 138.177 138.847 137.741 137 137.1C136.823 135.709 136.522 134.337 136.1 133C135.7 132 134.9 131.3 133 129.7C131.401 128.518 129.956 127.141 128.7 125.6C127.3 123.8 124.6 120.9 122.8 119C124.651 116.991 126.355 114.853 127.9 112.6C128.619 111.431 128.968 110.071 128.9 108.7V108.1C128.9 108 129 100.5 128.4 97.3C128.118 95.1602 127.292 93.1287 126 91.4L124.7 89.8C125 88.4 125.9 85.1 126.5 82.7C127.5 78.7 127.2 76.7 127 75.9C126.8 75.1 126.9 75.5 126.9 75.3C128.601 74.3043 130.238 73.2021 131.8 72C133.8 70.4 136.8 65.3 138 63.3C138.722 61.2182 139.257 59.0765 139.6 56.9C140.595 56.5132 141.461 55.8549 142.1 55C143.521 53.3861 144.365 51.3459 144.5 49.2C144.5 48.6 144.6 48 144.6 47.4C144.698 45.7832 144.933 44.1776 145.3 42.6C145.614 41.3157 145.847 40.0132 146 38.7C146 38.5 146.1 38.3 146.1 38.1C146.377 36.4484 146.444 34.7684 146.3 33.1C145.822 31.128 144.86 29.3063 143.5 27.8C143.3 27.4 143 26.4 142.8 25.9C142.6 25.4 140 19.5 134.9 17.9L130.4 16.6C126.8 15.6 123.1 14.5 120.6 13.5C118.45 12.6727 116.403 11.5989 114.5 10.3L113.8 9.79999H113.5C112 8.89999 108.9 6.89999 105.7 6.89999H105.2C101.9 7.09999 101.1 7.30001 100.2 8.20001C99.6845 8.65217 99.2156 9.15466 98.8 9.70001L97.4 7.79999C96.7758 6.99785 96.0722 6.2608 95.3 5.60001L89.2 0.100006V0Z" fill="url(#paint0_linear_22_5826)" fill-opacity="0.2"/>
<defs>
<linearGradient id="paint0_linear_22_5826" x1="104.008" y1="0" x2="104.008" y2="272" gradientUnits="userSpaceOnUse">
<stop stop-color="#5794FF"/>
<stop offset="1" stop-color="#5794FF" stop-opacity="0"/>
</linearGradient>
</defs>
</svg>
