<svg width="24" height="24" viewBox="0 0 24 24" fill="none" xmlns="http://www.w3.org/2000/svg">
<path fill-rule="evenodd" clip-rule="evenodd" d="M12 24C18.6274 24 24 18.6274 24 12C24 5.37258 18.6274 0 12 0C5.37258 0 0 5.37258 0 12C0 18.6274 5.37258 24 12 24ZM16.97 14.062C16.9614 14.4766 16.8826 14.8867 16.737 15.275C16.6086 15.6071 16.4122 15.9087 16.1604 16.1604C15.9087 16.4122 15.6071 16.6086 15.275 16.737C14.8867 16.8826 14.4766 16.9614 14.062 16.97C13.528 16.994 13.358 17 12 17C10.642 17 10.472 16.994 9.938 16.97C9.52341 16.9614 9.11327 16.8826 8.725 16.737C8.39292 16.6086 8.09134 16.4122 7.83957 16.1604C7.58781 15.9087 7.39142 15.6071 7.263 15.275C7.11736 14.8867 7.03858 14.4766 7.03 14.062C7.006 13.528 7 13.358 7 12C7 10.642 7.006 10.472 7.03 9.938C7.03858 9.52341 7.11736 9.11327 7.263 8.725C7.39142 8.39292 7.58781 8.09134 7.83957 7.83957C8.09134 7.58781 8.39292 7.39142 8.725 7.263C9.11327 7.11736 9.52341 7.03858 9.938 7.03C10.472 7.006 10.642 7 12 7C13.358 7 13.528 7.006 14.062 7.03C14.4766 7.03858 14.8867 7.11736 15.275 7.263C15.6071 7.39142 15.9087 7.58781 16.1604 7.83957C16.4122 8.09134 16.6086 8.39292 16.737 8.725C16.8826 9.11327 16.9614 9.52341 16.97 9.938C16.994 10.472 17 10.642 17 12C17 13.358 16.994 13.528 16.97 14.062Z" fill="#5498FF"/>
<path d="M15.8974 9.05139C15.8141 8.83564 15.6865 8.63973 15.5229 8.47628C15.3593 8.31283 15.1633 8.18547 14.9474 8.10239C14.6502 7.99232 14.3363 7.93414 14.0194 7.93039C13.4924 7.90639 13.3344 7.90039 11.9994 7.90039C10.6644 7.90039 10.5064 7.90639 9.97941 7.93039C9.66217 7.93402 9.34792 7.9922 9.05041 8.10239C8.83466 8.18569 8.63875 8.31326 8.4753 8.47689C8.31185 8.64051 8.18449 8.83655 8.10141 9.05239C7.99134 9.34959 7.93316 9.66349 7.92941 9.98039C7.90541 10.5074 7.89941 10.6654 7.89941 12.0004C7.89941 13.3354 7.90541 13.4934 7.92941 14.0204C7.93304 14.3376 7.99123 14.6519 8.10141 14.9494C8.18472 15.1651 8.31229 15.3611 8.47591 15.5245C8.63953 15.6879 8.83558 15.8153 9.05141 15.8984C9.34861 16.0085 9.66251 16.0666 9.97941 16.0704C10.5064 16.0944 10.6644 16.1004 11.9994 16.1004C13.3344 16.1004 13.4924 16.0944 14.0194 16.0704C14.3367 16.0668 14.6509 16.0086 14.9484 15.8984C15.1642 15.8151 15.3601 15.6875 15.5235 15.5239C15.687 15.3603 15.8143 15.1642 15.8974 14.9484C16.0075 14.6512 16.0657 14.3373 16.0694 14.0204C16.0934 13.4934 16.0994 13.3354 16.0994 12.0004C16.0994 10.6654 16.0934 10.5074 16.0694 9.98039C16.0658 9.66315 16.0076 9.3489 15.8974 9.05139ZM11.9994 14.5684C11.4915 14.5684 10.995 14.4178 10.5727 14.1356C10.1504 13.8534 9.82126 13.4524 9.62689 12.9831C9.43253 12.5139 9.38167 11.9975 9.48076 11.4994C9.57984 11.0013 9.82442 10.5437 10.1836 10.1845C10.5427 9.8254 11.0003 9.58082 11.4984 9.48173C11.9966 9.38265 12.5129 9.4335 12.9821 9.62787C13.4514 9.82223 13.8525 10.1514 14.1346 10.5737C14.4168 10.996 14.5674 11.4925 14.5674 12.0004C14.5674 12.6815 14.2969 13.3346 13.8153 13.8162C13.3337 14.2978 12.6805 14.5684 11.9994 14.5684ZM14.6684 9.93139C14.5497 9.93139 14.4337 9.8962 14.3351 9.83027C14.2364 9.76434 14.1595 9.67064 14.1141 9.561C14.0687 9.45136 14.0568 9.33072 14.0799 9.21434C14.1031 9.09795 14.1602 8.99104 14.2441 8.90713C14.3281 8.82321 14.435 8.76607 14.5514 8.74292C14.6677 8.71977 14.7884 8.73165 14.898 8.77706C15.0077 8.82248 15.1014 8.89938 15.1673 8.99805C15.2332 9.09672 15.2684 9.21272 15.2684 9.33139C15.2684 9.49052 15.2052 9.64313 15.0927 9.75565C14.9802 9.86818 14.8275 9.93139 14.6684 9.93139Z" fill="#5498FF"/>
<path d="M12 13.666C12.9207 13.666 13.667 12.9197 13.667 11.999C13.667 11.0784 12.9207 10.332 12 10.332C11.0793 10.332 10.333 11.0784 10.333 11.999C10.333 12.9197 11.0793 13.666 12 13.666Z" fill="#5498FF"/>
</svg>
