<svg width="166" height="254" viewBox="0 0 166 254" fill="none" xmlns="http://www.w3.org/2000/svg">
<path d="M66.4 0H65.7C63.3963 0.264631 61.1208 0.733129 58.9 1.39999C57.9881 1.67016 57.049 1.83786 56.1 1.89999H52.3C50.4344 1.84983 48.574 2.12042 46.8 2.69998C44.9214 3.12769 43.1292 3.87163 41.5 4.89999H41.4L40.9 5.29999C40.3538 5.31191 39.8134 5.41327 39.3 5.60001H39.1C37.7097 5.9783 36.3676 6.51513 35.1 7.19998C32.1615 8.64374 29.3219 10.2807 26.6 12.1L25.2 13C22.2838 14.6801 19.7607 16.9645 17.8 19.7C16.2713 21.7542 15.1881 24.105 14.6199 26.6018C14.0516 29.0986 14.0108 31.6865 14.5 34.2L12.2 36.2H12.1C10.5084 37.8242 9.22133 39.721 8.29999 41.8C6.99999 44.9 6.99995 50.4 7.19995 53.4C7.30253 55.0984 7.30253 56.8015 7.19995 58.5C7.11177 58.8596 7.07808 59.2304 7.09998 59.6C6.95156 61.5538 6.65062 63.4931 6.19995 65.4C6.20624 65.5722 6.17201 65.7435 6.09998 65.9C5.89799 67.4253 5.4594 68.9098 4.79999 70.3C3.82488 72.1968 3.24644 74.2723 3.09998 76.4C3.09875 78.6378 3.4359 80.8629 4.09998 83C5.2344 87.21 7.13254 91.1758 9.69995 94.7C11.9097 97.7264 15.0276 99.9685 18.6 101.1L20.9 101.8L21.7 103.5L21.1 103.8L20.9 104C20.5057 104.173 20.1822 104.476 19.9823 104.857C19.7824 105.239 19.7182 105.677 19.8 106.1C20.1 107.4 22.9 112.6 24.1 114.8C25.9831 118.128 28.3038 121.189 31 123.9H31.1C31.3564 124.189 31.7147 124.368 32.1 124.4L32.7 124.2C33.1712 124.045 33.6114 123.808 34 123.5L35.3 124.9C36.6497 126.248 38.1612 127.424 39.8 128.4L41.5 129L41.8 129.4C42.2379 129.866 42.7892 130.211 43.4 130.4H43.7L46.2 130.1H47.4L48.9 129.9C49.3277 129.761 49.7322 129.559 50.1 129.3L50.9 128.9L52.8 128.4L53.5 128.1C53.7214 128.683 53.8887 129.286 54 129.9C53.5616 130.408 53.2832 131.034 53.2 131.7C52.9 132.2 52.7 133.4 53 136.4C53.0863 138.669 53.0194 140.94 52.8 143.2C52.7619 143.809 52.6614 144.412 52.5 145C52.5 145.2 52.4 145.3 52.4 145.4V145.6L51.9 145.9C51.4696 146.269 51.1568 146.755 51 147.3C48.3003 148.649 45.5296 149.851 42.7 150.9C40.5041 151.741 38.2244 152.345 35.9 152.7H35.5L33.9 153C31.8453 153.187 29.8068 153.521 27.8 154C25.2537 154.749 23.0342 156.334 21.5 158.5C19.9829 160.618 18.6449 162.859 17.5 165.2V165.4C16.5 167.3 15.2 170.9 14 174V174.3C13.1 176.7 12.3 179.2 11.6 181.2L11 183.1C10.4 184.9 9.69999 187.8 9.29999 189.5L9.09998 190.2L7.39996 197.7L7.19995 198.8C6.69995 200.8 6.1 203.6 6 204.4V204.8C5.7 206 5.19998 208.5 5.09998 209.3C4.78207 210.516 4.54817 211.752 4.39996 213C4.2296 213.591 4.09604 214.192 4 214.8V215.3C3.6 217.2 2.89995 221.1 1.69995 228C0.499951 234.9 0 250.1 0 250.7V251.1L0.399963 252.3L0.599976 253.2H165V250.7C165.17 250.699 165.338 250.734 165.493 250.803C165.648 250.872 165.787 250.973 165.9 251.1C165.1 249.7 163.9 237 163.3 225.6H163.2C163 224.7 158.1 205.1 157.2 202.1C156.3 199.1 155.9 197.4 155.1 194.4L153.2 187.6C153 186.9 152.8 186.1 152.5 185.3C151.5 181.7 150.4 177.8 149.4 175.2C148.103 171.279 146.358 167.521 144.2 164C141.5 159.8 139.2 158.2 137.7 157.4L132.8 155.5C133.099 155.053 133.366 154.585 133.6 154.1C133.6 154 133.7 153.9 133.8 153.8C134.858 151.852 135.504 149.708 135.7 147.5C135.787 145.764 135.72 144.024 135.5 142.3C135.5 141.3 135.4 140.4 135.4 139.6C135.453 137.781 135.687 135.972 136.1 134.2V133.7C136.643 131.646 136.879 129.523 136.8 127.4C136.628 124.901 135.983 122.458 134.9 120.2C133.979 117.935 132.499 115.94 130.6 114.4C129.161 113.321 127.579 112.446 125.9 111.8L123.8 110.8C122.465 110.227 121.345 109.247 120.6 108C119.731 106.082 119.094 104.068 118.7 102C118.4 99.7 118.1 96.6 118 95.7C117.935 93.256 117.531 90.8328 116.8 88.5C116.131 86.574 115.076 84.8046 113.7 83.3L114 82.7C114.121 82.2016 114.086 81.6779 113.9 81.2C113.908 80.9953 113.874 80.7911 113.8 80.6C113.667 79.8826 113.466 79.1794 113.2 78.5L112.9 77.2C112.7 76.4 112.4 75.6 112.3 75C112.712 74.5242 112.957 73.9276 113 73.3C112.543 70.6362 111.942 67.999 111.2 65.4C110.636 62.929 110.235 60.4236 110 57.9V57C110.311 56.4137 110.482 55.7634 110.5 55.1C110.482 54.6934 110.415 54.2904 110.3 53.9C110.164 53.2056 110.064 52.5047 110 51.8C109.9 51 109.9 50.3 109.8 49.6C109.7 48.9 109.6 47.4 109.6 46.1C109.536 44.5934 109.125 43.1219 108.4 41.8V40.8C108.374 39.7161 108.206 38.6402 107.9 37.6C107.359 35.9755 106.548 34.4541 105.5 33.1L104.8 32.1C103.884 30.8398 103.081 29.5013 102.4 28.1C102.141 27.3158 101.941 26.5136 101.8 25.7C101.465 24.1622 100.996 22.6565 100.4 21.2C99.6041 19.52 98.3129 18.1241 96.7 17.2L94.6 15.8C92.8564 14.3879 91.3971 12.6572 90.3 10.7V10.5C90.1331 10.3246 89.9977 10.1216 89.9 9.89999C88.6986 7.60193 86.9028 5.66809 84.7 4.29999C81.2999 2.29999 79.7 2.19998 75.5 1.69998H75.4L69.9 1H69.7L69 0.799988C68.1622 0.520418 67.283 0.385168 66.4 0.399994V0Z" fill="url(#paint0_linear_22_5688)" fill-opacity="0.2"/>
<defs>
<linearGradient id="paint0_linear_22_5688" x1="82.95" y1="0" x2="82.95" y2="253.2" gradientUnits="userSpaceOnUse">
<stop stop-color="#5794FF"/>
<stop offset="1" stop-color="#5794FF" stop-opacity="0"/>
</linearGradient>
</defs>
</svg>
