<svg width="212" height="275" viewBox="0 0 212 275" fill="none" xmlns="http://www.w3.org/2000/svg">
<path d="M49.5001 68.3008C49.3779 68.1897 49.2931 68.0436 49.2573 67.8825C49.2215 67.7213 49.2365 67.5531 49.3 67.4008L49.9 66.7008L51.4 65.6008L54.4 63.4008L57.6 61.4008L58.4 60.9008C58.482 60.8322 58.5809 60.7867 58.6864 60.7691C58.7919 60.7515 58.9002 60.7625 59.0001 60.8008H61.3L65.0001 60.4008H66.9C67.5071 60.3495 68.1091 60.2491 68.7 60.1008C69.2 59.9008 69.7 59.4008 70.3 59.1008C70.9 58.8008 70.6 59.0008 70.8 59.1008L71.3 59.3008L72.1 59.8008C73.1121 60.5369 74.3519 60.8911 75.6 60.8008L79.3 60.5008H82.1L83.0001 60.8008C83.5849 60.9665 84.1931 61.034 84.8 61.0008C85.4221 60.9275 86.0293 60.7589 86.6 60.5008L87.5001 60.3008H88.5001C89.1001 60.6008 89.5 61.1008 90.1 61.4008C91.1906 61.976 92.3765 62.3487 93.6 62.5008L97.3 63.3008L100.9 64.2008L102.7 64.8008H105.5C105.794 64.916 106.041 65.1275 106.2 65.4008C106.539 65.9295 107.026 66.3468 107.6 66.6008C108.792 66.9549 109.935 67.459 111 68.1008C113.3 69.2008 115.4 70.5008 117.6 71.6008L119.4 72.3008L120.3 72.5008C120.638 72.5861 120.949 72.7584 121.2 73.0008C121.5 73.4008 122.2 73.6008 122.7 73.9008L124.4 74.6008C125.581 75.0664 126.719 75.6353 127.8 76.3008L129.4 77.3008L130.1 77.8008C130.4 78.0008 130.6 78.0008 130.8 77.8008C131.047 77.636 131.249 77.4129 131.388 77.1512C131.528 76.8895 131.601 76.5974 131.6 76.3008V70.8008C131.5 68.4008 131.5 65.8008 131.3 63.4008C131.088 60.9136 130.72 58.4422 130.2 56.0008C129.691 53.526 128.92 51.1124 127.9 48.8008C129.013 51.0594 129.853 53.443 130.4 55.9008C130.946 58.3416 131.347 60.8126 131.6 63.3008C131.8 65.8008 131.9 68.3008 132 70.8008V76.5008C131.957 76.8372 131.847 77.1613 131.675 77.4536C131.503 77.7458 131.273 78 131 78.2008L130.5 78.4008L130 78.2008L129.2 77.7008L127.6 76.7008C126.553 76.0359 125.449 75.467 124.3 75.0008L122.5 74.3008L121.7 73.9008C121.394 73.7592 121.122 73.5547 120.9 73.3008C120.6 72.9008 119.9 72.9008 119.3 72.7008C118.664 72.5734 118.055 72.3366 117.5 72.0008C115.2 70.9008 113.1 69.6008 110.9 68.4008C109.814 67.7999 108.676 67.2978 107.5 66.9008L106.7 66.4008C106.42 66.2051 106.209 65.9247 106.1 65.6008C105.911 65.38 105.67 65.2084 105.4 65.1008H102.6L100.8 64.5008L97.2 63.5008L93.6 62.7008C92.3478 62.5343 91.1315 62.1627 90.0001 61.6008C89.4898 61.2318 88.9553 60.8977 88.4001 60.6008C87.8275 60.4653 87.2255 60.5362 86.7 60.8008L84.9001 61.3008C84.26 61.3396 83.618 61.272 83.0001 61.1008L82.1 60.8008H79.3L75.6 61.1008C74.297 61.1235 73.0142 60.7768 71.9 60.1008L71.1 59.6008C71.0535 59.5387 70.9931 59.4883 70.9236 59.4536C70.8542 59.4189 70.7776 59.4008 70.7 59.4008H70.4L68.8 60.4008L66.9 60.7008H65.0001L61.3 61.0008H58.5001L57.7 61.5008L54.5001 63.4008L51.5001 65.6008L50.0001 66.7008C49.7213 66.853 49.5078 67.102 49.4 67.4008C49.3144 67.5227 49.2772 67.6722 49.2957 67.8201C49.3141 67.9679 49.387 68.1037 49.5001 68.2008V68.3008Z" fill="#386EE8"/>
<path d="M129.4 52.9012L128.8 44.5012C128.7 43.8012 128.7 43.2012 128.6 42.5012C128.66 41.829 128.483 41.157 128.1 40.6012C126.957 39.7794 125.714 39.1073 124.4 38.6012C123.154 38.0141 121.772 37.7724 120.4 37.9012H119.4C119.1 37.9012 118.8 38.2012 118.6 38.4012L118.4 38.6012H118C118 38.5236 117.982 38.447 117.947 38.3776C117.913 38.3081 117.862 38.2478 117.8 38.2012C117.734 38.0565 117.637 37.9279 117.516 37.8243C117.395 37.7207 117.253 37.6446 117.1 37.6012C115.8 37.1012 114.6 36.3012 113.4 35.7012C112.197 35.0002 110.875 34.5257 109.5 34.3012C108.822 34.2946 108.147 34.3958 107.5 34.6012L106.5 34.9012C106.4 34.9012 106.3 35.0012 106.1 34.9012C105.9 34.8012 106 34.7012 105.9 34.7012L105.5 34.4012L105.1 34.2012C104.8 34.1012 104.8 33.9012 104.7 33.7012C104.628 33.3464 104.493 33.0077 104.3 32.7012C104.125 32.4165 103.892 32.1716 103.616 31.9822C103.341 31.7927 103.029 31.663 102.7 31.6012C101.433 31.0464 100.13 30.5786 98.8001 30.2012L94.7001 29.2012C94.0419 29.0512 93.3584 29.0512 92.7001 29.2012L91.8001 29.7012L91.4002 30.0012L91.2001 30.2012H91.0002C91.0002 30.3012 90.9002 30.3012 90.9002 30.2012C89.82 29.3136 88.6045 28.6046 87.3001 28.1012C85.9916 27.6048 84.5669 27.5006 83.2001 27.8012C81.8258 28.0489 80.4839 28.4515 79.2001 29.0012L75.3001 30.4012L74.3001 30.8012L73.9002 31.1012C73.8423 31.1525 73.8064 31.2241 73.8001 31.3012C73.9001 31.3012 73.5002 31.4012 73.5002 31.3012V31.1012C73.4002 30.4012 72.6002 30.2012 72.0002 30.2012C70.5983 30.3088 69.2182 30.6118 67.9001 31.1012C66.6001 31.4012 65.1002 31.5012 63.8002 31.7012L61.9001 32.5012L61.4001 32.7012C61.3003 32.7395 61.192 32.7504 61.0865 32.7329C60.9811 32.7153 60.8822 32.6698 60.8002 32.6012L59.8002 32.3012C59.1518 32.1546 58.4718 32.262 57.9001 32.6012L56.1002 33.6012C55.4896 33.9332 54.9734 34.4149 54.6002 35.0012C54.1502 35.5285 53.8102 36.1405 53.6002 36.8012C53.5494 37.1326 53.5494 37.4698 53.6002 37.8012C53.5002 38.1012 53.5001 38.5012 53.4001 38.8012L53.1002 40.9012C52.8273 42.2913 52.4598 43.6612 52.0002 45.0012L51.0002 49.0012C50.639 50.3692 50.1709 51.7066 49.6002 53.0012C48.8538 54.1562 48.344 55.4478 48.1002 56.8012C47.6029 59.5429 47.3021 62.3166 47.2001 65.1012V68.2012C47.3001 68.6012 47.6001 68.7012 47.9001 68.9012C49.0984 69.6098 50.3732 70.1801 51.7001 70.6012C50.3648 70.1192 49.0621 69.5514 47.8002 68.9012L47.4001 68.6012C47.3001 68.5012 47.1002 68.4012 47.1002 68.2012C47.0174 67.8407 46.9837 67.4707 47.0002 67.1012C46.9837 66.3997 47.0171 65.6979 47.1002 65.0012C47.1304 62.2211 47.3644 59.447 47.8002 56.7012C48.1054 55.3027 48.6106 53.9555 49.3002 52.7012C49.8964 51.4613 50.3332 50.1508 50.6002 48.8012C51.0002 47.5012 51.3001 46.1012 51.7001 44.8012C52.1001 43.5012 52.4001 42.1012 52.7001 40.7012C53.0001 39.3012 53.0002 39.4012 53.1002 38.7012C53.2002 38.0012 53.2001 38.0012 53.2001 37.6012C53.189 37.2649 53.2227 36.9286 53.3002 36.6012C53.5323 35.9195 53.8697 35.2785 54.3002 34.7012C54.7079 34.1079 55.258 33.6266 55.9001 33.3012C56.4979 32.8763 57.134 32.508 57.8002 32.2012C58.1126 32.0415 58.4514 31.9399 58.8002 31.9012C59.1603 31.8035 59.54 31.8035 59.9001 31.9012C60.2489 31.9399 60.5877 32.0415 60.9001 32.2012C61.2001 32.4012 61.4002 32.3012 61.8002 32.1012C62.3861 31.7336 63.0277 31.4634 63.7001 31.3012C65.1001 31.0012 66.5001 31.0012 67.9001 30.7012C69.212 30.1908 70.5952 29.8872 72.0002 29.8012L73.1002 30.1012C73.2759 30.1779 73.4259 30.3035 73.5323 30.4631C73.6387 30.6226 73.697 30.8094 73.7001 31.0012H73.6002C73.6002 30.9012 73.7001 30.8012 73.7001 30.7012L74.2001 30.4012L75.2001 30.0012L79.1002 28.6012C80.5002 28.2012 81.8001 27.7012 83.2001 27.4012C84.5786 27.1835 85.9897 27.3211 87.3001 27.8012C88.6045 28.3046 89.82 29.0136 90.9002 29.9012C91.0002 30.0012 91.2001 29.8012 91.3001 29.7012L91.7001 29.4012L92.7001 28.9012C93.3854 28.6984 94.1148 28.6984 94.8001 28.9012C96.1001 29.2012 97.5001 29.4012 98.8001 29.8012L102.8 31.2012C103.492 31.3856 104.095 31.8112 104.5 32.4012C104.676 32.716 104.81 33.0521 104.9 33.4012C105 33.6012 105 33.7012 105.2 33.7012L105.6 34.0012L106.1 34.3012C106.1 34.3012 106.2 34.5012 106.3 34.5012H106.4L107.4 34.1012C108.087 33.9359 108.794 33.8686 109.5 33.9012C110.915 34.0268 112.282 34.4713 113.5 35.2012C114.8 35.8012 115.9 36.6012 117.2 37.1012C117.576 37.2161 117.896 37.4653 118.1 37.8012C118.223 37.9397 118.293 38.1164 118.3 38.3012H118.2L118.4 38.1012C118.662 37.8013 119.012 37.5914 119.4 37.5012H120.4C121.805 37.3737 123.218 37.615 124.5 38.2012C125.798 38.7811 127.037 39.4844 128.2 40.3012C128.443 40.5905 128.615 40.9331 128.7 41.3012C128.783 41.6277 128.816 41.9647 128.8 42.3012C128.883 42.9979 128.917 43.6997 128.9 44.4012L129.4 52.8012V52.9012Z" fill="#386EE8"/>
<path d="M51.5995 67C51.7692 67.7542 51.8365 68.5278 51.7995 69.3C51.6994 70.0299 51.6994 70.7701 51.7995 71.5C51.8995 72.3 51.8995 73 51.9995 73.8V76C51.5175 74.5516 51.3805 73.0107 51.5995 71.5C51.6161 70.7652 51.5827 70.0302 51.4995 69.3C51.4308 68.5323 51.4644 67.7589 51.5995 67Z" fill="#386EE8"/>
<path d="M48.1009 67.0018C48.0924 66.7644 48.1262 66.5274 48.2009 66.3018C48.2758 66.0958 48.4164 65.9202 48.6009 65.8018L49.7009 64.9018L52.0009 63.1018L54.1009 61.3018L55.1009 60.2018C55.2599 60.0043 55.4568 59.8406 55.6801 59.7204C55.9034 59.6002 56.1484 59.5259 56.4009 59.5018C58.268 59.5693 60.1374 59.5359 62.0009 59.4018C63.9083 59.2868 65.7917 58.9169 67.6009 58.3018L70.3009 57.3018C70.5224 57.1938 70.7685 57.1462 71.0143 57.1637C71.2602 57.1813 71.497 57.2634 71.7009 57.4018C72.0871 57.6716 72.5334 57.8433 73.0009 57.9018C74.8101 58.5169 76.6935 58.8868 78.6009 59.0018C80.4971 59.2182 82.4134 59.1845 84.3008 58.9018L87.1009 58.5018C87.5627 58.4188 88.032 58.3853 88.5009 58.4018L89.8008 59.1018L92.4009 60.4018C93.2124 60.8873 94.0875 61.2575 95.0009 61.5018C96.7917 62.0986 98.6324 62.5336 100.501 62.8018H103.301C104.268 62.7368 105.24 62.7703 106.201 62.9018C107.06 63.3408 107.865 63.8777 108.601 64.5018C109.401 65.1018 110.201 65.5018 111.001 66.0018C111.801 66.5018 114.301 67.8018 116.001 68.7018L118.501 70.0018C119.292 70.5505 120.238 70.8309 121.201 70.8018H121.501L121.901 71.0018L122.501 71.4018L123.601 72.2018C124.415 72.734 125.287 73.1703 126.201 73.5018C128.016 74.0739 129.687 75.0287 131.101 76.3018C129.606 75.1143 127.914 74.2002 126.101 73.6018C125.19 73.3044 124.318 72.9017 123.501 72.4018L122.301 71.6018L121.801 71.2018L121.501 71.0018H121.201C120.212 70.9966 119.243 70.7199 118.401 70.2018L115.801 68.9018C114.101 68.1018 112.501 67.2018 110.801 66.2018C109.944 65.7983 109.139 65.2948 108.401 64.7018C107.683 64.1023 106.913 63.5669 106.101 63.1018C105.174 62.9685 104.235 62.935 103.301 63.0018C102.335 63.1172 101.357 63.0835 100.401 62.9018C98.5346 62.6224 96.6949 62.1875 94.9009 61.6018C93.9995 61.2819 93.1291 60.8802 92.3008 60.4018L89.7009 59.1018L88.5009 58.4018C88.0324 58.3374 87.5555 58.3715 87.1009 58.5018L84.3008 58.8018C82.4131 59.0681 80.5027 59.1351 78.6009 59.0018C76.6781 58.8147 74.7726 58.4803 72.9009 58.0018C72.4495 57.8438 72.0141 57.6428 71.6009 57.4018C71.1929 57.2162 70.7325 57.1808 70.3009 57.3018L67.7009 58.3018C65.9097 58.9965 64.0194 59.4016 62.1009 59.5018C60.2038 59.6517 58.2979 59.6517 56.4009 59.5018C55.9009 59.5018 55.6009 59.9018 55.3009 60.2018L54.3009 61.2018L52.1009 63.1018L49.8009 64.8018L48.7009 65.6018C48.3009 65.9018 48.0009 66.4018 48.2009 66.8018L48.1009 67.0018Z" fill="#386EE8"/>
<path d="M128.5 53.1016C128.862 54.3801 129.13 55.6837 129.3 57.0016C129.362 58.346 129.529 59.6834 129.8 61.0016C130.167 63.6917 130.133 66.4213 129.7 69.1016C129.7 66.4016 129.7 63.7016 129.6 61.0016C129.498 59.6884 129.297 58.3847 129 57.1016C128.8 55.7016 128.6 54.4016 128.5 53.1016Z" fill="#386EE8"/>
<path d="M122 69C122.169 69.3402 122.239 69.7218 122.2 70.1C122.1 70.4 122.1 70.8 122 71.2C121.839 70.8567 121.77 70.4777 121.799 70.1C121.808 69.7251 121.876 69.354 122 69Z" fill="#386EE8"/>
<path d="M121.299 64.3008V67.7008C121.266 68.8378 121.333 69.9755 121.499 71.1008H121.099C120.999 69.9008 121.099 68.8008 121.099 67.6008C121.099 66.4008 121.299 65.4008 121.299 64.3008Z" fill="#386EE8"/>
<path d="M114.301 66.1016C115.131 66.2139 115.94 66.4498 116.701 66.8016L117.901 67.3016L119.001 67.8016L117.701 67.6016L116.601 67.1016L114.301 66.1016Z" fill="#386EE8"/>
<path d="M117.199 65.6992H117.999C118.199 65.7992 118.499 65.8992 118.599 66.0992H117.899L117.199 65.6992Z" fill="#386EE8"/>
<path d="M107.399 61.3008C107.564 61.6782 107.632 62.0904 107.599 62.5008C107.499 62.9008 107.499 63.3008 107.399 63.7008C107.133 62.923 107.133 62.0786 107.399 61.3008Z" fill="#386EE8"/>
<path d="M106.9 57L106.8 63.2H106.4L106.9 57Z" fill="#386EE8"/>
<path d="M122.2 39.3984C122.566 40.9064 122.6 42.476 122.3 43.9984C122.2 43.2984 122.2 42.4984 122.1 41.6984C122.083 40.9304 122.117 40.1621 122.2 39.3984Z" fill="#386EE8"/>
<path d="M119.3 41.5C119.4 42.7 119.4 43.9 119.4 45.1C119.396 46.3392 119.295 47.5762 119.1 48.8C119 47.6 119 46.3 119 45.1C119 43.9 119.1 42.7 119.3 41.5Z" fill="#386EE8"/>
<path d="M118.5 38.3008L118.2 45.8008V49.5008C118.167 50.7375 118.234 51.9748 118.4 53.2008C118.151 51.984 118.05 50.7417 118.1 49.5008C118.1 48.3008 118 47.0008 118 45.8008V38.3008H118.5Z" fill="#386EE8"/>
<path d="M114.801 39.0992L113.001 38.5992L112.201 38.2992L111.301 37.9992C111.949 37.9432 112.601 38.0462 113.201 38.2992C113.771 38.4844 114.31 38.7541 114.801 39.0992Z" fill="#386EE8"/>
<path d="M106.401 34.6992C106.301 36.3992 106.101 37.9992 105.901 39.5992C105.701 41.1992 105.401 42.8992 105.201 44.4992C104.901 47.6992 104.901 50.9992 104.801 54.2992C104.801 50.9992 104.801 47.6992 105.101 44.4992C105.201 42.7992 105.401 41.1992 105.601 39.5992C105.801 37.9992 106.001 36.2992 106.001 34.6992H106.401Z" fill="#386EE8"/>
<path d="M106.7 43V46.7C106.6 47.9 106.6 49.1 106.5 50.3C106.129 47.87 106.231 45.3914 106.8 43H106.7Z" fill="#386EE8"/>
<path d="M94.6992 32.5984L95.8993 32.3984C96.2965 32.4248 96.6779 32.5635 96.9993 32.7984H95.8993C95.4889 32.8316 95.0766 32.7629 94.6992 32.5984Z" fill="#386EE8"/>
<path d="M95.5996 33.6016C96.1619 33.5026 96.7372 33.5026 97.2996 33.6016C97.8553 33.6897 98.3751 33.9323 98.7996 34.3016L97.9996 34.1016H97.1996L95.5996 33.6016Z" fill="#386EE8"/>
<path d="M91.0996 30C90.9873 32.0837 90.7199 34.1561 90.2996 36.2C89.9662 38.3333 89.7663 40.4333 89.6996 42.5C89.3996 46.6 89.2996 50.8 89.0996 55C89.1996 50.8 89.2996 46.6 89.4996 42.4C89.5996 40.4 89.6996 38.3 89.9996 36.2C90.2996 34.1 90.5996 32 90.7996 30H91.0996Z" fill="#386EE8"/>
<path d="M91.2008 40.5C91.2661 41.5342 91.2326 42.5722 91.1008 43.6C90.9023 44.5877 90.8018 45.5925 90.8008 46.6C90.8008 48.7 90.6009 50.8 90.5009 52.8H90.4009C90.3009 51.8 90.3008 50.7 90.3008 49.7C90.3016 48.6594 90.4021 47.6214 90.6008 46.6C90.7205 45.5707 90.7872 44.5361 90.8008 43.5C90.9008 42.5 91.0008 41.5 91.2008 40.5Z" fill="#386EE8"/>
<path d="M105.401 59.9H104.101C103.636 59.9073 103.181 59.7673 102.801 59.5H104.101C104.561 59.5202 105.009 59.6579 105.401 59.9Z" fill="#386EE8"/>
<path d="M99.3008 60.8988C100.31 60.8496 101.321 60.9507 102.301 61.1988H105.301C104.825 61.3944 104.315 61.4962 103.801 61.4988H102.201L100.801 61.0988L99.3008 60.8988Z" fill="#386EE8"/>
<path d="M88.2008 56.5999L86.0009 56.9999C85.2684 57.1181 84.5195 57.084 83.8008 56.8999L85.9009 56.5999C86.6667 56.55 87.4349 56.55 88.2008 56.5999Z" fill="#386EE8"/>
<path d="M78.0996 32.0992C79.2202 31.4918 80.4387 31.0857 81.6996 30.8992L83.4996 30.6992C84.1494 30.7367 84.7899 30.8715 85.3997 31.0992H83.4996L81.6996 31.3992L78.0996 32.0992Z" fill="#386EE8"/>
<path d="M82.5 32.4989L81.5 32.7989H80.5C80.7367 32.5376 81.0531 32.3618 81.4 32.2989C81.5873 32.2548 81.7816 32.2499 81.9708 32.2843C82.1601 32.3187 82.3402 32.3918 82.5 32.4989Z" fill="#386EE8"/>
<path d="M73.9 30.9984C73.4521 32.9757 72.8502 34.915 72.1 36.7984C71.7406 37.7456 71.44 38.7141 71.2 39.6984C71 40.6984 70.8 41.6984 70.7 42.6984C70.6 43.6984 70.1 46.6984 70 48.6984C69.8502 50.6956 69.8502 52.7012 70 54.6984C69.8169 52.7037 69.7834 50.6981 69.9 48.6984C70 46.6984 70.2 44.5984 70.5 42.5984C70.8 40.5984 70.8 40.5984 71 39.5984C71.1862 38.6113 71.4538 37.6414 71.8 36.6984C72.5765 34.8329 73.1466 32.888 73.5 30.8984L73.9 30.9984Z" fill="#386EE8"/>
<path d="M73.1 38.3984L72.5001 42.2984C72.2028 43.5478 72.0021 44.8182 71.9 46.0984C71.8 48.7984 71.8 51.2984 71.7 53.8984C71.35 51.3102 71.35 48.6866 71.7 46.0984C71.9 44.7984 72 43.4984 72.2 42.1984C72.4051 40.9111 72.7059 39.641 73.1 38.3984Z" fill="#386EE8"/>
<path d="M67.9993 56.3008C67.6364 56.6462 67.1874 56.888 66.6992 57.0008C66.4555 57.087 66.1968 57.1226 65.9389 57.1054C65.681 57.0882 65.4293 57.0186 65.1992 56.9008L66.5992 56.6008L67.9993 56.3008Z" fill="#386EE8"/>
<path d="M62.5996 34.8998C63.6611 34.3583 64.8141 34.0192 65.9996 33.8998C67.1578 33.7001 68.3415 33.7001 69.4996 33.8998L65.9996 34.1997L62.5996 34.8998Z" fill="#386EE8"/>
<path d="M67.7004 35C67.2479 35.1574 66.7777 35.2582 66.3004 35.3L64.9004 35.5C65.3245 35.2321 65.8026 35.0614 66.3004 35H67.7004Z" fill="#386EE8"/>
<path d="M60.0004 34.8008C59.6004 36.6008 59.0004 38.4008 58.5004 40.2008C57.8363 41.9511 57.3342 43.7587 57.0004 45.6008L56.0004 51.1008C55.7004 52.9008 55.3004 54.7008 54.9004 56.5008C55.0352 54.6563 55.2689 52.8203 55.6004 51.0008L56.8004 45.5008L58.2004 40.1008C58.695 38.3001 59.2961 36.5303 60.0004 34.8008Z" fill="#386EE8"/>
<path d="M58.4994 44.1016C57.9994 45.3016 57.7994 46.7016 57.3994 47.9016C56.9894 49.168 56.7211 50.476 56.5994 51.8016L56.1994 55.8016V57.7016C56.1219 58.029 56.0883 58.3653 56.0994 58.7016C56.0312 59.0374 56.066 59.3859 56.1994 59.7016C55.9994 59.6016 55.9994 59.4016 55.9994 59.2016C55.9044 59.0534 55.8687 58.8749 55.8994 58.7016V55.7016C55.9994 54.4016 56.2994 53.1016 56.4994 51.8016C56.6994 50.5016 56.9994 49.2016 57.1994 47.8016C57.319 47.1568 57.4861 46.5217 57.6994 45.9016C57.9387 45.2731 58.2402 44.6701 58.5994 44.1016H58.4994Z" fill="#386EE8"/>
<path d="M56.9008 36.1992L55.0008 37.2992L54.1008 37.7992C53.7904 37.9772 53.5184 38.2152 53.3008 38.4992C53.3819 38.1351 53.5958 37.8142 53.9008 37.5992L54.8008 36.8992C55.4677 36.5764 56.1735 36.3411 56.9008 36.1992Z" fill="#386EE8"/>
<path d="M54.6996 38.5C54.4819 38.784 54.21 39.022 53.8996 39.2L53.0996 39.9C53.1278 39.7017 53.1954 39.511 53.2985 39.3393C53.4015 39.1675 53.5379 39.0182 53.6996 38.9L54.6996 38.5Z" fill="#386EE8"/>
<path d="M113.199 26.6016C113.86 26.9096 114.391 27.4407 114.699 28.1016C114.859 28.4449 114.928 28.8238 114.899 29.2016C114.899 29.5016 114.999 29.9016 114.999 30.2016C114.824 29.8868 114.689 29.5507 114.599 29.2016C114.499 28.9016 114.499 28.5016 114.399 28.2016L113.899 27.4016L113.199 26.6016Z" fill="#386EE8"/>
<path d="M115.4 28.1016C115.516 28.141 115.622 28.2066 115.709 28.2933C115.795 28.38 115.861 28.4855 115.9 28.6016C116.034 28.846 116.069 29.1319 116 29.4016L115.6 28.8016C115.473 28.59 115.404 28.3485 115.4 28.1016Z" fill="#386EE8"/>
<path d="M106.799 24.901C105.632 23.9439 104.265 23.2604 102.799 22.901C102.072 22.7804 101.336 22.7135 100.599 22.701C99.7992 22.601 99.1993 22.201 98.3993 22.101L96.1992 21.601L95.0992 21.401L93.9993 21.0011L92.9993 20.5011L91.8993 20.301C91.1668 20.2512 90.4317 20.2512 89.6992 20.301C90.4486 20.0964 91.2225 19.9955 91.9993 20.0011C92.3768 19.9762 92.7546 20.0449 93.0992 20.201L94.1992 20.601C94.8278 20.9969 95.5563 21.2051 96.2992 21.201L98.4993 21.901L99.4993 22.301C99.8517 22.4473 100.221 22.5481 100.599 22.601C101.365 22.5512 102.133 22.5512 102.899 22.601C104.391 22.9261 105.75 23.6927 106.799 24.801V24.901Z" fill="#386EE8"/>
<path d="M87.3008 18.3008C87.5504 18.6609 87.7208 19.07 87.8008 19.5008C87.8612 19.9561 87.7547 20.418 87.5009 20.8008C87.517 20.3982 87.4834 19.9951 87.4009 19.6008C87.4009 19.2008 87.3008 18.8008 87.3008 18.3008Z" fill="#386EE8"/>
<path d="M85.5996 17.5C85.86 18.1397 86.0284 18.813 86.0996 19.5C86.1479 20.148 86.0452 20.7984 85.7996 21.4C85.8161 20.765 85.7827 20.1297 85.6996 19.5C85.6996 18.8 85.5996 18.2 85.5996 17.5Z" fill="#386EE8"/>
<path d="M84.3993 19.6992C84.4614 19.7458 84.5118 19.8062 84.5465 19.8756C84.5812 19.945 84.5992 20.0216 84.5992 20.0992L84.3993 20.4992C84.1993 20.2992 84.1992 20.1992 84.1992 20.0992C84.1992 19.9992 84.1993 19.7992 84.3993 19.6992Z" fill="#386EE8"/>
<path d="M82.7992 19C82.951 19.2379 83.0212 19.5187 82.9993 19.8C83.0389 20.0825 82.9671 20.3693 82.7992 20.6C82.7169 20.3417 82.683 20.0705 82.6993 19.8C82.6891 19.5297 82.7228 19.2595 82.7992 19Z" fill="#386EE8"/>
<path d="M81.1003 18.1992C81.2928 18.5416 81.4279 18.9132 81.5004 19.2992C81.5885 19.6588 81.6222 20.0296 81.6003 20.3992C81.6695 20.8012 81.6351 21.2142 81.5004 21.5992C81.3456 21.9577 81.1439 22.294 80.9004 22.5992L81.2003 21.4992C81.283 21.1727 81.3167 20.8357 81.3003 20.4992C81.3003 20.0992 81.2003 19.6992 81.2003 19.2992C81.2222 18.9296 81.1885 18.5588 81.1003 18.1992Z" fill="#386EE8"/>
<path d="M79.6008 19.8008C79.6828 20.0934 79.7165 20.3973 79.7008 20.7008C79.7096 20.8574 79.6775 21.0137 79.6073 21.154C79.5371 21.2943 79.4314 21.4139 79.3008 21.5008V20.6008C79.3726 20.3244 79.4732 20.0563 79.6008 19.8008Z" fill="#386EE8"/>
<path d="M78.1992 17.8984C78.4759 18.2647 78.6649 18.6895 78.7516 19.1403C78.8383 19.591 78.8203 20.0557 78.6992 20.4984C78.5194 20.9082 78.3192 21.3087 78.0992 21.6984L77.6992 22.2984L77.1992 22.6984L77.7992 21.5984C78.0081 21.2174 78.1757 20.8151 78.2992 20.3984C78.5144 19.5736 78.4796 18.7034 78.1992 17.8984Z" fill="#386EE8"/>
<path d="M77.3992 20.9007L76.1991 21.3007H75.1991L74.9991 21.0007C74.8648 20.5819 74.8309 20.1373 74.9004 19.7029C74.9699 19.2686 75.1408 18.8567 75.3992 18.5007C75.6341 18.1794 75.7727 17.7979 75.7991 17.4007C75.7815 16.9941 75.7144 16.5911 75.5991 16.2007C75.5169 15.9905 75.4832 15.7644 75.5005 15.5393C75.5178 15.3142 75.5857 15.0959 75.6991 14.9007C75.9088 14.5256 76.1792 14.1877 76.4991 13.9007C77.172 13.3782 77.7766 12.7735 78.2991 12.1007L78.8992 11.1007L79.4991 10.0007C80.0704 9.38476 80.7479 8.87665 81.4991 8.50072L83.7991 7.3007C84.5726 6.97925 85.3101 6.57701 85.9991 6.10069L87.9991 4.7007C89.4844 3.89987 91.0211 3.19833 92.5991 2.60069L94.9991 1.90071C95.4265 1.79872 95.8717 1.79872 96.2991 1.90071C96.5418 1.90709 96.777 1.98697 96.9734 2.12981C97.1698 2.27264 97.3183 2.47171 97.3992 2.7007H99.6991C99.9119 2.75799 100.111 2.85863 100.283 2.99629C100.455 3.13395 100.596 3.30569 100.699 3.50072C100.852 3.92057 100.852 4.38085 100.699 4.8007H100.599C100.745 4.414 100.745 3.98739 100.599 3.60069C100.512 3.4233 100.386 3.26807 100.23 3.14677C100.074 3.02548 99.8924 2.94133 99.6991 2.90071C99.3055 2.7991 98.8927 2.7991 98.4991 2.90071H97.7991C97.7483 2.93467 97.6906 2.95657 97.6301 2.96474C97.5696 2.9729 97.508 2.9671 97.4501 2.9478C97.3922 2.92849 97.3394 2.89618 97.2959 2.85335C97.2524 2.81052 97.2193 2.7583 97.1991 2.7007C97.1224 2.52492 96.9968 2.37489 96.8373 2.26851C96.6777 2.16213 96.4908 2.10387 96.2991 2.10069C95.8969 2.03576 95.485 2.07009 95.0991 2.2007C94.2749 2.34121 93.4696 2.5761 92.6991 2.90071C91.1554 3.46446 89.652 4.13267 88.1991 4.90071L86.0991 6.3007L83.8992 7.40071L81.5991 8.50072C80.833 8.85211 80.151 9.36359 79.5991 10.0007L78.9991 11.0007C78.9001 11.414 78.693 11.7936 78.3992 12.1007C77.942 12.8241 77.3674 13.4662 76.6991 14.0007C76.379 14.2139 76.1311 14.5193 75.9883 14.8764C75.8454 15.2335 75.8144 15.6256 75.8992 16.0007C76.0141 16.4252 76.0811 16.8613 76.0991 17.3007C76.0747 17.7603 75.9372 18.2068 75.6991 18.6007C75.4411 18.9326 75.2385 19.3041 75.0991 19.7007C75.0403 19.8812 75.0188 20.0719 75.036 20.261C75.0532 20.4501 75.1087 20.6337 75.1991 20.8007C75.1991 20.8537 75.2202 20.9046 75.2577 20.9421C75.2952 20.9796 75.3461 21.0007 75.3992 21.0007C75.3992 21.1007 75.4991 21.1007 75.5991 21.2007H76.1991L77.3992 21.0007V20.9007Z" fill="#386EE8"/>
<path d="M99.6992 4.5H100.699L101.099 5C101.194 5.14817 101.23 5.32669 101.199 5.5C101.053 5.2525 100.847 5.04606 100.599 4.89999C100.299 4.79999 99.9992 4.8 99.6992 4.5Z" fill="#386EE8"/>
<path d="M95.5 6.89809C96.2921 6.26938 97.2145 5.82524 98.2 5.59808C98.7133 5.41506 99.2678 5.38043 99.7999 5.4981C100.299 5.54823 100.801 5.54823 101.3 5.4981C101.391 5.49523 101.48 5.52334 101.553 5.57787C101.625 5.6324 101.677 5.71008 101.7 5.79809C101.779 5.91542 101.815 6.05712 101.8 6.19808V8.4981C101.8 8.9981 101.9 9.49808 101.9 10.0981V10.7981C101.924 11.0688 101.89 11.3416 101.8 11.5981C101.8 11.6981 101.8 11.7981 101.9 11.7981C102 11.7981 102 11.8981 102.1 11.8981H102.9C103.166 12.0183 103.38 12.2317 103.5 12.4981L103.8 13.1981C104.047 13.663 104.387 14.0717 104.8 14.3981L105.9 15.2981C106.323 15.6097 106.797 15.8465 107.3 15.9981L108.1 16.1981L108.7 16.5981C109.137 16.8991 109.483 17.3142 109.7 17.7981L110.4 19.1981C111.263 21.0579 112.448 22.7506 113.9 24.1981C114.615 24.8756 115.423 25.448 116.3 25.8981C117.989 27.1199 119.503 28.5666 120.8 30.1981C121.26 30.4577 121.64 30.8381 121.9 31.2981V32.0981C121.904 32.345 121.973 32.5865 122.1 32.7981C122.5 33.7981 123 34.6981 123.4 35.5981C123.912 36.503 124.283 37.481 124.5 38.4981C123.743 36.5659 122.84 34.6939 121.8 32.8981C121.7 32.6981 121.7 32.3981 121.6 32.1981C121.5 31.9981 121.5 31.8981 121.5 31.7981V31.3981C121.3 30.9981 120.9 30.7981 120.5 30.3981L118.3 28.1981C117.579 27.5113 116.811 26.8764 116 26.2981C115.125 25.7212 114.29 25.0865 113.5 24.3981C112.075 22.9114 110.924 21.1849 110.1 19.2981L109.5 17.8981C109.283 17.4142 108.937 16.9991 108.5 16.6981L107.9 16.2981L107.2 16.0981C106.689 15.9673 106.211 15.7286 105.8 15.3981C105.329 15.1568 104.892 14.8541 104.5 14.4981C104.118 14.1411 103.782 13.738 103.5 13.2981C103.2 12.8981 103.2 12.2981 102.7 12.1981H101.5C101.428 12.0415 101.394 11.8703 101.4 11.6981C101.533 11.2097 101.567 10.6998 101.5 10.1981V6.29809C101.5 6.09809 101.5 5.79809 101.3 5.79809C100.801 5.84821 100.299 5.84821 99.7999 5.79809H98.2999C97.3254 6.0943 96.3866 6.49673 95.5 6.9981V6.89809Z" fill="#386EE8"/>
<path d="M93.9998 6.60156L92.7998 7.70157C92.4544 8.11867 92.1839 8.5923 91.9998 9.10156C91.9841 8.79812 92.0179 8.49416 92.0998 8.20157C92.2109 7.95622 92.3449 7.72188 92.4998 7.50159C92.8953 7.05434 93.4191 6.74002 93.9998 6.60156Z" fill="#386EE8"/>
<path d="M95.7998 4.10156C94.3684 4.37397 93.0675 5.11235 92.0998 6.20157C91.6382 6.77495 91.2672 7.41572 90.9998 8.10156C90.8073 8.40804 90.6717 8.74683 90.5998 9.10156C90.5404 9.27086 90.5275 9.45305 90.5627 9.629C90.5979 9.80494 90.6798 9.96815 90.7998 10.1016C90.6655 9.97314 90.5604 9.81746 90.4914 9.64496C90.4224 9.47246 90.3912 9.28715 90.3998 9.10156L90.6998 8.00159C90.9664 7.28459 91.337 6.61071 91.7998 6.00159C92.29 5.41518 92.9014 4.94176 93.5919 4.6138C94.2823 4.28584 95.0354 4.11109 95.7998 4.10156Z" fill="#386EE8"/>
<path d="M74.9993 20.3008C73.6505 21.1073 72.4358 22.1195 71.3992 23.3008C70.1992 24.4008 68.8992 25.3008 67.5992 26.3008L65.6992 27.8008L64.5992 28.4008L63.4993 28.8008C62.1498 29.586 61.0426 30.7277 60.2993 32.1008H60.1992C60.8466 30.6105 61.9728 29.3788 63.3992 28.6008L64.4993 28.1008C64.8601 27.9961 65.199 27.8267 65.4993 27.6008L67.4993 26.2008C68.851 25.3983 70.0662 24.3856 71.0992 23.2008C72.1252 21.9352 73.4721 20.9682 74.9993 20.4008V20.3008Z" fill="#386EE8"/>
<path d="M87.3999 61C87.5999 61 87.6998 61 87.6998 61.1C87.6998 61.2 87.7998 61.3 87.6998 61.4H87.3999C87.3999 61.2 87.2999 61.1 87.3999 61Z" fill="#386EE8"/>
<path d="M85.9999 61.3008C86.0959 61.3423 86.1764 61.4128 86.2302 61.5025C86.284 61.5922 86.3084 61.6965 86.2998 61.8008C86.3061 61.973 86.2719 62.1442 86.1998 62.3008C85.9998 62.2008 85.9999 62.0008 85.9999 61.8008C85.9431 61.7298 85.9121 61.6417 85.9121 61.5508C85.9121 61.4599 85.9431 61.3717 85.9999 61.3008Z" fill="#386EE8"/>
<path d="M84.899 62C84.999 62.2 84.999 62.4 85.099 62.6C85.199 62.8 84.999 62.9 84.899 63.1C84.829 63.038 84.7744 62.9605 84.7397 62.8737C84.705 62.7869 84.691 62.6931 84.6989 62.6C84.6828 62.4913 84.6926 62.3804 84.7274 62.2761C84.7621 62.1719 84.8209 62.0773 84.899 62Z" fill="#386EE8"/>
<path d="M83.6009 62.3984C83.6829 62.6222 83.717 62.8607 83.7009 63.0984C83.7308 63.3803 83.66 63.6638 83.5009 63.8984C83.4186 63.6402 83.3847 63.369 83.4009 63.0984C83.3773 62.8482 83.4486 62.5984 83.6009 62.3984Z" fill="#386EE8"/>
<path d="M82.0993 62.5C82.1816 62.7582 82.2155 63.0294 82.1993 63.3C82.2212 63.5813 82.151 63.8621 81.9993 64.1C81.9229 63.8405 81.8892 63.5703 81.8993 63.3C81.8597 63.0175 81.9314 62.7306 82.0993 62.5Z" fill="#386EE8"/>
<path d="M80.3004 62.8984C80.38 63.0158 80.4155 63.1575 80.4005 63.2984C80.5005 63.3984 80.4005 63.5984 80.5005 63.6984C80.6005 63.7984 80.4004 64.2984 80.3004 64.5984C80.141 64.3269 80.071 64.012 80.1005 63.6984C80.0609 63.4159 80.1326 63.1291 80.3004 62.8984Z" fill="#386EE8"/>
<path d="M78.399 63.3008C78.499 63.4008 78.499 63.6008 78.599 63.8008C78.699 64.0008 78.499 64.2008 78.399 64.4008C78.3209 64.3235 78.2621 64.2289 78.2274 64.1247C78.1926 64.0204 78.1828 63.9095 78.1989 63.8008C78.1989 63.6008 78.199 63.4008 78.399 63.3008Z" fill="#386EE8"/>
<path d="M75.9993 64.1016C76.0801 64.2551 76.1148 64.4287 76.0992 64.6016C76.1153 64.7103 76.1057 64.8212 76.0709 64.9254C76.0362 65.0297 75.9774 65.1243 75.8993 65.2016C75.7877 65.0194 75.7192 64.8142 75.6992 64.6016C75.7992 64.4016 75.7993 64.2016 75.9993 64.1016Z" fill="#386EE8"/>
<path d="M73.9998 63.8008C74.0824 64.1951 74.1159 64.5982 74.0998 65.0008C74.1162 65.3703 74.0826 65.7403 73.9998 66.1008C73.8299 65.7606 73.7605 65.379 73.7997 65.0008C73.7666 64.5904 73.8354 64.1782 73.9998 63.8008Z" fill="#386EE8"/>
<path d="M72.0997 64.3008C72.1816 64.5934 72.2154 64.8973 72.1997 65.2008C72.1797 65.477 72.112 65.7477 71.9997 66.0008C71.8318 65.7701 71.7601 65.4833 71.7997 65.2008C71.8544 64.8875 71.9555 64.5842 72.0997 64.3008Z" fill="#386EE8"/>
<path d="M70.1994 64.6992C70.2944 64.8474 70.3301 65.0259 70.2994 65.1992C70.3803 65.3528 70.415 65.5264 70.3994 65.6992C70.4158 66.0687 70.3822 66.4387 70.2994 66.7992C70.14 66.4514 70.0386 66.0798 69.9994 65.6992C69.9683 65.3536 70.0377 65.0063 70.1994 64.6992Z" fill="#386EE8"/>
<path d="M68.2004 64.8008C68.2827 65.059 68.3166 65.3302 68.3004 65.6008C68.3161 65.9042 68.2823 66.2082 68.2004 66.5008C68.0562 66.2174 67.9551 65.914 67.9004 65.6008C68.0004 65.3008 68.0004 65.0008 68.2004 64.8008Z" fill="#386EE8"/>
<path d="M66.5002 64.5C66.6002 64.7 66.6001 64.9 66.7001 65.1C66.7246 65.2242 66.7192 65.3524 66.6844 65.4741C66.6496 65.5957 66.5865 65.7074 66.5002 65.8C66.3886 65.6179 66.3202 65.4126 66.3002 65.2C66.2758 65.0758 66.2812 64.9476 66.3159 64.8259C66.3507 64.7042 66.4139 64.5925 66.5002 64.5Z" fill="#386EE8"/>
<path d="M65.3 64.1992C65.3875 64.5249 65.4212 64.8627 65.4 65.1992C65.4157 65.5027 65.3819 65.8066 65.3 66.0992C65.1403 65.7868 65.0387 65.4479 65 65.0992C65.0547 64.786 65.1558 64.4826 65.3 64.1992Z" fill="#386EE8"/>
<path d="M63.6004 64.3008C63.6704 64.3628 63.7249 64.4403 63.7596 64.5271C63.7944 64.6139 63.8083 64.7076 63.8004 64.8008C63.816 64.9736 63.7812 65.1472 63.7004 65.3008C63.5004 65.2008 63.5004 65.0008 63.4004 64.8008C63.4073 64.616 63.478 64.4393 63.6004 64.3008Z" fill="#386EE8"/>
<path d="M62.1009 63.3008C62.2599 63.5355 62.3308 63.8188 62.3009 64.1008C62.3166 64.4042 62.2828 64.7082 62.2008 65.0008C62.033 64.7701 61.9613 64.4833 62.0009 64.2008C61.9852 63.8973 62.0189 63.5934 62.1009 63.3008Z" fill="#386EE8"/>
<path d="M60.2992 62.5C60.3816 62.7582 60.4154 63.0294 60.3992 63.3C60.4211 63.5813 60.3509 63.8621 60.1992 64.1C60.0992 63.8 60.0993 63.5 59.9993 63.3C59.8993 63.1 60.0992 62.7 60.2992 62.5Z" fill="#386EE8"/>
<path d="M58.6 62C58.5954 62.0542 58.6019 62.1087 58.6191 62.1603C58.6363 62.2119 58.6638 62.2594 58.6999 62.3V62.7C58.7084 62.9374 58.6746 63.1745 58.6 63.4C58.4 63.2 58.4 62.9 58.3 62.7C58.2 62.5 58.4 62.2 58.6 62Z" fill="#386EE8"/>
<path d="M131.801 79.4984C132.801 77.7984 133.801 76.0984 134.901 74.4984C136.001 72.8984 136.901 71.1984 138.001 69.5984C140.101 66.3984 142.301 63.1984 144.301 59.8984C146.301 56.5984 148.401 53.2984 150.501 50.0984C152.601 46.8984 154.801 43.5984 156.901 40.3984H157.001C155.001 43.6984 152.901 46.9984 150.801 50.2984L144.501 59.9984C142.301 63.1984 140.301 66.4984 138.201 69.7984L135.101 74.5984L131.801 79.4984Z" fill="#386EE8"/>
<path d="M156.3 40L153.3 44.8C152.3 46.4 151.3 48 150.2 49.5C148.1 52.6 145.9 55.7 143.9 58.9L137.8 68.4L131.4 77.7L137.5 68.2C139.5 65.0666 141.6 61.9667 143.8 58.9C145.9 55.8 147.9 52.6 149.9 49.5C151.9 46.4 152 46.3 153.1 44.8C154.2 43.3 155.2 41.6 156.3 40.1V40Z" fill="#386EE8"/>
<path d="M159.999 34.7994C160.116 34.9362 160.203 35.0958 160.254 35.2679C160.306 35.44 160.321 35.621 160.299 35.7994C160.31 36.1356 160.277 36.4719 160.199 36.7994C160.127 37.4538 159.958 38.094 159.699 38.6993C159.475 39.3174 159.053 39.8444 158.499 40.1993C158.204 40.3903 157.864 40.5001 157.513 40.5177C157.162 40.5352 156.812 40.4599 156.499 40.2994C156.34 40.2392 156.195 40.1456 156.074 40.0249C155.953 39.9042 155.86 39.7591 155.799 39.5993C155.717 39.2389 155.683 38.8689 155.699 38.4994C155.806 37.8269 156.164 37.2196 156.699 36.7994C157.148 36.3102 157.651 35.8741 158.199 35.4994L159.099 34.9994C159.222 34.8963 159.368 34.8242 159.525 34.7894C159.682 34.7546 159.844 34.758 159.999 34.7994ZM159.999 34.8994C159.699 34.6994 159.399 34.8994 159.099 34.9994L158.399 35.5993C157.908 36.0407 157.441 36.508 156.999 36.9994C156.57 37.4486 156.26 37.9989 156.099 38.5993C155.981 38.8822 155.966 39.1979 156.057 39.4907C156.149 39.7835 156.341 40.0345 156.599 40.1993C156.884 40.333 157.198 40.3939 157.512 40.3764C157.826 40.359 158.131 40.2638 158.399 40.0993C158.673 39.9351 158.912 39.7178 159.101 39.4602C159.289 39.2027 159.425 38.91 159.499 38.5993C159.699 37.9993 159.799 37.2993 159.999 36.6993C160.114 36.4119 160.181 36.1081 160.199 35.7994C160.199 35.4994 160.299 35.0994 159.999 34.8994Z" fill="#386EE8"/>
<path d="M163.001 54.2014C163.115 54.3392 163.186 54.508 163.203 54.6861C163.221 54.8643 163.185 55.0437 163.101 55.2014C163.083 55.5102 163.015 55.814 162.901 56.1014C162.695 56.7588 162.427 57.3951 162.101 58.0014C161.772 58.5782 161.236 59.0076 160.601 59.2014C160.288 59.362 159.939 59.4373 159.587 59.4198C159.236 59.4022 158.896 59.2924 158.601 59.1014C158.461 58.9933 158.344 58.8578 158.258 58.703C158.172 58.5483 158.118 58.3776 158.101 58.2014C158.044 58.0374 158.024 57.8631 158.041 57.6905C158.058 57.5178 158.113 57.351 158.201 57.2014C158.426 56.5568 158.845 55.9978 159.401 55.6014L161.101 54.5014L162.001 54.2014C162.401 54.1014 162.701 54.0014 163.001 54.2014ZM163.001 54.2014C162.698 54.1341 162.381 54.1693 162.101 54.3014L161.201 54.7014L159.701 55.9014C159.149 56.2128 158.724 56.7084 158.501 57.3014C158.341 57.557 158.282 57.8636 158.338 58.1601C158.394 58.4566 158.559 58.7213 158.801 58.9014C159.03 59.1042 159.316 59.232 159.619 59.2677C159.923 59.3035 160.231 59.2454 160.501 59.1014C160.81 59.0124 161.091 58.8465 161.318 58.6191C161.546 58.3918 161.712 58.1104 161.801 57.8014L162.701 56.1014L163.001 55.2014C163.073 55.0445 163.11 54.874 163.11 54.7014C163.11 54.5288 163.073 54.3583 163.001 54.2014Z" fill="#386EE8"/>
<path d="M158.401 58.6016C156.501 60.8016 154.401 62.9016 152.401 65.0016L149.201 68.2016L146.201 71.4016C144.201 73.5016 142.201 75.7016 140.101 77.8016L133.901 84.1016H133.801L139.801 77.6016L146.001 71.3016L149.101 68.2016C150.201 67.1016 151.101 66.0016 152.101 64.9016C153.101 63.8016 156.201 60.7016 158.401 58.7016V58.6016Z" fill="#386EE8"/>
<path d="M158.9 59.2016C157 61.5016 154.9 63.7016 152.8 65.9016L149.7 69.2016C148.6 70.3016 147.6 71.5016 146.6 72.6016L140.5 79.4016C138.4 81.6016 136.3 83.8016 134.1 85.9016C136.1 83.6016 138.1 81.3016 140.2 79.1016C142.3 76.9016 144.3 74.7016 146.5 72.5016C148.7 70.3016 148.6 70.3016 149.6 69.1016L152.6 65.7016L158.9 59.1016V59.2016Z" fill="#386EE8"/>
<path d="M130.6 78.1992C131.884 79.1882 132.885 80.4992 133.5 81.9992C134.039 83.5049 134.277 85.1018 134.2 86.6992C134.187 88.2784 134.019 89.8526 133.7 91.3992C133.539 92.9821 133.271 94.5522 132.9 96.0992C132.551 97.6454 132.048 99.1529 131.4 100.599C130.845 102.111 129.956 103.479 128.8 104.599C127.626 105.738 126.23 106.624 124.7 107.199C123.239 107.822 121.684 108.194 120.1 108.299C123.223 107.856 126.145 106.499 128.5 104.399C129.634 103.299 130.52 101.969 131.1 100.499C131.796 99.0624 132.333 97.5533 132.7 95.9992C133.498 92.9637 133.901 89.8379 133.9 86.6992C133.977 85.1345 133.739 83.5702 133.2 82.0992C132.644 80.6167 131.754 79.2821 130.6 78.1992Z" fill="#386EE8"/>
<path d="M125.9 75.6012C123.972 75.3305 122.006 75.5719 120.2 76.3012C118.401 77.0332 116.768 78.1217 115.4 79.5012C112.5 82.2012 111.1 86.1012 110.2 89.8012C109.705 91.6924 109.502 93.6485 109.6 95.6012C109.559 97.5577 109.934 99.5007 110.7 101.301C111.398 103.09 112.492 104.697 113.9 106.001C115.285 107.383 117.069 108.292 119 108.601C117.024 108.316 115.178 107.445 113.7 106.101C112.207 104.789 111.042 103.145 110.3 101.301C109.534 99.4654 109.16 97.49 109.2 95.5012C109.213 93.5413 109.482 91.5914 110 89.7012C110.437 87.7735 111.074 85.8966 111.9 84.1012C112.693 82.3042 113.773 80.649 115.1 79.2012C116.532 77.8056 118.233 76.7167 120.1 76.0012C121.925 75.2047 123.952 74.995 125.9 75.4012V75.6012Z" fill="#386EE8"/>
<path d="M127.8 76.5984C126.073 76.0285 124.204 76.0637 122.5 76.6984C120.813 77.2907 119.276 78.2466 118 79.4984C115.466 82.1877 113.614 85.4455 112.6 88.9984C112.113 90.7327 111.778 92.5061 111.6 94.2984C111.502 96.1192 111.704 97.9436 112.2 99.6984C112.664 101.427 113.559 103.009 114.8 104.298C116.06 105.619 117.647 106.585 119.4 107.098C117.584 106.699 115.913 105.806 114.572 104.518C113.231 103.23 112.272 101.597 111.8 99.7984C111.336 98.0043 111.167 96.1467 111.3 94.2984C111.453 92.4615 111.823 90.6491 112.4 88.8984C113.03 87.1558 113.764 85.4527 114.6 83.7984C115.447 82.1786 116.488 80.6675 117.7 79.2984C119.016 77.9974 120.629 77.0364 122.4 76.4984C123.276 76.1428 124.215 75.9683 125.16 75.9855C126.105 76.0027 127.037 76.2112 127.9 76.5984H127.8Z" fill="#386EE8"/>
<path d="M126.3 106.401L124.9 106.901C124.392 106.953 123.89 107.053 123.4 107.201L121.9 107.601C121.392 107.633 120.883 107.565 120.4 107.401L121.9 107.201L123.4 107.001C123.891 106.973 124.369 106.837 124.8 106.601L126.3 106.301V106.401Z" fill="#386EE8"/>
<path d="M120.599 100.798C121.616 100.898 122.642 100.76 123.596 100.396C124.551 100.031 125.408 99.4503 126.099 98.6985C127.457 97.1143 128.417 95.2286 128.899 93.1985C129.609 91.2465 129.782 89.1399 129.399 87.0984C129.225 86.0802 128.752 85.137 128.039 84.389C127.327 83.6409 126.408 83.1221 125.399 82.8985C124.376 82.8613 123.355 83.0314 122.399 83.3985C121.408 83.7467 120.516 84.33 119.799 85.0984C118.434 86.6259 117.502 88.4901 117.099 90.4985C116.488 92.4707 116.317 94.553 116.599 96.5984C116.781 97.6292 117.229 98.5945 117.899 99.3985C118.229 99.8052 118.638 100.139 119.103 100.38C119.568 100.621 120.077 100.764 120.599 100.798ZM120.499 100.898C119.469 100.744 118.519 100.251 117.799 99.4985C117.061 98.7274 116.573 97.7515 116.399 96.6985C115.997 94.6045 116.099 92.4447 116.699 90.3985C117.11 88.2926 118.116 86.3488 119.599 84.7985C120.36 84.0589 121.285 83.5105 122.299 83.1985C123.262 82.7341 124.339 82.5603 125.399 82.6985C126.456 82.9067 127.409 83.4715 128.099 84.2985C128.81 85.1024 129.324 86.0612 129.599 87.0984C130.017 89.1641 129.879 91.3037 129.199 93.2985C128.746 95.3598 127.744 97.2602 126.299 98.7985C125.571 99.5875 124.665 100.19 123.655 100.556C122.646 100.921 121.564 101.039 120.499 100.898Z" fill="#386EE8"/>
<path d="M124.201 82.7016C122.729 83.6714 121.47 84.9302 120.501 86.4016C119.406 87.7606 118.683 89.3798 118.401 91.1016C118.201 92.8626 118.201 94.6406 118.401 96.4016C118.457 97.2629 118.66 98.1084 119.001 98.9016C119.1 99.3149 119.307 99.6945 119.601 100.002C119.692 100.205 119.83 100.383 120.004 100.523C120.178 100.662 120.382 100.757 120.601 100.802H120.501C120.08 100.665 119.702 100.425 119.401 100.102C119.131 99.7241 118.896 99.3224 118.701 98.9016C118.316 98.0828 118.079 97.2026 118.001 96.3016C117.815 94.5344 117.882 92.7498 118.201 91.0016C118.407 90.1502 118.674 89.3147 119.001 88.5016C119.352 87.66 119.788 86.8559 120.301 86.1016C120.749 85.3134 121.323 84.604 122.001 84.0016C122.671 83.4427 123.41 82.9722 124.201 82.6016V82.7016Z" fill="#386EE8"/>
<path d="M121.5 91.8008C121.587 90.9975 121.899 90.235 122.4 89.6008C122.573 89.2147 122.853 88.8868 123.208 88.6562C123.563 88.4256 123.977 88.3022 124.4 88.3008C124.612 88.3581 124.811 88.4587 124.983 88.5964C125.155 88.734 125.297 88.9057 125.4 89.1008L125.7 90.3008C125.8 91.0641 125.8 91.8374 125.7 92.6008C125.631 93.4225 125.356 94.2137 124.9 94.9008C124.705 95.2841 124.402 95.602 124.029 95.8152C123.656 96.0285 123.229 96.1278 122.8 96.1008C122.56 96.082 122.331 95.9973 122.137 95.8561C121.942 95.7149 121.791 95.5227 121.7 95.3008C121.495 94.971 121.391 94.5888 121.4 94.2008C121.331 93.3998 121.365 92.5933 121.5 91.8008ZM121.5 91.8008C121.431 92.5685 121.465 93.3419 121.6 94.1008C121.8 94.8008 122.1 95.7008 122.8 95.7008C123.158 95.6936 123.51 95.5987 123.824 95.4244C124.138 95.2501 124.404 95.0016 124.6 94.7008C125.097 94.1032 125.41 93.3734 125.5 92.6008C125.684 91.8481 125.718 91.0666 125.6 90.3008C125.527 89.9147 125.392 89.5432 125.2 89.2008C125 88.9008 124.7 88.6008 124.4 88.6008C124.024 88.6408 123.66 88.7595 123.333 88.9489C123.005 89.1384 122.722 89.3946 122.5 89.7008C122.009 90.3144 121.667 91.0331 121.5 91.8008Z" fill="#386EE8"/>
<path d="M123.301 95.8C123.785 95.3938 124.105 94.825 124.201 94.2C124.382 93.5776 124.515 92.9425 124.601 92.3C124.717 91.6392 124.784 90.9707 124.801 90.3V89.4C124.749 89.0701 124.611 88.7596 124.401 88.5C125.001 88.9 125.001 89.7 125.101 90.3C125.089 90.971 125.022 91.6399 124.901 92.3C124.816 92.9754 124.682 93.6438 124.501 94.3C124.421 94.6217 124.272 94.9224 124.065 95.1813C123.858 95.4402 123.597 95.6512 123.301 95.8Z" fill="#386EE8"/>
<path d="M120.999 100.898L118.899 109.998C118.199 112.998 117.299 115.998 116.499 118.998C114.899 124.998 113.099 130.998 111.099 136.798C110.099 139.798 108.999 142.698 107.899 145.598L104.399 154.198C103.199 157.132 102.099 160.032 101.099 162.898L99.4993 167.298L98.5992 169.498L97.9993 171.698C96.3993 177.698 95.2992 183.898 94.2992 189.998C93.3983 196.126 92.8972 202.306 92.7992 208.498C92.6992 211.698 92.6993 214.798 92.4993 217.898C92.2993 220.998 92.0993 224.098 91.9993 227.198C91.6993 233.398 91.4992 239.598 91.1992 245.798C91.2992 239.598 91.3992 233.398 91.6992 227.198C91.7992 224.098 91.9992 220.898 92.1992 217.798L92.4993 208.498C92.6013 202.273 93.1023 196.06 93.9993 189.898C94.3993 186.898 94.9992 183.798 95.5992 180.798C96.1992 177.798 96.9992 174.698 97.7992 171.698C97.9867 170.919 98.2205 170.151 98.4993 169.398L99.2992 167.298L100.899 162.898L104.199 154.198L107.699 145.498C108.799 142.598 109.899 139.698 110.799 136.798C112.799 130.898 114.599 124.898 116.299 118.898C117.999 112.898 119.399 106.898 120.999 100.898Z" fill="#386EE8"/>
<path d="M92.1992 247.798C92.4992 235.198 92.9993 222.598 93.4993 210.098C93.5504 203.781 93.951 197.471 94.6992 191.198C95.5992 184.998 96.9993 178.798 98.4993 172.698C99.9993 166.598 102.499 160.698 104.799 154.898C107.099 149.098 109.599 143.198 111.699 137.298C113.799 131.398 115.399 125.298 116.999 119.198C118.599 113.098 120.299 106.998 121.799 100.898C120.399 107.098 118.899 113.198 117.299 119.298C115.699 125.398 114.099 131.498 111.999 137.398C109.899 143.298 107.499 149.198 105.199 154.998C102.899 160.798 100.099 166.598 98.6992 172.798C97.0451 178.851 95.7429 184.995 94.7992 191.198C93.9992 197.498 93.8992 203.798 93.6992 210.098C93.4992 216.398 93.2992 222.698 93.0992 228.898L92.2992 247.798H92.1992Z" fill="#386EE8"/>
<path d="M61.9004 125.699C62.6004 136.299 64.2004 146.799 65.8004 157.299C66.7004 162.499 67.6004 167.799 68.6004 172.999C69.6004 178.199 70.8004 183.399 72.2004 188.499C74.9004 198.699 78.3005 208.799 81.4005 218.999C84.6979 229.089 87.2054 239.42 88.9005 249.899C88.0005 244.699 86.9004 239.499 85.5004 234.399C84.1004 229.299 82.7004 224.099 81.1004 219.099L76.3004 203.899C74.8004 198.799 73.3004 193.699 72.0004 188.499C69.4004 178.199 67.4004 167.799 65.5004 157.299C64.6004 152.099 63.9004 146.799 63.3004 141.599C62.7004 136.399 62.1004 130.999 61.9004 125.699Z" fill="#386EE8"/>
<path d="M63.2993 126.699C63.6993 131.599 64.2992 136.499 64.8992 141.299L66.9993 155.999C67.7993 160.799 68.5993 165.699 69.4993 170.599C70.3993 175.499 71.5993 180.199 72.8993 184.899C75.3993 194.499 78.3992 203.899 81.1992 213.299C82.6992 217.999 83.9992 222.799 85.2992 227.499C86.5992 232.199 87.6993 237.099 88.4993 241.999C86.5993 232.299 83.6993 222.899 80.8993 213.399C78.0993 203.899 75.0992 194.599 72.6992 184.999C70.2343 175.441 68.265 165.761 66.7993 155.999C65.9993 151.199 65.2992 146.299 64.6992 141.399C64.0992 136.499 63.5992 131.599 63.1992 126.699H63.2993Z" fill="#386EE8"/>
<path d="M54.6997 95.1992L54.0997 98.0992C53.8366 99.0422 53.7685 100.029 53.8997 100.999C54.1272 102.982 54.4611 104.952 54.8997 106.899L56.1997 112.799C56.5997 114.699 57.0997 116.699 57.5997 118.599C58.061 120.519 58.9119 122.323 60.0997 123.899L64.6997 127.699L66.8997 129.799L69.0997 131.899C69.8328 132.55 70.6805 133.059 71.5997 133.399C72.5388 133.686 73.5179 133.822 74.4997 133.799C76.4797 133.885 78.4625 133.717 80.3997 133.299C82.3567 132.897 84.2668 132.294 86.0997 131.499L97.0997 126.799C98.8997 125.999 100.8 125.199 102.5 124.299L105.1 122.899C105.924 122.34 106.665 121.667 107.3 120.899C108.3 119.199 109 117.299 109.9 115.499C110.8 113.699 111.5 111.899 112.2 109.999H112.3L110 115.599C109.268 117.445 108.434 119.248 107.5 120.999C106.922 121.846 106.172 122.561 105.3 123.099C104.491 123.694 103.619 124.197 102.7 124.599C100.9 125.599 99.0996 126.299 97.2996 127.099L86.1997 131.799C84.3722 132.608 82.4605 133.212 80.4997 133.599C78.524 133.98 76.5086 134.115 74.4997 133.999C72.4796 134.051 70.5147 133.337 68.9997 131.999C68.2172 131.317 67.4821 130.582 66.7997 129.799L64.5997 127.899C63.0997 126.599 61.4997 125.399 59.9997 123.999C58.7609 122.441 57.8739 120.633 57.3997 118.699C56.1997 114.799 55.4997 110.899 54.6997 106.999C54.2997 104.999 53.8997 103.099 53.6997 101.099C53.5956 100.089 53.6977 99.0686 53.9997 98.0992L54.6997 95.1992Z" fill="#386EE8"/>
<path d="M73.8995 133.901C74.0995 136.201 74.2994 138.601 74.2994 141.001C74.4661 143.366 74.4327 145.741 74.1995 148.101C74.2152 148.404 74.1814 148.708 74.0995 149.001C74.0524 149.332 73.9139 149.644 73.6995 149.901C73.2224 150.212 72.7858 150.582 72.3995 151.001C71.698 151.938 71.2502 153.04 71.0995 154.201C71.0612 155.388 71.2304 156.572 71.5995 157.701C71.9185 158.858 72.3893 159.967 72.9995 161.001C73.5889 162.009 74.331 162.92 75.1995 163.701C76.0072 164.541 76.9139 165.279 77.8995 165.901C79.9268 167.105 82.1155 168.014 84.3995 168.601C88.9995 169.701 93.6995 170.501 98.3995 169.601C96.0726 170.135 93.6717 170.27 91.2994 170.001C88.9368 169.796 86.5954 169.394 84.2994 168.801C81.9898 168.197 79.7704 167.289 77.6995 166.101C75.704 164.79 74.0292 163.047 72.7994 161.001C72.2075 159.958 71.7378 158.851 71.3995 157.701L71.0995 155.901C70.9674 155.31 70.9336 154.702 70.9995 154.101C71.1333 152.905 71.5818 151.766 72.2994 150.801C72.6023 150.279 73.0554 149.861 73.5995 149.601C73.7396 149.358 73.8088 149.081 73.7994 148.801C73.8896 148.544 73.9238 148.272 73.8995 148.001C74.1995 143.301 73.9995 138.501 73.8995 133.801V133.901Z" fill="#386EE8"/>
<path d="M116.101 107.801C116.201 108.965 116.201 110.136 116.101 111.301C116.001 112.401 115.901 113.601 115.901 114.801C116 117.105 115.9 119.414 115.601 121.701H115.501C115.419 119.366 115.486 117.028 115.701 114.701C115.801 113.601 115.801 112.401 115.801 111.301C115.797 110.128 115.897 108.956 116.101 107.801Z" fill="#386EE8"/>
<path d="M115.399 125.699C115.499 128.199 115.699 130.699 115.999 133.099C116.093 134.314 116.294 135.519 116.599 136.699C116.842 137.888 117.394 138.992 118.199 139.899C118.665 140.283 119.212 140.557 119.799 140.699L121.499 141.499C122.099 141.762 122.593 142.22 122.899 142.799C123.225 143.301 123.493 143.838 123.699 144.399C124.033 145.606 124.067 146.876 123.799 148.099C123.471 149.335 123.036 150.539 122.499 151.699C121.451 153.914 120.141 155.995 118.599 157.899C116.915 159.768 115 161.415 112.899 162.799C110.859 164.187 108.72 165.423 106.499 166.499C104.297 167.61 102.025 168.578 99.6992 169.399C104.272 167.581 108.631 165.268 112.699 162.499C114.763 161.145 116.645 159.532 118.299 157.699C119.894 155.85 121.239 153.799 122.299 151.599C122.879 150.492 123.315 149.316 123.599 148.099C123.949 146.925 123.949 145.674 123.599 144.499C123.218 143.336 122.439 142.345 121.399 141.699L119.699 140.999C119.089 140.836 118.514 140.565 117.999 140.199C117.106 139.261 116.514 138.077 116.299 136.799C115.999 135.599 115.899 134.399 115.699 133.199C115.45 130.707 115.349 128.203 115.399 125.699Z" fill="#386EE8"/>
<path d="M117.301 139.199C119.373 139.501 121.372 140.179 123.201 141.199C124.17 141.716 124.917 142.57 125.301 143.599C125.567 144.61 125.635 145.663 125.501 146.699C124.936 150.882 123.164 154.809 120.401 157.999C119.051 159.582 117.544 161.023 115.901 162.299C114.333 163.676 112.623 164.883 110.801 165.899C108.901 166.899 107.001 167.699 105.101 168.499C103.208 169.336 101.272 170.07 99.3008 170.699C103.168 169.193 106.941 167.456 110.601 165.499C112.398 164.518 114.104 163.38 115.701 162.099C117.328 160.805 118.865 159.402 120.301 157.899C121.639 156.309 122.78 154.563 123.701 152.699C124.504 150.788 125.01 148.764 125.201 146.699C125.25 145.69 125.149 144.679 124.901 143.699C124.784 143.209 124.563 142.749 124.252 142.353C123.942 141.956 123.549 141.63 123.101 141.399C122.239 140.826 121.295 140.388 120.301 140.099L117.301 139.199Z" fill="#386EE8"/>
<path d="M73.9991 148.6C73.132 148.917 72.353 149.436 71.7268 150.114C71.1007 150.792 70.6454 151.61 70.3991 152.5C70.1361 153.379 69.9684 154.285 69.8991 155.2C69.8999 156.108 70.0005 157.014 70.199 157.9C70.5868 159.705 71.4108 161.387 72.5991 162.8C73.7411 164.289 75.1274 165.574 76.699 166.6C79.8241 168.583 83.3352 169.878 86.9991 170.4C90.6259 171.067 94.3268 171.235 97.9991 170.9C96.1725 171.1 94.3365 171.2 92.4991 171.2C90.6219 171.187 88.749 171.02 86.8991 170.7C83.2031 170.118 79.6839 168.717 76.5991 166.6C75.025 165.577 73.6382 164.292 72.4991 162.8C71.2873 161.375 70.4001 159.703 69.8991 157.9C69.4671 156.049 69.5361 154.116 70.0991 152.3C70.3805 151.392 70.8848 150.568 71.566 149.904C72.2472 149.24 73.0836 148.758 73.9991 148.5V148.6Z" fill="#386EE8"/>
<path d="M66.4004 152.6C66.8812 151.986 67.4168 151.417 68.0004 150.9L69.9004 149.6C70.5095 149.137 71.1834 148.767 71.9004 148.5C72.6296 148.193 73.4094 148.023 74.2004 148L72.1004 148.9L70.0004 149.7C69.3409 150.085 68.7356 150.555 68.2004 151.1C67.6468 151.653 67.0443 152.155 66.4004 152.6Z" fill="#386EE8"/>
<path d="M117 138.398C120.049 138.54 123.07 139.043 126 139.898C127.461 140.387 128.869 141.024 130.2 141.798L132.1 142.998L133 143.698L133.5 144.098C133.607 144.246 133.676 144.418 133.7 144.598C134.239 147.649 133.963 150.788 132.9 153.698C131.842 156.531 130.431 159.219 128.7 161.698C126.955 164.209 124.868 166.464 122.5 168.398C120.096 170.274 117.518 171.915 114.8 173.298C112.07 174.647 109.225 175.751 106.3 176.598C103.395 177.513 100.418 178.182 97.4004 178.598C103.358 177.506 109.142 175.623 114.6 172.998C117.318 171.615 119.896 169.974 122.3 168.098C124.663 166.235 126.751 164.047 128.5 161.598C130.326 159.178 131.744 156.476 132.7 153.598C133.707 150.745 133.982 147.685 133.5 144.698L133.3 144.298L132.8 143.898L131.9 143.298C131.33 142.806 130.69 142.402 130 142.098C128.706 141.293 127.332 140.623 125.9 140.098C124.473 139.612 122.998 139.277 121.5 139.098C120.017 138.768 118.514 138.534 117 138.398Z" fill="#386EE8"/>
<path d="M69.6 171.6C71.4038 173.076 73.386 174.319 75.5 175.3C77.5973 176.383 79.8117 177.221 82.1 177.8C84.411 178.253 86.7494 178.554 89.1 178.7H96.1C93.7433 178.968 91.3681 179.035 89 178.9H87.2999L85.5 178.6L83.7999 178.3L82.1 177.9L80.4 177.3L78.7 176.8L77 176.2L75.4 175.5C73.2217 174.509 71.2268 173.157 69.5 171.5L69.6 171.6Z" fill="#386EE8"/>
<path d="M65.0998 154.102C64.4835 155.516 64.0143 156.991 63.6998 158.502C63.2476 159.957 63.1449 161.499 63.3998 163.002C63.7471 164.497 64.3565 165.919 65.1998 167.202C66.0863 168.464 67.0551 169.667 68.0998 170.802C66.86 169.845 65.7799 168.697 64.8998 167.402C64.005 166.121 63.4227 164.648 63.1998 163.102C63.1167 162.304 63.0833 161.503 63.0998 160.702C63.1505 159.929 63.2507 159.161 63.3998 158.402C63.6668 156.867 64.2454 155.404 65.0998 154.102Z" fill="#386EE8"/>
<path d="M61.1996 125.002C59.8603 126.158 58.5914 127.394 57.3996 128.702C56.9198 129.468 56.3489 130.173 55.6996 130.802L54.6996 131.702L54.0996 132.002H53.3996C51.6017 132.14 49.8245 132.476 48.0996 133.002C46.4268 133.478 44.8158 134.149 43.2996 135.002C41.7545 135.939 40.0651 136.615 38.2996 137.002C36.5544 137.376 34.7821 137.61 32.9996 137.702C31.216 137.78 29.4425 138.015 27.6996 138.402C25.9677 138.804 24.3351 139.552 22.8996 140.602C22.3913 140.633 21.8817 140.566 21.3996 140.402L21.0996 140.002L21.2996 139.602C21.4179 139.417 21.5936 139.276 21.7996 139.202C22.595 138.662 23.4732 138.257 24.3996 138.002C26.1734 137.305 28.0175 136.802 29.8996 136.502C33.5996 135.902 37.4996 136.002 40.8996 134.402L43.3996 133.102L45.9996 131.902C47.8177 131.301 49.6952 130.899 51.5996 130.702C52.0496 130.697 52.4932 130.595 52.8996 130.402C53.2781 130.156 53.6156 129.852 53.8996 129.502L55.8996 127.502C57.2876 126.227 58.7945 125.089 60.3996 124.102C58.8661 125.182 57.3969 126.35 55.9996 127.602C55.3161 128.219 54.6809 128.887 54.0996 129.602C53.7848 129.988 53.4141 130.325 52.9996 130.602C52.5641 130.826 52.0882 130.962 51.5996 131.002C49.7161 131.185 47.866 131.622 46.0996 132.302L43.5996 133.402L40.9996 134.702C37.4996 136.302 33.5996 136.302 29.8996 136.802C28.0659 137.127 26.2605 137.595 24.4996 138.202L21.8996 139.302C21.5996 139.602 20.9996 140.002 21.4996 140.202L22.7996 140.402C24.2239 139.271 25.9083 138.515 27.6996 138.202C29.4425 137.815 31.216 137.58 32.9996 137.502C34.7466 137.333 36.4827 137.066 38.1996 136.702C39.931 136.306 41.5861 135.631 43.0996 134.702C44.644 133.74 46.3318 133.031 48.0996 132.602C49.8021 132.124 51.5415 131.79 53.2996 131.602C54.1996 131.702 54.8996 131.002 55.5996 130.502C56.2146 129.842 56.7827 129.14 57.2996 128.402C58.451 127.05 59.7603 125.841 61.1996 124.802V125.002Z" fill="#386EE8"/>
<path d="M115.801 113.801L116.301 113.601H116.801C116.958 113.529 117.128 113.492 117.301 113.492C117.473 113.492 117.644 113.529 117.801 113.601C117.667 113.721 117.504 113.803 117.328 113.838C117.152 113.874 116.97 113.861 116.801 113.801H115.801Z" fill="#386EE8"/>
<path d="M115.699 115.801C115.799 115.701 115.899 115.601 116.099 115.701H116.499C116.621 115.631 116.759 115.594 116.899 115.594C117.04 115.594 117.178 115.631 117.299 115.701C117.204 115.815 117.076 115.895 116.932 115.931C116.788 115.967 116.637 115.957 116.499 115.901L116.099 116.101H115.699V115.801Z" fill="#386EE8"/>
<path d="M118.7 113.6C121.392 113.597 124.075 113.899 126.7 114.5L130.6 115.6L131.6 116L132 116.2L132.4 116.6C132.933 116.962 133.556 117.17 134.2 117.2C135.526 117.366 136.863 117.433 138.2 117.4L142.2 117.9C144.9 118.2 147.5 118.9 150.2 119.1H152.2C152.794 119.452 153.333 119.89 153.8 120.4C154.8 121.2 155.8 122.2 156.8 123.1C158.703 125.004 160.506 127.007 162.2 129.1C163.814 131.254 165.316 133.491 166.7 135.8L169 139.1L169.6 139.9L169.8 140.3L170 140.6H169.8C169.4 141 169 141.6 168.6 142.1C167.4 139.9 166.1 137.7 164.8 135.5C164.124 134.395 163.39 133.327 162.6 132.3L160.1 129.4C158.4 127.5 156.7 125.7 154.8 123.9C153.94 122.988 153.003 122.151 152 121.4C150.856 120.869 149.645 120.499 148.4 120.3L140.8 119.3C138.3 119.1 135.7 119 133.2 118.6C132.535 118.59 131.883 118.418 131.3 118.1C130.807 117.677 130.271 117.309 129.7 117C128.592 116.421 127.416 115.984 126.2 115.7C123.706 115.137 121.156 114.869 118.6 114.9C121.152 114.835 123.702 115.07 126.2 115.6C127.453 115.866 128.665 116.304 129.8 116.9C130.371 117.209 130.907 117.577 131.4 118C131.965 118.272 132.575 118.441 133.2 118.5C135.7 118.8 138.3 118.9 140.9 119.1C143.45 119.286 145.988 119.619 148.5 120.1C149.791 120.233 151.046 120.606 152.2 121.2C153.232 121.954 154.202 122.79 155.1 123.7C156.9 125.6 158.7 127.4 160.4 129.3L162.9 132.2C163.7 133.3 164.3 134.4 165 135.4L168.8 142.1H168.6C169.003 141.543 169.437 141.008 169.9 140.5H170C170.1 140.5 170 140.6 170 140.6V140.3L169.7 139.9L169.1 139.1L166.9 135.8C165.516 133.491 164.014 131.254 162.4 129.1C160.706 127.007 158.903 125.004 157 123.1C156.012 122.18 154.978 121.312 153.9 120.5C153.4 120 153 119.4 152.4 119.3C151.8 119.2 151.2 119.3 150.5 119.3C149.8 119.3 147.8 118.9 146.5 118.7L142.5 118.1L138.5 117.6C137.2 117.5 135.8 117.5 134.5 117.3C133.788 117.302 133.092 117.093 132.5 116.7C132.347 116.421 132.098 116.208 131.8 116.1L130.8 115.7L127 114.6C124.374 113.982 121.695 113.614 119 113.5L118.7 113.6Z" fill="#386EE8"/>
<path d="M115.4 128.299C115.814 128.058 116.249 127.857 116.7 127.699H118.2L116.8 128.099L115.4 128.299Z" fill="#386EE8"/>
<path d="M115.6 129.7C116.614 129.217 117.691 128.88 118.8 128.7C119.885 128.468 121.003 128.434 122.1 128.6L120.5 128.8L118.9 129L115.6 129.7Z" fill="#386EE8"/>
<path d="M130.4 129.5C131.377 129.452 132.355 129.553 133.3 129.8C134.268 129.973 135.188 130.348 136 130.9L133.2 130.1L130.4 129.5Z" fill="#386EE8"/>
<path d="M144.8 125.801L143.7 127.701C143.202 128.249 142.827 128.896 142.6 129.601C142.616 130.302 142.583 131.004 142.5 131.701L142.2 133.901H142.1V131.801L142.4 129.601C142.626 129.3 142.795 128.962 142.9 128.601L143.4 127.601C143.776 126.993 144.212 126.423 144.7 125.901L144.8 125.801Z" fill="#386EE8"/>
<path d="M148.601 123L145.701 127C145.122 127.604 144.619 128.275 144.201 129C143.839 129.715 143.634 130.499 143.601 131.3C143.401 132.9 143.401 134.5 143.301 136.2C143.201 137.9 143.201 139.4 143.101 141.1C142.919 139.473 142.885 137.833 143.001 136.2C142.985 134.525 143.119 132.851 143.401 131.2C143.668 129.583 144.358 128.065 145.401 126.8C146.327 125.422 147.4 124.147 148.601 123Z" fill="#386EE8"/>
<path d="M142.901 146.102C143.191 146.765 143.637 147.348 144.201 147.802C144.791 148.324 145.427 148.792 146.101 149.202C146.761 149.626 147.337 150.169 147.801 150.802C148.268 151.408 148.546 152.138 148.601 152.902C147.965 151.553 147.044 150.359 145.901 149.402C145.351 148.857 144.708 148.416 144.001 148.102C143.677 147.865 143.405 147.566 143.198 147.223C142.992 146.879 142.857 146.498 142.801 146.102H142.901Z" fill="#386EE8"/>
<path d="M156.4 151.602C155.994 152.309 155.407 152.896 154.7 153.302C154.066 153.802 153.303 154.114 152.5 154.202L153.6 153.702L154.5 153.002C155.174 152.592 155.809 152.124 156.4 151.602Z" fill="#386EE8"/>
<path d="M159.8 149.699C159.081 150.419 158.413 151.187 157.8 151.999L155.6 154.199C154.78 154.832 153.87 155.338 152.9 155.699L150 156.699L152.8 155.399C153.739 155.037 154.616 154.531 155.4 153.899C156.9 152.599 158.2 150.999 159.8 149.699Z" fill="#386EE8"/>
<path d="M133.5 144.301L139.7 146.301C140.242 146.43 140.753 146.668 141.2 147.001C141.588 147.389 141.924 147.826 142.2 148.301C142.504 148.745 142.771 149.213 143 149.701C143.139 150.226 143.24 150.761 143.3 151.301C143.479 152.365 143.781 153.406 144.2 154.401C144.519 154.882 144.724 155.429 144.8 156.001C144.789 156.54 144.722 157.076 144.6 157.601C144.3 158.701 144.1 159.701 143.9 160.801L143.6 164.001C143.502 161.85 143.704 159.696 144.2 157.601L144.5 156.001C144.5 155.501 144.1 155.101 143.9 154.601C143.54 153.56 143.272 152.489 143.1 151.401C143 150.801 143 150.301 142.9 149.801C142.693 149.302 142.425 148.832 142.1 148.401C141.832 147.943 141.471 147.546 141.041 147.236C140.61 146.926 140.119 146.71 139.6 146.601C137.514 145.983 135.475 145.214 133.5 144.301Z" fill="#386EE8"/>
<path d="M169.901 140.702C170.277 140.816 170.597 141.066 170.801 141.402C171.067 141.714 171.24 142.095 171.301 142.502C171.327 142.699 171.293 142.9 171.204 143.078C171.115 143.256 170.974 143.404 170.801 143.502L169.801 144.202C169.256 144.751 168.816 145.395 168.501 146.102L167.301 148.102L164.901 152.202L163.801 154.202C163.312 154.841 162.74 155.413 162.101 155.902L158.401 158.902L156.501 160.202L155.501 160.902L154.901 161.102H154.301C152.743 161.256 151.202 161.558 149.701 162.002C148.254 162.575 146.878 163.313 145.601 164.202L144.601 164.902H143.901L143.501 164.402C143.389 164.219 143.321 164.014 143.301 163.802C143.301 163.502 143.601 163.302 143.801 163.202L144.801 162.702C146.164 161.894 147.605 161.224 149.101 160.702L153.601 159.402C154.301 159.102 154.901 158.502 155.601 158.202L157.601 156.902C158.93 156.093 160.2 155.191 161.401 154.202C162.003 153.734 162.512 153.157 162.901 152.502L164.001 150.402C165.342 147.584 166.845 144.846 168.501 142.202C167.001 144.902 165.601 147.702 164.201 150.502C163.901 151.302 163.501 152.002 163.201 152.702C162.751 153.371 162.212 153.976 161.601 154.502C160.401 155.502 159.101 156.302 157.801 157.202L155.801 158.502C155.101 158.802 154.501 159.302 153.701 159.702C152.901 160.102 150.701 160.502 149.201 161.002C147.708 161.49 146.267 162.126 144.901 162.902L143.901 163.502C143.701 163.602 143.601 163.602 143.601 163.802C143.644 163.966 143.677 164.133 143.701 164.302L144.101 164.702C144.001 164.702 144.201 164.702 144.201 164.602H144.501L145.501 164.002C146.813 163.112 148.222 162.374 149.701 161.802C151.2 161.348 152.741 161.047 154.301 160.902C155.101 161.002 155.701 160.402 156.401 160.002L158.301 158.602L161.901 155.602C162.483 155.119 163.019 154.584 163.501 154.002C163.828 153.282 164.195 152.581 164.601 151.902L167.101 147.902L168.301 145.902C168.616 145.169 169.095 144.519 169.701 144.002L170.701 143.302C170.866 143.221 171.003 143.091 171.092 142.93C171.182 142.769 171.22 142.585 171.201 142.402C171.191 142.209 171.141 142.022 171.055 141.849C170.969 141.677 170.848 141.525 170.701 141.402C170.517 141.063 170.239 140.786 169.901 140.602V140.702Z" fill="#386EE8"/>
<path d="M98.2003 131.998C98.1313 132.947 97.9637 133.885 97.7003 134.798C97.3732 135.706 97.1387 136.644 97.0004 137.598C96.7141 139.527 96.1762 141.41 95.4004 143.198C95.7608 141.307 96.2281 139.437 96.8003 137.598C97.1053 136.656 97.3065 135.684 97.4004 134.698C97.6004 133.798 97.9003 132.898 98.2003 131.898V131.998Z" fill="#386EE8"/>
<path d="M94.5995 145.699C94.1995 147.699 93.6995 149.699 93.1995 151.699C92.58 153.66 92.112 155.666 91.7995 157.699C91.3995 159.699 91.0995 161.699 90.7995 163.699C90.4995 165.699 90.2995 167.799 90.1995 169.799C90.066 167.764 90.1331 165.721 90.3996 163.699C90.6935 161.646 91.094 159.61 91.5995 157.599C92.0995 155.599 92.4996 153.599 92.8996 151.599C93.2996 149.599 93.8995 147.699 94.4995 145.699H94.5995Z" fill="#386EE8"/>
<path d="M77.3008 141.5C77.8008 143.8 78.2008 146.1 78.7008 148.4C79.2008 150.7 79.0008 150.7 79.3008 151.9C79.6008 153.1 79.8008 154.1 80.1008 155.3C80.4008 156.5 81.4008 159.8 82.1008 162.1C82.8008 164.4 83.5008 166.5 84.3008 168.7C83.7742 167.661 83.3068 166.592 82.9009 165.5L81.7008 162.2C81.0341 159.933 80.4342 157.633 79.9009 155.3L79.2008 151.9L78.4009 148.5C77.8881 146.192 77.5206 143.854 77.3008 141.5Z" fill="#386EE8"/>
<path d="M49.1001 134.898L49.7001 138.798C49.8001 139.398 50.0001 140.098 50.1001 140.698C50.2001 141.298 50.4002 141.998 50.5002 142.598C49.9373 141.397 49.5661 140.115 49.4001 138.798C49.1513 137.514 49.0506 136.206 49.1001 134.898Z" fill="#386EE8"/>
<path d="M51.8008 144.801L54.6008 146.701C55.5442 147.343 56.3584 148.157 57.0008 149.101C58.3199 150.938 59.4903 152.877 60.5008 154.901H60.4008C59.0853 153.076 57.8831 151.173 56.8008 149.201C56.6164 148.671 56.2656 148.215 55.8008 147.901C55.3764 147.512 54.9062 147.176 54.4008 146.901C53.4265 146.346 52.5486 145.636 51.8008 144.801Z" fill="#386EE8"/>
<path d="M39.5 147.501L41.6 146.901L43.7 146.301L45.8 145.801L48 145.301C46.6314 145.857 45.2285 146.325 43.8 146.701C42.3883 147.073 40.951 147.34 39.5 147.501Z" fill="#386EE8"/>
<path d="M44.6992 147.6L45.8992 147.2L47.0992 146.7L49.5992 146C48.8393 146.448 48.035 146.817 47.1992 147.1L45.9993 147.4C45.589 147.573 45.1424 147.641 44.6992 147.6Z" fill="#386EE8"/>
<path d="M71.1992 137.001C71.6295 136.746 72.1048 136.576 72.5992 136.501L74.0992 136.301C73.6752 136.569 73.1971 136.739 72.6992 136.801L71.1992 137.001Z" fill="#386EE8"/>
<path d="M66.5996 139.3L70.1996 138.2C71.4466 137.87 72.717 137.636 73.9996 137.5L70.2996 138.6C69.0864 138.929 67.8493 139.164 66.5996 139.3Z" fill="#386EE8"/>
<path d="M22.6 140.702C22.8 141.102 22.7 141.402 22.8 141.702V146.702C22.7314 147.369 22.7651 148.044 22.9 148.702C23.4 149.902 23.9 151.202 24.5 152.402L25 153.202H25.1C25.2 153.302 25.1 153.302 25.3 153.202H27.8L31.7 153.902C32.3439 154.13 33.0175 154.265 33.7 154.302H34.7L35.7 154.502C36.9055 155.117 38.0448 155.854 39.1 156.702L42.1 159.302L53.9 170.202C54.2358 170.792 54.4723 171.434 54.6 172.102L55 174.002L55.8 177.902L57.5 185.802C57.7649 187.087 57.932 188.391 58 189.702L58.3 193.702C58.5 196.402 58.7 199.002 58.8 201.702L59.2 209.702L59.4 213.702V215.702C59.4182 216.01 59.4857 216.314 59.6 216.602L59.9 217.602C61.2039 222.791 62.1066 228.073 62.6 233.402C63.1333 238.735 63.4333 244.035 63.5 249.302H63.4C63.2 244.002 62.9 238.702 62.3 233.402C61.7577 228.113 60.8556 222.868 59.6 217.702L59.3 216.702C59.1767 216.382 59.1091 216.044 59.1 215.702V213.702L58.9 209.702L58.5 201.702L58.1 193.702L57.8 189.802C57.7383 188.457 57.5711 187.12 57.3 185.802L55.7 178.002L54.9 174.102L54.4 172.102C54.3817 171.793 54.3142 171.489 54.2 171.202C54.148 170.872 54.0101 170.561 53.8 170.302C49.8 166.802 46 163.002 41.9 159.502L38.9 157.002C37.8634 156.177 36.7595 155.441 35.6 154.802L34.7 154.602H33.6L31.7 154.202C30.4192 153.872 29.1156 153.638 27.8 153.502L25.8 153.302H25C24.9 153.302 24.9 153.202 24.8 153.102C24.598 152.859 24.4298 152.59 24.3 152.302C23.6972 151.078 23.1955 149.807 22.8 148.502C22.626 148.199 22.5558 147.848 22.6 147.502V141.502C22.6217 141.198 22.5878 140.893 22.5 140.602L22.6 140.702Z" fill="#386EE8"/>
<path d="M62.1997 252.698C61.8997 245.698 61.5997 238.798 60.8997 231.798C60.4997 228.398 59.8997 224.998 59.1997 221.498C59.0471 220.654 58.8468 219.82 58.5997 218.998C58.2949 218.159 58.0935 217.286 57.9997 216.398C57.8997 214.698 57.8997 212.998 57.7997 211.198L57.4997 200.798C57.4691 197.321 57.2353 193.849 56.7997 190.398C56.2997 186.898 55.4997 183.498 54.6997 180.098L53.4997 175.098L52.7997 172.498C52.7997 172.298 52.6997 172.098 52.6997 171.798C52.6955 171.667 52.7202 171.536 52.772 171.415C52.8238 171.294 52.9016 171.186 52.9997 171.098L53.7997 170.098V170.298C53.7997 169.898 53.9997 169.798 54.0997 169.598L54.3997 169.098L55.0997 167.998L56.5997 165.898L57.9997 163.798L58.6997 162.798C58.8779 162.415 59.0121 162.012 59.0997 161.598C59.6586 159.982 60.4686 158.463 61.4997 157.098C62.5528 155.794 63.6884 154.558 64.8997 153.398C63.719 154.593 62.6167 155.862 61.5997 157.198C60.5995 158.567 59.8232 160.086 59.2997 161.698L59.0997 162.298C59.0797 162.511 59.0113 162.716 58.8997 162.898L58.1997 163.998L56.7997 166.098L55.3997 168.198L54.6997 169.198C54.4997 169.598 54.1997 169.998 54.0997 170.298L53.2997 171.198C53.1997 171.398 52.9997 171.598 52.9997 171.698C53.0198 171.911 53.0881 172.116 53.1997 172.298L53.7997 174.898L54.9997 179.898C55.7997 183.298 56.5997 186.798 57.0997 190.198C57.3654 191.921 57.5323 193.657 57.5997 195.398C57.6997 197.198 57.6997 198.898 57.6997 200.698L57.9997 211.098C57.9644 212.834 58.0312 214.571 58.1997 216.298C58.2934 217.154 58.4951 217.994 58.7997 218.798C59.0942 219.641 59.2954 220.512 59.3997 221.398C60.0997 224.798 60.7997 228.198 61.1997 231.698C61.5997 235.198 61.6997 238.698 61.8997 242.198C62.0997 245.698 62.1997 249.098 62.1997 252.598V252.698Z" fill="#386EE8"/>
<path d="M21.1996 140.199C21.3996 142.299 21.4996 144.299 21.4996 146.399V147.999C21.5515 148.475 21.652 148.944 21.7996 149.399C22.0996 150.399 22.3996 151.399 22.7996 152.399C22.9939 152.852 23.2281 153.288 23.4996 153.699C23.7996 154.199 23.9996 154.599 24.5996 154.599L27.5996 155.099L33.7996 156.099L35.2996 156.399L36.5996 157.299L39.0996 159.199L43.9996 163.099C47.2253 165.725 50.174 168.674 52.7996 171.899H52.6996L48.3996 167.399C46.9996 165.999 45.2996 164.699 43.6996 163.399L38.8996 159.499L36.4996 157.499C36.1041 157.175 35.6668 156.906 35.1996 156.699L33.6996 156.299L27.5996 155.199L24.4996 154.799C24.2996 154.799 23.8996 154.699 23.7996 154.499L23.2996 153.899C22.9957 153.455 22.7282 152.987 22.4996 152.499C22.0996 151.499 21.7996 150.499 21.4996 149.499C21.352 149.01 21.2514 148.508 21.1996 147.999V146.399C21.0996 144.299 21.0996 142.299 21.0996 140.199H21.1996Z" fill="#386EE8"/>
<path d="M33.699 156C32.9951 156.162 32.3204 156.432 31.699 156.8L29.8991 157.9C29.2911 158.277 28.7217 158.712 28.199 159.2C27.979 159.462 27.8128 159.764 27.7098 160.09C27.6069 160.416 27.5692 160.759 27.5991 161.1H27.4991L28.9991 164C29.2369 164.502 29.3728 165.045 29.3991 165.6L29.699 167.2C30.0186 169.352 30.1856 171.524 30.199 173.7C30.199 174.7 30.1991 175.8 30.0991 176.9C29.9991 178 29.7991 179 29.5991 180.1C29.3991 181.2 28.899 184.4 28.699 186.5C28.499 188.6 28.299 190.8 28.199 193C28.099 195.2 28.0991 197.3 27.9991 199.5C27.9991 203.8 27.899 208.1 27.699 212.5C27.599 208.1 27.699 203.8 27.699 199.5C27.6304 195.156 27.8643 190.812 28.3991 186.5C28.6991 184.4 28.9991 182.2 29.3991 180.1L29.9991 176.9C30.0991 175.8 30.0991 174.7 30.0991 173.7C30.0991 172.7 29.6991 169.4 29.3991 167.2C29.2613 166.147 29.027 165.11 28.699 164.1L27.2991 161.2C27.2669 160.821 27.3124 160.439 27.4328 160.078C27.5531 159.717 27.7458 159.384 27.9991 159.1C28.5756 158.666 29.1765 158.265 29.7991 157.9L31.5991 156.8C32.2407 156.419 32.9569 156.18 33.699 156.1V156Z" fill="#386EE8"/>
<path d="M2.69922 212.001L4.99927 205.101C5.79927 202.801 6.49926 200.501 7.29926 198.201L10.9993 184.201L11.8992 180.701C12.4234 179.589 13.1336 178.574 13.9993 177.701C15.5993 175.901 17.2993 174.201 18.9993 172.501L21.3992 169.801C22.1511 168.864 22.7578 167.819 23.1992 166.701C23.7992 165.601 24.2992 164.501 24.8992 163.501L25.8992 162.001L26.5992 161.301C26.7019 161.198 26.8306 161.126 26.9715 161.09C27.1124 161.055 27.2603 161.059 27.3992 161.101C26.7992 161.001 26.2993 161.601 25.9993 162.001L25.0992 163.601C24.5063 164.637 23.9721 165.705 23.4993 166.801C23.0587 167.95 22.4522 169.028 21.6992 170.001C20.9184 170.949 20.0837 171.85 19.1992 172.701C17.5992 174.501 15.8992 176.201 14.1992 177.901C13.3876 178.76 12.713 179.738 12.1992 180.801L11.1992 184.301C10.4992 186.601 9.79922 188.901 9.19922 191.301L8.39923 194.801C8.15834 195.982 7.858 197.151 7.49927 198.301C6.86828 200.644 6.10025 202.948 5.19922 205.201C4.39922 207.501 3.59922 209.701 2.69922 212.001Z" fill="#386EE8"/>
<path d="M92.5 252.202C92.9409 247.857 93.6759 243.547 94.7 239.302C95.3 237.202 95.9 235.102 96.6 233.002C97.3 230.902 98.1 228.902 98.9 226.902C100.5 222.802 102.2 218.802 103.9 214.802C104.8 212.802 105.6 210.802 106.4 208.702L107.6 205.702L109.1 202.802C110.3 200.902 111.6 199.102 112.9 197.402L115 194.902L117.4 192.602C120.5 189.602 123.7 186.502 126.6 183.302C128.019 181.67 129.354 179.968 130.6 178.202L132.4 175.402C133.01 174.493 133.678 173.625 134.4 172.802C137.22 169.464 140.332 166.385 143.7 163.602C140.442 166.51 137.401 169.651 134.6 173.002C133.878 173.825 133.21 174.693 132.6 175.602L130.9 178.302C129.702 180.161 128.329 181.903 126.8 183.502C121.1 190.202 113.7 195.202 109.3 202.902C108.741 203.836 108.24 204.805 107.8 205.802L106.6 208.802L104.1 214.802C102.4 218.902 100.8 222.902 99.2 227.002C97.5024 231.028 96.0988 235.172 95 239.402C93.9172 243.616 93.0824 247.89 92.5 252.202Z" fill="#386EE8"/>
<path d="M144.2 164.898L139.7 169.098C138.229 170.536 136.859 172.073 135.6 173.698C133.2 176.998 131.3 180.798 128.3 183.698L119.3 192.198C117.8 193.598 116.4 195.098 115 196.598C113.526 198.05 112.308 199.74 111.4 201.598C109.6 205.198 107.9 208.998 106.2 212.698C104.5 216.398 102.9 220.298 101.5 224.098C98.6292 231.823 96.192 239.702 94.1996 247.698H94.0996C94.9996 243.698 96.0996 239.698 97.1996 235.698C98.2996 231.698 99.6996 227.898 101.1 223.998C102.5 220.098 104.2 216.298 105.9 212.598C107.6 208.898 109.4 205.098 111.3 201.498C112.198 199.634 113.417 197.942 114.9 196.498L119.2 192.098C122.1 189.098 125.2 186.298 128.1 183.498C131 180.698 132.9 176.898 135.4 173.598C136.666 171.948 138.071 170.409 139.6 168.998C141.1 167.598 142.6 166.198 144.2 164.898Z" fill="#386EE8"/>
<path d="M159.1 158.199C160.092 158.345 161.026 158.76 161.8 159.399C162.539 159.989 163.21 160.66 163.8 161.399C164.423 162.142 165.128 162.812 165.9 163.399C166.7 163.999 167.7 163.899 168.7 164.199C170.566 164.694 172.402 165.295 174.2 165.999L176.9 167.199L178.2 167.899C178.5 168.199 179 168.499 179.1 168.999C178.868 168.602 178.519 168.287 178.1 168.099L176.8 167.399L174.1 166.399L168.6 164.399L167.2 163.999L165.9 163.499C165.047 162.977 164.273 162.338 163.6 161.599C162.9 160.899 162.3 160.199 161.6 159.599C160.868 158.994 160.016 158.55 159.1 158.299V158.199Z" fill="#386EE8"/>
<path d="M175.4 170.102L177.3 169.402C177.913 169.197 178.555 169.095 179.2 169.102C179.903 169.159 180.569 169.439 181.1 169.902L182.6 171.102L180.9 170.102C180.396 169.757 179.81 169.55 179.2 169.502C178.561 169.475 177.92 169.542 177.3 169.702L175.4 170.102Z" fill="#386EE8"/>
<path d="M175.1 172.9L179.5 170.9L180.7 170.7C181.102 170.635 181.514 170.669 181.9 170.8L184 171.9C184.711 172.251 185.354 172.725 185.9 173.3C186.424 173.903 186.861 174.576 187.2 175.3C187.9 176.7 189 177.9 189.8 179.2C190.6 180.5 193.4 184.5 195 187.2C196.57 189.958 197.843 192.874 198.8 195.9C199.785 198.89 200.619 201.927 201.3 205L202.9 214.4C203.5 217.5 204 220.6 204.5 223.7L206 233.1L204.2 223.8C203.6 220.6 203.1 217.5 202.5 214.4L200.9 205.1C200.334 201.987 199.565 198.913 198.6 195.9C197.677 192.909 196.437 190.026 194.9 187.3C193.284 184.568 191.515 181.931 189.6 179.4L188.2 177.5L186.9 175.5C186.66 174.75 186.249 174.065 185.7 173.5C185.17 172.949 184.564 172.477 183.9 172.1L181.8 171C181.447 170.874 181.069 170.839 180.7 170.9L179.5 171.1C178.032 171.614 176.596 172.215 175.2 172.9H175.1Z" fill="#386EE8"/>
<path d="M172.6 174.5L169 177.4L167.2 178.9L165.4 180.4C166.433 179.201 167.571 178.096 168.8 177.1C169.978 176.11 171.251 175.239 172.6 174.5Z" fill="#386EE8"/>
<path d="M162.001 183.199C161.101 185.099 160.201 186.999 159.201 188.799C158.201 190.599 157.201 192.499 156.101 194.199C154.944 195.941 153.639 197.581 152.201 199.099C150.769 200.623 149.464 202.262 148.301 203.999C146.073 207.492 144.387 211.302 143.301 215.299C142.101 219.199 141.201 223.299 140.301 227.399C140.869 223.275 141.738 219.197 142.901 215.199C144.013 211.146 145.769 207.297 148.101 203.799C149.301 202.099 150.801 200.599 152.101 198.999C153.5 197.462 154.739 195.786 155.801 193.999C158.001 190.499 160.001 186.899 161.901 183.199H162.001Z" fill="#386EE8"/>
<path d="M148.3 200.898C147.61 201.757 146.976 202.659 146.4 203.598C145.762 204.523 145.257 205.533 144.9 206.598C144.309 208.74 143.505 210.817 142.5 212.798C143.134 210.652 143.902 208.548 144.8 206.498C145.2 205.498 145.7 204.498 146.2 203.498C146.404 202.976 146.71 202.5 147.1 202.098C147.392 201.603 147.805 201.191 148.3 200.898Z" fill="#386EE8"/>
<path d="M62.4004 115.901H63.4004C63.7605 115.804 64.1403 115.804 64.5004 115.901L63.5004 116.301H62.9004C62.7004 116.201 62.6004 116.001 62.4004 115.901Z" fill="#386EE8"/>
<path d="M65.9004 115.3C66.3841 114.967 66.9273 114.729 67.5004 114.6C67.5714 114.543 67.6595 114.512 67.7504 114.512C67.8413 114.512 67.9295 114.543 68.0004 114.6H68.5004L69.3004 114.9C70.4004 115.3 71.5004 115.9 72.7004 115.6C73.2631 115.49 73.8038 115.287 74.3004 115L75.2004 114.7L76.1004 114.5C77.3152 114.633 78.4987 114.971 79.6004 115.5L76.1004 114.9C75.8185 114.87 75.535 114.941 75.3004 115.1L74.5004 115.4L72.7004 115.8C72.099 115.866 71.4908 115.832 70.9004 115.7L69.2004 115.2L68.4004 114.9H67.6004L65.9004 115.4V115.3Z" fill="#386EE8"/>
<path d="M82.6992 115.602L84.1992 115.802L84.8993 116.002L85.5992 116.202H84.0992C83.6086 116.063 83.138 115.861 82.6992 115.602Z" fill="#386EE8"/>
<path d="M71 122.3C71.3357 122.109 71.7139 122.006 72.1 122H73.2L72.1 122.3H71Z" fill="#386EE8"/>
<path d="M69.5996 123.601L70.6996 123.101L71.9996 122.901C72.8646 122.804 73.7382 122.979 74.4996 123.401L73.2996 123.201H71.9996C71.1863 123.236 70.3803 123.37 69.5996 123.601Z" fill="#386EE8"/>
<path d="M68.3008 98.1016C68.2073 98.669 68.0034 99.2126 67.7007 99.7016C67.5215 100.265 67.2133 100.778 66.8008 101.202L67.4008 99.6016C67.6636 99.0802 67.9644 98.5788 68.3008 98.1016Z" fill="#386EE8"/>
<path d="M68.0004 101.199C67.5171 101.192 67.0384 101.294 66.6004 101.499C66.1802 101.635 65.8017 101.876 65.5004 102.199C65.0179 103.011 64.8742 103.981 65.1004 104.899L65.4004 106.299C65.4237 106.498 65.5013 106.688 65.6247 106.847C65.7481 107.005 65.9126 107.127 66.1004 107.199C66.9541 107.551 67.8901 107.655 68.8004 107.499C67.8569 107.798 66.8439 107.798 65.9004 107.499L65.3004 106.999C65.1881 106.746 65.1204 106.475 65.1004 106.199C64.9778 105.742 64.9107 105.272 64.9004 104.799V103.399C64.9394 102.878 65.075 102.37 65.3004 101.899C65.6043 101.51 66.025 101.23 66.5004 101.099C66.9896 100.951 67.5113 100.951 68.0004 101.099V101.199Z" fill="#386EE8"/>
<path d="M72.5 107.102C72.8602 106.852 73.2691 106.682 73.7 106.602H74.4C74.6 106.502 74.9999 106.802 74.7999 107.002C74.5999 107.202 74.8 106.902 74.7 106.902H74.4L73.7999 107.102H72.5Z" fill="#386EE8"/>
<path d="M77.3008 103.201C77.6008 103.001 78.1009 103.301 78.4009 103.601C78.5379 103.749 78.6438 103.922 78.7125 104.111C78.7812 104.3 78.8112 104.501 78.8008 104.701C78.8169 105.104 78.7833 105.507 78.7008 105.901C78.6008 106.301 78.5008 106.801 78.2008 106.901C77.9008 107.001 78.3009 106.601 78.4009 106.401C78.3946 106.229 78.4288 106.058 78.5009 105.901V104.801C78.4284 104.415 78.2933 104.044 78.1008 103.701C77.9008 103.501 77.6008 103.201 77.3008 103.201Z" fill="#386EE8"/>
<path d="M48.2004 75.1982C51.4659 75.8439 54.7751 76.245 58.1004 76.3982L68.0004 76.1982L87.9005 75.5982L97.9005 75.1982L102.8 74.8982H106.6C106.709 74.8821 106.82 74.8918 106.924 74.9266C107.028 74.9613 107.123 75.0201 107.2 75.0982C107.227 75.0982 107.252 75.1087 107.271 75.1274C107.29 75.1462 107.3 75.1716 107.3 75.1982V75.6982C107.3 78.9982 107.2 82.2982 107.2 85.5982V91.7982C107.2 91.9982 107.3 92.0982 107.2 92.3982C107.18 92.6108 107.112 92.816 107 92.9982C106.791 93.3733 106.52 93.7112 106.2 93.9982C105.893 94.2921 105.514 94.4991 105.1 94.5982C98.645 96.1636 92.041 97.0352 85.4005 97.1982C83.7333 97.2649 82.0636 97.2315 80.4005 97.0982C79.944 97.0565 79.5013 96.9203 79.1004 96.6982L78.3004 95.7982L76.6004 93.8982C75.4004 92.6982 74.3004 91.4982 73.1004 90.3982L72.1004 89.7982C71.8004 89.6982 71.4004 89.8982 71.1004 89.9982C70.3998 90.4461 69.761 90.984 69.2004 91.5982C67.9598 92.6885 66.7908 93.8576 65.7004 95.0982C65.4134 95.4181 65.0755 95.6884 64.7004 95.8982L64.4004 96.0982H60.9004L55.9004 95.6982L53.5004 95.3982C52.6471 95.2931 51.8085 95.0918 51.0004 94.7982C50.2242 94.5117 49.5353 94.0294 49.0004 93.3982C48.429 92.7339 48.0183 91.9469 47.8004 91.0982C47.3558 89.5041 47.1535 87.8523 47.2004 86.1982C47.1004 82.8982 46.8004 79.5982 46.4004 76.2982L48.2004 75.1982ZM48.2004 75.1982L46.4004 76.1982C46.9004 79.4982 47.2004 82.7982 47.4004 86.0982C47.3535 87.7523 47.5558 89.4042 48.0004 90.9982C48.2403 91.7676 48.6407 92.4773 49.175 93.0806C49.7094 93.6839 50.3656 94.1671 51.1004 94.4982C51.8776 94.7598 52.6834 94.9276 53.5004 94.9982L56.0004 95.2982L60.9004 95.5982H64.0004C64.1004 95.5982 64.3004 95.6982 64.3004 95.5982H64.5004L65.4004 94.7982C66.6004 93.6982 67.7004 92.3982 68.9004 91.2982C69.4743 90.6583 70.1501 90.1176 70.9004 89.6982C71.2832 89.4443 71.745 89.3377 72.2004 89.3982C72.6217 89.5801 72.9974 89.8533 73.3004 90.1982C74.5409 91.2885 75.71 92.4576 76.8004 93.6982L78.5004 95.4982L79.4005 96.3982C79.6941 96.6006 80.0439 96.7055 80.4005 96.6982C82.0616 96.8646 83.7313 96.9314 85.4005 96.8982C92.0332 96.7127 98.6316 95.8753 105.1 94.3982C105.299 94.37 105.489 94.3024 105.661 94.1993C105.833 94.0963 105.982 93.9599 106.1 93.7982C106.387 93.544 106.625 93.2389 106.8 92.8982L107.1 92.3982V85.4982C107.2 82.1982 107.3 78.8982 107.2 75.5982V75.2982C107.2 75.1982 107.2 75.0982 107.1 75.0982H102.8L97.9005 75.3982L87.9005 75.8982C81.3005 76.1982 74.7004 76.3982 68.0004 76.4982H58.1004C54.7728 76.3102 51.4637 75.8757 48.2004 75.1982Z" fill="#386EE8"/>
<path d="M106 93.8V79.3C105.917 78.5028 105.883 77.7013 105.9 76.9C105.915 76.6949 105.88 76.4893 105.8 76.3H104.3L85 77.4C78.6 77.8 72.1 78 65.7 78.1C62.5 78.1 59.2 78 56 77.8L51.2 77.4C49.6011 77.1877 48.027 76.8192 46.5 76.3C48.0214 76.8011 49.6011 77.1036 51.2 77.2L56 77.6H65.7C72.1 77.6 78.6 77.3 85 77.1C88.2 77 91.5 76.9 94.7 76.6L104.3 76H105.9L106.1 76.2V76.4C106.18 76.5893 106.215 76.7949 106.2 77C106.2 77.8 106.3 78.6 106.3 79.4V84.2C106.3 87.5 106.2 90.7 106.1 93.9L106 93.8Z" fill="#386EE8"/>
<path d="M105.801 76.1984C106.183 75.7166 106.619 75.2804 107.101 74.8984H107.201L110.501 74.4984L113.701 73.9984L120.301 72.8984C118.182 73.5657 116.006 74.0344 113.801 74.2984L110.501 74.5984C109.418 74.8626 108.313 75.0299 107.201 75.0984H107.301L105.801 76.1984Z" fill="#386EE8"/>
<path d="M107.4 76.5C107.84 76.0768 108.398 75.7977 109 75.7L110.7 75.3C111.884 75.2886 113.061 75.1205 114.2 74.8C116.5 74.3 118.8 73.8 121.2 73.5C118.958 74.2374 116.646 74.7401 114.3 75L110.8 75.6L109 76C108.442 76.0735 107.901 76.2427 107.4 76.5Z" fill="#386EE8"/>
<path d="M107.301 84.8016C107.949 84.6894 108.544 84.3742 109.001 83.9016L110.301 82.4016C111.183 81.3864 112.117 80.4184 113.101 79.5016C114.049 78.5368 115.168 77.7569 116.401 77.2016C117.658 76.6969 118.965 76.3282 120.301 76.1016L116.601 77.6016C115.362 78.071 114.213 78.7473 113.201 79.6016C112.149 80.4537 111.238 81.4661 110.501 82.6016L109.201 84.1016C108.959 84.3555 108.661 84.5506 108.332 84.6719C108.003 84.7932 107.65 84.8376 107.301 84.8016Z" fill="#386EE8"/>
<path d="M48.1992 75.1992C48.2992 74.9992 48.3992 74.8992 48.5992 74.8992L48.9993 74.6992C49.3128 74.7287 49.6277 74.6587 49.8992 74.4992C50.4847 74.2003 51.1501 74.0952 51.7993 74.1992C51.2649 74.547 50.6364 74.7216 49.9993 74.6992C49.6758 74.7059 49.362 74.8105 49.0992 74.9992L48.1992 75.1992Z" fill="#386EE8"/>
<path d="M49.2996 80.1984C49.1996 79.8984 49.1996 79.5984 49.0996 79.3984V79.0984C49.0996 79.0853 49.1022 79.0723 49.1072 79.0602C49.1123 79.048 49.1196 79.037 49.1289 79.0277C49.1382 79.0184 49.1492 79.0111 49.1613 79.006C49.1734 79.001 49.1865 78.9984 49.1996 78.9984H51.4996L54.8996 79.1984L61.8996 79.3984C66.4996 79.5984 71.0996 79.6984 75.6996 79.4984L89.5996 78.7984L96.4996 78.3984L103.4 77.8984L96.4996 78.6984L89.5996 79.1984C84.9996 79.4984 80.3996 79.6984 75.6996 79.6984H61.8996C59.4996 79.6984 57.1996 79.5984 54.8996 79.3984L51.4996 79.1984C50.3996 79.2984 48.5996 78.3984 49.2996 80.0984V80.1984Z" fill="#386EE8"/>
<path d="M78.4004 80.8984L84.6003 80.5984H87.8003L90.9004 80.2984L97.1003 79.6984L103.4 78.8984C101.3 79.3984 99.3003 79.6984 97.2003 79.9984C95.1003 80.2984 93.0004 80.3984 90.9004 80.3984L87.8003 80.5984L84.6003 80.7984L78.4004 80.8984Z" fill="#386EE8"/>
<path d="M53.3008 80.4013C54.8346 80.3334 56.3713 80.3668 57.9008 80.5013L62.4008 80.7013C65.4008 80.6013 68.4008 80.7013 71.4008 80.9013C68.4019 81.068 65.3952 81.0345 62.4008 80.8013H57.9008L53.3008 80.4013Z" fill="#386EE8"/>
<path d="M49.8008 83.2C49.7262 82.9744 49.6923 82.7374 49.7008 82.5C49.7008 82.4 49.6008 82.2 49.8008 82.2H54.1008L59.4008 82.4H70.1008C77.2008 82.4 84.3008 82.4 91.4008 82L102.101 81.3L103.401 81.1H103.901C103.969 81.2223 104.003 81.3602 104.001 81.5C104.017 81.7705 103.983 82.0418 103.901 82.3H101.101L95.8007 82.6L85.1008 83.1L74.5008 83.3L95.8007 82.3L101.101 82L103.601 81.8C103.601 81.7 103.701 81.5 103.601 81.3V81C103.701 81.1 103.501 81.1 103.401 81.1H102.101C98.6008 81.4 95.0008 81.6 91.4008 81.7L70.1008 82.2H59.4008L54.1008 82L51.4008 81.8H49.8008C49.7008 81.8 49.7008 82 49.7008 82.1C49.6862 82.3051 49.7205 82.5107 49.8008 82.7V83.2Z" fill="#386EE8"/>
<path d="M51 83.4008C52.6 83.3008 54.1 83.4008 55.6 83.4008C57.1231 83.6172 58.6638 83.6842 60.2 83.6008H69.3C67.8061 83.7671 66.3028 83.834 64.8 83.8008L60.2 83.6008H55.6L51 83.3008V83.4008Z" fill="#386EE8"/>
<path d="M59.3991 87.0016H50.2991C50.2991 87.1016 50.1991 87.0016 50.0991 87.0016C49.9388 86.6583 49.8699 86.2794 49.8991 85.9016V85.6016H55.7991L72.0991 86.0016C77.5991 86.2016 82.9991 86.1016 88.4991 85.9016L96.5991 85.5016L100.699 85.3016L102.799 85.1016H103.899C104.099 85.3016 104.099 85.5016 104.199 85.7016V86.4016H104.099L95.4991 86.9016L86.9991 87.1016C81.2991 87.2016 75.5991 87.3016 69.8991 87.1016C75.5991 87.0016 81.2991 87.0016 86.9991 86.8016C92.6991 86.6016 98.3991 86.5016 103.999 86.1016H103.899C103.892 85.8235 103.824 85.5504 103.699 85.3016H100.699L96.6991 85.5016L88.4991 85.8016H72.0991C66.6991 85.7016 61.1991 85.7016 55.7991 85.5016H50.1991C50.0991 85.4016 50.0991 85.7016 50.0991 85.8016C50.107 86.1117 50.1749 86.4173 50.2991 86.7016H51.1991L59.3991 87.0016Z" fill="#386EE8"/>
<path d="M53.3009 89.8016H50.3009C50.2648 89.761 50.2372 89.7134 50.22 89.6619C50.2028 89.6103 50.1963 89.5558 50.2009 89.5016C50.1206 89.3123 50.0863 89.1067 50.1009 88.9016C50.0963 88.8474 50.1028 88.7929 50.12 88.7413C50.1372 88.6897 50.1647 88.6421 50.2009 88.6016H50.6009L54.8009 88.8016L63.1009 89.1016H67.3009V89.3016H67.2009L66.6009 90.1016L66.4009 90.3016L66.2009 90.5016H63.4009C60.6009 90.5016 57.801 90.4016 55.001 90.2016H66.1009L66.3009 90.0016L66.9009 89.2016H63.1009L59.001 89.0016H54.8009L50.6009 88.8016H50.4009V89.4016C50.5009 89.6016 50.5009 89.6016 50.7009 89.7016H53.3009V89.8016Z" fill="#386EE8"/>
<path d="M51.2004 92.9992C51.0562 92.7158 50.9551 92.4125 50.9004 92.0992V91.6992H53.3004L57.0004 91.8992L60.6004 92.1992H65.6004C65.6004 92.2992 65.7004 92.2992 65.7004 92.3992L65.4004 92.7992C65.2926 93.098 65.0792 93.347 64.8004 93.4992L64.3004 93.6992H63.8004L60.2004 93.4992L52.9004 92.9992L60.2004 93.1992L63.8004 93.3992C64.4004 93.5992 64.8004 93.0992 65.2004 92.5992L65.4004 92.2992H64.3004L57.0004 91.9992L53.3004 91.7992H51.1004C51.0004 91.6992 51.0004 91.9992 51.0004 92.0992C51.0077 92.3773 51.0759 92.6504 51.2004 92.8992V92.9992Z" fill="#386EE8"/>
<path d="M80.6004 89.8H77.6004C77.6004 89.8 77.6004 89.9 77.5004 89.8H77.4004L77.2004 89.6C77.1004 89.4 77.0004 89.3 77.0004 89.1C77.0004 88.9 76.9003 89 76.8003 88.9C76.8003 88.8 76.7004 88.8 76.9004 88.7H80.4004L88.4004 88.4L96.3003 88.2C99.0003 88.1 101.7 87.9 104.3 87.6H104.5C104.517 87.8705 104.483 88.1418 104.4 88.4C104.415 88.541 104.38 88.6827 104.3 88.8C104.3 88.9 104.3 88.9 104.2 89H102.5L99.6004 89.2L93.9004 89.4H82.3003L88.1004 89.1L93.9004 88.8L99.6004 88.6H103.9C104 88.6 104.1 88.4 104.1 88.2C104.1 88 104.2 87.7 104.1 87.5H104.3C101.7 87.8 99.0003 87.9 96.3003 88L88.4004 88.3L80.4004 88.6H77.0004C77.0366 88.6406 77.0642 88.6881 77.0813 88.7397C77.0985 88.7913 77.105 88.8458 77.1004 88.9L77.4004 89.3C77.5004 89.4 77.5004 89.6 77.7004 89.5H80.6004V89.8Z" fill="#386EE8"/>
<path d="M84.1003 92.2L81.2003 92.4H80.2003V92.6C80.3131 92.7971 80.4722 92.9639 80.6638 93.0858C80.8555 93.2078 81.0739 93.2813 81.3003 93.3L87.2003 93.1C91.1003 93 95.0004 92.9 98.9004 92.6L101.8 92.3H103.2L103.9 92.1H104C104.1 92 104.1 91.9 104.1 91.7C104.1 91.5 104 91.2 104 91.3H103.3L101.8 91.5L98.9004 91.7L93.1003 92.1H87.2003L98.9004 91.2L101.8 91H104.1C104.1 91 104.3 91.1 104.3 91.2C104.358 91.2513 104.394 91.3229 104.4 91.4V92.2C104.4 92.3 104.4 92.4 104.2 92.5H101.8L98.9004 92.7L87.2003 93.3C85.2366 93.4332 83.2674 93.4666 81.3003 93.4C81.0501 93.4236 80.8003 93.3522 80.6003 93.2L80.0004 92.6C80.0004 92.5 79.9004 92.4 79.9004 92.2C79.9004 92 80.1003 92.1 80.1003 92H84.0004L84.1003 92.2Z" fill="#386EE8"/>
<path d="M95.9 1.79999H96C97.1 1.89999 97.2 2.49998 97.5 2.59998H99.4C99.6417 2.61125 99.877 2.68082 100.086 2.8027C100.295 2.92459 100.471 3.09519 100.6 3.29999C100.778 3.70999 100.813 4.16764 100.7 4.59998C100.7 4.59998 101.1 4.89998 101.1 5.09998V5.39999C101.1 5.49999 101.4 5.39999 101.6 5.89999C101.8 6.39999 101.7 7.99999 101.8 9.29999C101.9 10.6 101.7 11.4 101.8 11.7C101.9 12 102.8 11.7 103.2 12.1C103.597 13.1439 104.293 14.048 105.2 14.7C107 16 106.9 15.9 107.7 16.1C108.194 16.2127 108.653 16.4449 109.036 16.7761C109.42 17.1074 109.717 17.5276 109.9 18C110.733 19.8453 111.773 21.5898 113 23.2C114.5 25.1 115.9 25.6 116.9 26.4C118.361 27.5971 119.731 28.9007 121 30.3C121.6 31 121.8 30.9 121.9 31.8C122.249 32.9463 122.718 34.0524 123.3 35.1C123.836 36.1694 124.303 37.2716 124.7 38.4C125.845 38.9515 126.948 39.5865 128 40.3C128.5 40.9 128.6 41.4 128.7 43.2C128.8 45 129.3 52.3 129.3 52.3C130.181 55.4178 130.849 58.5917 131.3 61.8C131.9 66.5 131.8 76.7 131.8 76.7L140.6 63.5L156.2 40C155.926 39.7111 155.749 39.3432 155.695 38.9484C155.641 38.5536 155.713 38.1518 155.9 37.8C156.649 36.5686 157.721 35.5657 159 34.9L159.7 34.7C159.9 34.7 160.1 34.8 160.1 35.2C160.1 35.6 159.9 38.5 159.2 39.3C158.947 39.6209 158.629 39.8848 158.267 40.0744C157.906 40.2639 157.508 40.3749 157.1 40.4H156.8L131.7 79.3C132.374 80.0343 132.916 80.8802 133.3 81.8C133.6 83 133.8 84 133.8 84L137.5 80.1C137.5 79.9 158.2 58.5 158.2 58.5C158.029 58.1785 157.966 57.8106 158.02 57.4505C158.074 57.0905 158.242 56.7573 158.5 56.5C159.437 55.4534 160.6 54.6329 161.9 54.1H162.5C162.9 54.1 163.1 54.3 163 54.8C162.836 56.1138 162.317 57.3582 161.5 58.4C161.283 58.6714 161.01 58.8924 160.699 59.0478C160.388 59.2032 160.047 59.2892 159.7 59.3H158.8L134.1 86C134.1 86 133.7 98.5 129.6 103.6C128.1 105.5 125 107.6 120 108.3L118.6 113.6C120.81 113.664 123.014 113.865 125.2 114.2C128 114.7 131.5 115.9 131.9 116.3C132.3 116.7 132.8 117.1 134.8 117.3C136.8 117.5 138.7 117.6 143.3 118.2C147.9 118.8 149.4 119.2 150.4 119.2H151.7C151.924 119.195 152.146 119.237 152.353 119.323C152.56 119.409 152.746 119.537 152.9 119.7C153.292 120.208 153.765 120.647 154.3 121C157.643 123.897 160.661 127.15 163.3 130.7C166.2 134.9 169.6 140.4 169.8 140.5V140.7C170.264 140.998 170.643 141.412 170.9 141.9C171.2 142.5 171.4 142.9 170.8 143.4C169.819 144.007 169.023 144.872 168.5 145.9C167.7 147.3 165.4 151.2 164.6 152.4C164.145 153.443 163.501 154.392 162.7 155.2L159.1 158.4C159.934 158.548 160.722 158.891 161.4 159.4C162.7 160.3 164.2 162.3 165.2 163.1C166.029 163.759 167.043 164.143 168.1 164.2C170.892 164.99 173.631 165.959 176.3 167.1C178 167.9 179.1 168.7 179 169.3H179.1C179.686 169.385 180.239 169.627 180.7 170L182.2 171.2C182.2 171.2 185.1 172.5 185.9 173.6C186.7 174.7 186.9 175.5 190.5 180.5C194.1 185.5 198.1 191.1 200.7 204.1C203.3 217.1 208.3 247.1 208.3 247.1L210.6 274.6L0.899963 262.6C1.69996 244.4 1.79999 219.7 1.79999 216.8C1.6863 215.074 2.03131 213.349 2.79999 211.8C3.19999 210.6 6.59996 200.9 7.39996 198.2C8.19996 195.5 11.2 182.8 12.1 180.6C13 178.4 17.4 174.4 19.9 171.6C21.7002 169.796 23.1273 167.655 24.1 165.3C24.6416 163.932 25.383 162.651 26.3 161.5C26.5416 161.262 26.8614 161.12 27.2 161.1H27.4C27.4 161.1 27.4 159.6 28 159.1C29.6684 157.907 31.4424 156.869 33.3 156C33.3 156 24.7 154.9 24.3 154.6C23.9 154.3 23.4 154.2 22.5 151.9C21.9613 150.62 21.5915 149.275 21.4 147.9C21.4 147.3 21.2 142.2 21.2 141.1C21.2 140 20.9 140.2 21.4 139.7C21.9 139.2 24.5 137.8 29.8 136.8C35.1 135.8 37 136.4 40.4 134.9C43.8 133.4 45 132.3 47.9 131.6C50.8 130.9 52.2 131.2 53 130.6C53.9857 129.721 54.9206 128.786 55.8 127.8C57.2376 126.513 58.7758 125.342 60.4 124.3C59.1392 123.121 58.2672 121.586 57.9 119.9C57 116.8 54.8 107.8 54.5 105.8C54.0845 103.924 53.817 102.018 53.7 100.1C53.8951 98.515 54.1958 96.9449 54.6 95.4C52.9524 95.3453 51.3415 94.8997 49.9 94.1C49.1214 93.4463 48.4881 92.6372 48.0403 91.7245C47.5926 90.8119 47.3405 89.8158 47.3 88.8C47.2 86.7 47 83.1 46.7 79C46.6 77.6 46.3 76.3 46.4 76.2C47.28 75.6336 48.2188 75.1642 49.2 74.8L51.8 74.2V70.6C50.5732 70.1291 49.3716 69.5951 48.2 69C46.7999 68.2 47.3 67.8 47.3 66.5C47.1873 63.3173 47.422 60.1318 48 57C48.5242 54.9153 49.2963 52.9009 50.3 51C50.8 49.5 52.5 42.6 53.1 39.4C53.7 36.2 53.1 37.2 53.8 35.9C54.0401 35.2075 54.4531 34.5879 55 34.1C55.987 33.3412 57.0613 32.7034 58.2 32.2L59.6 31.9H60.3C60.9595 30.911 61.6951 29.9748 62.5 29.1C63.4 28.2 64.9 28.2 66.4 27C68.1562 25.9003 69.7978 24.6272 71.3 23.2C72.3244 21.9929 73.5832 21.0064 75 20.3C74.9541 19.8241 75.0227 19.3441 75.2 18.9C75.6 18.1 76 18.1 75.9 17.1C75.8 16.1 75.5 15.8 75.7 15C75.8999 14.2 76.3999 14 77.2 13.2C77.967 12.5544 78.6108 11.7751 79.1 10.9C79.2361 10.4434 79.4666 10.0205 79.7767 9.65869C80.0868 9.29692 80.4696 9.00435 80.9 8.79999C81.9 8.09999 84.7 6.79998 85.9 6.09998C87.2957 4.98365 88.8449 4.07432 90.5 3.39999C92.6 2.59999 94.9 1.69998 96 1.69998L95.9 1.79999ZM96 0.599976C94.7 0.599976 92.7 1.39999 90.5 2.29999H90.1C88.7076 2.85601 87.396 3.59593 86.2 4.5L85.4 5.09998L82.6 6.5L80.2999 7.79999C79.3772 8.32893 78.643 9.1331 78.2 10.1V10.3C77.8116 11.0708 77.2667 11.7519 76.6 12.3L76.2999 12.6C75.6129 13.1034 75.0908 13.7995 74.7999 14.6C74.6467 15.1563 74.6467 15.7437 74.7999 16.3C74.9272 16.5116 74.9962 16.7531 75 17C75.0244 17.1242 75.019 17.2524 74.9843 17.3741C74.9495 17.4957 74.8863 17.6074 74.7999 17.7C74.6226 17.9053 74.4869 18.143 74.4 18.4C74.2306 18.7441 74.1287 19.1175 74.1 19.5C72.7919 20.282 71.6115 21.26 70.6 22.4C69.6563 23.408 68.5798 24.2827 67.4 25L65.9 26.1C65.2994 26.5518 64.6217 26.8906 63.9 27.1C63.1397 27.3837 62.4305 27.789 61.8 28.3C61.0826 29.0297 60.4456 29.8343 59.9 30.7H59.7C59.0454 30.6966 58.3976 30.833 57.8 31.1C56.5427 31.5759 55.3884 32.2888 54.4 33.2C54.3 33.3 54.2 33.3 54.2 33.4C53.644 33.9401 53.202 34.5862 52.9 35.3C52.6416 35.758 52.504 36.2742 52.5 36.8C52.4758 37.5417 52.3753 38.2789 52.2 39C51.6 42.1 49.9 49.1 49.4 50.5C49.1639 50.9504 48.9634 51.4185 48.8 51.9C47.9844 53.3651 47.4104 54.9521 47.1 56.6C46.5465 59.8369 46.2788 63.1162 46.3 66.4V67.1C46.2 68.1 46.2 68.9 47.8 69.7C48.768 70.2324 49.7702 70.7001 50.8 71.1V73.2L49.1 73.5C47.9155 73.9302 46.803 74.5371 45.8 75.3C45.4 75.7 45.4 76.1 45.6 77.1C45.628 77.7036 45.6948 78.3049 45.8 78.9C45.9 81.1 46 83.1 46.1 84.8C46.2 86.5 46.3 87.7 46.4 88.6C46.5 89.5 47.2 93.1 49.4 94.7C50.6124 95.4588 51.979 95.9371 53.4 96.1C52.5324 98.5486 52.4624 101.209 53.2 103.7C53.2999 104.4 53.5 105.2 53.6 105.8C53.9 107.9 56.1 117 57 120C57.363 121.415 58.0094 122.742 58.9 123.9C57.5761 124.783 56.3374 125.787 55.2 126.9C54.7085 127.341 54.2412 127.809 53.8 128.3C53.3926 128.758 52.9585 129.193 52.5 129.6L51 129.9L47.7 130.4C45.8662 130.917 44.0903 131.621 42.4 132.5L40 133.7C38.4271 134.408 36.7247 134.782 35 134.8L29.7 135.5C24.3 136.6 21.6 138.1 20.8 138.7C20.5507 138.899 20.3622 139.163 20.2561 139.464C20.15 139.764 20.1305 140.089 20.2 140.4C20.2506 140.597 20.2841 140.797 20.3 141C20.3 141.5 20.3 143.1 20.4 144.7C20.5 146.3 20.5 147.4 20.5 147.7C20.6734 149.219 21.078 150.703 21.7 152.1C22.4 154.3 23.1 154.8 23.7 155.2H23.8C24 155.3 24.3 155.5 30 156.3C29.1161 156.788 28.2792 157.358 27.5 158C26.9578 158.499 26.6046 159.17 26.5 159.9L25.7 160.5C24.66 161.729 23.8167 163.112 23.2 164.6C22.2826 166.848 20.9222 168.889 19.2 170.6C18.3563 171.618 17.4548 172.586 16.5 173.5C14.1 175.9 11.8 178.2 11.2 179.9C10.6 181.6 9.6 185.8 8.5 190.2C7.4 194.6 6.9 196.5 6.5 197.6C6.1 198.7 2.39996 209.9 1.89996 211.1H1.79999C1.15033 212.789 0.844329 214.591 0.899963 216.4C0.899963 220.2 0.7 244.4 0 262.2V263.2H1L210.7 275H211.9V273.8L209.6 246.3C209.6 246 204.6 216 202 203.2C199.4 190.4 195.3 184.2 191.7 179.2C190.293 177.397 189.023 175.492 187.9 173.5L187.1 172.3C186.2 171.1 183.9 170 183.1 169.6L181.6 168.4C181.144 168.082 180.637 167.845 180.1 167.7C179.7 166.9 178.7 166.2 177 165.4C174.276 164.227 171.468 163.257 168.6 162.5H168.5C167.1 162.2 166.9 162.2 166.2 161.6C165.675 161.126 165.174 160.625 164.7 160.1C163.951 159.282 163.149 158.514 162.3 157.8L161.4 157.3L163.7 155.3C164.395 154.676 164.972 153.93 165.4 153.1L165.8 152.2C166.6 151 168.9 147.2 169.7 145.6C170.138 144.862 170.715 144.217 171.4 143.7L171.8 143.5C172.004 143.361 172.177 143.182 172.308 142.973C172.44 142.764 172.527 142.531 172.564 142.287C172.602 142.043 172.589 141.794 172.526 141.556C172.464 141.317 172.352 141.094 172.2 140.9V140.7C171.932 140.134 171.518 139.651 171 139.3C170.973 139.3 170.948 139.289 170.929 139.271C170.911 139.252 170.9 139.227 170.9 139.2C170.756 138.866 170.553 138.561 170.3 138.3C169.2 136.6 166.6 132.6 164.4 129.4C161.722 125.791 158.671 122.472 155.3 119.5C154.903 119.28 154.561 118.972 154.3 118.6L153.9 118.2C153.655 117.944 153.359 117.741 153.033 117.604C152.706 117.466 152.355 117.397 152 117.4H150.7L148.4 117.1L143.8 116.4L137.7 115.8L135.2 115.6C133.6 115.4 133.3 115.1 133 114.8C132.7 114.5 128 112.9 125.7 112.5C123.915 112.184 122.111 111.984 120.3 111.9L121.1 108.5C126.7 107.5 129.5 105 130.7 103.5C134.6 98.7 135.3 88 135.4 85.7L159.5 59.6H160.1C160.626 59.5848 161.143 59.451 161.61 59.2086C162.077 58.9662 162.484 58.6214 162.8 58.2C163.594 57.0596 164.139 55.7649 164.4 54.4V54.2C164.484 53.9682 164.51 53.7191 164.475 53.4749C164.44 53.2307 164.346 52.9989 164.2 52.8C164.027 52.6345 163.824 52.505 163.6 52.4192C163.377 52.3333 163.139 52.2928 162.9 52.3H162.1C160.568 52.8635 159.196 53.79 158.1 55C157.815 55.3447 157.606 55.7452 157.485 56.1758C157.365 56.6064 157.336 57.0575 157.4 57.5C138.1 77.4 137 78.6 136.8 79L137 78.7L134.8 81.1C134.7 81 134.7 80.8 134.6 80.7C134.344 79.8967 133.937 79.15 133.4 78.5L157.8 40.6C158.305 40.5519 158.795 40.4033 159.242 40.1629C159.688 39.9224 160.082 39.595 160.4 39.2C161.4 37.9 161.6 34.5 161.6 34.4C161.617 34.1986 161.59 33.9961 161.521 33.8062C161.451 33.6163 161.342 33.4436 161.2 33.3C160.913 32.996 160.518 32.8165 160.1 32.8L159 33.1C157.486 33.8458 156.231 35.0307 155.4 36.5C155.187 36.9155 155.068 37.3725 155.051 37.8389C155.034 38.3053 155.119 38.7699 155.3 39.2L140.1 62.1L133.2 72.4C133.239 68.5272 133.073 64.655 132.7 60.8C132.259 57.5899 131.591 54.4152 130.7 51.3C130.6 50.3 130.3 44 130.2 42.3C130.1 40.6 129.9 39.6 129.2 38.8C128.17 38.0524 127.064 37.4155 125.9 36.9C125.596 35.8642 125.194 34.8596 124.7 33.9C124.076 32.9575 123.635 31.9058 123.4 30.8C123.368 30.4858 123.271 30.1816 123.117 29.9063C122.962 29.631 122.752 29.3906 122.5 29.2L122.1 28.8C120.799 27.3354 119.395 25.9653 117.9 24.7L117 24.1C115.898 23.5201 114.941 22.6998 114.2 21.7C112.975 20.1975 111.996 18.5098 111.3 16.7C111.03 16.1062 110.629 15.5816 110.127 15.1658C109.624 14.75 109.034 14.4539 108.4 14.3H108.1C107.7 14.2 107.6 14.2 106.3 13.2C105.608 12.7901 105.078 12.1545 104.8 11.4L104.4 10.7C104.09 10.4291 103.708 10.2553 103.3 10.2V8.5C103.3 8.1 103.2 7.69999 103.2 7.29999C103.2 6.89999 103.1 5.29999 103 4.89999C102.871 4.55825 102.666 4.25043 102.4 4L102.1 3.5C102.096 3.05003 101.993 2.60641 101.8 2.19998C101.617 1.82115 101.334 1.49965 100.982 1.27045C100.629 1.04124 100.22 0.913118 99.7999 0.899994H98.2C97.9878 0.623364 97.7155 0.398594 97.4037 0.242676C97.0919 0.086758 96.7486 0.00377935 96.4 0L96 0.599976Z" fill="url(#paint0_linear_371_1062)"/>
<defs>
<linearGradient id="paint0_linear_371_1062" x1="105.95" y1="0" x2="105.95" y2="265" gradientUnits="userSpaceOnUse">
<stop stop-color="#5794FF"/>
<stop offset="1" stop-color="#5794FF" stop-opacity="0"/>
</linearGradient>
</defs>
</svg>
