<svg width="236" height="284" viewBox="0 0 236 284" fill="none" xmlns="http://www.w3.org/2000/svg">
<path d="M109.4 75.9976L109.1 74.9976C109.095 74.8587 109.061 74.7225 109 74.5975H108.5L106.4 74.7976L104.4 75.1976C104.3 75.1976 104.3 75.3975 104.3 75.5975V76.0975C104.4 76.3975 104.4 76.7975 104.5 77.0975L105.4 81.1976C105.405 81.3364 105.439 81.4726 105.5 81.5975H109C108.308 81.7463 107.606 81.8466 106.9 81.8975L105.9 82.0975H105.2C105.149 81.8928 105.082 81.6923 105 81.4976C104.67 80.1492 104.436 78.7791 104.3 77.3975V75.4976C104.296 75.4434 104.302 75.3888 104.319 75.3372C104.337 75.2856 104.364 75.2382 104.4 75.1976L106.5 74.6976L108.6 74.4976C108.8 74.4976 108.9 74.3976 109.1 74.4976C109.3 74.5976 109.3 74.6976 109.4 74.7976V74.9976C109.483 75.358 109.517 75.728 109.5 76.0975L109.4 75.9976Z" fill="#386EE8"/>
<path d="M108.899 74.3969L105.299 71.8969L104.399 71.2969L103.999 70.9969L103.699 70.7969C103.641 70.7456 103.605 70.6739 103.599 70.5969L102.399 68.6969C101.691 67.4458 100.853 66.2727 99.8991 65.1969C99.4991 64.6969 98.8991 64.1969 98.3991 63.6969L97.5991 62.9969C97.5161 62.94 97.4464 62.8659 97.3946 62.7796C97.3428 62.6933 97.3103 62.5969 97.2991 62.4969L97.0991 61.9969C94.7991 56.5969 92.5991 51.2969 90.3991 45.8969C88.1991 40.4969 85.9991 35.0969 83.8991 29.6969L83.0991 27.6969L82.6991 26.5969H81.7991L79.6991 27.0969L79.1991 27.2969H78.9991L78.7991 27.4969L78.4991 28.4969C77.9991 29.8969 77.5991 31.2969 77.1991 32.6969C77.0989 33.0227 77.0989 33.3711 77.1991 33.6969L77.4991 34.7969L78.0991 36.7969L83.2991 53.4969L85.7991 61.7969L86.4991 63.8969V64.1969C86.4991 64.3969 86.3991 64.4969 86.3991 64.5969L85.9991 64.9969L85.2991 65.7969C84.4625 66.9373 83.8515 68.2271 83.4991 69.5969C82.8159 72.4191 82.7817 75.3596 83.3991 78.1969C83.9476 81.0433 84.9612 83.7799 86.3991 86.2969C87.1678 87.4971 88.1115 88.5757 89.1991 89.4969C90.3161 90.4328 91.6623 91.0541 93.0991 91.2969C94.544 91.3623 95.9911 91.2276 97.3991 90.8969C98.7996 90.5356 100.17 90.0676 101.499 89.4969C100.17 90.0676 98.7996 90.5356 97.3991 90.8969L95.2991 91.2969H93.0991C91.6256 91.0762 90.2415 90.4534 89.0991 89.4969C87.9523 88.5694 86.9716 87.4535 86.1991 86.1969C84.6884 83.7046 83.6384 80.9609 83.0991 78.0969C82.3991 75.2053 82.3991 72.1884 83.0991 69.2969C83.486 67.8906 84.1302 66.5683 84.9991 65.3969L85.6991 64.4969L86.0991 64.0969C86.1123 64.0969 86.1253 64.0943 86.1374 64.0892C86.1495 64.0842 86.1606 64.0769 86.1698 64.0676C86.1791 64.0583 86.1865 64.0473 86.1915 64.0352C86.1965 64.023 86.1991 64.01 86.1991 63.9969V63.7969L85.5991 61.6969L82.9991 53.3969L77.9991 36.6969L77.3991 34.5969L77.0991 33.4969C77.0991 33.3969 76.9991 33.1969 77.0991 32.9969C77.0845 32.7918 77.1188 32.5862 77.1991 32.3969C77.493 31.0014 77.8942 29.6306 78.3991 28.2969C78.4991 27.8969 78.6991 27.5969 78.7991 27.1969C78.8991 26.7969 78.8991 26.9969 78.9991 26.9969H79.2991L79.7991 26.7969L81.8991 26.2969H82.8991L83.3991 27.2969L84.0991 29.2969C86.2991 34.7969 88.4991 40.0969 90.7991 45.4969L97.3991 61.5969L97.5991 62.0969C97.6991 62.1969 97.6991 62.3969 97.7991 62.4969L98.6991 63.1969L100.199 64.7969C101.145 65.9149 101.982 67.1203 102.699 68.3969L103.799 70.1969L104.099 70.5969L104.599 70.8969L105.499 71.4969L108.999 74.0969L108.899 74.3969Z" fill="#386EE8"/>
<path d="M105.4 81.8969L103.4 81.5969C102.745 81.5245 102.105 81.356 101.5 81.0969H101.7C101.737 82.1856 101.567 83.2715 101.2 84.2969C101 85.382 100.628 86.4284 100.1 87.3969C99.5461 88.4018 98.8373 89.313 97.9996 90.0969C97.1843 90.847 96.1829 91.3649 95.0996 91.5969C96.1131 91.1876 97.032 90.575 97.7996 89.7969C98.5732 89.055 99.2457 88.2144 99.7996 87.2969C100.334 86.3439 100.77 85.3386 101.1 84.2969C101.397 83.2581 101.499 82.1729 101.4 81.0969V80.7969H101.6L103.5 81.3969L105.4 81.8969Z" fill="#386EE8"/>
<path d="M104.299 75.1969L100.399 73.1969L99.4992 72.4969C99.4032 72.4554 99.3226 72.3848 99.2688 72.2951C99.215 72.2054 99.1906 72.1011 99.1992 71.9969L98.8992 71.4969C98.682 70.8276 98.3795 70.189 97.9992 69.5969C97.317 68.291 96.5134 67.0522 95.5992 65.8969C94.6265 64.8381 93.4758 63.9582 92.1992 63.2969C93.6473 63.757 94.9319 64.6251 95.8992 65.7969C96.8735 66.9257 97.651 68.2102 98.1992 69.5969L99.0992 71.5969C99.2042 71.9272 99.3742 72.2332 99.5992 72.4969L100.599 72.9969C101.899 73.6969 103.099 74.4969 104.299 75.2969V75.1969Z" fill="#386EE8"/>
<path d="M78.9004 27.3984C80.4201 30.0565 81.7243 32.832 82.8004 35.6985C83.4004 37.0985 83.9004 38.5984 84.4004 39.9984L85.9004 44.3984C86.9004 47.2984 87.9004 50.1984 88.8004 53.0984C89.7004 55.9984 90.6004 58.9984 91.4004 61.8984L88.4004 53.1985L85.7004 44.3984C84.8269 41.4635 83.7578 38.5905 82.5004 35.7984C81.4337 32.9984 80.2337 30.1984 78.9004 27.3984Z" fill="#386EE8"/>
<path d="M97.4992 62.8976L94.1992 63.2977L97.4992 62.5977V62.8976Z" fill="#386EE8"/>
<path d="M103.8 70.9977C102.82 71.0749 101.85 71.2423 100.9 71.4977C101.832 71.0934 102.804 70.7916 103.8 70.5977V70.9977Z" fill="#386EE8"/>
<path d="M106.5 76.2992C106.5 76.2216 106.518 76.145 106.553 76.0756C106.588 76.0061 106.638 75.9457 106.7 75.8992H107.2L108.1 76.0992L109.8 76.4992L113.4 77.0992C115.78 77.5193 118.185 77.7865 120.6 77.8992H125.5C125.7 77.9992 125.9 77.9992 126 78.1992C126.148 78.7901 126.148 79.4084 126 79.9992C125.75 82.4011 125.851 84.8265 126.3 87.1992L126.6 88.9992C126.584 89.3026 126.618 89.6066 126.7 89.8992C126.705 89.9533 126.698 90.0079 126.681 90.0595C126.664 90.1111 126.636 90.1586 126.6 90.1992H125.9C124.705 89.9724 123.534 89.6377 122.4 89.1992C120.073 88.4641 117.828 87.4923 115.7 86.2992C113.603 85.1179 111.597 83.7808 109.7 82.2992L108.3 81.0992C107.849 80.7154 107.447 80.279 107.1 79.7992C106.717 78.6714 106.514 77.4902 106.5 76.2992ZM106.6 76.2992C106.6 76.8992 106.7 77.4992 106.7 78.0992C106.76 78.692 106.929 79.2685 107.2 79.7992C107.547 80.279 107.949 80.7154 108.4 81.0992L109.8 82.1992C111.8 83.5992 113.8 84.8992 115.9 86.0992C117.985 87.3091 120.199 88.2818 122.5 88.9992C123.604 89.4238 124.742 89.7583 125.9 89.9992H126.4V89.7992C126.416 89.4958 126.382 89.1918 126.3 88.8992L126.1 87.0992C125.863 85.913 125.729 84.7085 125.7 83.4992C125.8 82.2992 125.9 81.0992 125.9 79.8992C125.97 79.3311 125.937 78.7551 125.8 78.1992C125.7 77.9992 125.3 77.9992 125.1 77.9992H124.2C123 77.9992 121.8 78.0992 120.5 77.9992C118.076 77.9459 115.663 77.6443 113.3 77.0992L109.8 76.3992L108 75.8992L107.2 75.6992H106.7C106.6 75.9992 106.6 76.0992 106.6 76.2992Z" fill="#386EE8"/>
<path d="M87.7993 67.0972C88.8329 66.7962 89.9426 66.9036 90.8993 67.3972C91.8269 67.9413 92.6146 68.6946 93.1993 69.5972C94.3309 71.4014 95.1112 73.4032 95.4993 75.4972C95.7224 76.5207 95.8893 77.5555 95.9993 78.5972C96.0324 79.6678 95.9655 80.7391 95.7993 81.7972C95.6021 82.8375 95.2657 83.8466 94.7993 84.7972C94.6143 85.3017 94.3217 85.7598 93.9418 86.1397C93.5618 86.5196 93.1037 86.8122 92.5993 86.9972C91.5069 87.1323 90.3984 86.9591 89.3993 86.4972C88.4716 85.9531 87.684 85.1998 87.0993 84.2972C85.9842 82.4848 85.2051 80.4861 84.7993 78.3972C84.3175 76.3339 84.1823 74.2048 84.3993 72.0972C84.4721 71.0284 84.8163 69.9959 85.3993 69.0972C85.6293 68.609 85.9633 68.177 86.3779 67.8315C86.7925 67.486 87.2776 67.2354 87.7993 67.0972ZM87.7993 67.0972C86.7769 67.4394 85.9202 68.1532 85.3993 69.0972C84.9811 70.0505 84.7113 71.0622 84.5993 72.0972C84.5462 74.1806 84.7477 76.2627 85.1993 78.2972C85.5546 80.3535 86.3014 82.3225 87.3993 84.0972C87.8968 85.0087 88.6657 85.7427 89.5993 86.1972C90.5143 86.6995 91.5615 86.9089 92.5993 86.7972C93.5993 86.5972 94.1993 85.5972 94.6993 84.6972C95.1962 83.7594 95.5341 82.7456 95.6993 81.6972C95.7993 80.6972 95.7993 79.5972 95.7993 78.5972C95.6959 77.5475 95.495 76.5097 95.1993 75.4972C94.7659 73.463 94.024 71.5071 92.9993 69.6972C92.4518 68.7991 91.6975 68.0448 90.7993 67.4972C89.8755 67.0215 88.8155 66.8802 87.7993 67.0972Z" fill="#386EE8"/>
<path d="M105.699 81.8984C105.738 82.5055 105.671 83.1148 105.499 83.6985C105.255 84.2827 105.054 84.8844 104.899 85.4985C104.64 86.6729 104.05 87.7486 103.199 88.5984L104.699 85.3984C104.97 84.8677 105.14 84.2913 105.199 83.6985C105.299 83.0985 105.499 82.4984 105.599 81.8984H105.699Z" fill="#386EE8"/>
<path d="M81 26.5992C79.7 23.0992 78.4 19.6992 77.2 16.1992C76.6 14.4992 76 12.6992 75.3 10.9992C75.1948 10.5447 75.0265 10.1071 74.8 9.69922L74.6 9.09921C74.5 8.99921 74.5 8.79922 74.4 8.79922C74.3 8.79922 74.2 8.69922 74.1 8.69922H73.2C73 8.79922 72.9 8.79923 72.9 8.89923V10.1992C73.0642 13.865 73.5325 17.5109 74.3 21.0992C74.9262 24.7393 75.8629 28.319 77.1 31.7992C76.3194 30.1233 75.6838 28.3836 75.2 26.5992C74.6724 24.8232 74.2384 23.0207 73.9 21.1992C73.1497 17.5793 72.7479 13.8958 72.7 10.1992C72.687 9.73039 72.7205 9.26144 72.8 8.79922H74.4L74.6 9.09921L74.8 9.69922L75.4 10.9992L77.3 16.1992C78.6 19.5992 79.8 23.0992 80.9 26.5992H81Z" fill="#386EE8"/>
<path d="M72.8008 8.79688C73.5688 10.2497 74.237 11.7532 74.8008 13.2969C75.2795 14.8286 75.8471 16.3312 76.5008 17.7969C77.8008 20.7969 79.0008 23.7969 80.0008 26.8969C78.6008 23.8969 77.4008 20.8969 76.3008 17.8969C75.8223 16.3511 75.2204 14.8462 74.5008 13.3969C73.9008 11.8969 73.3008 10.3969 72.8008 8.79688Z" fill="#386EE8"/>
<path d="M90 44.4978C91.026 38.3004 93.1601 32.3385 96.3 26.8978C97.7867 24.1182 99.5633 21.5036 101.6 19.0978C103.644 16.7548 105.999 14.7024 108.6 12.9978C113.863 9.55344 119.735 7.14378 125.9 5.89777C128.965 5.27929 132.075 4.9114 135.2 4.79777C136.765 4.69762 138.335 4.69762 139.9 4.79777C140.676 4.79925 141.449 4.90006 142.2 5.09775C142.987 5.2034 143.722 5.55312 144.3 6.09775L144.5 6.29777H144.3C140.951 6.12911 137.593 6.36414 134.3 6.99778C130.979 7.5448 127.726 8.45007 124.6 9.69776C121.516 10.9647 118.568 12.5393 115.8 14.3978L113.7 15.8978L112.7 16.5978L111.8 17.3978L109.9 19.0978L108.1 20.8978C106.959 22.073 105.922 23.3444 105 24.6978L103.6 26.7978C103.108 27.495 102.674 28.2308 102.3 28.9978L101.1 31.1978C100.809 31.9821 100.475 32.75 100.1 33.4978L99.6 34.6978L99.2 35.7978C99 36.5978 98.6 37.3978 98.4 38.1978C96.47 44.6523 95.526 51.3613 95.6 58.0978C95.4159 51.3362 96.2932 44.5875 98.2 38.0978C99.9982 31.5771 103.323 25.5783 107.9 20.5978L109.6 18.7978L111.6 17.1978L112.5 16.2978L113.5 15.5978L115.6 14.0978C118.403 12.2386 121.384 10.6642 124.5 9.39777C127.641 8.1954 130.889 7.2914 134.2 6.69776C137.531 6.09725 140.921 5.89582 144.3 6.09775H144.2C143.64 5.60253 142.942 5.28874 142.2 5.19776L139.9 4.89777C138.337 4.76565 136.767 4.73224 135.2 4.79777C132.073 4.95124 128.963 5.35251 125.9 5.99778C119.792 7.22732 113.983 9.6392 108.8 13.0978C106.222 14.8324 103.871 16.8816 101.8 19.1978C99.7977 21.594 98.0233 24.1719 96.5 26.8978C93.3284 32.2972 91.1601 38.2261 90.1 44.3977L90 44.4978Z" fill="#386EE8"/>
<path d="M93.9004 54.4972C94.0141 51.207 94.3818 47.9306 95.0004 44.6972C95.5183 41.4754 96.2873 38.299 97.3004 35.1972C99.2766 28.9227 102.702 23.2016 107.3 18.4972C111.979 13.8469 117.656 10.3243 123.9 8.19714C126.986 7.10495 130.166 6.30151 133.4 5.79714C136.652 5.41254 139.928 5.27882 143.2 5.39715C139.922 5.29803 136.642 5.49887 133.4 5.99716C130.209 6.5492 127.066 7.35167 124 8.39715C120.93 9.49091 117.982 10.8983 115.2 12.5971C112.374 14.2455 109.756 16.2263 107.4 18.4972C105.07 20.7884 103.053 23.3774 101.4 26.1971C99.8284 29.0589 98.555 32.0748 97.6004 35.1972C95.6046 41.4221 94.3953 47.8721 94.0004 54.3971L93.9004 54.4972Z" fill="#386EE8"/>
<path d="M98 39.5C101 40.2 104.1 40.9 107.1 41.9H107.5C107.4 42 107.5 42 107.5 41.9L107.8 41.4L108.3 40.4C108.706 39.721 109.073 39.02 109.4 38.3C110.1 36.9 110.8 35.5 111.4 34L113.4 29.7L114.4 27.6L115 26.6V26.1C114.973 26.1 114.948 26.1105 114.929 26.1293C114.911 26.148 114.9 26.1735 114.9 26.2C114.9 26.2265 114.911 26.2519 114.929 26.2707C114.948 26.2894 114.973 26.3 115 26.3H115.1L114.7 26C111.7 25 108.6 24.3 105.6 23.5L110.2 24.4C111.761 24.7271 113.298 25.1614 114.8 25.7C115 25.8 115.2 25.8 115.4 26H115.5V26.6L115 27.7L113.9 29.8L111.8 34L109.7 38.3L108.7 40.4L108.2 41.5L107.9 42H107.2L98.2 39.4L98 39.5Z" fill="#386EE8"/>
<path d="M97.6996 40.6985C100.1 41.2318 102.5 41.8318 104.9 42.4984L106.7 42.9984L107.6 43.2984H107.8C107.9 43.2984 108 43.3984 108 43.2984C108 43.1984 108.1 43.0984 108.2 42.9984C108.3 42.8984 109.4 40.7985 110 39.6985C110.6 38.5985 112.1 35.1984 113.2 32.9984C114.3 30.7984 114.3 30.6984 114.9 29.5984L115.7 27.8984V27.7984L115.5 27.2984L115.2 26.3984L115.6 27.2984L115.8 27.6984C115.8 27.7984 115.9 27.7984 115.9 27.9984V28.1984L115.1 29.7984L113.6 33.1984C112.5 35.4984 111.3 37.6984 110.1 39.8984L108.3 43.0984C108.2 43.2984 108.2 43.3984 108 43.4984H107.5L106.6 43.1985L104.8 42.7984C102.4 42.0984 99.9996 41.4985 97.5996 40.6985H97.6996Z" fill="#386EE8"/>
<path d="M107.499 42.1992C107.666 42.3747 107.801 42.5776 107.899 42.7992C107.946 42.91 107.97 43.0289 107.97 43.1492C107.97 43.2694 107.946 43.3884 107.899 43.4992C107.699 43.2992 107.699 43.0992 107.599 42.8992C107.51 42.6771 107.476 42.4372 107.499 42.1992Z" fill="#386EE8"/>
<path d="M87.8008 39.3C88.2525 36.6247 89.0949 34.0304 90.3008 31.6C91.4356 29.1699 92.809 26.8586 94.4008 24.7C95.9015 22.4497 97.7204 20.4287 99.8008 18.7C100.852 17.8352 101.954 17.0338 103.101 16.3C104.259 15.6206 105.462 15.0193 106.701 14.5H106.801C104.366 15.6341 102.109 17.1162 100.101 18.9C98.0358 20.6315 96.1587 22.5755 94.5008 24.7L92.3008 28C91.6013 29.1824 90.9993 30.4198 90.5008 31.7C89.3935 34.1204 88.4904 36.6292 87.8008 39.2V39.3Z" fill="#386EE8"/>
<path d="M106.6 25.1985C106.602 25.3383 106.568 25.4762 106.5 25.5985C106.454 25.6606 106.393 25.711 106.324 25.7457C106.254 25.7805 106.178 25.7985 106.1 25.7985C105.958 25.7556 105.83 25.6783 105.725 25.5737C105.62 25.469 105.543 25.3402 105.5 25.1985C105.4 24.8985 105.7 24.4985 106 24.5985C106.082 24.5544 106.177 24.5403 106.268 24.5586C106.359 24.5768 106.441 24.6263 106.5 24.6985C106.581 24.8521 106.616 25.0257 106.6 25.1985ZM106.5 25.1985C106.5 24.9985 106.4 24.8985 106.3 24.8985H106.1C105.9 24.9985 105.7 24.9985 105.7 25.1985C105.696 25.2527 105.702 25.3073 105.719 25.3588C105.736 25.4104 105.764 25.458 105.8 25.4986H106.4C106.5 25.3986 106.6 25.2985 106.5 25.1985Z" fill="#386EE8"/>
<path d="M100.2 38.1971V38.5971C100.161 38.6665 100.102 38.7226 100.031 38.7582C99.9595 38.7939 99.8792 38.8074 99.8002 38.7971C99.6537 38.7711 99.5148 38.7127 99.3937 38.6262C99.2726 38.5397 99.1723 38.4273 99.1002 38.2971C99.0855 38.2104 99.0901 38.1214 99.1136 38.0367C99.1371 37.9519 99.179 37.8734 99.2362 37.8066C99.2935 37.7398 99.3647 37.6864 99.4449 37.6502C99.5251 37.614 99.6122 37.5959 99.7002 37.5971C99.7792 37.5868 99.8595 37.6003 99.9308 37.636C100.002 37.6716 100.061 37.7277 100.1 37.7971C100.18 37.9144 100.215 38.0562 100.2 38.1971ZM100.2 38.1971C100.2 38.1441 100.179 38.0932 100.142 38.0557C100.104 38.0182 100.053 37.9971 100 37.9971H99.7002C99.6226 37.9971 99.546 38.0152 99.4766 38.0499C99.4072 38.0846 99.3468 38.135 99.3002 38.1971C99.3002 38.2971 99.3002 38.4971 99.4002 38.4971H100C100.038 38.5024 100.076 38.497 100.11 38.4816C100.144 38.4662 100.174 38.4414 100.195 38.41C100.215 38.3787 100.227 38.342 100.228 38.3044C100.229 38.2667 100.219 38.2296 100.2 38.1971Z" fill="#386EE8"/>
<path d="M113.401 27.1977V27.6977L113.001 27.8977C112.841 27.8701 112.691 27.7997 112.568 27.6941C112.445 27.5885 112.353 27.4515 112.301 27.2977C112.201 26.9977 112.601 26.5977 112.901 26.5977L113.301 26.7977C113.369 26.92 113.403 27.0579 113.401 27.1977ZM113.401 27.1977L113.201 26.9977H112.901C112.814 27.0082 112.731 27.0414 112.661 27.0941C112.59 27.1467 112.535 27.217 112.501 27.2977C112.496 27.3518 112.503 27.4064 112.52 27.458C112.537 27.5096 112.565 27.5571 112.601 27.5977H113.201C113.301 27.4977 113.401 27.3977 113.401 27.1977Z" fill="#386EE8"/>
<path d="M107.3 40.1C107.315 40.2409 107.28 40.3827 107.2 40.5C107.161 40.5694 107.102 40.6255 107.031 40.6611C106.96 40.6968 106.879 40.7103 106.8 40.7C106.657 40.702 106.518 40.6527 106.408 40.561C106.298 40.4693 106.224 40.3413 106.2 40.2C106 39.9 106.4 39.5 106.7 39.5L107.1 39.7C107.2 39.8 107.2 40 107.3 40.1ZM107.2 40.1C107.2 40.0469 107.179 39.9961 107.142 39.9586C107.104 39.921 107.053 39.9 107 39.9H106.7C106.621 39.9 106.544 39.9316 106.488 39.9879C106.432 40.0441 106.4 40.1204 106.4 40.2C106.3 40.3 106.4 40.4 106.5 40.4C106.519 40.4212 106.542 40.4383 106.568 40.45C106.594 40.4617 106.622 40.4677 106.65 40.4677C106.679 40.4677 106.707 40.4617 106.733 40.45C106.758 40.4383 106.782 40.4212 106.8 40.4H107C107.1 40.3 107.2 40.2 107.2 40.1Z" fill="#386EE8"/>
<path d="M101.199 34.2996C102.699 32.8996 103.999 31.3996 105.499 30.0996L106.599 29.0996C106.696 28.9866 106.832 28.9137 106.98 28.8953C107.128 28.8768 107.277 28.914 107.399 28.9997L107.699 29.2996V29.6996C107.799 30.6996 107.999 31.6996 108.099 32.6996L108.599 35.6997V35.9997C108.599 36.0997 108.599 36.3997 108.499 36.4997C108.418 36.631 108.295 36.7316 108.15 36.7859C108.006 36.8401 107.847 36.845 107.699 36.7996L106.199 36.4997L103.299 35.6997L101.799 35.2996C101.599 35.1996 101.299 35.1997 101.099 34.9997C100.899 34.7997 100.999 34.4996 101.199 34.2996ZM101.199 34.3996C100.999 34.4996 101.099 34.7997 101.199 34.9997L101.999 35.1997L103.399 35.4997L106.399 36.0996L107.899 36.4997C108.099 36.4997 108.199 36.4996 108.299 36.2996C108.399 36.0996 108.299 35.9997 108.299 35.6997L107.999 32.6996C107.799 31.6996 107.699 30.6996 107.599 29.6996C107.499 28.6996 107.499 29.1996 107.299 29.0996C107.099 28.9996 106.899 28.9996 106.799 29.1996L105.699 30.2996C104.299 31.6996 102.699 32.9996 101.199 34.3996Z" fill="#386EE8"/>
<path d="M106.701 30.0977C106.594 30.7452 106.426 31.3814 106.201 31.9977C105.962 32.6581 105.66 33.2942 105.301 33.8976C105.42 33.22 105.587 32.5517 105.801 31.8977L106.701 30.0977Z" fill="#386EE8"/>
<path d="M104.999 34.9977C105.165 34.9977 105.299 34.9081 105.299 34.7977C105.299 34.6872 105.165 34.5977 104.999 34.5977C104.834 34.5977 104.699 34.6872 104.699 34.7977C104.699 34.9081 104.834 34.9977 104.999 34.9977Z" fill="#386EE8"/>
<path d="M159.6 11.1978C158.9 9.79782 158.3 8.29783 157.7 6.89783C157.187 5.36459 156.586 3.86211 155.9 2.39783L155.7 1.89783C155.6 1.79783 155.5 1.69782 155.6 1.69782H155.3C155 1.59782 154.5 1.69783 154.4 1.89783C154.208 2.24022 154.072 2.61181 154 2.99784C154 3.39784 153.9 3.69781 153.9 4.09781C153.75 5.69431 153.75 7.30134 153.9 8.89783H153.8C153.501 7.31647 153.401 5.70406 153.5 4.09781C153.508 3.26169 153.713 2.43929 154.1 1.69782C154.5 1.29782 154.9 1.39783 155.4 1.39783H155.7L155.9 1.69782L156.1 2.29783C156.7 3.69783 157.3 5.19781 158 6.59781C158.7 7.99781 159.2 9.59781 159.7 11.0978L159.6 11.1978Z" fill="#386EE8"/>
<path d="M158.099 10.3992C157.399 8.99923 156.799 7.49921 156.099 6.09921L155.199 3.89923L154.799 2.79922C154.66 2.40262 154.457 2.03115 154.199 1.69922C154.723 2.30226 155.161 2.9754 155.499 3.69922C155.772 4.45875 156.106 5.19459 156.499 5.89923C157.121 7.36637 157.655 8.86899 158.099 10.3992Z" fill="#386EE8"/>
<path d="M144 6.29688C147.423 6.88172 150.799 7.7173 154.1 8.79688C155.77 9.29192 157.407 9.89314 159 10.5969C160.586 11.3152 162.04 12.2956 163.3 13.4969C168.556 18.0718 172.754 23.7363 175.6 30.0969C178.536 36.4027 179.777 43.3651 179.2 50.2969C178.891 53.7573 178.221 57.176 177.2 60.4969C176.715 62.184 176.079 63.8239 175.3 65.3969C175.141 65.8159 174.94 66.2179 174.7 66.5969L174.3 67.0969C174.187 67.31 174.013 67.4842 173.8 67.5969C173.088 68.0941 172.315 68.4974 171.5 68.7969H171.4C170.41 66.7398 169.607 64.5978 169 62.3969C168.359 60.2134 167.957 57.967 167.8 55.6969C168.026 57.9412 168.495 60.1542 169.2 62.2969C169.851 64.4832 170.653 66.6217 171.6 68.6969H171.4C172.199 68.3235 172.968 67.8889 173.7 67.3969C174.008 67.1636 174.25 66.8532 174.4 66.4969L175 65.2969C175.753 63.7469 176.388 62.1423 176.9 60.4969C177.879 57.2044 178.515 53.8198 178.8 50.3969C179.1 46.9635 178.999 43.5069 178.5 40.0969C177.897 36.6893 176.89 33.3658 175.5 30.1969C172.59 23.8757 168.362 18.2499 163.1 13.6969C161.829 12.5828 160.417 11.6413 158.9 10.8969C157.327 10.1176 155.687 9.48165 154 8.99689C150.7 7.99689 147.4 7.09688 144 6.29688Z" fill="#386EE8"/>
<path d="M160.5 44.8984C160.727 46.453 161.061 47.99 161.5 49.4985C161.857 51.0061 162.43 52.4544 163.2 53.7985C163.95 55.1727 164.82 56.4778 165.8 57.6985C166.7 58.8985 167.8 59.9985 168.9 61.1985C167.602 60.283 166.454 59.1694 165.5 57.8984C164.517 56.6652 163.678 55.3231 163 53.8984L161.2 49.4985C160.723 48.0092 160.454 46.4613 160.4 44.8984H160.5Z" fill="#386EE8"/>
<path d="M162.7 46.0977C162.893 47.3545 163.194 48.5924 163.6 49.7977C164.031 50.9763 164.566 52.1142 165.2 53.1977C164.777 52.7051 164.408 52.1687 164.1 51.5977C163.774 51.0608 163.506 50.4909 163.3 49.8976C162.851 48.6831 162.647 47.3915 162.7 46.0977Z" fill="#386EE8"/>
<path d="M163.3 36.3984C163.282 38.1875 162.908 39.9551 162.2 41.5984C161.471 43.2374 160.601 44.81 159.6 46.2985C158.609 47.8078 157.47 49.2148 156.2 50.4985L154.2 52.1985C153.507 52.7552 152.771 53.2568 152 53.6985L154 51.9985L156 50.1985C157.2 48.8985 158.4 47.5985 159.5 46.1985C160.516 44.7518 161.324 43.1697 161.9 41.4985C162.505 39.8396 162.974 38.1338 163.3 36.3984Z" fill="#386EE8"/>
<path d="M160.901 47.3992C160.247 48.829 159.369 50.1456 158.301 51.2992C159.278 50.0619 160.054 48.6783 160.601 47.1992L160.901 47.3992Z" fill="#386EE8"/>
<path d="M159.6 43.2969C159.154 44.921 158.408 46.4472 157.4 47.7969C156.9 48.3969 156.4 49.0969 155.8 49.6969C155.25 50.3138 154.647 50.8825 154 51.3969C155.1 50.0969 156.2 48.8969 157.1 47.5969C158 46.2969 158.1 46.1969 158.5 45.4969C158.906 44.7841 159.274 44.0496 159.6 43.2969Z" fill="#386EE8"/>
<path d="M157.901 44.3984C157.032 46.4192 155.736 48.2276 154.101 49.6985C153.262 50.444 152.358 51.1133 151.401 51.6985L148.601 53.2985C146.619 54.2041 144.538 54.8753 142.401 55.2985C140.219 55.7332 137.969 55.6991 135.801 55.1985C137.961 55.5338 140.165 55.466 142.301 54.9985C144.42 54.5977 146.496 53.9949 148.501 53.1985C150.521 52.3678 152.357 51.1441 153.901 49.5984C155.45 48.0792 156.794 46.3648 157.901 44.4985V44.3984Z" fill="#386EE8"/>
<path d="M139.901 53.0977C139.071 53.8455 138.126 54.4534 137.101 54.8976C136.04 55.3053 134.931 55.5742 133.801 55.6977L135.401 55.1977L136.901 54.4977L139.901 53.0977Z" fill="#386EE8"/>
<path d="M151 35.7969C149.986 38.7111 148.572 41.4707 146.8 43.9969C145.021 46.5413 142.901 48.8294 140.5 50.7969C138.146 52.843 135.479 54.4975 132.6 55.6969C129.722 56.8806 126.594 57.3275 123.5 56.9969H123.6L117.1 59.5969H117L123.5 56.7969H123.6C126.635 57.0351 129.684 56.5555 132.5 55.3969C135.392 54.358 138.069 52.799 140.4 50.7969C142.764 48.8504 144.821 46.5579 146.5 43.9969C148.289 41.4677 149.798 38.7517 151 35.8969V35.7969Z" fill="#386EE8"/>
<path d="M142.6 45.5977C142.167 46.6061 141.595 47.5486 140.9 48.3976C140.116 49.248 139.281 50.0495 138.4 50.7977C137.545 51.5117 136.604 52.1164 135.6 52.5977L134.1 53.3976L132.6 53.9977C133.598 53.5244 134.567 52.99 135.5 52.3976C136.439 51.8219 137.341 51.1874 138.2 50.4977C139.071 49.8089 139.874 49.0388 140.6 48.1977C141.381 47.4258 142.054 46.5511 142.6 45.5977Z" fill="#386EE8"/>
<path d="M142.4 40.4985C141.385 42.3292 140.214 44.069 138.9 45.6985L136.7 47.9985C135.948 48.7832 135.147 49.5181 134.3 50.1985C132.671 51.5058 130.891 52.6137 129 53.4985C128.072 54.0142 127.102 54.4491 126.1 54.7985L123.1 55.8984C124.966 55.0984 126.866 54.1985 128.8 53.1985C130.655 52.2286 132.458 51.1604 134.2 49.9985C135.909 48.7564 137.396 47.2351 138.6 45.4985C139.945 43.8824 141.181 42.1786 142.3 40.3984L142.4 40.4985Z" fill="#386EE8"/>
<path d="M135.2 45.1992C134.69 46.0627 134.086 46.8675 133.4 47.5992C132.649 48.2782 131.808 48.8503 130.9 49.2992L133.1 47.2992L135.2 45.1992Z" fill="#386EE8"/>
<path d="M126.8 48.1992C125.583 50.6412 124.072 52.9248 122.3 54.9992C120.484 57.0014 118.436 58.7805 116.2 60.2992C115.129 61.1247 113.991 61.8606 112.8 62.4992C112.196 62.8586 111.56 63.16 110.9 63.3992H110.2L110 63.5992L109.2 64.0992L105.8 66.3992L104 67.3992C103.404 67.7037 102.762 67.9065 102.1 67.9992C102.734 67.8175 103.34 67.5482 103.9 67.1992L105.6 66.0992C106.771 65.3905 107.906 64.6228 109 63.7992L109.8 63.1992H110.8L112.6 62.3992C113.822 61.7957 114.992 61.0934 116.1 60.2992C117.23 59.5885 118.301 58.7858 119.3 57.8992C120.289 56.9175 121.223 55.8827 122.1 54.7992C123.811 52.7061 125.381 50.5013 126.8 48.1992Z" fill="#386EE8"/>
<path d="M119.6 54.7969C119.182 55.5778 118.642 56.2867 118 56.8969L116.1 58.7969C114.707 59.9695 113.159 60.9453 111.5 61.6969C113.015 60.744 114.452 59.6741 115.8 58.4969L117.8 56.6969C118.45 56.1131 119.052 55.4777 119.6 54.7969Z" fill="#386EE8"/>
<path d="M105.5 68.2969L107.9 66.9969L110.2 65.7969C109.549 66.4081 108.807 66.9141 108 67.2969C107.211 67.7323 106.371 68.0681 105.5 68.2969Z" fill="#386EE8"/>
<path d="M171.5 68.6992C171.395 69.1538 171.227 69.5913 171 69.9992C170.7 70.3992 170.5 70.7992 170 70.9992L170.7 69.7992L171.5 68.6992Z" fill="#386EE8"/>
<path d="M158.1 71.0992L161.7 70.8992H165.2L168.8 70.6992H169.8C170.08 70.8949 170.29 71.1753 170.4 71.4992C170.482 71.7918 170.515 72.0957 170.5 72.3992C170.492 72.7093 170.424 73.0149 170.3 73.2992H170.2C170.366 72.7383 170.331 72.1367 170.1 71.5992C169.989 71.3585 169.816 71.1515 169.6 70.9992H165.3L161.7 71.1992H158.1V71.0992Z" fill="#386EE8"/>
<path d="M169.7 76C170.028 76.3749 170.267 76.8193 170.4 77.3C170.405 77.4466 170.382 77.5929 170.33 77.7303C170.279 77.8677 170.2 77.9934 170.1 78.1C170.038 78.2193 169.954 78.3251 169.85 78.411C169.747 78.4969 169.628 78.5612 169.5 78.6C169.098 78.9106 168.607 79.0857 168.1 79.1C167.617 79.2639 167.108 79.3319 166.6 79.3C167.54 79.0887 168.448 78.7523 169.3 78.3C169.521 78.2377 169.717 78.1077 169.86 77.9284C170.004 77.7491 170.087 77.5293 170.1 77.3C170.08 77.0874 170.011 76.8821 169.9 76.7C169.896 76.4531 169.827 76.2116 169.7 76Z" fill="#386EE8"/>
<path d="M173.701 67.5C174.178 69.1007 174.512 70.7404 174.701 72.4C174.901 74.1 175.001 75.8 175.101 77.4C175.121 79.0924 174.885 80.7781 174.401 82.4C174.137 83.2117 173.767 83.9851 173.301 84.7C173.095 85.0791 172.81 85.4094 172.464 85.6683C172.119 85.9271 171.722 86.1085 171.301 86.2C172.06 85.9291 172.697 85.3975 173.101 84.7C173.487 83.9699 173.789 83.1983 174.001 82.4C174.454 80.7985 174.755 79.158 174.901 77.5C174.933 75.8525 174.765 74.2071 174.401 72.6C174.201 70.9 173.901 69.3 173.701 67.7V67.5Z" fill="#386EE8"/>
<path d="M175.3 65.2C175.61 65.16 175.926 65.1934 176.221 65.2976C176.516 65.4018 176.783 65.5739 177 65.8C177.394 66.2745 177.699 66.8166 177.9 67.4C178.324 68.5548 178.56 69.7703 178.6 71C178.7 72.2 178.7 73.4 178.8 74.6C178.9 75.8 178.8 77 178.7 78.2C178.67 80.6527 178.125 83.0716 177.1 85.3C176.537 86.3918 175.669 87.2955 174.6 87.9C174.113 88.2855 173.538 88.5425 172.926 88.6473C172.315 88.7522 171.687 88.7015 171.1 88.5C172.294 88.6907 173.516 88.4033 174.5 87.7C175.418 86.9803 176.197 86.0992 176.8 85.1C177.774 82.9199 178.349 80.5831 178.5 78.2C178.733 75.8011 178.666 73.3823 178.3 71C178.255 69.812 178.053 68.6352 177.7 67.5C177.494 66.9384 177.225 66.4017 176.9 65.9C176.71 65.6878 176.479 65.5163 176.221 65.3959C175.964 65.2756 175.684 65.209 175.4 65.2H175.3Z" fill="#386EE8"/>
<path d="M170.199 77.5977C170.849 80.0172 171.251 82.4967 171.399 84.9977C171.485 86.2678 171.418 87.5436 171.199 88.7977C170.899 90.0977 170.399 91.1976 169.999 92.3976C168.35 97.1298 166.447 101.77 164.299 106.298C163.199 108.598 161.999 110.798 160.799 112.998L158.699 116.198L156.699 119.298L154.699 122.498C154.095 123.651 153.153 124.593 151.999 125.198C150.79 125.511 149.548 125.679 148.299 125.698L144.499 125.998L142.699 126.398H140.799C139.514 126.429 138.232 126.26 136.999 125.898C135.779 125.579 134.603 125.109 133.499 124.498L130.299 122.498C126.099 119.798 121.699 117.398 117.399 114.798C115.193 113.548 113.056 112.18 110.999 110.698C110.004 109.936 109.098 109.063 108.299 108.098C107.528 107.1 106.921 105.986 106.499 104.798C105.714 102.373 105.079 99.9012 104.599 97.3976C103.999 94.9976 103.399 92.5977 102.699 90.0977H102.799C103.499 92.4977 104.199 94.9976 104.799 97.3976C105.399 99.7976 105.899 102.298 106.699 104.698C107.122 105.855 107.73 106.935 108.499 107.898C109.325 108.808 110.228 109.645 111.199 110.398C113.199 111.898 115.399 113.198 117.499 114.498C121.899 117.098 126.299 119.498 130.499 122.198L133.699 124.198C134.782 124.833 135.92 125.369 137.099 125.798C138.307 126.118 139.55 126.286 140.799 126.298L142.699 126.098C143.306 126.046 143.908 125.946 144.499 125.798L148.299 125.498C149.551 125.528 150.8 125.36 151.999 124.998C153.114 124.468 154.026 123.59 154.599 122.498C155.299 121.398 155.899 120.298 156.599 119.298C157.207 118.195 157.875 117.127 158.599 116.098C159.199 114.998 159.899 113.998 160.599 112.898C161.299 111.798 162.999 108.498 163.999 106.198C166.099 101.698 168.099 96.9977 169.799 92.2977C170.199 91.0977 170.699 89.9977 170.999 88.7977C171.215 87.5433 171.282 86.2678 171.199 84.9977C171.07 82.5077 170.735 80.0327 170.199 77.5977Z" fill="#386EE8"/>
<path d="M100.701 88.7985C105.401 92.5985 110.301 96.1985 114.901 100.098L118.401 102.898C119.546 103.878 120.87 104.625 122.301 105.098C123.701 105.798 125.101 106.298 126.501 106.898L128.601 107.698L129.101 107.898H129.401C129.427 107.898 129.453 107.888 129.472 107.869C129.49 107.85 129.501 107.825 129.501 107.798C129.601 107.698 129.701 107.498 129.601 107.398C129.501 107.298 129.301 107.198 129.201 107.198C126.401 105.998 123.601 104.798 120.901 103.398C120.518 103.297 120.171 103.089 119.901 102.798L119.001 102.098L117.301 100.598L113.801 97.6985L106.901 91.8984L103.401 88.9985L101.701 87.5984C101.638 87.5403 101.563 87.4964 101.481 87.4696C101.4 87.4429 101.313 87.4339 101.228 87.4434C101.143 87.4529 101.061 87.4806 100.987 87.5246C100.913 87.5686 100.85 87.6279 100.801 87.6985C100.664 87.8447 100.58 88.0321 100.562 88.2313C100.544 88.4305 100.593 88.6301 100.701 88.7985ZM100.701 88.7985C100.587 88.6566 100.525 88.4802 100.525 88.2985C100.525 88.1167 100.587 87.9404 100.701 87.7985C100.819 87.6139 100.995 87.4734 101.201 87.3984L101.701 87.5984C102.343 88.0088 102.945 88.4775 103.501 88.9985L107.101 91.7985L114.101 97.5984L117.501 100.498L119.201 101.898L120.101 102.698L121.001 103.198C123.701 104.598 126.501 105.898 129.201 107.098H129.501L129.801 107.298C129.83 107.4 129.837 107.506 129.819 107.61C129.802 107.714 129.762 107.812 129.701 107.898L129.301 108.098H129.101L128.501 107.898L126.401 106.998L122.301 105.298C120.839 104.828 119.481 104.081 118.301 103.098L114.701 100.298C110.001 96.5985 105.401 92.5985 100.701 88.7985Z" fill="#386EE8"/>
<path d="M126.5 105.899C126.887 105.514 127.39 105.266 127.932 105.194C128.474 105.122 129.025 105.229 129.5 105.499C129.747 105.6 129.972 105.749 130.161 105.938C130.35 106.127 130.499 106.352 130.6 106.599C130.771 106.804 130.888 107.049 130.94 107.311C130.993 107.573 130.979 107.844 130.9 108.099C130.655 108.606 130.226 109 129.7 109.199C129.171 109.299 128.628 109.299 128.1 109.199C127.566 109.02 127.085 108.711 126.7 108.299C126.323 107.93 126.107 107.427 126.1 106.899H126.2C126.283 107.39 126.523 107.84 126.883 108.182C127.244 108.525 127.706 108.741 128.2 108.799C128.643 108.99 129.14 109.014 129.599 108.867C130.059 108.72 130.449 108.412 130.7 107.999C130.794 107.769 130.825 107.518 130.789 107.272C130.754 107.026 130.654 106.794 130.5 106.599C130.232 106.195 129.849 105.881 129.4 105.699C128.931 105.499 128.418 105.421 127.911 105.473C127.403 105.526 126.918 105.707 126.5 105.999V105.899Z" fill="#386EE8"/>
<path d="M100.6 90.0977C101.351 91.5649 101.826 93.1582 102 94.7977C102.3 96.4977 102.4 98.1977 102.6 99.7977C102.8 101.398 102.9 103.098 103 104.798C103.1 106.498 103.2 108.098 103.2 109.798C103 108.098 102.8 106.498 102.7 104.798L102.4 99.7977C102.348 98.1496 102.147 96.5095 101.8 94.8976C101.4 93.2976 101.1 91.5977 100.6 90.0977Z" fill="#386EE8"/>
<path d="M101.4 92.7969C99.8 94.1969 98.3 95.4969 96.6 96.7969C95.763 97.4157 94.9923 98.1194 94.3 98.8969C93.9543 99.2763 93.6829 99.7173 93.5 100.197C93.3422 100.684 93.2415 101.187 93.2 101.697C92.9 103.697 92.5 105.797 92.1 107.797C91.7 109.797 91.7 109.797 91.4 110.797C91.1 111.797 90.9 112.797 90.6 113.797H90.5C91 111.797 91.3 109.697 91.8 107.697L93 101.597C93.0862 101.085 93.2201 100.583 93.4 100.097C93.6072 99.6296 93.8763 99.1924 94.2 98.7969C94.9169 98.0133 95.6853 97.2783 96.5 96.5969C98 95.2969 99.7 93.9969 101.4 92.7969Z" fill="#386EE8"/>
<path d="M98.3993 96.4985C97.8604 97.3451 97.5187 98.302 97.3993 99.2985C97.2779 99.7969 97.3128 100.321 97.4993 100.798L98.2993 102.098C99.3993 103.898 100.599 105.598 101.699 107.298C103.999 110.698 105.999 114.298 108.799 117.398C110.157 118.906 111.592 120.341 113.099 121.698C114.55 123.157 116.2 124.402 117.999 125.398C119.761 126.425 121.641 127.231 123.599 127.798H123.999C124.199 127.998 124.199 128.098 124.199 128.198C124.282 128.457 124.316 128.728 124.299 128.998C124.385 129.527 124.419 130.063 124.399 130.598V133.598C124.299 132.598 124.299 131.598 124.199 130.598C124.219 130.063 124.185 129.527 124.099 128.998C124.115 128.761 124.081 128.522 123.999 128.298C123.982 128.194 123.948 128.093 123.899 127.998H123.599C121.575 127.485 119.625 126.712 117.799 125.698C116.044 124.636 114.402 123.396 112.899 121.998C111.422 120.573 110.02 119.071 108.699 117.498C107.347 115.924 106.11 114.252 104.999 112.498L101.499 107.398C100.299 105.698 99.1993 103.998 98.0993 102.198C97.8278 101.787 97.5935 101.352 97.3993 100.898C97.1417 100.407 97.0707 99.8385 97.1993 99.2985C97.2993 98.7985 97.4993 98.2985 97.5993 97.7985C97.7885 97.2916 98.0586 96.8187 98.3993 96.3984V96.4985Z" fill="#386EE8"/>
<path d="M123.199 133.598L122.799 130.598V129.198L121.399 128.598C119.518 127.799 117.682 126.897 115.899 125.898C112.389 123.788 109.276 121.081 106.699 117.898C106.099 117.098 105.399 116.298 104.799 115.398L103.999 114.098L103.199 112.798C102.945 112.394 102.603 112.052 102.199 111.798L101.499 111.398C101.283 111.245 101.11 111.038 100.999 110.798L99.1993 108.398C97.9739 106.726 96.839 104.991 95.7994 103.198C95.3301 102.273 94.9613 101.301 94.6993 100.298C94.5842 99.7987 94.619 99.2769 94.7994 98.7977C95.0166 98.3418 95.3226 97.9339 95.6993 97.5977H95.7994C95.3994 97.9977 94.9993 98.2977 94.8993 98.7977C94.752 99.2868 94.752 99.8085 94.8993 100.298C95.1166 101.283 95.4878 102.228 95.9993 103.098C97.0396 104.858 98.1746 106.56 99.3993 108.198L101.199 110.698C101.399 110.898 101.499 111.098 101.699 111.198L102.299 111.498C102.794 111.79 103.207 112.203 103.499 112.698C103.823 113.093 104.092 113.53 104.299 113.998L104.999 115.298L106.899 117.698C108.105 119.336 109.48 120.845 110.999 122.198C112.516 123.565 114.195 124.74 115.999 125.698C117.782 126.697 119.618 127.599 121.499 128.398L122.899 129.098C122.957 129.149 122.993 129.221 122.999 129.298V130.698L123.199 133.698V133.598Z" fill="#386EE8"/>
<path d="M102.199 97.3969C101.562 97.932 101.137 98.6765 100.999 99.4969C100.849 100.323 100.849 101.17 100.999 101.997C101.331 103.675 101.466 105.387 101.399 107.097C101.052 105.417 100.851 103.711 100.799 101.997C100.749 101.131 100.749 100.263 100.799 99.3969C100.815 98.9513 100.954 98.5189 101.201 98.148C101.448 97.7771 101.794 97.4824 102.199 97.2969V97.3969Z" fill="#386EE8"/>
<path d="M104.9 125.298C104.561 124.258 104.327 123.186 104.2 122.098C104 121.098 103.9 119.998 103.7 118.898C103.5 117.798 103.3 116.798 103.2 115.698C103.1 114.601 103.1 113.496 103.2 112.398C103.3 113.498 103.5 114.598 103.6 115.598L103.9 118.898C103.968 119.978 104.136 121.049 104.4 122.098C104.664 123.148 104.831 124.219 104.9 125.298Z" fill="#386EE8"/>
<path d="M101.399 111C101.483 111.964 101.516 112.932 101.499 113.9C101.449 114.833 101.449 115.767 101.499 116.7C101.699 118.5 101.799 120.4 101.999 122.3C101.689 121.398 101.52 120.454 101.499 119.5C101.366 118.573 101.333 117.634 101.399 116.7C101.386 115.764 101.319 114.829 101.199 113.9C101.167 112.929 101.234 111.957 101.399 111Z" fill="#386EE8"/>
<path d="M98.1992 117.797L100.399 120.197L101.499 121.497L101.899 122.197C102.043 122.445 102.144 122.716 102.199 122.997C102.309 123.516 102.55 123.998 102.899 124.397C103.059 124.617 103.27 124.796 103.514 124.918C103.757 125.039 104.027 125.101 104.299 125.097H105.099C105.399 125.197 105.599 125.497 105.799 125.597L107.099 126.797C108.908 128.018 110.814 129.089 112.799 129.997C114.699 130.897 116.999 131.097 118.999 131.997L122.099 133.197L125.299 133.897L128.599 134.297H130.699C130.799 134.397 130.699 134.597 130.699 134.797C130.609 135.053 130.575 135.326 130.599 135.597C130.656 137.778 131.167 139.924 132.099 141.897C132.58 142.895 133.222 143.807 133.999 144.597L136.299 146.897C137.89 148.451 139.001 150.429 139.499 152.597C140.173 154.693 140.708 156.831 141.099 158.997C141.999 163.297 142.699 167.697 143.599 171.997C144.528 176.28 145.764 180.491 147.299 184.597C147.995 186.67 148.796 188.706 149.699 190.697C150.619 192.696 151.724 194.604 152.999 196.397C151.621 194.69 150.478 192.807 149.599 190.797C148.599 188.797 147.799 186.697 146.999 184.697C145.464 180.557 144.228 176.313 143.299 171.997C142.399 167.697 141.699 163.397 140.799 159.097C140.399 156.897 139.899 154.797 139.299 152.697C138.795 150.554 137.724 148.585 136.199 146.997L133.799 144.697C133.085 143.842 132.48 142.901 131.999 141.897C131.046 139.931 130.535 137.781 130.499 135.597C130.432 135.294 130.467 134.978 130.599 134.697V134.397H128.599C127.492 134.396 126.388 134.296 125.299 134.097L121.999 133.397L118.899 132.297C116.999 131.297 114.699 131.197 112.699 130.297C110.658 129.359 108.715 128.22 106.899 126.897L105.699 125.897L105.099 125.397H104.199C103.918 125.39 103.643 125.313 103.398 125.173C103.154 125.034 102.948 124.836 102.799 124.597C102.384 124.192 102.104 123.668 101.999 123.097C101.889 122.578 101.648 122.096 101.299 121.697C100.998 121.24 100.664 120.805 100.299 120.397L98.1992 117.897V117.797Z" fill="#386EE8"/>
<path d="M152.299 125L151.699 128.9C151.361 130.145 151.126 131.416 150.999 132.7L150.699 136.6C150.599 137.9 150.599 139.1 150.499 140.4H150.399C150.299 139.102 150.299 137.798 150.399 136.5C150.467 135.222 150.634 133.952 150.899 132.7C151.099 131.4 151.199 130.1 151.399 128.8C151.593 127.51 151.894 126.239 152.299 125Z" fill="#386EE8"/>
<path d="M149.299 131.098C149.125 131.979 148.892 132.848 148.599 133.698C148.287 134.55 148.02 135.418 147.799 136.298C147.403 138.038 146.868 139.743 146.199 141.398C146.513 139.627 146.981 137.887 147.599 136.198C147.956 135.396 148.224 134.558 148.399 133.698C148.62 132.818 148.887 131.95 149.199 131.098H149.299Z" fill="#386EE8"/>
<path d="M147.1 134.199C146.98 134.887 146.778 135.558 146.5 136.199L145.9 138.099C145.852 137.386 145.954 136.67 146.2 135.999C146.44 135.371 146.741 134.768 147.1 134.199Z" fill="#386EE8"/>
<path d="M133.9 128.199C134.277 129.015 134.61 129.849 134.9 130.699C135.227 131.538 135.461 132.41 135.6 133.299C135.207 132.491 134.873 131.656 134.6 130.799C134.308 129.95 134.074 129.081 133.9 128.199Z" fill="#386EE8"/>
<path d="M136.4 136.098C136.685 136.559 136.888 137.067 137 137.598C137.196 138.143 137.298 138.718 137.3 139.298L136.7 137.698C136.543 137.177 136.443 136.64 136.4 136.098Z" fill="#386EE8"/>
<path d="M130.1 127.998C130.797 129.077 131.4 130.215 131.9 131.398C132.4 132.498 132.9 133.698 133.5 134.798C134.1 135.898 134.7 137.098 135.2 138.298C135.726 139.44 136.194 140.608 136.6 141.798C136 140.598 135.4 139.498 134.9 138.298L133.4 134.798C132.893 133.636 132.326 132.501 131.7 131.398C131.1 130.198 130.6 129.098 130.1 127.898V127.998Z" fill="#386EE8"/>
<path d="M131.6 140.5C134.037 141.402 136.603 141.908 139.2 142C141.78 142.049 144.359 141.848 146.9 141.4C149.4 140.9 152 140 153.7 138C154.101 137.545 154.376 136.994 154.5 136.4C154.574 135.772 154.433 135.138 154.1 134.6C153.357 133.546 152.254 132.8 151 132.5C151.659 132.608 152.299 132.81 152.9 133.1C153.482 133.435 153.965 133.918 154.3 134.5C154.507 134.767 154.659 135.072 154.744 135.399C154.83 135.725 154.849 136.066 154.8 136.4C154.709 137.083 154.392 137.717 153.9 138.2C152.2 140.3 149.5 141.2 146.9 141.6L143.1 142C141.8 142.1 140.5 142.3 139.1 142.3C136.473 142.203 133.891 141.591 131.5 140.5H131.6Z" fill="#386EE8"/>
<path d="M151.199 131.699C152.75 131.838 154.235 132.391 155.499 133.299C156.102 133.796 156.547 134.458 156.778 135.205C157.009 135.951 157.016 136.749 156.799 137.499C156.484 138.231 156.005 138.882 155.399 139.399L153.499 140.699L151.399 141.799C150.716 142.151 149.966 142.355 149.199 142.399C150.657 141.937 152.038 141.263 153.299 140.399C154.499 139.499 155.999 138.899 156.599 137.399C156.875 136.7 156.896 135.926 156.658 135.213C156.421 134.5 155.939 133.893 155.299 133.499C154.047 132.689 152.658 132.113 151.199 131.799V131.699Z" fill="#386EE8"/>
<path d="M132 142.098L134.9 142.798C135.8 143.117 136.746 143.286 137.7 143.298H143.6C142.616 143.529 141.611 143.663 140.6 143.698C139.629 143.728 138.658 143.661 137.7 143.498L134.8 143.098C133.836 142.904 132.897 142.602 132 142.198V142.098Z" fill="#386EE8"/>
<path d="M156.8 137.398C156.883 138.229 156.916 139.064 156.9 139.898C156.8 140.729 156.8 141.568 156.9 142.398C157.016 144.065 156.983 145.738 156.8 147.398C156.616 145.738 156.582 144.065 156.7 142.398C156.766 141.564 156.733 140.725 156.6 139.898C156.567 139.06 156.634 138.221 156.8 137.398Z" fill="#386EE8"/>
<path d="M140.699 158.799C142.005 158.799 143.309 158.699 144.599 158.499L146.499 158.199L148.299 157.699C147.137 158.274 145.886 158.646 144.599 158.799C143.307 159 141.991 159 140.699 158.799Z" fill="#386EE8"/>
<path d="M145.699 159.3C147.419 158.999 149.098 158.496 150.699 157.8L152.999 156.6C153.709 156.122 154.378 155.587 154.999 155C154.468 155.699 153.826 156.307 153.099 156.8C152.367 157.292 151.598 157.727 150.799 158.1C149.17 158.757 147.45 159.161 145.699 159.3Z" fill="#386EE8"/>
<path d="M170.099 65.4977L166.699 65.8976C165.584 66.0005 164.479 66.2013 163.399 66.4977C162.306 66.7395 161.235 67.074 160.199 67.4977L156.999 68.4977H156.899V67.4977H156.999C156.899 67.5977 156.899 67.7977 156.799 67.9977C156.706 68.1527 156.639 68.3214 156.599 68.4977L155.499 68.6977H155.199V67.6977C155.216 66.9607 155.283 66.2257 155.399 65.4977L155.699 63.2977C155.699 63.1977 155.699 63.1977 155.799 62.9977H156.099L156.599 62.7977L157.699 62.5977H157.899V62.7977L157.699 63.7977L157.499 64.3976C157.514 64.5386 157.479 64.6803 157.399 64.7977H157.199C157.219 64.585 157.288 64.3798 157.399 64.1977C157.497 63.9761 157.632 63.7731 157.799 63.5977L158.099 63.2977V63.7977L157.899 64.8976H157.599L158.499 63.0977L158.799 62.5977L158.999 62.3976H160.699V62.6977L160.299 63.9977V64.1977H160.099L160.399 63.9977L160.899 63.5977L161.999 62.6977C162.199 62.5977 162.299 62.3977 162.699 62.2977H163.399L166.099 62.0977H168.999L166.199 62.2977L163.399 62.5977H162.699L162.199 62.8976L161.099 63.7977L160.599 64.2977L160.199 64.4977H159.999C159.899 64.3977 159.999 64.3976 159.999 64.3976V64.1977L160.399 62.8976L160.599 63.0977H159.099L158.899 63.4977L157.899 65.3976L157.399 66.2977L157.599 65.2977L157.799 64.0977L157.999 64.2977L157.699 64.6977L157.399 65.2977L156.999 66.2977L157.199 65.1977C157.184 65.0249 157.218 64.8512 157.299 64.6977V64.1977L157.599 63.0977V63.2977H155.999C155.999 63.3108 155.997 63.3238 155.992 63.3359C155.986 63.3481 155.979 63.3591 155.97 63.3684C155.961 63.3777 155.95 63.3851 155.937 63.3901C155.925 63.3951 155.912 63.3976 155.899 63.3976C155.863 63.4382 155.835 63.4858 155.818 63.5374C155.801 63.5889 155.795 63.6435 155.799 63.6977C155.618 64.3877 155.484 65.0893 155.399 65.7977C155.287 66.5262 155.221 67.2609 155.199 67.9977V68.7977C155.099 68.8977 155.299 68.7977 155.399 68.7977L156.399 68.5977C156.399 68.3977 156.499 68.1977 156.499 67.9977L156.799 67.4977V68.4977H156.599L159.799 67.3976C160.88 67.0049 161.982 66.671 163.099 66.3976C165.299 65.9976 167.499 65.7977 169.799 65.5977L170.099 65.4977Z" fill="#386EE8"/>
<path d="M145.001 68.2985C145.201 68.2985 145.301 68.0984 145.401 67.8984C145.501 67.6984 145.501 67.4985 145.501 67.2985C145.615 66.9421 145.682 66.5723 145.701 66.1985C145.801 65.4016 145.801 64.5953 145.701 63.7985C145.701 63.4985 145.701 62.9985 145.201 62.9985H144.201C144.334 63.7576 144.367 64.5307 144.301 65.2985C144.113 64.5186 143.88 63.7506 143.601 62.9985C143.601 62.6985 143.001 62.4984 142.801 62.5984V62.8984C142.78 63.1425 142.712 63.3802 142.601 63.5984L142.301 62.6985L142.101 62.2985C142.084 62.1938 142.05 62.0925 142.001 61.9985L140.301 61.4985L136.801 60.5984L133.401 59.5984C132.264 59.2538 131.088 59.0523 129.901 58.9985C129.314 59.0244 128.737 59.1601 128.201 59.3984L126.501 59.9985L123.201 61.4985L120.001 63.0984L118.401 63.8984C117.801 63.9984 118.001 64.6985 118.201 65.1985C118.401 65.6985 118.401 65.4985 118.701 65.4985L119.601 65.1985L121.301 64.6985L124.801 63.8984C125.947 63.5935 127.118 63.3927 128.301 63.2985C129.515 63.2338 130.731 63.3689 131.901 63.6985C134.201 64.3985 136.401 65.1984 138.701 66.0984L145.001 68.2985ZM145.001 68.2985L138.201 66.1985C136.001 65.4985 133.701 64.5984 131.401 64.0984C130.272 63.7293 129.088 63.5601 127.901 63.5984L124.401 64.1985L121.001 64.9985L119.201 65.4985L118.401 65.6985C118.31 65.7511 118.206 65.7789 118.101 65.7789C117.995 65.7789 117.892 65.7511 117.801 65.6985C117.601 65.6985 117.501 65.4985 117.501 65.2985C117.387 65.011 117.319 64.7072 117.301 64.3984C117.308 64.2137 117.378 64.037 117.501 63.8984L117.901 63.5984L119.501 62.8984L122.801 61.2985L126.001 59.8984L127.701 59.2985C128.276 59.07 128.883 58.9349 129.501 58.8984C130.688 58.9522 131.864 59.1538 133.001 59.4985C134.201 59.6985 135.301 60.0984 136.501 60.3984L139.901 61.2985L141.701 61.6985C141.837 61.8403 141.94 62.0113 142.001 62.1985V62.5984L142.301 63.4985H142.101C142.101 63.2985 142.201 63.0984 142.201 62.8984V62.3984H142.401C142.517 62.3604 142.641 62.3496 142.762 62.3669C142.884 62.3843 143 62.4293 143.101 62.4985L143.401 62.6985L143.601 62.9985L144.201 65.3984H144.101C144.151 64.6326 144.151 63.8643 144.101 63.0984C144.001 63.1984 144.101 62.9985 144.101 62.9985H145.601C145.701 62.9985 145.701 63.0985 145.701 63.1985C145.781 63.3878 145.815 63.5934 145.801 63.7985C145.901 64.5953 145.901 65.4016 145.801 66.1985C145.701 66.5985 145.701 66.9985 145.601 67.2985C145.501 67.5985 145.501 67.6984 145.401 67.8984C145.301 68.0984 145.301 68.2985 145.001 68.2985Z" fill="#386EE8"/>
<path d="M151.299 71.7969L150.499 74.3969C150.057 75.1894 149.849 76.0909 149.899 76.9969C150.052 77.8738 150.252 78.7418 150.499 79.5969C150.714 80.4873 150.881 81.3886 150.999 82.2969L150.099 79.6969C149.869 78.814 149.734 77.9087 149.699 76.9969C149.817 76.0886 149.984 75.1873 150.199 74.2969C150.472 73.4405 150.806 72.605 151.199 71.7969H151.299Z" fill="#386EE8"/>
<path d="M152.7 87.7969C153.581 88.6577 154.384 89.5946 155.1 90.5969L155.4 90.9969C155.5 91.0969 155.5 91.2969 155.6 91.3969C155.7 91.4969 155.7 91.9969 155.7 92.2969C155.78 92.9269 155.814 93.562 155.8 94.1969C155.816 94.5003 155.782 94.8043 155.7 95.0969C155.547 95.3983 155.301 95.6434 155 95.7969C154.405 96.0733 153.756 96.2102 153.1 96.1969C151.877 96.3321 150.64 96.1603 149.5 95.6969C150.692 95.8633 151.897 95.9302 153.1 95.8969C153.675 95.8541 154.245 95.7536 154.8 95.5969C155.071 95.4876 155.298 95.29 155.443 95.0359C155.588 94.7818 155.644 94.4862 155.6 94.1969C155.701 93.6011 155.701 92.9926 155.6 92.3969C155.582 92.0881 155.514 91.7843 155.4 91.4969C155.27 91.2089 155.102 90.9398 154.9 90.6969C154.2 89.7969 153.4 88.8969 152.7 87.8969V87.7969Z" fill="#386EE8"/>
<path d="M146.7 95.5977L145.1 95.7977H146.7V95.5977Z" fill="#386EE8"/>
<path d="M141.001 91.8984C140.905 91.9653 140.827 92.0553 140.774 92.1602C140.722 92.265 140.697 92.3813 140.701 92.4985C140.701 92.7985 140.601 92.9985 140.601 93.1985V94.5984C140.635 95.0717 140.809 95.5241 141.101 95.8984C141.331 96.2614 141.638 96.5688 142.001 96.7985C141.762 96.7797 141.532 96.695 141.338 96.5538C141.144 96.4126 140.993 96.2204 140.901 95.9985C140.541 95.6181 140.328 95.1217 140.301 94.5984C140.284 94.1296 140.318 93.6603 140.401 93.1985C140.401 92.9985 140.501 92.6985 140.501 92.4985C140.501 92.2985 140.701 91.9984 141.001 91.8984Z" fill="#386EE8"/>
<path d="M146.7 100.898C146.592 101.709 146.425 102.512 146.2 103.298V103.898C146.2 103.998 146.3 104.098 146.4 104.198H147.6C147.226 104.377 146.799 104.413 146.4 104.298H146C145.921 104.181 145.885 104.039 145.9 103.898C145.8 103.698 145.9 103.498 145.9 103.298C146.106 102.48 146.374 101.677 146.7 100.898Z" fill="#386EE8"/>
<path d="M144.6 110.997H146.7C147.406 111.035 148.113 110.968 148.8 110.797C148.156 111.159 147.437 111.365 146.7 111.397L145.6 111.197L144.6 110.997Z" fill="#386EE8"/>
<path d="M145 116.198C145.408 115.964 145.867 115.832 146.338 115.814C146.808 115.797 147.276 115.894 147.7 116.098H146.4C145.931 116.082 145.462 116.115 145 116.198Z" fill="#386EE8"/>
<path d="M155.8 107.897L155.2 108.097C155.067 108.136 154.924 108.127 154.796 108.072C154.669 108.017 154.564 107.92 154.5 107.797H155.8V107.897Z" fill="#386EE8"/>
<path d="M153.6 107.499L151.9 106.799L151.1 106.399H150.7C150.6 106.299 150.4 106.399 150.3 106.399C149.11 106.598 147.906 106.699 146.7 106.699H144L143.1 106.899L139.6 107.699L143 106.499C143.3 106.499 143.6 106.299 144 106.399H144.9L146.7 106.599C147.881 106.721 149.076 106.585 150.2 106.199H151.2L152 106.599L153.6 107.499Z" fill="#386EE8"/>
<path d="M136.199 107.797H137.799L136.999 108.097C136.853 108.103 136.706 108.079 136.569 108.028C136.432 107.976 136.306 107.898 136.199 107.797Z" fill="#386EE8"/>
<path d="M155.8 73.1992C155.9 72.7992 156.4 72.6992 156.7 72.6992L157.8 72.4992L159.9 72.1992H164.3L168.6 72.5992L169.6 72.7992H169.9L170.1 72.9992C170.1 73.1992 170.2 73.3992 170.2 73.5992C170.316 74.2984 170.281 75.0142 170.1 75.6992C170.066 75.9079 169.986 76.1063 169.864 76.2795C169.743 76.4527 169.584 76.5962 169.4 76.6992L168.6 77.2992C167.973 77.6814 167.301 77.9838 166.6 78.1992C165.188 78.735 163.635 78.7703 162.2 78.2992C160.814 77.9064 159.498 77.2991 158.3 76.4992L156.6 75.0992C156.366 74.8233 156.164 74.5213 156 74.1992C155.8 73.8992 155.6 73.4992 155.8 73.1992ZM155.8 73.1992C155.757 73.3704 155.754 73.5487 155.788 73.7215C155.823 73.8943 155.895 74.0575 156 74.1992L156.7 74.9992C157.222 75.4873 157.792 75.9227 158.4 76.2992C159.624 77.026 160.934 77.5971 162.3 77.9992C163.681 78.3667 165.138 78.3319 166.5 77.8992L168.4 77.0992C169 76.6992 169.7 76.3992 169.9 75.6992C170.115 75.0214 170.183 74.3054 170.1 73.5992C170 73.2992 170 72.7992 169.6 72.7992L168.6 72.5992L164.3 72.3992H156.7C156.4 72.7992 155.9 72.7992 155.8 73.1992Z" fill="#386EE8"/>
<path d="M123.4 70.2977L127.5 70.0977H138.9C139.247 70.1606 139.564 70.3364 139.8 70.5977C139.6 70.2977 139.2 70.2977 138.9 70.1977H123.4V70.2977Z" fill="#386EE8"/>
<path d="M121.4 73.1985V72.4985C121.513 72.2854 121.687 72.1111 121.9 71.9985H123.3C124.2 71.9484 125.101 71.9484 126 71.9985H131.5L137 72.2985C137.903 72.3153 138.805 72.3821 139.7 72.4985C139.927 72.5672 140.131 72.6967 140.29 72.873C140.448 73.0492 140.556 73.2655 140.6 73.4985C140.721 73.9635 140.686 74.4552 140.5 74.8984C140.107 75.7412 139.538 76.4897 138.83 77.0935C138.123 77.6973 137.294 78.1423 136.4 78.3984C134.628 78.9959 132.727 79.0996 130.9 78.6985C129.107 78.2516 127.389 77.5441 125.8 76.5984C124.976 76.1929 124.204 75.6893 123.5 75.0984L121.4 73.1985ZM121.4 73.1985L123.6 74.7985C124.304 75.3893 125.076 75.893 125.9 76.2985C127.497 77.1811 129.216 77.8215 131 78.1985C132.751 78.6308 134.588 78.5615 136.3 77.9985C137.165 77.7706 137.974 77.3694 138.679 76.8193C139.384 76.2693 139.969 75.5817 140.4 74.7985C140.578 74.3885 140.613 73.9308 140.5 73.4985C140.456 73.2802 140.361 73.0755 140.221 72.9016C140.082 72.7277 139.904 72.5895 139.7 72.4985L137 72.2985H121.9C121.4 72.1985 121.5 72.7985 121.4 73.1985Z" fill="#386EE8"/>
<path d="M120.301 75C121.538 76.1653 122.916 77.173 124.401 78C123.521 77.8416 122.695 77.4632 122.001 76.9C121.356 76.341 120.785 75.7026 120.301 75Z" fill="#386EE8"/>
<path d="M132 80.2985C130.989 80.264 129.984 80.13 129 79.8984L127.5 79.5984C127.005 79.4262 126.534 79.1909 126.1 78.8984L127.6 79.2985L129.1 79.5984L132 80.2985Z" fill="#386EE8"/>
<path d="M128.699 72C128.37 73.1309 128.477 74.3443 128.999 75.4C129.799 77 134.599 78 136.399 75.8C136.829 75.3388 137.122 74.7673 137.246 74.1492C137.369 73.5312 137.319 72.8909 137.099 72.3" fill="#386EE8"/>
<path d="M161.3 72.1992C161.3 72.1992 160.5 75.0992 162.7 76.4992C164.9 77.8992 169.6 75.8992 167.9 72.4992" fill="#386EE8"/>
<path d="M160.1 114C161.931 115.598 163.667 117.3 165.3 119.1C166.113 119.994 166.787 121.006 167.3 122.1C167.8 123.1 168.2 124.3 168.7 125.4C168.902 125.953 169.207 126.462 169.6 126.9C169.918 127.403 170.325 127.843 170.8 128.2C171.632 129.044 172.535 129.813 173.5 130.5C174.4 131.3 175.5 131.9 176.4 132.6C176.884 133.017 177.32 133.486 177.7 134C178.076 134.521 178.253 135.16 178.2 135.8C178.048 136.079 177.799 136.292 177.5 136.4C177.442 136.472 177.36 136.522 177.268 136.54C177.177 136.558 177.082 136.544 177 136.5L176.7 136.3H176.8L171.4 138.9L170.2 139.7L168.8 140.3L168.2 140.5C168 140.6 168 140.7 167.9 140.8L167.7 141.1L166.7 142.2C165.4 143.6 164 145.1 162.8 146.6C162.084 147.306 161.477 148.115 161 149C160.815 149.443 160.78 149.935 160.9 150.4L161.5 151.7C162.313 153.558 162.488 155.632 162 157.6C161.4 159.5 160.8 161.3 160.1 163.2L158.3 168.8C157.7 170.7 157.1 172.6 156.7 174.5C156.617 174.995 156.584 175.498 156.6 176C156.485 176.458 156.418 176.928 156.4 177.4C156.347 177.509 156.32 177.629 156.32 177.75C156.32 177.871 156.347 177.991 156.4 178.1C156.498 178.322 156.633 178.525 156.8 178.7C157.108 179.058 157.442 179.392 157.8 179.7L158.3 180.3C158.402 180.557 158.47 180.826 158.5 181.1C158.5 181.6 158.4 182.1 158.4 182.6V185.6C158.4 186.5 158.4 187.5 158.5 188.5C158.6 189.5 158.6 190.5 158.5 191.5C158.447 191.737 158.38 191.971 158.3 192.2L158 192.9L157.7 194.4L157.2 197.3C156.8 199.2 156.4 201.2 155.9 203.1C155.541 204.013 155.24 204.948 155 205.9C154.709 206.852 154.475 207.82 154.3 208.8C153.601 212.669 153.601 216.631 154.3 220.5C153.484 216.615 153.416 212.61 154.1 208.7C154.3 207.8 154.5 206.8 154.8 205.8C155.1 204.8 155.4 203.9 155.6 203C156.139 201.092 156.573 199.156 156.9 197.2L157.4 194.3L157.7 192.9L158 192.1C158.032 191.858 158.1 191.622 158.2 191.4C158.25 190.434 158.25 189.466 158.2 188.5C158.1 187.5 158.1 186.5 158.1 185.6V181.1C158.2 180.6 157.9 180.3 157.6 179.9L156.5 178.9C156.345 178.68 156.211 178.445 156.1 178.2C156 177.943 156 177.657 156.1 177.4C156.118 176.895 156.185 176.392 156.3 175.9C156.287 175.398 156.321 174.896 156.4 174.4C156.8 172.5 157.4 170.6 158 168.7C158.6 166.8 159.3 165 159.9 163.1C160.5 161.2 161.3 159.4 161.9 157.5C162.389 155.599 162.213 153.587 161.4 151.8L160.8 150.4C160.707 150.153 160.677 149.887 160.712 149.625C160.747 149.363 160.846 149.114 161 148.9C161.44 148.017 162.014 147.208 162.7 146.5C163.9 145 165.3 143.5 166.6 142.1L167.5 140.9L167.8 140.7C167.8 140.62 167.832 140.544 167.888 140.488C167.944 140.432 168.021 140.4 168.1 140.4C168.3 140.2 168.5 140.2 168.8 140.1C169.252 139.942 169.687 139.741 170.1 139.5L171.3 138.7L176.7 136.1H176.8L177.1 136.3H177.4C177.613 136.187 177.788 136.013 177.9 135.8C177.923 135.225 177.746 134.66 177.4 134.2C177.078 133.729 176.671 133.322 176.2 133C175.275 132.244 174.307 131.543 173.3 130.9L170.6 128.5C170.15 128.116 169.747 127.68 169.4 127.2C169.026 126.712 168.723 126.173 168.5 125.6C168 124.5 167.6 123.3 167.1 122.3C166.587 121.206 165.913 120.194 165.1 119.3C163.562 117.478 161.891 115.774 160.1 114.2V114Z" fill="#386EE8"/>
<path d="M159.199 115.398C160.633 116.298 161.859 117.491 162.799 118.898C163.699 120.298 164.499 121.798 165.299 123.298L168.099 127.498C169.135 128.801 170.387 129.917 171.799 130.798H171.699C172.173 130.894 172.619 131.1 172.999 131.398C173.212 131.511 173.387 131.685 173.499 131.898L173.799 132.598H173.599C174.077 132.612 174.535 132.789 174.899 133.098C175.217 133.348 175.488 133.653 175.699 133.998C176.174 134.695 176.514 135.476 176.699 136.298C176.434 135.519 176.064 134.779 175.599 134.098C175.349 133.78 175.044 133.509 174.699 133.298C174.567 133.169 174.411 133.067 174.239 132.998C174.068 132.93 173.884 132.896 173.699 132.898H173.499C173.499 132.698 173.299 132.498 173.199 132.298L172.799 131.798C172.436 131.554 172.028 131.384 171.599 131.298C170.18 130.345 168.93 129.162 167.899 127.798C166.899 126.398 166.099 124.998 165.199 123.498C164.299 121.998 163.399 120.698 162.599 119.298C161.655 117.904 160.51 116.657 159.199 115.598V115.398Z" fill="#386EE8"/>
<path d="M156.301 119.699C158.001 120.08 159.519 121.033 160.601 122.399C161.098 123.111 161.501 123.884 161.801 124.699C162.194 125.439 162.528 126.208 162.801 126.999C163.401 128.599 164.001 130.199 164.701 131.699C165.026 132.485 165.394 133.253 165.801 133.999L167.201 136.099C166.032 134.871 165.085 133.45 164.401 131.899C163.701 130.299 163.201 128.699 162.601 127.099C162.198 125.459 161.448 123.924 160.401 122.599C159.306 121.296 157.894 120.297 156.301 119.699Z" fill="#386EE8"/>
<path d="M173.701 132.698C172.076 133.616 170.565 134.724 169.201 135.998L167.101 137.698L166.001 138.598L165.501 138.998L165.101 139.598C164.101 141.098 162.901 142.598 161.801 143.998C160.701 145.398 159.401 146.798 158.301 148.298C157.771 149.042 157.335 149.848 157.001 150.698C156.839 151.111 156.77 151.555 156.801 151.998V153.398C156.967 155.226 157.034 157.062 157.001 158.898C157.017 160.772 156.883 162.645 156.601 164.498C156.33 166.316 155.963 168.118 155.501 169.898C154.973 171.674 154.539 173.476 154.201 175.298C153.985 176.18 153.917 177.093 154.001 177.998L154.201 180.798C154.501 184.398 154.801 188.098 154.801 191.798C154.819 192.732 154.786 193.667 154.701 194.598C154.601 195.598 154.401 196.498 154.301 197.398C154.201 198.298 153.601 200.998 153.301 202.798C152.654 206.428 152.352 210.111 152.401 213.798H152.301C152.215 210.114 152.483 206.43 153.101 202.798C153.303 200.95 153.604 199.114 154.001 197.298C154.101 196.398 154.301 195.498 154.401 194.598C154.501 193.698 154.501 192.798 154.501 191.798C154.501 188.198 154.201 184.498 153.901 180.798L153.701 177.998C153.652 177.054 153.753 176.109 154.001 175.198C154.328 173.407 154.762 171.637 155.301 169.898C156.378 166.331 156.917 162.623 156.901 158.898C156.898 157.06 156.798 155.224 156.601 153.398V151.998C156.574 151.522 156.642 151.047 156.801 150.598C157.112 149.737 157.551 148.929 158.101 148.198C159.201 146.698 160.401 145.298 161.601 143.798L164.901 139.498L165.301 138.898L165.901 138.398L167.001 137.498L169.101 135.798C170.528 134.586 172.068 133.514 173.701 132.598V132.698Z" fill="#386EE8"/>
<path d="M151.1 210.398C151.4 206.798 151.7 203.198 152.3 199.598C152.6 197.898 153 196.098 153.3 194.398C153.501 193.509 153.501 192.586 153.3 191.698L153.1 188.998L152.3 178.298C152.25 177.398 152.25 176.497 152.3 175.598C152.427 174.706 152.662 173.833 153 172.998C153.505 171.257 153.906 169.487 154.2 167.698C154.531 165.945 154.765 164.176 154.9 162.398C155.033 160.601 155.066 158.798 155 156.998C154.9 155.198 154.8 153.398 154.8 151.598C154.912 149.751 155.694 148.009 157 146.698L163.9 138.398C165.2 137.098 167 136.498 168.1 135.098L171.7 131.098H171.8L168.2 135.198C167.1 136.698 165.3 137.298 164 138.498L157.3 146.898C156.058 148.172 155.283 149.828 155.1 151.598C155.1 153.398 155.2 155.198 155.3 156.998V159.698C155.316 160.599 155.283 161.5 155.2 162.398C155 164.198 154.7 165.998 154.4 167.698L153.8 170.398C153.626 171.279 153.392 172.148 153.1 172.998C152.762 173.833 152.527 174.706 152.4 175.598C152.333 176.499 152.366 177.404 152.5 178.298L153.4 188.998L153.6 191.698V192.998C153.67 193.466 153.636 193.944 153.5 194.398C153.1 196.198 152.7 197.898 152.4 199.698C151.8 203.198 151.4 206.798 151.1 210.398Z" fill="#386EE8"/>
<path d="M117 131.5C117.096 131.541 117.177 131.612 117.23 131.702C117.284 131.791 117.309 131.896 117.3 132C117.38 132.189 117.415 132.395 117.4 132.6C117.4 132.9 117.5 133.3 117.5 133.7C117.517 134.437 117.584 135.172 117.7 135.9C117.796 136.638 118.034 137.351 118.4 138C118.694 138.653 119.028 139.288 119.4 139.9L121.8 143.7L123.2 145.5L123.9 146.3C124.107 146.647 124.275 147.016 124.4 147.4C124.9 148.8 125.3 150.2 125.7 151.7C126.038 153.148 126.272 154.618 126.4 156.1C126.517 157.586 126.89 159.04 127.5 160.4C128.115 161.746 128.585 163.154 128.9 164.6C128.1 161.8 126.2 159.2 126.1 156.1C125.9 154.7 125.7 153.2 125.4 151.7C125.1 150.2 124.7 148.8 124.2 147.4C124.11 147.051 123.976 146.715 123.8 146.4L123.1 145.6L121.7 143.8C120.8 142.6 120 141.3 119.2 140.1C118.288 138.866 117.703 137.421 117.5 135.9C117.384 135.172 117.317 134.437 117.3 133.7V132.6C117.315 132.395 117.28 132.189 117.2 132C117.2 131.9 117.2 131.6 117 131.6V131.5Z" fill="#386EE8"/>
<path d="M124.799 161.198C124.135 160.037 123.758 158.734 123.699 157.398C123.64 156.741 123.471 156.099 123.199 155.498C122.986 154.844 122.819 154.175 122.699 153.498C122.467 152.176 122.333 150.839 122.299 149.498V147.498C122.222 147.17 122.188 146.834 122.199 146.498C122.099 146.198 121.699 146.098 121.399 145.998C120.148 145.531 118.833 145.261 117.499 145.198C116.199 144.998 114.899 145.398 113.499 145.098C112.194 144.748 110.948 144.209 109.799 143.498L107.999 142.498C107.42 142.158 106.819 141.857 106.199 141.598C108.799 142.498 110.999 144.198 113.499 144.898C115.999 145.598 116.199 144.798 117.499 144.898C118.866 145.077 120.209 145.412 121.499 145.898L121.899 146.098C122.099 146.198 122.299 146.298 122.299 146.498C122.382 146.858 122.416 147.228 122.399 147.598C122.385 148.266 122.419 148.934 122.499 149.598C122.599 150.898 122.799 152.198 122.999 153.498L123.599 155.498C123.812 156.118 123.98 156.753 124.099 157.398C124.104 158.738 124.376 160.064 124.899 161.298L124.799 161.198Z" fill="#386EE8"/>
<path d="M107.5 154.199L113.3 156.999L116.3 158.099L119.4 158.899C120.461 159.093 121.5 159.394 122.5 159.799L124 160.299C124.537 160.522 124.991 160.906 125.3 161.399C125.651 161.816 126.054 162.186 126.5 162.499L127.8 163.399C128.248 163.71 128.652 164.08 129 164.499L129.3 165.299L129.7 165.999C131.018 167.669 132.419 169.271 133.9 170.799C134.675 171.572 135.228 172.539 135.5 173.599C135.7 174.599 136.2 175.599 136.5 176.599C138 180.599 139.7 184.599 141.4 188.499C143.1 192.399 145.1 196.199 147.1 200.099C148.1 201.999 149.1 203.899 149.9 205.799C150.403 206.79 150.805 207.828 151.1 208.899L152 211.899C152.3 212.999 152.7 213.999 152.9 214.999C153.108 216.047 153.375 217.082 153.7 218.099C154.432 220.144 154.968 222.253 155.3 224.399C155.617 228.692 155.683 232.999 155.5 237.299C155.5 235.099 155.5 232.999 155.4 230.799C155.3 228.599 155.3 226.499 155.1 224.399C154.78 222.273 154.21 220.191 153.4 218.199C153.028 217.196 152.76 216.157 152.6 215.099C152.4 214.099 152 213.099 151.7 211.999L150.8 208.999C150.51 207.973 150.143 206.97 149.7 205.999C148.8 203.999 147.8 202.099 146.8 200.199C144.8 196.399 142.9 192.599 141.2 188.599C139.5 184.599 137.9 180.699 136.4 176.699C135.5 174.699 135.4 172.399 133.8 170.899C132.239 169.418 130.801 167.813 129.5 166.099C129.33 165.889 129.195 165.653 129.1 165.399C128.9 165.099 128.9 164.899 128.7 164.699C128.413 164.261 128.039 163.886 127.6 163.599C127.144 163.334 126.709 163.033 126.3 162.699C125.878 162.358 125.477 161.99 125.1 161.599C124.799 161.162 124.384 160.816 123.9 160.599L122.4 159.999L119.4 159.099L116.3 158.299C115.229 158.004 114.191 157.602 113.2 157.099C111.3 156.299 109.4 155.299 107.5 154.299V154.199Z" fill="#386EE8"/>
<path d="M178.1 135.598L182.6 137.998C184.075 138.756 185.511 139.59 186.9 140.498C187.106 140.573 187.281 140.713 187.4 140.898L187.9 141.298L188.9 141.998L191 143.398L195.2 146.198L199.3 149.098C200.032 149.543 200.704 150.081 201.3 150.698C201.886 151.295 202.39 151.968 202.8 152.698C204.453 155.638 205.666 158.805 206.4 162.098C206.8 163.698 207 165.398 207.4 166.998C207.727 168.635 208.196 170.241 208.8 171.798C209.9 174.998 211.4 177.998 212.6 181.098C213.828 184.231 214.863 187.437 215.7 190.698L218.5 200.398L215.5 190.798C214.5 187.598 213.6 184.298 212.3 181.198C211 178.098 209.6 175.098 208.5 171.898C207.896 170.341 207.427 168.735 207.1 167.098C206.8 165.398 206.6 163.698 206.2 162.098C205.544 158.829 204.362 155.688 202.7 152.798C202.291 152.036 201.787 151.331 201.2 150.698C200.576 150.143 199.907 149.641 199.2 149.198C197.9 148.298 196.5 147.298 195 146.398L190.8 143.698C189.362 142.845 188.021 141.839 186.8 140.698L178.1 135.698V135.598Z" fill="#386EE8"/>
<path d="M200.001 150.397L198.101 151.097C197.391 151.242 196.754 151.631 196.301 152.197C195.93 152.775 195.596 153.376 195.301 153.997L194.901 154.897C194.701 155.197 194.601 155.597 194.301 155.797C194.601 155.197 194.701 154.497 195.001 153.797C195.308 153.17 195.713 152.596 196.201 152.097C196.74 151.585 197.345 151.148 198.001 150.797C198.628 150.512 199.312 150.375 200.001 150.397Z" fill="#386EE8"/>
<path d="M193.6 157.198C193.373 157.676 193.206 158.179 193.1 158.698C192.92 159.184 192.786 159.686 192.7 160.198C192.5 161.298 192.4 162.398 192.2 163.498C192 164.598 192 165.598 192 166.698C191.954 167.769 191.854 168.837 191.7 169.898L191 176.398C190.766 178.557 190.733 180.733 190.9 182.898L191.2 186.098V187.698L191.5 189.298L192.7 195.698C192.9 196.798 193.1 197.898 193.2 198.898C193.366 199.989 193.433 201.094 193.4 202.198C193.4 204.398 193.3 206.498 193.3 208.698C193.2 206.498 193.2 204.398 193.1 202.198C193.12 200.044 192.885 197.896 192.4 195.798L191.1 189.398C191.082 188.859 191.015 188.324 190.9 187.798V186.098C190.8 185.098 190.8 183.998 190.7 182.898C190.4 178.498 191.1 174.198 191.5 169.898C191.6 168.798 191.6 167.798 191.7 166.698C191.8 165.598 191.9 164.498 192 163.398C192.1 162.298 192.3 161.298 192.5 160.198C192.62 159.651 192.788 159.116 193 158.598C193.156 158.081 193.357 157.58 193.6 157.098V157.198Z" fill="#386EE8"/>
<path d="M163.5 145.898L169.2 151.798L170.6 153.298L171.2 154.198V154.498C171.2 154.472 171.19 154.446 171.171 154.428C171.152 154.409 171.127 154.398 171.1 154.398H171.2L171.6 154.098L174.7 151.298L176.2 149.898C176.458 149.691 176.693 149.456 176.9 149.198L177.2 148.898C177.2 148.698 177.3 148.598 177.2 148.398C177.176 147.736 177.005 147.087 176.7 146.498L176.1 145.798L175.2 145.298L171.8 142.898C171.252 142.45 170.749 141.947 170.3 141.398C169.922 140.853 169.486 140.351 169 139.898C169.587 140.272 170.068 140.788 170.4 141.398C170.867 141.908 171.406 142.346 172 142.698L175.4 144.998L176.3 145.498C176.609 145.732 176.85 146.042 177 146.398C177.305 147.029 177.508 147.704 177.6 148.398C177.6 148.598 177.5 148.798 177.5 148.998C177.5 149.198 177.2 149.298 177.1 149.398C176.893 149.656 176.658 149.891 176.4 150.098L174.8 151.498L171.7 154.198L171.3 154.498H171.1C171.1 154.398 171.1 154.398 171 154.298C170.872 153.979 170.704 153.676 170.5 153.398C170.059 152.907 169.592 152.44 169.1 151.998C167.072 150.089 165.169 148.051 163.4 145.898H163.5Z" fill="#386EE8"/>
<path d="M162.699 146.598C163.191 147.039 163.658 147.506 164.099 147.998C164.477 148.574 164.912 149.11 165.399 149.598C166.402 150.501 167.307 151.506 168.099 152.598C167.019 151.785 166.074 150.806 165.299 149.698C164.885 149.151 164.416 148.648 163.899 148.198C163.469 147.722 163.068 147.222 162.699 146.698V146.598Z" fill="#386EE8"/>
<path d="M177.299 148.097C177.398 147.957 177.538 147.853 177.7 147.799C177.862 147.745 178.037 147.744 178.199 147.797C178.507 147.822 178.794 147.965 178.999 148.197L179.599 148.897C179.599 149.097 179.699 149.197 179.699 149.497C179.699 149.797 179.399 149.697 179.299 149.797L176.499 152.097L173.799 154.397C173.342 154.818 172.839 155.187 172.299 155.497C172.24 155.569 172.158 155.618 172.067 155.637C171.976 155.655 171.881 155.641 171.799 155.597L171.399 155.397L171.099 154.997C171.099 154.797 170.999 154.697 171.099 154.497H171.199C171.099 154.597 171.199 154.697 171.199 154.797L171.499 155.197C171.593 155.288 171.718 155.34 171.849 155.34C171.98 155.34 172.106 155.288 172.199 155.197L173.599 154.097L176.399 151.897C177.39 151.205 178.296 150.399 179.099 149.497L179.399 149.297C179.404 149.242 179.397 149.188 179.38 149.136C179.363 149.085 179.335 149.037 179.299 148.997C179.192 148.726 179.02 148.486 178.799 148.297C178.637 148.062 178.39 147.899 178.11 147.843C177.83 147.787 177.539 147.842 177.299 147.997V148.097Z" fill="#386EE8"/>
<path d="M168.901 151.699C168.501 152.099 167.901 152.499 167.801 153.099V154.999C167.785 155.6 167.818 156.203 167.901 156.799V157.299L168.201 157.599L168.801 158.299C169.729 159.164 170.507 160.178 171.101 161.299L172.901 164.499C173.27 165.009 173.604 165.544 173.901 166.099L174.201 166.499H174.301C174.327 166.499 174.353 166.488 174.372 166.469C174.39 166.451 174.401 166.425 174.401 166.399L175.201 165.999L178.401 163.899L179.901 162.899C180.101 162.699 180.501 162.499 180.301 162.199C180.23 161.905 180.093 161.632 179.901 161.399L178.701 159.999L178.001 159.399C178.001 159.299 177.901 159.299 177.901 159.099C177.901 158.899 177.901 158.899 178.001 158.899L178.301 158.499C179.163 157.589 180.1 156.753 181.101 155.999L181.901 155.499L182.301 155.199C182.326 155.182 182.355 155.171 182.385 155.167C182.416 155.163 182.447 155.166 182.475 155.175C182.504 155.185 182.531 155.201 182.553 155.222C182.574 155.244 182.591 155.27 182.601 155.299H182.801L184.201 156.499L185.601 157.799C185.701 157.899 185.901 157.999 185.901 158.099L186.201 157.899L186.901 157.299C187.359 156.891 187.793 156.457 188.201 155.999L188.501 155.599H188.701C188.801 155.699 188.701 155.699 188.701 155.699L188.001 154.999L182.801 149.699C181.951 148.782 181.049 147.914 180.101 147.099C179.599 146.744 179.028 146.498 178.425 146.378C177.822 146.257 177.201 146.264 176.601 146.399C177.2 146.207 177.835 146.153 178.458 146.239C179.081 146.326 179.677 146.551 180.201 146.899C181.182 147.713 182.116 148.581 183.001 149.499L188.201 154.799L188.901 155.499H189.001V155.699H188.901C188.843 155.75 188.807 155.822 188.801 155.899L188.501 156.199L187.101 157.499L186.401 158.099L186.201 158.299H185.801C185.601 158.099 185.501 158.099 185.401 157.899L184.001 156.699C183.593 156.241 183.159 155.807 182.701 155.399H182.401L182.001 155.599L181.301 156.099C180.29 156.844 179.322 157.645 178.401 158.499L178.101 158.899H178.201L178.801 159.599L180.001 161.099C180.224 161.326 180.394 161.599 180.501 161.899V162.099C180.501 162.199 180.401 162.299 180.401 162.399L180.001 162.699L178.501 163.799L175.301 165.799L174.501 166.299C174.501 166.399 174.401 166.399 174.301 166.399C174.301 166.412 174.298 166.425 174.293 166.437C174.288 166.449 174.281 166.46 174.272 166.469C174.262 166.479 174.251 166.486 174.239 166.491C174.227 166.496 174.214 166.499 174.201 166.499H174.101C174.101 166.472 174.09 166.447 174.072 166.428C174.053 166.409 174.027 166.399 174.001 166.399L173.701 165.999L172.701 164.399L170.801 161.199C170.252 160.101 169.544 159.09 168.701 158.199L168.001 157.499L167.701 157.099V156.799C167.618 156.203 167.585 155.6 167.601 154.999C167.582 154.364 167.615 153.728 167.701 153.099C167.931 152.51 168.354 152.017 168.901 151.699Z" fill="#386EE8"/>
<path d="M169.3 152.198C169.155 152.264 169.027 152.361 168.923 152.482C168.819 152.603 168.743 152.745 168.7 152.898C168.649 153.229 168.649 153.566 168.7 153.898L169 155.798C169.1 155.998 169.1 156.198 169.2 156.298C169.227 156.447 169.297 156.586 169.4 156.698L170 157.498L171.3 159.098C172.16 160.144 172.898 161.285 173.5 162.498L174.4 164.398L174.8 165.298C175 165.498 175.1 165.898 175.4 165.998C175 165.998 174.9 165.598 174.7 165.298C174.477 165.07 174.307 164.797 174.2 164.498C173.829 163.919 173.495 163.318 173.2 162.698C172.593 161.498 171.925 160.33 171.2 159.198L170 157.598L169.3 156.798L169 156.398C168.9 156.198 168.8 156.098 168.8 155.898C168.602 155.249 168.501 154.575 168.5 153.898C168.451 153.533 168.451 153.163 168.5 152.798C168.664 152.468 168.952 152.217 169.3 152.098V152.198Z" fill="#386EE8"/>
<path d="M181.199 156L182.499 157C182.786 157.439 183.161 157.813 183.599 158.1L184.199 158.7L184.699 159.1C185.129 158.881 185.532 158.612 185.899 158.3C185.792 158.57 185.62 158.811 185.399 159C185.199 159.1 185.099 159.4 184.699 159.4L184.199 159.2L183.999 158.9L183.399 158.3C183.085 157.885 182.714 157.515 182.299 157.2C181.908 156.859 181.54 156.491 181.199 156.1V156Z" fill="#386EE8"/>
<path d="M91.9991 107.799C91.0846 107.789 90.197 108.108 89.4991 108.699C89.1811 109.008 88.9355 109.383 88.7799 109.798C88.6243 110.213 88.5625 110.657 88.5991 111.099C88.5506 112.9 89.0378 114.675 89.9991 116.199C90.9991 117.699 92.1991 119.099 93.1991 120.599C94.2939 122.071 95.1075 123.732 95.5991 125.499C95.8491 129.128 95.8491 132.77 95.5991 136.399C95.4991 138.199 95.3991 139.999 95.1991 141.799L94.8991 144.499L94.5991 145.799C94.4602 146.227 94.2579 146.631 93.9991 146.999C93.9827 147.336 94.0164 147.673 94.0991 147.999L94.3991 148.299L94.8991 148.499L96.4991 149.499L99.9991 151.299L101.799 152.099C102.07 152.253 102.369 152.349 102.679 152.384C102.988 152.418 103.301 152.389 103.599 152.299C103.878 152.167 104.123 151.971 104.313 151.728C104.504 151.485 104.636 151.202 104.699 150.899L104.999 148.999C105.399 146.399 105.699 143.799 105.999 141.199C106.299 138.599 103.699 137.399 102.199 135.299C100.553 133.249 99.1752 130.998 98.0991 128.599L94.6991 121.499C94.0991 120.399 93.4991 119.199 92.7991 118.099L90.7991 114.699C90.1589 113.549 89.7193 112.297 89.4991 110.999C89.4508 110.673 89.48 110.34 89.5842 110.028C89.6884 109.715 89.8648 109.431 90.0991 109.199C90.5417 108.708 91.1439 108.389 91.7991 108.299C91.1848 108.499 90.6096 108.803 90.0991 109.199C89.8997 109.451 89.7526 109.739 89.6668 110.049C89.5809 110.358 89.5579 110.681 89.5991 110.999C89.8557 112.271 90.3293 113.488 90.9991 114.599C91.6063 115.766 92.2739 116.901 92.9991 117.999C93.6991 119.099 94.2991 120.299 94.8991 121.399C95.4991 122.499 97.2991 126.099 98.3991 128.399C99.4778 130.775 100.819 133.022 102.399 135.099C103.293 136.013 104.263 136.849 105.299 137.599L106.099 138.299C106.352 138.572 106.494 138.928 106.499 139.299C106.399 139.999 106.399 140.599 106.299 141.299C106.099 143.899 105.699 146.399 105.299 148.999C105.214 149.675 105.08 150.343 104.899 150.999C104.699 151.499 104.399 152.299 103.699 152.499C103.032 152.692 102.315 152.621 101.699 152.299L99.8991 151.499L96.4991 149.599L94.7991 148.599L94.3991 148.399L93.9991 147.999C93.9164 147.673 93.8827 147.336 93.8991 146.999C94.1387 146.62 94.3397 146.218 94.4991 145.799C94.614 145.375 94.6811 144.939 94.6991 144.499C94.8813 143.607 95.0148 142.706 95.0991 141.799C95.1991 139.999 95.3991 138.199 95.3991 136.399C95.6663 132.803 95.6329 129.19 95.2991 125.599C94.8424 123.838 94.0625 122.176 92.9991 120.699C91.9991 119.199 90.7991 117.899 89.7991 116.299C88.884 114.719 88.4011 112.925 88.3991 111.099C88.3807 110.636 88.4602 110.173 88.6325 109.743C88.8048 109.312 89.066 108.922 89.3991 108.599C90.1874 108.108 91.076 107.801 91.9991 107.699V107.799Z" fill="#386EE8"/>
<path d="M96.0004 123.898C96.3748 124.895 96.6104 125.938 96.7004 126.998C96.8995 128.054 96.9999 129.125 97.0004 130.198V136.498C96.9004 138.598 96.8004 140.698 96.6004 142.798C96.4004 144.898 96.4004 144.898 96.2004 145.898C96.1257 146.425 95.9563 146.933 95.7004 147.398C95.6616 147.527 95.5973 147.646 95.5114 147.749C95.4255 147.852 95.3197 147.937 95.2004 147.998C94.9625 148.15 94.6817 148.22 94.4004 148.198C94.6004 148.098 94.9004 148.098 95.1004 147.898C95.3004 147.698 95.4004 147.598 95.6004 147.298C95.793 146.851 95.9275 146.38 96.0004 145.898L96.3004 142.698C96.4004 140.598 96.6004 138.598 96.8004 136.498C97.0004 134.398 96.9004 134.398 96.9004 133.298C96.9004 132.198 96.8004 131.198 96.7004 130.198C96.687 128.107 96.4184 126.025 95.9004 123.998L96.0004 123.898Z" fill="#386EE8"/>
<path d="M105.1 150.197L106.3 151.097L107 151.597C107.241 151.767 107.417 152.014 107.5 152.297C107.567 152.832 107.533 153.375 107.4 153.897L106.8 155.397C106.627 155.892 106.392 156.363 106.1 156.797C106.028 157.061 105.891 157.302 105.7 157.497V157.697C105.7 157.797 105.7 157.797 105.6 157.897H105.1C104.057 157.559 103.078 157.053 102.2 156.397H102.3L98.8996 160.197L98.0996 161.197L97.0996 161.997C96.9813 162.182 96.8056 162.322 96.5996 162.397C96.4996 162.497 96.4996 162.597 96.2996 162.597C96.0996 162.597 96.0996 162.597 95.9996 162.497L94.8996 161.897L92.7996 160.497H92.5996V157.997L91.9996 152.997H92.0996L90.7996 151.897L90.0996 151.397L89.8996 151.197H89.7996C89.7933 151.12 89.7575 151.049 89.6996 150.997C89.7152 150.824 89.6804 150.651 89.5996 150.497C89.6003 149.324 89.7006 148.153 89.8996 146.997V145.897L90.0996 145.697L90.3996 145.397L91.7996 144.297C92.836 143.721 94.0578 143.577 95.1996 143.897C94.6478 143.724 94.0637 143.679 93.4918 143.766C92.9199 143.852 92.3753 144.068 91.8996 144.397L90.4996 145.497C90.3996 145.697 90.0996 145.897 90.0996 146.097V146.997C89.9663 148.125 89.9328 149.263 89.9996 150.397V150.797H90.0996L90.2996 150.997L90.8996 151.497L92.2996 152.597H92.3996L92.7996 157.697L92.9996 158.997V159.897C93.0127 159.897 93.0257 159.9 93.0379 159.905C93.05 159.91 93.061 159.917 93.0703 159.927C93.0796 159.936 93.087 159.947 93.092 159.959C93.097 159.971 93.0996 159.984 93.0996 159.997L95.1996 161.397C95.5266 161.688 95.898 161.924 96.2996 162.097H96.4996C96.5996 161.997 96.6996 161.997 96.6996 161.897C96.9056 161.822 97.0813 161.682 97.1996 161.497C97.5748 161.287 97.9126 161.017 98.1996 160.697L98.9996 159.697L102.3 155.897H102.5C103.358 156.501 104.302 156.973 105.3 157.297H105.6C105.6 157.271 105.61 157.245 105.629 157.226C105.648 157.208 105.673 157.197 105.7 157.197V156.997C105.794 156.744 105.929 156.507 106.1 156.297C106.3 155.897 106.6 155.397 106.8 154.897L107.4 153.397C107.515 152.905 107.582 152.403 107.6 151.897C107.5 151.697 107.2 151.497 107.1 151.397L106.5 150.797L105.2 149.797L105.1 150.197Z" fill="#386EE8"/>
<path d="M104.199 152.098L105.299 152.698L105.799 153.098C105.799 153.124 105.81 153.15 105.829 153.168C105.847 153.187 105.873 153.198 105.899 153.198V153.398C105.899 153.498 105.899 153.498 105.799 153.598C105.699 153.698 105.699 153.798 105.699 153.898L104.999 154.898C104.887 155.111 104.713 155.285 104.499 155.398H103.799L99.2994 153.098C97.7289 152.462 96.2494 151.621 94.8994 150.598L92.8994 148.998C92.8994 148.898 92.7994 148.898 92.6994 148.798C92.6502 148.743 92.623 148.671 92.623 148.598C92.623 148.524 92.6502 148.453 92.6994 148.398C92.7184 148.166 92.8258 147.951 92.9994 147.798C93.0743 147.592 93.2149 147.416 93.3994 147.298C93.4994 147.198 93.7994 146.998 93.9994 147.098C93.5994 147.098 93.2994 147.598 93.0994 147.898C92.8994 148.198 92.8994 148.198 92.8994 148.398C92.8994 148.598 92.7994 148.598 92.8994 148.598C92.8994 148.651 92.9205 148.701 92.958 148.739C92.9955 148.776 93.0464 148.798 93.0994 148.798C93.6994 149.398 94.4994 149.798 95.0994 150.298C96.457 151.313 97.8951 152.216 99.3994 152.998C100.799 153.798 102.399 154.498 103.899 155.198H104.399L104.799 154.698C105.056 154.381 105.29 154.047 105.499 153.698V153.498C105.499 153.398 105.599 153.398 105.599 153.298L105.099 152.898L104.099 152.098H104.199Z" fill="#386EE8"/>
<path d="M91.9 144.399C91.5515 144.646 91.2473 144.951 91 145.299C90.9171 145.727 90.8835 146.163 90.9 146.599C90.8168 147.43 90.7834 148.265 90.8 149.099V149.799C90.7 149.899 91 149.999 91.1 150.199L92.2 150.899L93.3 151.599L93.6 152.899C93.9 154.599 94.1 156.299 94.3 157.999V158.699L94.6 159.099L95.6 159.899L97.7 161.299L95.5 159.999L94.4 159.199L94.2 158.999C94.1379 158.953 94.0875 158.892 94.0528 158.823C94.0181 158.753 94 158.677 94 158.599C94 158.399 93.9 158.199 93.9 157.999L93.4 152.799C93.3 152.399 93.3 151.899 93.2 151.599C92.873 151.309 92.5017 151.072 92.1 150.899L91 150.199L90.7 149.999C90.6 149.999 90.5 149.799 90.5 149.699V148.999C90.5 148.199 90.6 147.299 90.6 146.499C90.6519 146.024 90.7524 145.554 90.9 145.099C91.1743 144.775 91.4754 144.474 91.8 144.199L91.9 144.399Z" fill="#386EE8"/>
<path d="M104.5 152.297C104.7 152.297 104.6 152.497 104.6 152.597C104.6 152.697 104.5 152.897 104.5 152.997C104.429 153.261 104.291 153.502 104.1 153.697L103.7 154.297C103.617 154.408 103.513 154.502 103.392 154.571C103.272 154.639 103.138 154.682 103 154.697C103.2 154.597 103.3 154.297 103.5 154.097L103.8 153.497L104.2 152.897C104.3 152.797 104.4 152.697 104.4 152.597C104.4 152.497 104.6 152.397 104.5 152.297Z" fill="#386EE8"/>
<path d="M89.4004 150.9C89.5004 150.6 89.7004 150.5 90.0004 150.3C90.204 150.141 90.4452 150.038 90.7004 150C90.5543 150.248 90.3479 150.454 90.1004 150.6L89.4004 150.9Z" fill="#386EE8"/>
<path d="M91.8008 152.799C91.9008 152.499 92.2008 152.299 92.4008 152.099C92.6008 151.899 92.9008 151.699 93.2008 151.699C93.5008 151.699 92.8008 152.199 92.6008 152.399L91.8008 152.799Z" fill="#386EE8"/>
<path d="M92.5996 160.397C92.7498 160.041 92.9913 159.73 93.2996 159.497C93.5538 159.21 93.8589 158.973 94.1996 158.797C94.0239 159.138 93.7866 159.443 93.4996 159.697L93.0996 160.097L92.5996 160.397Z" fill="#386EE8"/>
<path d="M88.9992 109.2C87.8992 111.4 86.6992 113.5 85.4992 115.7L84.4992 117.2C84.4992 117.4 84.3992 117.5 84.3992 117.6C84.3836 117.773 84.4184 117.946 84.4992 118.1C84.5175 118.409 84.585 118.713 84.6992 119C85.0115 120.176 85.5185 121.291 86.1992 122.3C86.7769 123.375 87.599 124.3 88.5992 125C89.5392 125.79 90.4091 126.66 91.1992 127.6C92.8168 129.474 94.3195 131.444 95.6992 133.5C94.1992 131.5 92.5992 129.6 90.9992 127.8C90.2098 126.829 89.3401 125.925 88.3992 125.1C87.3727 124.387 86.5464 123.423 85.9992 122.3C85.4301 121.212 84.9615 120.074 84.5992 118.9L84.2992 118C84.2992 117.8 84.1992 117.7 84.1992 117.5C84.1992 117.422 84.2173 117.346 84.252 117.276C84.2867 117.207 84.3371 117.147 84.3992 117.1L85.1992 115.4L88.9992 109V109.2Z" fill="#386EE8"/>
<path d="M87.1005 112.3C86.7397 112.082 86.3216 111.977 85.9005 112C85.8656 111.962 85.8218 111.935 85.7732 111.919C85.7246 111.904 85.6728 111.901 85.6227 111.911C85.5727 111.921 85.526 111.943 85.4871 111.976C85.4482 112.009 85.4184 112.052 85.4005 112.1L85.1005 112.6C84.8005 113.3 84.5005 114.1 84.1005 114.9C83.7945 115.694 83.4267 116.463 83.0005 117.2C82.5029 117.916 81.8081 118.471 81.0005 118.8L79.9005 119.4C79.5005 119.5 79.1005 119.7 79.2005 120.2C79.3192 121.009 79.4862 121.81 79.7005 122.6C80.117 124.249 80.6861 125.856 81.4005 127.4C82.7514 130.439 84.4279 133.322 86.4005 136C88.2988 138.793 90.3695 141.465 92.6005 144C91.3879 142.806 90.2523 141.537 89.2005 140.2C88.1005 138.9 87.1005 137.5 86.1005 136.1C84.1002 133.386 82.4536 130.429 81.2005 127.3C80.5185 125.788 79.9827 124.214 79.6005 122.6C79.3178 121.788 79.1168 120.951 79.0005 120.1C78.9769 119.85 79.0483 119.6 79.2005 119.4L79.8006 119.1L80.9005 118.5C82.4005 117.8 83.2005 116.2 83.9005 114.7C84.6005 113.2 84.6005 113.2 85.0005 112.4C85.4005 111.6 85.1006 112 85.3006 111.9C85.5005 111.747 85.7504 111.676 86.0005 111.7L87.2005 112.2L87.1005 112.3Z" fill="#386EE8"/>
<path d="M79.0992 119.797C77.9637 120.091 76.8587 120.493 75.7992 120.997C75.2623 121.271 74.7589 121.607 74.2992 121.997L72.8992 123.097C71.0052 124.491 68.9587 125.665 66.7992 126.597C64.5876 127.545 62.316 128.347 59.9992 128.997C57.7992 129.797 55.4992 130.497 53.1992 131.097L46.2992 132.697C43.9959 133.286 41.7528 134.09 39.5992 135.097C38.6324 135.744 37.7284 136.481 36.8992 137.297C35.9992 138.097 35.1992 138.997 34.3992 139.797C33.5788 140.685 32.8108 141.62 32.0992 142.597C31.9443 142.817 31.8103 143.052 31.6992 143.297C31.5558 143.545 31.4544 143.815 31.3992 144.097C31.1992 144.697 30.8992 145.197 30.6992 145.797C28.5992 150.097 26.3992 154.297 24.2992 158.497L20.9992 164.797C20.4062 165.833 19.8721 166.901 19.3992 167.997L18.4992 169.497C18.4992 169.697 18.3992 169.797 18.3992 169.897L18.1992 170.297L17.8992 171.197L7.19922 197.497L5.69922 227.297L6.79921 197.497L17.5992 171.197L17.8992 170.397V170.197C17.8992 170.097 17.9992 169.997 17.9992 169.897C18.0265 169.747 18.0959 169.608 18.1992 169.497L18.9992 167.897L20.6992 164.797L23.9992 158.497C26.1992 154.297 28.3992 150.097 30.4992 145.797L31.1992 144.197C31.2539 143.884 31.355 143.58 31.4992 143.297L31.8992 142.597C32.6108 141.62 33.3788 140.685 34.1992 139.797L36.6992 137.297C37.5044 136.425 38.4108 135.653 39.3992 134.997C43.6992 132.797 48.4992 132.197 52.9992 130.897L59.8992 128.897C62.0992 128.197 64.3992 127.497 66.5992 126.597C68.7391 125.627 70.7816 124.455 72.6992 123.097L74.0992 121.997L75.5992 120.997C76.6992 120.497 77.8992 120.197 78.9992 119.797H79.0992Z" fill="#386EE8"/>
<path d="M155.4 1.49844H155.7C155.8 1.59844 159.5 10.7984 159.5 10.7984C162.705 12.8431 165.572 15.3733 168 18.2984C171.7 22.7984 176.6 29.7984 177.9 36.5984C179.2 43.3984 179.9 46.0985 178.4 54.6985C176.9 63.2985 175.2 65.0984 175.2 65.0984H175.6C175.917 65.1175 176.226 65.2084 176.504 65.3643C176.781 65.5203 177.019 65.7371 177.2 65.9984C178.4 67.2984 179 74.7984 178.6 78.9984C178.2 83.1984 176.7 86.0984 175 87.2984C174.145 88.0105 173.104 88.4617 172 88.5984L171.1 88.3984C171.1 88.3984 170.5 91.8985 167.1 99.1985C163.7 106.498 162.4 110.598 160.1 113.798H160C160 113.798 161.3 114.898 163.3 116.998C165.3 119.098 166.3 120.098 166.8 121.198C167.3 122.298 168.8 126.098 169.4 126.698C170.422 127.873 171.525 128.976 172.7 129.998C174 130.898 176.4 132.298 177.2 133.298C177.678 133.899 177.958 134.632 178 135.398L181.7 137.398C183.6 138.383 185.437 139.485 187.2 140.698L189.8 142.698L200.2 149.598C201.767 150.782 202.977 152.373 203.7 154.198C204.801 156.566 205.64 159.048 206.2 161.598C206.5 163.098 207.1 166.498 208 169.698C208.9 172.898 211.3 177.998 212.7 181.798C214.1 185.598 219.5 203.498 219.5 203.498C226.21 226.929 231.157 250.829 234.3 274.998L1 282.798C1 282.798 5.50001 238.098 5.90001 224.998C6.30001 211.898 6.80001 197.898 6.90001 197.398C7.00001 196.898 8.90001 192.898 9.70001 190.598C10.5 188.298 17.5 170.698 18.3 169.298C19.1 167.898 26 154.598 28.1 150.698C30.2 146.798 30.9 144.898 31.2 144.198C31.3465 143.454 31.6921 142.763 32.2 142.198C33.8374 140.151 35.6079 138.213 37.5 136.398C39.1 134.798 40.4 134.198 43.6 133.198C46.8 132.198 59.2 129.498 65.3 126.898C71.4 124.298 73.2 122.698 74.2 121.798C74.9675 121.196 75.8074 120.692 76.7 120.298L79.2 119.498C79.2 119.498 79.4 119.198 80.3 118.898C81.8626 118.111 83.1007 116.802 83.8 115.198C84.5 113.398 85.1 111.898 85.4 111.798H85.7C86.251 111.847 86.7908 111.982 87.3 112.198L89 109.198C89.3876 108.571 89.9928 108.108 90.7 107.898L91.8 107.698H91.9C91.9 107.698 93.1 101.698 93.4 100.498C93.7 99.2984 94.1 98.7984 95.5 97.5984C96.9 96.3984 101.5 92.4984 101.5 92.4984L100.6 89.8984C99.0932 90.5247 97.5145 90.9614 95.9 91.1985L93.6 91.3984C92.2 91.3984 90.9 90.8984 88.4 88.9984C85.9 87.0984 83.3 78.5984 83.1 77.7984C82.9 76.9984 82.3 70.9984 83.7 68.2984C84.4966 66.9208 85.3644 65.5857 86.3 64.2984C86.4 63.9984 77.1 33.8984 77.1 33.4984C77.0711 33.0294 77.1048 32.5586 77.2 32.0984C76.4768 30.3313 75.8427 28.5291 75.3 26.6984C74.7 24.0984 73.3 18.9984 73 15.3984C72.8186 13.2368 72.7518 11.0671 72.8 8.89844C72.9 8.69844 73.6 8.59842 74 8.59842H74.5L81 26.5984L82.5 26.3984H82.6C82.9 26.3984 87.8 39.0984 87.8 39.0984C87.8 39.0984 88.8 35.3984 89.3 33.9984C89.8 32.5984 92.8 25.5984 97.5 20.8984C102.2 16.1984 106.3 14.6984 106.3 14.6984C106.3 14.6984 111.3 10.0984 120.7 7.29843C126.109 5.61534 131.736 4.73924 137.4 4.69843H140.8C143.7 5.09843 144.3 5.99844 144.3 5.99844L144.6 6.19843L153.8 8.59842C153.8 8.59842 153.7 6.99844 153.7 6.39844C153.7 5.79844 153.6 2.19843 154.2 1.69843C154.571 1.4912 154.979 1.35553 155.4 1.29843V1.49844ZM155.4 0.398438C154.766 0.398941 154.144 0.571764 153.6 0.898438C152.4 1.79844 152.7 6.39844 152.7 6.49844V7.29843L145 5.29843C144.6 4.89843 143.6 4.09843 140.9 3.79843L137.4 3.59842C131.637 3.63725 125.911 4.51307 120.4 6.19843C111.7 8.89843 106.7 12.8984 105.8 13.6984C102.43 15.2564 99.3781 17.4265 96.8 20.0984C91.4 25.5984 88.4 33.4984 88.3 33.5984C88.2 33.6984 87.9 34.9984 87.6 35.8984C83.6 25.4984 83.5 25.4984 82.9 25.2984H81.7C75.5 8.09843 75.4 7.99843 75.2 7.79843C75.0454 7.64226 74.8562 7.52466 74.6478 7.45517C74.4393 7.38568 74.2174 7.36626 74 7.39844C73.4 7.39844 72.2 7.49843 71.9 8.29843C71.7351 10.6326 71.8021 12.9774 72.1 15.2984C72.5736 19.1517 73.3425 22.9629 74.4 26.6984C74.8877 28.5013 75.4889 30.2715 76.2 31.9984C76.0712 32.5215 76.0373 33.0634 76.1 33.5984C76.1 33.6984 76.4 34.5985 78.1 40.1985L85.3 63.8984C85.2 63.9984 85.2 63.9984 85.2 64.0984C84.2683 65.2052 83.4633 66.4127 82.8 67.6985C81.3 70.6985 82 77.0984 82.2 77.8984C82.2052 78.0372 82.2393 78.1735 82.3 78.2984C83.5 83.8984 85.4 87.6984 87.8 89.5984C90.2 91.4984 91.9 92.1985 93.6 92.1985L95.8 91.9984H96C97.3556 91.7614 98.6924 91.4272 100 90.9984L100.3 91.9984C99.1 92.9984 95.9 95.5985 94.8 96.6985H94.7C93.4 97.8985 92.7 98.5984 92.4 99.9984C92.1 101.398 91.4 104.898 91 106.498H90.4C89.3617 106.934 88.5359 107.76 88.1 108.798L86.8 111.098L85.7 110.898L84.9 111.098C84.7 111.198 84.1 111.498 82.9 115.098C82.2889 116.448 81.2286 117.543 79.9 118.198C79.4801 118.356 79.0779 118.557 78.7 118.798L76.3 119.598C75.2933 119.927 74.3714 120.473 73.6 121.198H73.5C72.5 121.998 70.6 123.498 64.9 125.998C60.7 127.798 53.6 129.598 48.4 130.898C46.1 131.498 44.3 131.898 43.3 132.298C40 133.298 38.6 133.898 36.8 135.698C35 137.498 32.1 140.598 31.4 141.598C30.9709 142.177 30.6336 142.817 30.4 143.498C30.4 143.598 30.3 143.698 30.3 143.898C30.3 144.098 29.5 145.698 27.2 150.298L17.5 168.898C16.6 170.298 9.6 187.898 8.8 190.198C8 192.498 7.6 193.098 7 194.398C6.5794 195.298 6.24458 196.236 6 197.198C5.8 197.898 5.20001 214.398 4.90001 224.998C4.50001 237.898 0.1 282.298 0 282.698V283.898H1.10001L234.5 276.098H235.5V274.998C232.314 250.771 227.368 226.807 220.7 203.298C220.4 202.598 215.2 185.298 213.8 181.498C213.3 179.998 212.6 178.298 211.9 176.598C211.2 174.898 209.7 171.498 209.1 169.598C208.5 167.698 208 164.598 207.6 162.798C207.59 162.358 207.522 161.921 207.4 161.498C206.835 158.872 205.962 156.321 204.8 153.898C203.958 151.948 202.653 150.232 201 148.898L195.2 144.998L190.5 141.898L188.1 140.098C187.4 139.498 184.1 137.698 182.3 136.698L179.1 134.998C178.966 134.238 178.658 133.52 178.2 132.898C177.235 131.9 176.122 131.057 174.9 130.398L173.5 129.398C172.6 128.698 171.5 127.398 170.7 126.698L170.3 126.198C170 125.898 169.4 124.198 168.9 123.298C168.633 122.472 168.299 121.67 167.9 120.898C166.895 119.282 165.685 117.803 164.3 116.498C163.1 115.198 162.1 114.398 161.5 113.798C163 111.698 164.1 108.998 165.6 105.498L168.2 99.6985C169.748 96.4789 171.019 93.1335 172 89.6985H172.2C173.525 89.5787 174.782 89.0552 175.8 88.1985C177.9 86.6985 179.4 83.3985 179.8 79.1985C180.2 74.9985 179.7 67.1984 178.1 65.3984L177 64.4984C178.272 61.4569 179.146 58.2638 179.6 54.9984C181 46.6984 180.4 43.5984 179.3 37.5984L179.1 36.4984C178 30.9984 174.6 24.6984 169 17.6984C166.549 14.824 163.684 12.3301 160.5 10.2984C159.9 8.69843 156.9 1.39843 156.8 1.19843C156.683 0.990271 156.505 0.821957 156.292 0.715057C156.078 0.608158 155.837 0.567538 155.6 0.598419L155.4 0.398438Z" fill="url(#paint0_linear_371_1789)"/>
<defs>
<linearGradient id="paint0_linear_371_1789" x1="117.75" y1="0.398437" x2="117.75" y2="275.5" gradientUnits="userSpaceOnUse">
<stop stop-color="#5794FF"/>
<stop offset="1" stop-color="#5794FF" stop-opacity="0"/>
</linearGradient>
</defs>
</svg>
